<svg width="1115" height="1080" viewBox="0 0 1115 1080" fill="none" xmlns="http://www.w3.org/2000/svg">
<g style="mix-blend-mode:color-dodge" opacity="0.24">
<mask id="mask0_144_4359" style="mask-type:alpha" maskUnits="userSpaceOnUse" x="-708" y="-742" width="1541" height="1540">
<path d="M176.63 485.282C132.901 450.389 78.7588 459.99 21.398 470.016C-39.3296 480.723 -102.072 491.75 -162.312 454.965C-252.519 399.819 -260.686 280.118 -268.468 164.297C-275.89 54.9702 -283.526 -58.1377 -358.992 -118.016C-426.755 -171.839 -538.582 -173.2 -692.172 -122.713C-700.951 -78.8734 -705.843 -34.0436 -706.823 11.3351C-684.521 1.8331 -663.493 -5.66294 -644.11 -10.9097C-587.459 -26.0322 -543.289 -22.5428 -510.958 -0.757271C-466.872 28.9703 -463.603 78.8635 -459.493 141.93C-455.224 207.488 -449.895 289.202 -393.797 375.252C-389.29 382.087 -281.854 544.232 -103.498 576.644C-50.742 586.242 -7.67136 581.552 26.9258 577.676C69.9107 572.936 103.832 569.24 132.117 594.857C169.065 628.228 175.589 694.633 152.002 792.54C175.092 789.78 198.236 786.136 221.325 781.204C248.533 630.189 233.684 530.739 176.63 485.282Z" fill="url(#paint0_radial_144_4359)"/>
<path d="M196.272 -361.688C209.551 -313.091 256.695 -288.453 311.319 -259.945C376.642 -225.82 450.694 -187.218 489.513 -96.9909C517.803 -31.2545 510.771 23.9956 504.582 72.6475C498.6 119.362 493.448 159.698 520.384 199.508C560.308 258.373 651.189 284.878 790.903 278.94C806.388 234.179 817.622 187.874 824.614 140.6C716.297 136.926 651.286 111.554 626.783 63.78C608.224 27.6728 620.113 -7.51008 632.528 -44.7888C645.353 -82.9734 658.614 -122.506 642.785 -169.263C623.497 -226.25 573.629 -253.493 529.551 -277.501C489.941 -299.154 452.558 -319.519 445.586 -358.067C436.489 -408.36 482.793 -467.068 586.263 -536.258C530.725 -587.696 467.926 -630.533 400.192 -663.652C244.683 -537.699 175.883 -436.341 196.272 -361.688Z" fill="url(#paint1_radial_144_4359)"/>
<path d="M459.703 -360.531C465.445 -328.752 498.359 -310.743 536.428 -289.982C582.733 -264.685 635.135 -236.091 656.274 -173.805C673.688 -122.474 658.982 -78.8622 646.045 -40.2854C634.03 -4.48957 623.684 26.443 639.374 57.2331C661.178 99.7886 723.98 122.855 826.418 126.215C838.877 29.7582 833.227 -70.772 806.559 -170.544C768.978 -311.143 694.745 -432.254 596.966 -526.296C497.82 -460.434 451.619 -404.866 459.703 -360.531Z" fill="url(#paint2_radial_144_4359)"/>
<path d="M-15.747 721.232C-35.2954 705.81 -65.3633 700.077 -98.2738 705.387C-132.892 711.079 -166.486 727.651 -195.902 752.811C-127.902 777.169 -56.2204 791.999 17.2942 796.345C15.0027 769.075 6.75976 739.049 -15.747 721.232Z" fill="url(#paint3_radial_144_4359)"/>
<path d="M122.513 605.532C99.0169 584.285 69.3821 587.488 28.4479 592.043C-7.08221 595.951 -51.2705 600.795 -106.087 590.805C-290.452 557.318 -401.176 390.185 -405.805 383.165C-463.888 294.024 -469.317 210.309 -473.75 143.056C-477.646 83.771 -480.66 36.9964 -518.911 11.2151C-558.655 -15.5438 -621.725 -10.0774 -707.075 27.1901C-707.069 71.6536 -703.149 116.666 -695.154 161.749C-651.456 159.136 -599.725 165.17 -556.752 196.425C-475.097 255.882 -439.935 399.083 -501.666 551.275C-420.924 638.205 -321.191 705.147 -211.081 747.232C-183.433 721.964 -151.846 704.117 -118.721 695.275C-112.637 693.651 -106.616 692.333 -100.572 691.371C-63.7178 685.372 -29.6781 692.145 -7.00002 710.062C20.0793 731.439 29.3887 766.539 31.7724 797.405C66.5392 798.77 101.589 797.669 136.871 794.189C160.811 699.23 156.052 635.903 122.513 605.532Z" fill="url(#paint4_radial_144_4359)"/>
<path d="M68.1786 -386.516C88.9699 -333.117 121.136 -307.884 158.339 -278.709C195.542 -249.534 237.61 -216.516 273.266 -148.69C326.123 -47.9434 318.081 39.2957 310.975 116.219C304.922 181.636 299.626 238.233 332.294 290.272C385.818 375.632 521.423 412.577 736.386 400.673C755.501 366.24 771.96 330.272 785.565 293.11C643.867 298.13 550.763 269.538 508.647 207.348C478.652 163.141 484.392 118.23 490.513 70.6819C496.459 23.8327 503.322 -29.3442 476.499 -91.489C439.657 -177.03 368.017 -214.465 304.799 -247.487C249.576 -276.341 197.4 -303.547 182.531 -358.093C160.467 -438.744 227.223 -541.511 385.94 -670.638C308.486 -706.521 224.891 -729.613 138.375 -738.165C56.0036 -596.54 32.3514 -478.556 68.1786 -386.516Z" fill="url(#paint5_radial_144_4359)"/>
<path d="M30.8764 -53.7867C96.5602 -100.143 20.3977 -365.578 -154.897 -710.064C-190.153 -699.711 -224.217 -687.069 -256.821 -672.21C-186.489 -556.213 -84.0513 -369.415 -128.74 -331.488C-177.127 -290.327 -370.738 -448.37 -466.167 -531.451C-490.909 -508.046 -513.892 -482.937 -535.175 -456.616C-261.717 -168.388 -35.5464 -6.94313 30.8764 -53.7867Z" fill="url(#paint6_radial_144_4359)"/>
<path d="M-350.159 -129.136C-269.741 -65.3657 -261.901 50.9466 -254.225 163.392C-246.266 280.687 -238.803 391.523 -154.836 442.831C-99.2584 476.805 -39.1574 466.193 18.9651 456.037C79.5574 445.366 136.833 435.291 185.463 474.161C245.939 522.398 262.85 624.412 236.243 777.946C244.698 775.979 253.189 774.147 261.621 771.823C466.319 717.18 629.519 585.047 728.223 415.381C512.678 425.92 375.71 386.587 320.164 298C284.952 241.861 290.728 180.284 296.682 115.038C303.581 40.053 311.489 -44.9779 260.577 -141.971C226.356 -207.138 187.295 -237.845 149.456 -267.502C112.168 -296.727 76.9945 -324.271 54.7858 -381.347C17.7579 -476.253 40.6109 -596.414 122.535 -739.44C37.8496 -746.019 -49.3115 -738.828 -135.977 -715.694C-137.735 -715.224 -139.321 -714.656 -141.079 -714.187C3.85207 -428.293 126.997 -104.14 38.9923 -42.1208C-49.6163 20.3493 -316.603 -205.733 -544.278 -445.423C-614.283 -355.62 -663.829 -250.784 -688.8 -138.821C-673.789 -143.625 -659.025 -148 -644.693 -151.826C-512.378 -187.074 -413.692 -179.598 -350.159 -129.136Z" fill="url(#paint7_radial_144_4359)"/>
<path d="M-358.991 -118.015C-283.526 -58.1375 -275.89 54.9704 -268.468 164.297C-260.637 280.033 -252.519 399.819 -162.312 454.966C-102.158 491.701 -39.3295 480.723 21.398 470.016C78.6732 459.941 132.902 450.39 176.63 485.282C233.684 530.739 248.619 630.239 221.311 781.425C226.301 780.31 231.339 779.11 236.378 777.91C263.035 624.291 246.075 522.362 185.598 474.125C136.833 435.291 79.607 445.28 19.1004 456.001C-39.0717 466.243 -99.1233 476.77 -154.701 442.795C-238.668 391.487 -246.131 280.65 -254.09 163.356C-261.68 50.9599 -269.52 -65.3521 -350.023 -129.172C-413.557 -179.634 -512.243 -187.11 -644.522 -151.727C-658.854 -147.901 -673.482 -143.562 -688.629 -138.722C-689.798 -133.34 -691.053 -128.008 -692.086 -122.663C-538.631 -173.114 -426.805 -171.753 -358.991 -118.015Z" fill="#071630"/>
<path d="M132.067 594.943C103.782 569.326 69.8115 573.107 26.8761 577.761C-7.67147 581.552 -50.7916 586.328 -103.548 576.73C-281.904 544.318 -389.34 382.173 -393.846 375.337C-449.859 289.338 -455.188 207.623 -459.543 142.015C-463.689 78.8138 -467.007 29.0063 -511.008 -0.671685C-543.424 -22.5067 -587.509 -25.9466 -644.159 -10.8242C-663.493 -5.66307 -684.521 1.83311 -706.872 11.4207C-706.973 16.7342 -707.11 21.9124 -707.075 27.1898C-621.725 -10.0778 -558.606 -15.6297 -518.911 11.2148C-480.66 36.9961 -477.56 83.8202 -473.75 143.056C-469.317 210.308 -463.888 294.024 -405.805 383.164C-401.226 390.27 -290.452 557.317 -106.087 590.805C-51.2703 600.794 -7.08204 595.951 28.4481 592.043C69.3822 587.488 99.0171 584.285 122.513 605.532C156.052 635.902 160.811 699.23 136.957 794.238C141.906 793.786 146.904 793.249 151.903 792.711C175.539 694.719 168.966 628.4 132.067 594.943Z" fill="#071630"/>
<path d="M-6.91416 710.111C-29.5922 692.194 -63.7176 685.371 -100.486 691.42C-106.58 692.468 -112.686 693.736 -118.635 695.324C-151.625 704.13 -183.262 722.062 -210.996 747.281C-205.924 749.186 -200.901 751.176 -195.865 752.946C-166.45 727.786 -132.807 711.128 -98.2379 705.521C-65.413 700.163 -35.3449 705.896 -15.7108 721.366C6.84544 739.099 15.0387 769.21 17.4159 796.529C22.2751 796.825 27.0353 797.293 31.944 797.503C29.5242 766.502 20.2146 731.402 -6.91416 710.111Z" fill="#071630"/>
<path d="M54.8714 -381.298C77.1296 -324.307 112.254 -296.677 149.542 -267.453C187.381 -237.795 226.491 -207.174 260.663 -141.922C311.575 -44.9284 303.667 40.1025 296.767 115.087C290.728 180.284 285.038 241.91 320.25 298.05C375.746 386.722 512.763 425.969 728.309 415.431C731.083 410.635 733.685 405.739 736.373 400.894C521.41 412.798 385.805 375.854 332.281 290.493C299.613 238.454 304.909 181.857 310.962 116.44C318.068 39.517 326.11 -47.7222 273.253 -148.469C237.647 -216.38 195.492 -249.448 158.326 -278.488C121.123 -307.663 88.9569 -332.896 68.1656 -386.295C32.3383 -478.335 55.9905 -596.319 138.312 -737.858C133.11 -738.352 127.859 -738.761 122.522 -739.219C40.6967 -596.364 17.893 -476.289 54.8714 -381.298Z" fill="#071630"/>
<path d="M182.567 -357.957C197.522 -303.362 249.612 -276.206 304.835 -247.351C368.053 -214.33 439.657 -177.03 476.535 -91.3536C503.308 -29.123 496.496 23.9682 490.55 70.8174C484.428 118.365 478.688 163.276 508.683 207.484C550.8 269.674 643.904 298.265 785.602 293.246C787.357 288.432 789.283 283.717 790.953 278.854C651.324 284.842 560.358 258.287 520.434 199.422C493.448 159.698 498.65 119.276 504.632 72.5621C510.821 23.9101 517.938 -31.2905 489.563 -97.0764C450.744 -187.304 376.692 -225.906 311.369 -260.03C256.745 -288.538 209.515 -313.226 196.322 -361.774C175.933 -436.427 244.732 -537.784 400.277 -663.602C395.453 -665.935 390.764 -668.304 385.89 -670.552C227.26 -541.376 160.503 -438.608 182.567 -357.957Z" fill="#071630"/>
<path d="M445.672 -358.017C452.645 -319.469 490.027 -299.104 529.637 -277.452C573.63 -253.493 623.498 -226.25 642.871 -169.213C658.701 -122.456 645.489 -83.0093 632.614 -44.7391C620.114 -7.50992 608.31 27.7227 626.87 63.8299C651.372 111.603 716.433 136.891 824.7 140.65C825.387 135.905 826.074 131.159 826.626 126.449C724.187 123.089 661.349 99.8876 639.582 57.4673C623.757 26.7133 634.188 -4.16972 646.252 -40.0512C659.19 -78.628 673.81 -122.289 656.481 -173.571C635.343 -235.857 582.941 -264.451 536.635 -289.748C498.567 -310.509 465.653 -328.517 459.91 -360.297C451.826 -404.632 498.114 -460.15 597.344 -525.963C593.827 -529.369 590.21 -532.604 586.507 -535.888C482.879 -467.019 436.526 -408.224 445.672 -358.017Z" fill="#071630"/>
<path d="M39.1274 -42.1571C127.083 -104.091 3.93791 -428.244 -140.943 -714.223C-145.59 -712.91 -150.151 -711.548 -154.761 -710.1C20.5334 -365.614 96.6463 -100.094 31.0121 -53.8228C-35.4107 -6.97917 -261.582 -168.424 -535.04 -456.652C-538.103 -452.937 -541.08 -449.174 -544.057 -445.41C-316.468 -205.769 -49.567 20.2634 39.1274 -42.1571Z" fill="#071630"/>
</mask>
<g mask="url(#mask0_144_4359)">
<g filter="url(#filter0_f_144_4359)">
<path d="M143.534 624.792C99.8061 589.899 45.6634 599.5 -11.6974 609.526C-72.4249 620.233 -135.167 631.26 -195.408 594.475C-285.615 539.329 -293.782 419.628 -301.563 303.807C-308.985 194.48 -316.621 81.3721 -392.087 21.4942C-459.851 -32.3287 -571.677 -33.6899 -725.268 16.797C-734.046 60.6365 -738.939 105.466 -739.918 150.845C-717.616 141.343 -696.589 133.847 -677.205 128.6C-620.555 113.478 -576.384 116.967 -544.053 138.753C-499.967 168.48 -496.698 218.373 -492.588 281.439C-488.319 346.998 -482.991 428.712 -426.892 514.762C-422.385 521.597 -314.949 683.742 -136.594 716.154C-83.8374 725.752 -40.7667 721.062 -6.16963 717.185C36.8153 712.446 70.7364 708.75 99.0215 734.367C135.97 767.738 142.493 834.143 118.907 932.05C141.997 929.289 165.14 925.646 188.229 920.714C215.437 769.699 200.588 670.249 143.534 624.792Z" fill="url(#paint8_radial_144_4359)"/>
<path d="M163.177 -222.178C176.456 -173.581 223.6 -148.943 278.223 -120.435C343.547 -86.3102 417.599 -47.7083 456.418 42.5192C484.707 108.256 477.675 163.506 471.487 212.158C465.505 258.872 460.352 299.208 487.289 339.018C527.213 397.883 618.093 424.388 757.808 418.45C773.293 373.689 784.527 327.384 791.518 280.111C683.202 276.436 618.19 251.064 593.688 203.29C575.129 167.183 587.018 132 599.433 94.7213C612.258 56.5366 625.519 17.0043 609.69 -29.7532C590.402 -86.74 540.534 -113.983 496.456 -137.991C456.846 -159.644 419.463 -180.008 412.491 -218.557C403.394 -268.85 449.697 -327.558 553.168 -396.748C497.63 -448.186 434.83 -491.023 367.096 -524.142C211.587 -398.189 142.788 -296.831 163.177 -222.178Z" fill="url(#paint9_radial_144_4359)"/>
<path d="M426.607 -221.021C432.35 -189.242 465.264 -171.233 503.332 -150.472C549.638 -125.175 602.04 -96.5812 623.178 -34.295C640.592 17.0363 625.887 60.6477 612.949 99.2245C600.934 135.02 590.589 165.953 606.279 196.743C628.082 239.298 690.884 262.364 793.323 265.725C805.782 169.268 800.131 68.7379 773.464 -31.0337C735.883 -171.633 661.649 -292.744 563.87 -386.786C464.725 -320.924 418.523 -265.356 426.607 -221.021Z" fill="url(#paint10_radial_144_4359)"/>
<path d="M-48.8423 860.742C-68.3908 845.321 -98.4587 839.588 -131.369 844.897C-165.988 850.589 -199.582 867.161 -228.997 892.321C-160.997 916.679 -89.3157 931.509 -15.8011 935.855C-18.0927 908.586 -26.3356 878.559 -48.8423 860.742Z" fill="url(#paint11_radial_144_4359)"/>
<path d="M89.4174 745.042C65.9217 723.795 36.2868 726.999 -4.64735 731.553C-40.1774 735.461 -84.3657 740.305 -139.182 730.315C-323.547 696.828 -434.272 529.695 -438.9 522.675C-496.984 433.534 -502.412 349.819 -506.845 282.566C-510.741 223.281 -513.755 176.506 -552.007 150.725C-591.75 123.966 -654.82 129.433 -740.171 166.7C-740.164 211.164 -736.244 256.176 -728.25 301.259C-684.551 298.646 -632.82 304.68 -589.847 335.936C-508.192 395.393 -473.031 538.593 -534.761 690.785C-454.02 777.715 -354.286 844.657 -244.177 886.742C-216.529 861.474 -184.941 843.627 -151.817 834.785C-145.732 833.161 -139.711 831.843 -133.667 830.881C-96.813 824.882 -62.7733 831.655 -40.0953 849.572C-13.016 870.949 -3.7065 906.049 -1.32287 936.915C33.444 938.28 68.4934 937.179 103.776 933.699C127.716 838.74 122.956 775.413 89.4174 745.042Z" fill="url(#paint12_radial_144_4359)"/>
<path d="M35.0833 -247.006C55.8746 -193.607 88.0407 -168.374 125.244 -139.199C162.446 -110.024 204.515 -77.0055 240.171 -9.18017C293.028 91.5666 284.986 178.806 277.88 255.729C271.827 321.146 266.531 377.743 299.199 429.782C352.723 515.142 488.328 552.087 703.291 540.183C722.406 505.75 738.865 469.782 752.47 432.62C610.772 437.64 517.668 409.048 475.551 346.858C445.557 302.651 451.296 257.74 457.418 210.192C463.364 163.343 470.226 110.166 443.404 48.021C406.561 -37.5201 334.921 -74.9555 271.704 -107.977C216.48 -136.831 164.305 -164.037 149.435 -218.583C127.371 -299.234 194.128 -402.001 352.844 -531.128C275.391 -567.011 191.796 -590.103 105.279 -598.655C22.9083 -457.03 -0.743925 -339.046 35.0833 -247.006Z" fill="url(#paint13_radial_144_4359)"/>
<path d="M-2.21883 85.7233C63.465 39.3666 -12.6975 -226.068 -187.992 -570.554C-223.248 -560.201 -257.313 -547.559 -289.916 -532.7C-219.584 -416.703 -117.146 -229.905 -161.835 -191.978C-210.222 -150.817 -403.834 -308.86 -499.263 -391.941C-524.004 -368.536 -546.987 -343.427 -568.27 -317.106C-294.813 -28.8776 -68.6416 132.567 -2.21883 85.7233Z" fill="url(#paint14_radial_144_4359)"/>
<path d="M-383.254 10.3741C-302.837 74.1444 -294.996 190.457 -287.32 302.902C-279.362 420.197 -271.898 531.033 -187.932 582.341C-132.354 616.316 -72.2527 605.703 -14.1302 595.547C46.4621 584.876 103.737 574.801 152.368 613.671C212.844 661.908 229.755 763.922 203.148 917.456C211.602 915.489 220.094 913.657 228.526 911.333C433.224 856.69 596.424 724.557 695.128 554.891C479.582 565.43 342.615 526.097 287.069 437.51C251.857 381.371 257.632 319.794 263.586 254.548C270.486 179.563 278.394 94.5323 227.482 -2.46095C193.261 -67.6277 154.2 -98.3348 116.361 -127.992C79.0725 -157.217 43.8992 -184.761 21.6905 -241.837C-15.3374 -336.743 7.5156 -456.904 89.4397 -599.93C4.75434 -606.508 -82.4068 -599.318 -169.072 -576.183C-170.83 -575.714 -172.416 -575.146 -174.174 -574.677C-29.2432 -288.783 93.902 35.37 5.89702 97.3893C-82.7117 159.859 -349.698 -66.2227 -577.374 -305.913C-647.378 -216.11 -696.924 -111.274 -721.896 0.689361C-706.884 -4.1145 -692.12 -8.49013 -677.788 -12.3159C-545.474 -47.564 -446.788 -40.088 -383.254 10.3741Z" fill="url(#paint15_radial_144_4359)"/>
<path d="M-392.087 21.4947C-316.621 81.3726 -308.985 194.481 -301.563 303.807C-293.732 419.543 -285.615 539.329 -195.408 594.476C-135.253 631.211 -72.4249 620.233 -11.6974 609.526C45.5778 599.451 99.8062 589.9 143.535 624.792C200.588 670.249 215.523 769.749 188.216 920.935C193.205 919.821 198.244 918.62 203.283 917.42C229.939 763.801 212.979 661.872 152.503 613.635C103.737 574.801 46.5116 584.79 -13.995 595.511C-72.1671 605.753 -132.219 616.28 -187.797 582.305C-271.763 530.997 -279.227 420.16 -287.185 302.866C-294.775 190.47 -302.616 74.1579 -383.119 10.3381C-446.653 -40.1241 -545.339 -47.6002 -677.617 -12.2168C-691.949 -8.39105 -706.578 -4.05144 -721.725 0.788543C-722.893 6.16991 -724.148 11.5017 -725.182 16.847C-571.727 -33.6039 -459.9 -32.2426 -392.087 21.4947Z" fill="#071630"/>
<path d="M98.9721 734.453C70.6869 708.835 36.7163 712.617 -6.21917 717.271C-40.7667 721.062 -83.8869 725.837 -136.643 716.239C-314.999 683.827 -422.435 521.683 -426.942 514.847C-482.955 428.847 -488.283 347.133 -492.638 281.525C-496.784 218.324 -500.102 168.516 -544.103 138.838C-576.519 117.003 -620.604 113.563 -677.254 128.686C-696.588 133.847 -717.616 141.343 -739.968 150.93C-740.068 156.244 -740.205 161.422 -740.171 166.7C-654.82 129.432 -591.701 123.88 -552.007 150.725C-513.755 176.506 -510.655 223.33 -506.845 282.565C-502.412 349.818 -496.984 433.534 -438.9 522.674C-434.321 529.78 -323.547 696.827 -139.182 730.315C-84.3656 740.304 -40.1773 735.461 -4.64722 731.552C36.287 726.998 65.9218 723.794 89.4175 745.042C122.957 775.412 127.716 838.739 103.862 933.748C108.81 933.296 113.809 932.758 118.807 932.221C142.444 834.229 135.871 767.909 98.9721 734.453Z" fill="#071630"/>
<path d="M-40.0095 849.621C-62.6875 831.704 -96.8129 824.881 -133.581 830.93C-139.675 831.978 -145.782 833.246 -151.731 834.834C-184.72 843.64 -216.357 861.572 -244.091 886.791C-239.019 888.696 -233.996 890.686 -228.961 892.456C-199.545 867.296 -165.902 850.638 -131.333 845.031C-98.5084 839.673 -68.4403 845.406 -48.8061 860.877C-26.2499 878.609 -18.0566 908.72 -15.6794 936.04C-10.8202 936.336 -6.06005 936.803 -1.1513 937.013C-3.57115 906.012 -12.8807 870.912 -40.0095 849.621Z" fill="#071630"/>
<path d="M21.7762 -241.788C44.0344 -184.797 79.1585 -157.167 116.447 -127.943C154.286 -98.2854 193.396 -67.664 227.568 -2.4116C278.48 94.5816 270.572 179.613 263.672 254.597C257.633 319.794 251.943 381.42 287.155 437.56C342.651 526.232 479.668 565.479 695.214 554.941C697.988 550.145 700.59 545.249 703.278 540.404C488.315 552.308 352.71 515.364 299.186 430.003C266.518 377.964 271.814 321.367 277.867 255.95C284.973 179.027 293.015 91.7878 240.158 -8.95894C204.551 -76.8699 162.397 -109.938 125.23 -138.978C88.0275 -168.153 55.8617 -193.386 35.0704 -246.785C-0.756884 -338.825 22.8953 -456.809 105.217 -598.348C100.015 -598.842 94.7636 -599.251 89.4265 -599.709C7.60151 -456.854 -15.2022 -336.779 21.7762 -241.788Z" fill="#071630"/>
<path d="M149.472 -218.447C164.427 -163.852 216.517 -136.696 271.74 -107.841C334.958 -74.8201 406.562 -37.5199 443.44 48.1563C470.213 110.387 463.4 163.478 457.454 210.327C451.333 257.875 445.593 302.786 475.588 346.993C517.704 409.184 610.808 437.775 752.506 432.756C754.262 427.942 756.188 423.227 757.858 418.364C618.229 424.352 527.263 397.797 487.339 338.932C460.353 299.208 465.554 258.786 471.537 212.072C477.725 163.42 484.843 108.219 456.468 42.4335C417.648 -47.7939 343.596 -86.3958 278.273 -120.521C223.649 -149.028 176.42 -173.717 163.227 -222.264C142.838 -296.917 211.637 -398.275 367.182 -524.092C362.358 -526.425 357.669 -528.794 352.795 -531.042C194.164 -401.866 127.408 -299.098 149.472 -218.447Z" fill="#071630"/>
<path d="M412.577 -218.507C419.549 -179.959 456.932 -159.594 496.542 -137.942C540.535 -113.983 590.402 -86.7399 609.776 -29.7035C625.605 17.0539 612.393 56.5005 599.519 94.7708C587.018 132 575.215 167.233 593.774 203.34C618.277 251.113 683.338 276.4 791.605 280.16C792.292 275.414 792.978 270.669 793.53 265.959C691.092 262.599 628.254 239.397 606.486 196.977C590.661 166.223 601.092 135.34 613.157 99.4586C626.094 60.8819 640.714 17.2209 623.386 -34.0609C602.247 -96.347 549.846 -124.941 503.54 -150.238C465.472 -170.999 432.557 -189.007 426.815 -220.787C418.731 -265.122 465.018 -320.64 564.249 -386.453C560.731 -389.859 557.114 -393.094 553.412 -396.378C449.783 -327.509 403.43 -268.714 412.577 -218.507Z" fill="#071630"/>
<path d="M6.03216 97.353C93.9876 35.4193 -29.1574 -288.734 -174.039 -574.713C-178.685 -573.4 -183.246 -572.038 -187.856 -570.59C-12.5619 -226.104 63.5511 39.4163 -2.08319 85.6874C-68.506 132.531 -294.677 -28.9135 -568.135 -317.142C-571.198 -313.427 -574.175 -309.663 -577.152 -305.899C-349.563 -66.259 -82.6622 159.774 6.03216 97.353Z" fill="#071630"/>
</g>
</g>
</g>
<defs>
<filter id="filter0_f_144_4359" x="-984.2" y="-846.282" width="2027.86" height="2027.79" filterUnits="userSpaceOnUse" color-interpolation-filters="sRGB">
<feFlood flood-opacity="0" result="BackgroundImageFix"/>
<feBlend mode="normal" in="SourceGraphic" in2="BackgroundImageFix" result="shape"/>
<feGaussianBlur stdDeviation="122.012" result="effect1_foregroundBlur_144_4359"/>
</filter>
<radialGradient id="paint0_radial_144_4359" cx="0" cy="0" r="1" gradientUnits="userSpaceOnUse" gradientTransform="translate(-61.21 -787.702) rotate(165.054) scale(1772.78 1772.78)">
<stop stop-color="#ED1E79"/>
<stop offset="0.5112" stop-color="#3850C6"/>
<stop offset="1" stop-color="#348AA7"/>
</radialGradient>
<radialGradient id="paint1_radial_144_4359" cx="0" cy="0" r="1" gradientUnits="userSpaceOnUse" gradientTransform="translate(-61.2106 -787.704) rotate(165.054) scale(1772.78 1772.78)">
<stop stop-color="#ED1E79"/>
<stop offset="0.5112" stop-color="#3850C6"/>
<stop offset="1" stop-color="#348AA7"/>
</radialGradient>
<radialGradient id="paint2_radial_144_4359" cx="0" cy="0" r="1" gradientUnits="userSpaceOnUse" gradientTransform="translate(-61.209 -787.703) rotate(165.054) scale(1772.78 1772.78)">
<stop stop-color="#ED1E79"/>
<stop offset="0.5112" stop-color="#3850C6"/>
<stop offset="1" stop-color="#348AA7"/>
</radialGradient>
<radialGradient id="paint3_radial_144_4359" cx="0" cy="0" r="1" gradientUnits="userSpaceOnUse" gradientTransform="translate(-61.211 -787.711) rotate(165.054) scale(1772.78 1772.78)">
<stop stop-color="#ED1E79"/>
<stop offset="0.5112" stop-color="#3850C6"/>
<stop offset="1" stop-color="#348AA7"/>
</radialGradient>
<radialGradient id="paint4_radial_144_4359" cx="0" cy="0" r="1" gradientUnits="userSpaceOnUse" gradientTransform="translate(-61.2092 -787.699) rotate(165.054) scale(1772.77 1772.77)">
<stop stop-color="#ED1E79"/>
<stop offset="0.5112" stop-color="#3850C6"/>
<stop offset="1" stop-color="#348AA7"/>
</radialGradient>
<radialGradient id="paint5_radial_144_4359" cx="0" cy="0" r="1" gradientUnits="userSpaceOnUse" gradientTransform="translate(-61.21 -787.702) rotate(165.054) scale(1772.78 1772.78)">
<stop stop-color="#ED1E79"/>
<stop offset="0.5112" stop-color="#3850C6"/>
<stop offset="1" stop-color="#348AA7"/>
</radialGradient>
<radialGradient id="paint6_radial_144_4359" cx="0" cy="0" r="1" gradientUnits="userSpaceOnUse" gradientTransform="translate(-61.2102 -787.702) rotate(165.054) scale(1772.78 1772.78)">
<stop stop-color="#ED1E79"/>
<stop offset="0.5112" stop-color="#3850C6"/>
<stop offset="1" stop-color="#348AA7"/>
</radialGradient>
<radialGradient id="paint7_radial_144_4359" cx="0" cy="0" r="1" gradientUnits="userSpaceOnUse" gradientTransform="translate(-61.2103 -787.703) rotate(165.054) scale(1772.78 1772.78)">
<stop stop-color="#ED1E79"/>
<stop offset="0.5112" stop-color="#3850C6"/>
<stop offset="1" stop-color="#348AA7"/>
</radialGradient>
<radialGradient id="paint8_radial_144_4359" cx="0" cy="0" r="1" gradientUnits="userSpaceOnUse" gradientTransform="translate(-94.3054 -648.192) rotate(165.054) scale(1772.78 1772.78)">
<stop stop-color="#ED1E79"/>
<stop offset="0.5112" stop-color="#3850C6"/>
<stop offset="1" stop-color="#348AA7"/>
</radialGradient>
<radialGradient id="paint9_radial_144_4359" cx="0" cy="0" r="1" gradientUnits="userSpaceOnUse" gradientTransform="translate(-94.3058 -648.194) rotate(165.054) scale(1772.78 1772.78)">
<stop stop-color="#ED1E79"/>
<stop offset="0.5112" stop-color="#3850C6"/>
<stop offset="1" stop-color="#348AA7"/>
</radialGradient>
<radialGradient id="paint10_radial_144_4359" cx="0" cy="0" r="1" gradientUnits="userSpaceOnUse" gradientTransform="translate(-94.3043 -648.194) rotate(165.054) scale(1772.78 1772.78)">
<stop stop-color="#ED1E79"/>
<stop offset="0.5112" stop-color="#3850C6"/>
<stop offset="1" stop-color="#348AA7"/>
</radialGradient>
<radialGradient id="paint11_radial_144_4359" cx="0" cy="0" r="1" gradientUnits="userSpaceOnUse" gradientTransform="translate(-94.3064 -648.201) rotate(165.054) scale(1772.78 1772.78)">
<stop stop-color="#ED1E79"/>
<stop offset="0.5112" stop-color="#3850C6"/>
<stop offset="1" stop-color="#348AA7"/>
</radialGradient>
<radialGradient id="paint12_radial_144_4359" cx="0" cy="0" r="1" gradientUnits="userSpaceOnUse" gradientTransform="translate(-94.3044 -648.189) rotate(165.054) scale(1772.77 1772.77)">
<stop stop-color="#ED1E79"/>
<stop offset="0.5112" stop-color="#3850C6"/>
<stop offset="1" stop-color="#348AA7"/>
</radialGradient>
<radialGradient id="paint13_radial_144_4359" cx="0" cy="0" r="1" gradientUnits="userSpaceOnUse" gradientTransform="translate(-94.3053 -648.192) rotate(165.054) scale(1772.78 1772.78)">
<stop stop-color="#ED1E79"/>
<stop offset="0.5112" stop-color="#3850C6"/>
<stop offset="1" stop-color="#348AA7"/>
</radialGradient>
<radialGradient id="paint14_radial_144_4359" cx="0" cy="0" r="1" gradientUnits="userSpaceOnUse" gradientTransform="translate(-94.3054 -648.192) rotate(165.054) scale(1772.78 1772.78)">
<stop stop-color="#ED1E79"/>
<stop offset="0.5112" stop-color="#3850C6"/>
<stop offset="1" stop-color="#348AA7"/>
</radialGradient>
<radialGradient id="paint15_radial_144_4359" cx="0" cy="0" r="1" gradientUnits="userSpaceOnUse" gradientTransform="translate(-94.3056 -648.193) rotate(165.054) scale(1772.78 1772.78)">
<stop stop-color="#ED1E79"/>
<stop offset="0.5112" stop-color="#3850C6"/>
<stop offset="1" stop-color="#348AA7"/>
</radialGradient>
</defs>
</svg>
