<svg width="1688" height="1414" viewBox="0 0 1688 1414" fill="none" xmlns="http://www.w3.org/2000/svg">
<g style="mix-blend-mode:color-dodge" opacity="0.29">
<mask id="mask0_46_2130" style="mask-type:alpha" maskUnits="userSpaceOnUse" x="185" y="-539" width="2172" height="1709">
<path d="M1732.56 691.458C1654.59 682.237 1595.3 721.539 1532.4 763.037C1465.86 807.061 1397.09 852.511 1297.64 850.645C1148.67 847.791 1054.24 737.348 963.013 630.419C876.811 529.527 787.679 425.123 653.354 409.534C532.698 395.481 395.304 456.302 243.543 590.128C263.769 637.115 289.434 682.895 320.261 727.028C340.765 705.511 361.13 686.628 381.077 670.819C439.521 624.82 495.874 603.631 550.692 606.596C625.457 610.658 664.652 656.767 714.17 715.062C765.64 775.663 829.804 851.194 958.968 902.682C969.29 906.745 1214.79 1002.81 1455.26 934.849C1526.4 914.759 1575.64 886.325 1615.11 863.38C1664.21 834.946 1702.99 812.55 1755.57 821.443C1824.2 832.97 1879.02 893.131 1919.33 1000.28C1945.55 984.801 1971.22 968.443 1995.91 950.878C1922.54 790.703 1834.24 703.425 1732.56 691.458Z" fill="url(#paint0_radial_46_2130)"/>
<path d="M1158.85 -133.018C1209.35 -93.7155 1284.25 -96.2406 1371.01 -99.2047C1474.79 -102.718 1592.38 -106.78 1703.41 -41.678C1784.31 5.7486 1814.72 62.7264 1841.5 112.898C1867.16 161.093 1889.34 202.701 1950.3 225.975C2040.54 260.337 2170.13 235.307 2336.4 151.981C2323.7 100.382 2304.73 49.6622 2279.9 0.369202C2145.16 57.0177 2047.94 68.7646 1984.33 36.4881C1936.21 12.1161 1925.89 -28.2844 1914.73 -70.9903C1903.43 -114.794 1891.71 -160.135 1839.41 -196.254C1775.66 -240.277 1695.6 -238.74 1624.88 -237.313C1561.27 -236.105 1501.29 -234.898 1465.58 -268.052C1418.99 -311.307 1434.06 -393.425 1511.47 -517.371C1407.42 -535.925 1300.57 -542.182 1194.56 -536.364C1093.71 -328.982 1081.3 -193.399 1158.85 -133.018Z" fill="url(#paint1_radial_46_2130)"/>
<path d="M1481.07 -278.262C1510.5 -250.926 1563.36 -251.914 1624.46 -253.122C1698.8 -254.549 1782.91 -256.195 1852.66 -208.11C1910.13 -168.478 1922.96 -118.417 1934.4 -74.1739C1945 -33.1147 1954.2 2.34546 1995.07 23.2044C2051.7 51.9678 2144.6 39.2328 2271.95 -14.4515C2219.09 -114.025 2141.25 -207.452 2038.31 -288.472C1893.25 -402.647 1717.22 -477.739 1531.56 -513.748C1457.07 -395.401 1439.92 -316.357 1481.07 -278.262Z" fill="url(#paint2_radial_46_2130)"/>
<path d="M631.873 837.142C564.083 831.543 502.011 852.292 453.889 876.993C469.93 891.375 486.389 905.647 503.825 919.37C627.689 1016.86 774.289 1085.69 929.955 1126.2C896.757 957.904 763.409 848.12 631.873 837.142Z" fill="url(#paint3_radial_46_2130)"/>
<path d="M1664.35 1024.98C1629.62 1021.03 1588.89 1032.23 1552.48 1055.61C1514.26 1080.31 1484.97 1114.89 1466.84 1155.41C1566.99 1141.02 1664.91 1115.44 1757.67 1078.78C1735.63 1053.86 1704.38 1029.59 1664.35 1024.98Z" fill="url(#paint4_radial_46_2130)"/>
<path d="M1751.39 837.032C1707.73 829.677 1673.84 849.218 1627.11 876.335C1586.52 899.829 1536.02 929.031 1462.1 949.89C1213.53 1020.15 960.503 921.127 949.902 916.955C816.135 863.6 750.437 786.202 697.571 724.065C650.983 669.283 614.298 626.028 549.437 622.515C482.065 618.892 408.974 659.183 331.141 742.399C362.526 785.105 399.071 826.164 440.638 865.027C492.108 838.24 559.48 815.295 633.966 821.443C775.544 833.19 919.494 951.207 951.576 1131.69C1111.43 1170.34 1280.34 1179.23 1444.38 1158.48C1460.28 1118.85 1486.23 1084.16 1520.4 1057.26C1526.68 1052.32 1533.09 1047.71 1539.79 1043.43C1580.52 1017.19 1626.83 1004.78 1667.14 1009.39C1715.26 1014.88 1751.39 1043.43 1776.08 1071.75C1819.46 1053.75 1861.44 1033.22 1902.03 1010.27C1864.23 905.757 1813.74 847.572 1751.39 837.032Z" fill="url(#paint5_radial_46_2130)"/>
<path d="M985.053 -85.7014C1048.1 -45.9596 1105.15 -39.5921 1171.13 -32.2366C1237.1 -24.8811 1311.73 -16.5375 1403.09 28.8032C1538.67 96.2105 1590.42 184.477 1636.04 262.313C1674.81 328.513 1708.29 385.82 1784.87 417.658C1910.4 469.915 2101.92 430.063 2355.78 299.201C2354.81 255.507 2349.51 211.813 2339.88 168.558C2170.55 252.104 2036.78 276.366 1941.51 240.027C1873.72 214.228 1849.03 167.899 1822.95 118.826C1797.14 70.5211 1767.99 15.6291 1691.41 -29.1627C1586.1 -90.8612 1472.28 -87.0188 1371.85 -83.6155C1284.11 -80.6513 1201.26 -77.7969 1144.63 -121.93C1060.79 -187.142 1069.72 -322.944 1172.24 -535.156C1052.42 -526.593 934.14 -502.331 822.551 -462.479C821.994 -280.677 876.393 -154.206 985.053 -85.7014Z" fill="url(#paint6_radial_46_2130)"/>
<path d="M764.804 71.1801C784.611 27.3763 572.592 -81.3097 375.498 -166.612C314.682 -96.7892 268.651 -21.5872 237.128 56.5789C462.956 90.9412 743.881 117.18 764.804 71.1801Z" fill="url(#paint7_radial_46_2130)"/>
<path d="M1174.34 254.629C1221.76 173.608 941.533 -39.0431 484.576 -272.553C448.867 -243.021 416.227 -211.953 386.935 -179.566C554.598 -107.219 811.392 15.3 783.634 76.5593C753.645 142.979 405.905 98.7356 230.85 71.9483C217.181 108.177 206.859 145.064 199.466 182.171C736.488 307.105 1126.35 336.528 1174.34 254.629Z" fill="url(#paint8_radial_46_2130)"/>
<path d="M656.284 393.944C799.397 410.522 891.039 517.89 979.753 621.636C1072.23 729.883 1159.55 832.202 1298.2 834.836C1389.98 836.593 1455.82 793.009 1519.56 750.961C1585.96 707.048 1648.73 665.55 1735.49 675.869C1843.31 688.604 1935.93 777.2 2011.81 939.46C2020.74 932.873 2029.8 926.396 2038.45 919.479C2249.64 753.267 2355.51 535.675 2356.2 317.864C2100.66 447.738 1905.8 486.053 1775.52 431.82C1692.95 397.457 1656.54 335.1 1617.76 269.12C1573.27 193.26 1522.91 107.189 1392.35 42.3067C1304.62 -1.27747 1235.29 -9.07211 1168.2 -16.5374C1102.08 -23.8929 1039.73 -30.8093 972.36 -73.2957C860.213 -143.887 803.302 -272.004 802.326 -454.904C694.363 -414.174 593.097 -358.843 503.686 -288.472C501.873 -287.045 500.338 -285.618 498.525 -284.19C877.09 -90.0926 1256.07 152.859 1192.47 261.325C1128.44 370.56 643.172 301.726 196.258 197.98C174.219 323.134 187.749 451.361 236.291 572.782C251.216 559.828 266.141 547.422 280.926 535.785C417.483 428.416 543.16 380.77 656.284 393.944Z" fill="url(#paint9_radial_46_2130)"/>
<path d="M653.354 409.534C787.68 425.123 876.811 529.528 963.014 630.419C1054.24 737.239 1148.67 847.791 1297.64 850.645C1396.96 852.512 1465.86 807.061 1532.4 763.038C1595.17 721.539 1654.59 682.237 1732.56 691.459C1834.24 703.425 1922.68 790.703 1996.05 951.098C2001.35 947.255 2006.65 943.303 2011.95 939.351C1936.07 776.98 1843.45 688.495 1735.63 675.76C1648.73 665.55 1585.96 706.938 1519.7 750.852C1455.96 793.009 1390.12 836.483 1298.34 834.727C1159.69 832.092 1072.37 729.773 979.892 621.526C891.318 517.781 799.675 410.412 656.423 393.835C543.3 380.661 417.623 428.307 281.205 535.785C266.419 547.422 251.634 559.718 236.569 572.782C238.941 578.601 241.172 584.419 243.683 590.128C395.305 456.412 532.699 395.591 653.354 409.534Z" fill="#071630"/>
<path d="M1755.57 821.552C1702.99 812.66 1664.21 835.165 1615.11 863.49C1575.64 886.325 1526.4 914.868 1455.26 934.959C1214.79 1002.92 969.29 906.854 958.968 902.792C829.943 851.304 765.78 775.772 714.17 715.172C664.513 656.767 625.317 610.767 550.692 606.705C495.735 603.741 439.522 624.929 381.077 670.929C361.13 686.628 340.765 705.511 320.261 727.138C323.888 732.298 327.375 737.348 331.141 742.398C408.974 659.182 482.065 618.781 549.437 622.514C614.298 626.027 651.122 669.282 697.571 724.064C750.436 786.202 816.134 863.599 949.902 916.954C960.503 921.236 1213.53 1020.15 1462.1 949.89C1536.02 929.031 1586.52 899.828 1627.11 876.334C1673.84 849.218 1707.73 829.676 1751.39 837.032C1813.74 847.571 1864.23 905.756 1902.17 1010.27C1907.89 1007.09 1913.61 1003.79 1919.33 1000.5C1879.02 893.241 1824.2 833.189 1755.57 821.552Z" fill="#071630"/>
<path d="M633.966 821.443C559.48 815.295 492.109 838.24 440.638 865.027C444.962 869.089 449.426 873.041 453.75 877.103C501.873 852.402 563.944 831.543 631.734 837.252C763.27 848.12 896.618 957.904 929.816 1126.31C937.069 1128.18 944.184 1130.05 951.437 1131.8C919.634 951.207 775.545 833.19 633.966 821.443Z" fill="#071630"/>
<path d="M1667.28 1009.39C1626.97 1004.78 1580.52 1017.19 1539.93 1043.43C1533.23 1047.82 1526.68 1052.43 1520.54 1057.26C1486.51 1084.05 1460.56 1118.85 1444.52 1158.48C1452.05 1157.49 1459.58 1156.61 1466.98 1155.51C1485.11 1115 1514.4 1080.31 1552.62 1055.72C1588.89 1032.34 1629.62 1021.14 1664.49 1025.09C1704.52 1029.59 1735.77 1053.96 1757.95 1078.89C1764.08 1076.47 1770.22 1074.27 1776.36 1071.75C1751.53 1043.32 1715.4 1014.77 1667.28 1009.39Z" fill="#071630"/>
<path d="M972.5 -73.2957C1039.87 -30.9192 1102.22 -23.893 1168.34 -16.5375C1235.43 -9.0722 1304.76 -1.38733 1392.49 42.3066C1523.05 107.189 1573.41 193.259 1617.9 269.12C1656.54 335.1 1693.09 397.457 1775.66 431.82C1905.94 486.163 2100.8 447.738 2356.34 317.864C2356.34 311.716 2356.06 305.568 2355.92 299.42C2102.06 430.283 1910.54 470.134 1785.01 417.877C1708.43 386.04 1674.95 328.733 1636.18 262.533C1590.56 184.696 1538.81 96.4301 1403.23 29.0228C1311.87 -16.4277 1237.11 -24.7713 1171.27 -32.017C1105.29 -39.3725 1048.24 -45.74 985.193 -85.4818C876.533 -153.987 822.134 -280.458 822.692 -462.15C815.996 -459.735 809.301 -457.21 802.466 -454.685C803.442 -272.004 860.353 -143.997 972.5 -73.2957Z" fill="#071630"/>
<path d="M1144.77 -121.82C1201.54 -77.6871 1284.25 -80.5415 1371.99 -83.5056C1472.42 -86.9089 1586.1 -90.8612 1691.55 -29.0529C1768.13 15.8488 1797.28 70.6309 1823.09 118.936C1849.17 168.009 1873.86 214.338 1941.65 240.137C2036.92 276.476 2170.69 252.213 2340.02 168.668C2338.77 163.069 2337.79 157.47 2336.4 151.871C2170.27 235.197 2040.55 260.228 1950.3 225.865C1889.34 202.701 1867.16 160.983 1841.5 112.788C1814.72 62.6166 1784.45 5.63892 1703.41 -41.7878C1592.38 -106.89 1474.79 -102.828 1371.01 -99.3145C1284.25 -96.3503 1209.21 -93.8253 1158.85 -133.128C1081.3 -193.509 1093.71 -329.092 1194.7 -536.364C1187.17 -535.925 1179.78 -535.596 1172.24 -535.047C1069.86 -322.834 1060.93 -187.032 1144.77 -121.82Z" fill="#071630"/>
<path d="M1465.72 -268.053C1501.43 -234.898 1561.41 -236.105 1625.02 -237.313C1695.6 -238.74 1775.66 -240.277 1839.55 -196.254C1891.85 -160.135 1903.57 -114.904 1914.87 -70.9906C1925.89 -28.2847 1936.35 12.1158 1984.47 36.4878C2048.08 68.7643 2145.3 56.9076 2280.04 0.368896C2277.53 -4.57135 2275.02 -9.5116 2272.37 -14.3421C2145.02 39.3422 2051.98 51.9673 1995.49 23.3138C1954.48 2.56464 1945.42 -32.8956 1934.82 -74.0645C1923.38 -118.307 1910.4 -168.369 1853.08 -208.001C1783.33 -256.086 1699.22 -254.439 1624.88 -253.012C1563.78 -251.805 1510.92 -250.816 1481.48 -278.153C1440.34 -316.248 1457.63 -395.292 1532.26 -513.639C1525.56 -514.956 1518.87 -516.054 1512.03 -517.152C1434.2 -393.426 1419.13 -311.198 1465.72 -268.053Z" fill="#071630"/>
<path d="M1192.61 261.216C1256.21 152.859 877.23 -90.0927 498.664 -284.3C493.922 -280.458 489.319 -276.615 484.716 -272.663C941.673 -39.1529 1221.9 173.608 1174.48 254.519C1126.49 336.418 736.628 306.996 199.606 182.062C198.49 187.331 197.514 192.601 196.537 197.87C643.311 301.616 1128.44 370.451 1192.61 261.216Z" fill="#071630"/>
<path d="M783.635 76.5594C811.392 15.3 554.598 -107.329 386.936 -179.566C383.03 -175.175 379.124 -170.893 375.358 -166.502C572.452 -81.2 784.611 27.486 764.664 71.2897C743.881 117.289 462.956 91.0508 236.988 56.7983C234.896 61.8483 232.664 66.8984 230.711 71.9484C405.906 98.7357 753.645 142.869 783.635 76.5594Z" fill="#071630"/>
</mask>
<g mask="url(#mask0_46_2130)">
<g filter="url(#filter0_f_46_2130)">
<path d="M1790.63 843.853C1712.66 834.631 1653.37 873.934 1590.47 915.432C1523.93 959.455 1455.16 1004.91 1355.71 1003.04C1206.74 1000.19 1112.31 889.742 1021.08 782.813C934.88 681.922 845.748 577.517 711.423 561.928C590.767 547.876 453.373 608.696 301.612 742.522C321.838 789.51 347.503 835.29 378.33 879.423C398.834 857.905 419.199 839.022 439.146 823.213C497.59 777.214 553.943 756.026 608.761 758.99C683.526 763.052 722.721 809.161 772.239 867.456C823.709 928.057 887.873 1003.59 1017.04 1055.08C1027.36 1059.14 1272.86 1155.2 1513.33 1087.24C1584.47 1067.15 1633.71 1038.72 1673.18 1015.77C1722.28 987.34 1761.06 964.944 1813.64 973.837C1882.27 985.364 1937.09 1045.53 1977.4 1152.67C2003.62 1137.2 2029.29 1120.84 2053.98 1103.27C1980.61 943.097 1892.31 855.819 1790.63 843.853Z" fill="url(#paint10_radial_46_2130)"/>
<path d="M1216.92 19.3764C1267.42 58.679 1342.32 56.154 1429.08 53.1898C1532.86 49.6767 1650.44 45.6147 1761.47 110.717C1842.38 158.143 1872.79 215.121 1899.57 265.292C1925.23 313.487 1947.41 355.095 2008.37 378.37C2098.61 412.732 2228.2 387.701 2394.46 304.375C2381.77 252.777 2362.8 202.057 2337.97 152.764C2203.23 209.412 2106.01 221.159 2042.4 188.883C1994.28 164.511 1983.96 124.11 1972.8 81.4043C1961.5 37.6005 1949.78 -7.7402 1897.47 -43.8591C1833.73 -87.8824 1753.66 -86.3455 1682.94 -84.9183C1619.34 -83.7106 1559.36 -82.503 1523.65 -115.658C1477.06 -158.913 1492.13 -241.031 1569.54 -364.977C1465.49 -383.53 1358.64 -389.788 1252.63 -383.969C1151.78 -176.588 1139.37 -41.0048 1216.92 19.3764Z" fill="url(#paint11_radial_46_2130)"/>
<path d="M1539.13 -125.868C1568.57 -98.5316 1621.43 -99.5196 1682.53 -100.727C1756.87 -102.154 1840.98 -103.801 1910.73 -55.7158C1968.19 -16.0839 1981.03 33.9775 1992.47 78.2204C2003.07 119.28 2012.27 154.74 2053.14 175.599C2109.77 204.362 2202.67 191.627 2330.02 137.943C2277.16 38.3689 2199.32 -55.0572 2096.38 -136.078C1951.32 -250.253 1775.28 -325.345 1589.63 -361.354C1515.14 -243.007 1497.99 -163.963 1539.13 -125.868Z" fill="url(#paint12_radial_46_2130)"/>
<path d="M689.942 989.536C622.152 983.937 560.08 1004.69 511.958 1029.39C527.999 1043.77 544.458 1058.04 561.894 1071.76C685.757 1169.25 832.358 1238.09 988.024 1278.6C954.826 1110.3 821.477 1000.51 689.942 989.536Z" fill="url(#paint13_radial_46_2130)"/>
<path d="M1809.46 989.427C1765.8 982.071 1731.9 1001.61 1685.18 1028.73C1644.59 1052.22 1594.09 1081.43 1520.16 1102.28C1271.6 1172.55 1018.57 1073.52 1007.97 1069.35C874.204 1015.99 808.506 938.597 755.64 876.459C709.052 821.677 672.367 778.422 607.506 774.909C540.134 771.286 467.043 811.577 389.21 894.793C420.594 937.499 457.14 978.558 498.707 1017.42C550.177 990.634 617.549 967.689 692.035 973.837C833.613 985.584 977.563 1103.6 1009.64 1284.09C1169.5 1322.73 1338.41 1331.62 1502.45 1310.87C1518.35 1271.24 1544.3 1236.55 1578.47 1209.65C1584.75 1204.71 1591.16 1200.1 1597.86 1195.82C1638.59 1169.58 1684.9 1157.18 1725.21 1161.79C1773.33 1167.28 1809.46 1195.82 1834.15 1224.14C1877.53 1206.14 1919.51 1185.61 1960.1 1162.67C1922.3 1058.15 1871.81 999.966 1809.46 989.427Z" fill="url(#paint14_radial_46_2130)"/>
<path d="M1043.12 66.6931C1106.17 106.435 1163.22 112.802 1229.2 120.158C1295.17 127.513 1369.8 135.857 1461.16 181.198C1596.74 248.605 1648.49 336.871 1694.1 414.708C1732.88 480.908 1766.36 538.215 1842.94 570.052C1968.47 622.309 2159.99 582.458 2413.85 451.595C2412.88 407.901 2407.58 364.207 2397.95 320.953C2228.61 404.498 2094.85 428.76 1999.58 392.422C1931.79 366.623 1907.1 320.294 1881.02 271.22C1855.21 222.916 1826.06 168.024 1749.48 123.232C1644.17 61.5333 1530.35 65.3757 1429.92 68.779C1342.18 71.7432 1259.32 74.5976 1202.69 30.4645C1118.86 -34.7471 1127.79 -170.55 1230.31 -382.762C1110.49 -374.199 992.209 -349.937 880.62 -310.085C880.062 -128.283 934.461 -1.81198 1043.12 66.6931Z" fill="url(#paint15_radial_46_2130)"/>
<path d="M822.872 223.574C842.679 179.771 630.661 71.0847 433.567 -14.2174C372.751 55.6051 326.72 130.807 295.196 208.973C521.024 243.336 801.949 269.574 822.872 223.574Z" fill="url(#paint16_radial_46_2130)"/>
<path d="M1232.4 407.023C1279.83 326.003 999.601 113.351 542.645 -120.159C506.936 -90.627 474.296 -59.5582 445.004 -27.1719C612.667 45.1756 869.461 167.694 841.703 228.954C811.714 295.373 463.974 251.13 288.919 224.343C275.249 260.571 264.927 297.459 257.535 334.566C794.557 459.5 1184.42 488.922 1232.4 407.023Z" fill="url(#paint17_radial_46_2130)"/>
<path d="M714.352 546.339C857.465 562.916 949.108 670.285 1037.82 774.031C1130.3 882.277 1217.62 984.596 1356.27 987.231C1448.05 988.987 1513.89 945.403 1577.63 903.356C1644.03 859.442 1706.8 817.944 1793.56 828.264C1901.38 840.999 1994 929.594 2069.88 1091.85C2078.81 1085.27 2087.87 1078.79 2096.52 1071.87C2307.7 905.661 2413.57 688.07 2414.27 470.259C2158.73 600.133 1963.87 638.448 1833.59 584.214C1751.01 549.852 1714.61 487.495 1675.83 421.515C1631.33 345.654 1580.98 259.583 1450.42 194.701C1362.68 151.117 1293.36 143.322 1226.27 135.857C1160.15 128.502 1097.8 121.585 1030.43 79.0989C918.281 8.50787 861.371 -119.61 860.394 -302.51C752.432 -261.78 651.165 -206.449 561.754 -136.077C559.941 -134.65 558.407 -133.223 556.593 -131.796C935.159 62.3019 1314.14 305.254 1250.54 413.72C1186.51 522.955 701.241 454.12 254.327 350.375C232.288 475.528 245.818 603.756 294.359 725.177C309.284 712.222 324.209 699.817 338.995 688.18C475.552 580.811 601.229 533.165 714.352 546.339Z" fill="url(#paint18_radial_46_2130)"/>
<path d="M711.423 561.928C845.749 577.518 934.88 681.922 1021.08 782.813C1112.31 889.633 1206.74 1000.19 1355.71 1003.04C1455.02 1004.91 1523.93 959.456 1590.47 915.432C1653.23 873.934 1712.66 834.631 1790.63 843.853C1892.31 855.82 1980.75 943.098 2054.12 1103.49C2059.42 1099.65 2064.72 1095.7 2070.02 1091.75C1994.14 929.375 1901.52 840.889 1793.7 828.154C1706.8 817.944 1644.03 859.333 1577.77 903.246C1514.03 945.403 1448.19 988.878 1356.41 987.121C1217.76 984.486 1130.44 882.168 1037.96 773.921C949.387 670.175 857.745 562.807 714.492 546.229C601.369 533.055 475.692 580.701 339.274 688.18C324.489 699.817 309.703 712.113 294.639 725.177C297.01 730.995 299.242 736.814 301.752 742.523C453.374 608.806 590.768 547.986 711.423 561.928Z" fill="#071630"/>
<path d="M1813.64 973.947C1761.06 965.054 1722.28 987.56 1673.18 1015.88C1633.71 1038.72 1584.47 1067.26 1513.33 1087.35C1272.86 1155.31 1027.36 1059.25 1017.04 1055.19C888.013 1003.7 823.849 928.167 772.239 867.566C722.582 809.161 683.386 763.162 608.761 759.1C553.804 756.136 497.591 777.324 439.146 823.323C419.199 839.022 398.834 857.905 378.33 879.533C381.957 884.693 385.444 889.743 389.21 894.793C467.043 811.577 540.134 771.176 607.506 774.909C672.367 778.422 709.191 821.677 755.64 876.459C808.506 938.596 874.203 1015.99 1007.97 1069.35C1018.57 1073.63 1271.6 1172.55 1520.16 1102.28C1594.09 1081.43 1644.59 1052.22 1685.18 1028.73C1731.9 1001.61 1765.8 982.071 1809.46 989.426C1871.81 999.966 1922.3 1058.15 1960.24 1162.67C1965.96 1159.48 1971.68 1156.19 1977.4 1152.89C1937.09 1045.64 1882.27 985.584 1813.64 973.947Z" fill="#071630"/>
<path d="M692.035 973.837C617.549 967.689 550.177 990.634 498.707 1017.42C503.031 1021.48 507.495 1025.44 511.819 1029.5C559.942 1004.8 622.013 983.937 689.803 989.646C821.339 1000.51 954.687 1110.3 987.885 1278.71C995.138 1280.57 1002.25 1282.44 1009.51 1284.2C977.703 1103.6 833.613 985.584 692.035 973.837Z" fill="#071630"/>
<path d="M1725.35 1161.79C1685.04 1157.18 1638.59 1169.58 1598 1195.82C1591.3 1200.21 1584.75 1204.82 1578.61 1209.65C1544.57 1236.44 1518.63 1271.24 1502.59 1310.87C1510.12 1309.89 1517.65 1309.01 1525.05 1307.91C1543.18 1267.4 1572.47 1232.71 1610.69 1208.12C1646.96 1184.73 1687.69 1173.53 1722.56 1177.49C1762.59 1181.99 1793.84 1206.36 1816.01 1231.28C1822.15 1228.86 1828.29 1226.67 1834.43 1224.14C1809.6 1195.71 1773.47 1167.17 1725.35 1161.79Z" fill="#071630"/>
<path d="M1030.57 79.0986C1097.94 121.475 1160.29 128.501 1226.41 135.857C1293.5 143.322 1362.82 151.007 1450.56 194.701C1581.12 259.583 1631.47 345.654 1675.97 421.514C1714.61 487.495 1751.15 549.852 1833.73 584.214C1964.01 638.557 2158.87 600.133 2414.41 470.258C2414.41 464.11 2414.13 457.963 2413.99 451.815C2160.13 582.677 1968.61 622.529 1843.08 570.271C1766.5 538.434 1733.02 481.127 1694.24 414.927C1648.63 337.091 1596.88 248.824 1461.3 181.417C1369.94 135.967 1295.17 127.623 1229.34 120.377C1163.36 113.022 1106.31 106.654 1043.26 66.9126C934.601 -1.59253 880.202 -128.063 880.76 -309.756C874.065 -307.34 867.369 -304.815 860.534 -302.29C861.511 -119.61 918.421 8.3978 1030.57 79.0986Z" fill="#071630"/>
<path d="M1202.83 30.5742C1259.6 74.7073 1342.32 71.8529 1430.06 68.8888C1530.49 65.4855 1644.17 61.5332 1749.62 123.342C1826.2 168.243 1855.35 223.025 1881.15 271.33C1907.24 320.404 1931.93 366.732 1999.72 392.532C2094.99 428.87 2228.75 404.608 2398.09 321.062C2396.84 315.463 2395.86 309.864 2394.46 304.265C2228.34 387.591 2098.61 412.622 2008.37 378.26C1947.41 355.095 1925.23 313.377 1899.57 265.182C1872.79 215.011 1842.52 158.033 1761.48 110.607C1650.44 45.5049 1532.86 49.5668 1429.08 53.0799C1342.32 56.0441 1267.28 58.5691 1216.92 19.2665C1139.37 -41.1147 1151.78 -176.698 1252.77 -383.97C1245.24 -383.53 1237.84 -383.201 1230.31 -382.652C1127.93 -170.44 1119 -34.6374 1202.83 30.5742Z" fill="#071630"/>
<path d="M1523.79 -115.658C1559.5 -82.5032 1619.48 -83.7108 1683.08 -84.9185C1753.66 -86.3456 1833.73 -87.8826 1897.61 -43.8593C1949.92 -7.74042 1961.64 37.4905 1972.94 81.4041C1983.96 124.11 1994.42 164.51 2042.54 188.882C2106.15 221.159 2203.37 209.302 2338.11 152.764C2335.6 147.823 2333.09 142.883 2330.44 138.053C2203.09 191.737 2110.05 204.362 2053.56 175.708C2012.55 154.959 2003.48 119.499 1992.88 78.3301C1981.45 34.0872 1968.47 -15.9742 1911.14 -55.6061C1841.4 -103.691 1757.29 -102.045 1682.95 -100.618C1621.85 -99.4099 1568.99 -98.4218 1539.55 -125.758C1498.41 -163.853 1515.7 -242.897 1590.33 -361.244C1583.63 -362.562 1576.94 -363.66 1570.1 -364.757C1492.27 -241.031 1477.2 -158.803 1523.79 -115.658Z" fill="#071630"/>
<path d="M1250.68 413.61C1314.28 305.253 935.299 62.3016 556.733 -131.906C551.991 -128.064 547.388 -124.221 542.785 -120.269C999.742 113.241 1279.97 326.002 1232.54 406.913C1184.56 488.812 794.697 459.39 257.675 334.456C256.559 339.725 255.582 344.995 254.606 350.265C701.38 454.01 1186.51 522.845 1250.68 413.61Z" fill="#071630"/>
<path d="M841.704 228.954C869.461 167.694 612.667 45.0659 445.005 -27.1719C441.099 -22.7806 437.194 -18.499 433.427 -14.1076C630.521 71.1944 842.68 179.88 822.734 223.684C801.95 269.684 521.025 243.445 295.057 209.193C292.965 214.243 290.733 219.293 288.78 224.343C463.975 251.13 811.714 295.263 841.704 228.954Z" fill="#071630"/>
</g>
</g>
</g>
<defs>
<filter id="filter0_f_46_2130" x="0.0445709" y="-630.093" width="2658.39" height="2195.88" filterUnits="userSpaceOnUse" color-interpolation-filters="sRGB">
<feFlood flood-opacity="0" result="BackgroundImageFix"/>
<feBlend mode="normal" in="SourceGraphic" in2="BackgroundImageFix" result="shape"/>
<feGaussianBlur stdDeviation="122.012" result="effect1_foregroundBlur_46_2130"/>
</filter>
<radialGradient id="paint0_radial_46_2130" cx="0" cy="0" r="1" gradientUnits="userSpaceOnUse" gradientTransform="translate(544.091 -399.179) rotate(141.795) scale(2248.72 2185.76)">
<stop stop-color="#ED1E79"/>
<stop offset="0.5112" stop-color="#3850C6"/>
<stop offset="1" stop-color="#348AA7"/>
</radialGradient>
<radialGradient id="paint1_radial_46_2130" cx="0" cy="0" r="1" gradientUnits="userSpaceOnUse" gradientTransform="translate(544.091 -399.18) rotate(141.795) scale(2248.72 2185.76)">
<stop stop-color="#ED1E79"/>
<stop offset="0.5112" stop-color="#3850C6"/>
<stop offset="1" stop-color="#348AA7"/>
</radialGradient>
<radialGradient id="paint2_radial_46_2130" cx="0" cy="0" r="1" gradientUnits="userSpaceOnUse" gradientTransform="translate(544.091 -399.181) rotate(141.795) scale(2248.72 2185.76)">
<stop stop-color="#ED1E79"/>
<stop offset="0.5112" stop-color="#3850C6"/>
<stop offset="1" stop-color="#348AA7"/>
</radialGradient>
<radialGradient id="paint3_radial_46_2130" cx="0" cy="0" r="1" gradientUnits="userSpaceOnUse" gradientTransform="translate(544.089 -399.182) rotate(141.795) scale(2248.73 2185.76)">
<stop stop-color="#ED1E79"/>
<stop offset="0.5112" stop-color="#3850C6"/>
<stop offset="1" stop-color="#348AA7"/>
</radialGradient>
<radialGradient id="paint4_radial_46_2130" cx="0" cy="0" r="1" gradientUnits="userSpaceOnUse" gradientTransform="translate(544.084 -399.187) rotate(141.795) scale(2248.73 2185.77)">
<stop stop-color="#ED1E79"/>
<stop offset="0.5112" stop-color="#3850C6"/>
<stop offset="1" stop-color="#348AA7"/>
</radialGradient>
<radialGradient id="paint5_radial_46_2130" cx="0" cy="0" r="1" gradientUnits="userSpaceOnUse" gradientTransform="translate(544.095 -399.176) rotate(141.795) scale(2248.71 2185.75)">
<stop stop-color="#ED1E79"/>
<stop offset="0.5112" stop-color="#3850C6"/>
<stop offset="1" stop-color="#348AA7"/>
</radialGradient>
<radialGradient id="paint6_radial_46_2130" cx="0" cy="0" r="1" gradientUnits="userSpaceOnUse" gradientTransform="translate(544.093 -399.179) rotate(141.795) scale(2248.72 2185.75)">
<stop stop-color="#ED1E79"/>
<stop offset="0.5112" stop-color="#3850C6"/>
<stop offset="1" stop-color="#348AA7"/>
</radialGradient>
<radialGradient id="paint7_radial_46_2130" cx="0" cy="0" r="1" gradientUnits="userSpaceOnUse" gradientTransform="translate(544.092 -399.178) rotate(141.795) scale(2248.72 2185.76)">
<stop stop-color="#ED1E79"/>
<stop offset="0.5112" stop-color="#3850C6"/>
<stop offset="1" stop-color="#348AA7"/>
</radialGradient>
<radialGradient id="paint8_radial_46_2130" cx="0" cy="0" r="1" gradientUnits="userSpaceOnUse" gradientTransform="translate(544.092 -399.179) rotate(141.795) scale(2248.72 2185.76)">
<stop stop-color="#ED1E79"/>
<stop offset="0.5112" stop-color="#3850C6"/>
<stop offset="1" stop-color="#348AA7"/>
</radialGradient>
<radialGradient id="paint9_radial_46_2130" cx="0" cy="0" r="1" gradientUnits="userSpaceOnUse" gradientTransform="translate(544.09 -399.18) rotate(141.795) scale(2248.72 2185.76)">
<stop stop-color="#ED1E79"/>
<stop offset="0.5112" stop-color="#3850C6"/>
<stop offset="1" stop-color="#348AA7"/>
</radialGradient>
<radialGradient id="paint10_radial_46_2130" cx="0" cy="0" r="1" gradientUnits="userSpaceOnUse" gradientTransform="translate(602.161 -246.784) rotate(141.795) scale(2248.72 2185.76)">
<stop stop-color="#ED1E79"/>
<stop offset="0.5112" stop-color="#3850C6"/>
<stop offset="1" stop-color="#348AA7"/>
</radialGradient>
<radialGradient id="paint11_radial_46_2130" cx="0" cy="0" r="1" gradientUnits="userSpaceOnUse" gradientTransform="translate(602.159 -246.786) rotate(141.795) scale(2248.72 2185.76)">
<stop stop-color="#ED1E79"/>
<stop offset="0.5112" stop-color="#3850C6"/>
<stop offset="1" stop-color="#348AA7"/>
</radialGradient>
<radialGradient id="paint12_radial_46_2130" cx="0" cy="0" r="1" gradientUnits="userSpaceOnUse" gradientTransform="translate(602.16 -246.787) rotate(141.795) scale(2248.72 2185.76)">
<stop stop-color="#ED1E79"/>
<stop offset="0.5112" stop-color="#3850C6"/>
<stop offset="1" stop-color="#348AA7"/>
</radialGradient>
<radialGradient id="paint13_radial_46_2130" cx="0" cy="0" r="1" gradientUnits="userSpaceOnUse" gradientTransform="translate(602.158 -246.788) rotate(141.795) scale(2248.73 2185.76)">
<stop stop-color="#ED1E79"/>
<stop offset="0.5112" stop-color="#3850C6"/>
<stop offset="1" stop-color="#348AA7"/>
</radialGradient>
<radialGradient id="paint14_radial_46_2130" cx="0" cy="0" r="1" gradientUnits="userSpaceOnUse" gradientTransform="translate(602.164 -246.782) rotate(141.795) scale(2248.71 2185.75)">
<stop stop-color="#ED1E79"/>
<stop offset="0.5112" stop-color="#3850C6"/>
<stop offset="1" stop-color="#348AA7"/>
</radialGradient>
<radialGradient id="paint15_radial_46_2130" cx="0" cy="0" r="1" gradientUnits="userSpaceOnUse" gradientTransform="translate(602.161 -246.784) rotate(141.795) scale(2248.72 2185.75)">
<stop stop-color="#ED1E79"/>
<stop offset="0.5112" stop-color="#3850C6"/>
<stop offset="1" stop-color="#348AA7"/>
</radialGradient>
<radialGradient id="paint16_radial_46_2130" cx="0" cy="0" r="1" gradientUnits="userSpaceOnUse" gradientTransform="translate(602.161 -246.784) rotate(141.795) scale(2248.72 2185.76)">
<stop stop-color="#ED1E79"/>
<stop offset="0.5112" stop-color="#3850C6"/>
<stop offset="1" stop-color="#348AA7"/>
</radialGradient>
<radialGradient id="paint17_radial_46_2130" cx="0" cy="0" r="1" gradientUnits="userSpaceOnUse" gradientTransform="translate(602.161 -246.784) rotate(141.795) scale(2248.72 2185.76)">
<stop stop-color="#ED1E79"/>
<stop offset="0.5112" stop-color="#3850C6"/>
<stop offset="1" stop-color="#348AA7"/>
</radialGradient>
<radialGradient id="paint18_radial_46_2130" cx="0" cy="0" r="1" gradientUnits="userSpaceOnUse" gradientTransform="translate(602.159 -246.786) rotate(141.795) scale(2248.72 2185.76)">
<stop stop-color="#ED1E79"/>
<stop offset="0.5112" stop-color="#3850C6"/>
<stop offset="1" stop-color="#348AA7"/>
</radialGradient>
</defs>
</svg>
