<svg width="1205" height="2995" viewBox="0 0 1205 2995" fill="none" xmlns="http://www.w3.org/2000/svg">
<g opacity="0.04">
<g filter="url(#filter0_f_56_2182)">
<path d="M239.632 2049.26C149.528 2035.73 81.0233 2093.41 8.32782 2154.32C-68.5585 2218.94 -148.024 2285.65 -262.951 2282.91C-435.098 2278.72 -544.222 2116.62 -649.638 1959.67C-749.252 1811.59 -852.251 1658.35 -1007.47 1635.47C-1146.9 1614.84 -1305.67 1704.11 -1481.04 1900.53C-1457.67 1969.5 -1428.01 2036.69 -1392.39 2101.47C-1368.69 2069.89 -1345.16 2042.17 -1322.11 2018.97C-1254.57 1951.45 -1189.45 1920.35 -1126.11 1924.7C-1039.71 1930.67 -994.418 1998.34 -937.196 2083.91C-877.718 2172.85 -803.572 2283.71 -654.313 2359.29C-642.385 2365.25 -358.695 2506.24 -80.8087 2406.5C1.39679 2377.01 58.2957 2335.28 103.912 2301.6C160.65 2259.87 205.46 2226.99 266.227 2240.05C345.531 2256.97 408.878 2345.27 455.461 2502.54C485.764 2479.81 515.422 2455.81 543.953 2430.02C459.168 2194.93 357.137 2066.83 239.632 2049.26Z" fill="url(#paint0_radial_56_2182)"/>
<path d="M-423.332 839.136C-364.982 896.823 -278.425 893.117 -178.166 888.766C-58.2431 883.61 77.6375 877.648 205.942 973.201C299.431 1042.81 334.57 1126.44 365.518 1200.08C395.177 1270.82 420.805 1331.89 491.244 1366.05C595.532 1416.48 745.275 1379.74 937.41 1257.44C922.742 1181.71 900.821 1107.27 872.129 1034.92C716.423 1118.06 604.075 1135.3 530.574 1087.93C474.964 1052.16 463.036 992.859 450.141 930.178C437.085 865.885 423.545 799.336 363.1 746.322C289.437 681.707 196.916 683.963 115.195 686.058C41.6931 687.83 -27.6176 689.603 -68.8815 640.94C-122.718 577.453 -105.31 456.924 -15.8508 275.002C-136.096 247.77 -259.566 238.585 -382.068 247.126C-498.606 551.51 -512.952 750.512 -423.332 839.136Z" fill="url(#paint1_radial_56_2182)"/>
<path d="M-50.9885 625.954C-16.978 666.077 44.112 664.627 114.712 662.854C200.625 660.76 297.82 658.343 378.414 728.92C444.823 787.09 459.653 860.567 472.87 925.505C485.12 985.769 495.758 1037.82 542.986 1068.43C608.428 1110.65 715.779 1091.96 862.943 1013.16C801.853 867.013 711.91 729.887 592.954 610.969C425.319 443.388 221.901 333.172 7.36124 280.319C-78.7127 454.023 -98.5387 570.041 -50.9885 625.954Z" fill="url(#paint2_radial_56_2182)"/>
<path d="M160.811 2538.79C120.676 2532.99 73.6091 2549.43 31.5392 2583.75C-12.626 2620 -46.4756 2670.76 -67.4299 2730.22C48.3025 2709.11 161.456 2671.57 268.645 2617.75C243.178 2581.17 207.072 2545.56 160.811 2538.79Z" fill="url(#paint3_radial_56_2182)"/>
<path d="M261.391 2262.93C210.94 2252.13 171.771 2280.81 117.774 2320.61C70.8681 2355.1 12.5186 2397.96 -72.9106 2428.57C-360.146 2531.7 -652.54 2386.36 -664.79 2380.23C-819.368 2301.92 -895.288 2188.32 -956.377 2097.12C-1010.21 2016.71 -1052.61 1953.23 -1127.56 1948.07C-1205.41 1942.75 -1289.87 2001.89 -1379.82 2124.03C-1343.55 2186.71 -1301.32 2246.97 -1253.28 2304.02C-1193.81 2264.7 -1115.95 2231.02 -1029.88 2240.05C-866.274 2257.29 -699.929 2430.51 -662.856 2695.41C-478.135 2752.13 -282.937 2765.19 -93.3812 2734.73C-75.0059 2676.56 -45.0253 2625.64 -5.53448 2586.16C1.71893 2578.91 9.13373 2572.15 16.8708 2565.86C63.9374 2527.35 117.452 2509.14 164.035 2515.91C219.644 2523.97 261.392 2565.86 289.922 2607.43C340.051 2581.01 388.568 2550.88 435.474 2517.2C391.792 2363.8 333.442 2278.4 261.391 2262.93Z" fill="url(#paint4_radial_56_2182)"/>
<path d="M-624.171 908.585C-551.315 966.916 -485.389 976.262 -409.147 987.058C-332.906 997.854 -246.671 1010.1 -141.093 1076.65C15.5807 1175.59 75.3814 1305.14 128.09 1419.38C172.9 1516.55 211.585 1600.66 300.077 1647.39C445.145 1724.09 666.455 1665.6 959.816 1473.53C958.687 1409.39 952.562 1345.26 941.44 1281.77C745.759 1404.4 591.18 1440.01 481.089 1386.67C402.752 1348.81 374.222 1280.81 344.08 1208.78C314.261 1137.88 280.573 1057.31 192.081 991.57C70.3846 901.012 -61.1442 906.652 -177.199 911.647C-278.586 915.998 -374.331 920.187 -439.773 855.411C-536.647 759.697 -526.33 560.372 -407.858 248.898C-546.318 261.467 -683.004 297.077 -811.954 355.569C-812.599 622.409 -749.736 808.037 -624.171 908.585Z" fill="url(#paint5_radial_56_2182)"/>
<path d="M-1004.09 1612.59C-838.711 1636.92 -732.81 1794.51 -630.295 1946.78C-523.428 2105.66 -422.525 2255.84 -262.305 2259.7C-156.244 2262.28 -80.1637 2198.31 -6.5011 2136.6C70.224 2072.14 142.758 2011.23 243.017 2026.38C367.615 2045.07 474.643 2175.11 562.329 2413.27C572.645 2403.6 583.122 2394.09 593.116 2383.94C837.153 2139.98 959.494 1820.61 960.3 1500.92C665.005 1691.54 439.826 1747.78 289.278 1668.18C193.855 1617.74 151.785 1526.22 106.975 1429.37C55.556 1318.03 -2.63257 1191.7 -153.504 1096.47C-254.891 1032.5 -335.001 1021.06 -412.532 1010.1C-488.935 999.305 -560.985 989.153 -638.838 926.794C-768.433 823.184 -834.197 635.139 -835.326 366.688C-960.085 426.469 -1077.11 507.681 -1180.43 610.969C-1182.52 613.064 -1184.3 615.159 -1186.39 617.253C-748.929 902.14 -310.984 1258.73 -384.485 1417.93C-458.47 1578.26 -1019.24 1477.23 -1535.68 1324.96C-1561.15 1508.65 -1545.52 1696.86 -1489.42 1875.07C-1472.18 1856.06 -1454.93 1837.85 -1437.84 1820.77C-1280.04 1663.18 -1134.81 1593.25 -1004.09 1612.59Z" fill="url(#paint6_radial_56_2182)"/>
<path d="M-1007.47 1635.47C-852.25 1658.35 -749.252 1811.59 -649.638 1959.67C-544.222 2116.46 -435.098 2278.72 -262.95 2282.91C-148.185 2285.65 -68.558 2218.94 8.32825 2154.32C80.8625 2093.41 149.528 2035.73 239.632 2049.26C357.137 2066.83 459.33 2194.93 544.114 2430.35C550.24 2424.71 556.365 2418.91 562.49 2413.11C474.804 2174.79 367.776 2044.91 243.178 2026.22C142.759 2011.23 70.2241 2071.98 -6.33984 2136.44C-80.0024 2198.31 -156.083 2262.12 -262.144 2259.54C-422.364 2255.68 -523.267 2105.5 -630.135 1946.62C-732.488 1794.35 -838.388 1636.76 -1003.93 1612.42C-1134.65 1593.09 -1279.88 1663.02 -1437.52 1820.77C-1454.61 1837.85 -1471.69 1855.9 -1489.1 1875.07C-1486.36 1883.62 -1483.78 1892.16 -1480.88 1900.53C-1305.67 1704.27 -1146.9 1615 -1007.47 1635.47Z" fill="#071630"/>
<path d="M266.227 2240.21C205.46 2227.15 160.649 2260.19 103.912 2301.76C58.2955 2335.28 1.39661 2377.17 -80.8088 2406.66C-358.696 2506.4 -642.385 2365.41 -654.313 2359.45C-803.411 2283.87 -877.557 2173.01 -937.196 2084.07C-994.579 1998.34 -1039.87 1930.83 -1126.11 1924.87C-1189.62 1920.51 -1254.57 1951.61 -1322.11 2019.13C-1345.16 2042.17 -1368.69 2069.89 -1392.39 2101.63C-1388.2 2109.2 -1384.17 2116.62 -1379.82 2124.03C-1289.87 2001.89 -1205.41 1942.59 -1127.56 1948.07C-1052.61 1953.22 -1010.05 2016.71 -956.378 2097.12C-895.288 2188.32 -819.369 2301.92 -664.79 2380.23C-652.54 2386.52 -360.146 2531.7 -72.9108 2428.57C12.5184 2397.96 70.8679 2355.1 117.773 2320.61C171.771 2280.81 210.94 2252.13 261.391 2262.93C333.442 2278.4 391.792 2363.8 435.635 2517.2C442.243 2512.53 448.852 2507.69 455.461 2502.86C408.878 2345.43 345.531 2257.29 266.227 2240.21Z" fill="#071630"/>
<path d="M164.196 2515.91C117.613 2509.14 63.9371 2527.35 17.0316 2565.86C9.29465 2572.31 1.7191 2579.07 -5.37313 2586.16C-44.7028 2625.48 -74.6838 2676.56 -93.2203 2734.73C-84.5162 2733.28 -75.8119 2731.99 -67.2689 2730.38C-46.3146 2670.92 -12.4656 2620 31.6997 2583.91C73.6084 2549.59 120.675 2533.15 160.972 2538.95C207.233 2545.56 243.339 2581.33 268.967 2617.91C276.059 2614.36 283.152 2611.14 290.244 2607.43C261.553 2565.7 219.805 2523.8 164.196 2515.91Z" fill="#071630"/>
<path d="M-638.677 926.794C-560.824 988.992 -488.773 999.305 -412.37 1010.1C-334.839 1021.06 -254.729 1032.34 -153.342 1096.47C-2.47107 1191.7 55.7175 1318.03 107.136 1429.37C151.785 1526.22 194.016 1617.74 289.439 1668.18C439.988 1747.94 665.167 1691.54 960.461 1500.92C960.461 1491.89 960.139 1482.87 959.977 1473.85C666.617 1665.92 445.307 1724.41 300.238 1647.71C211.747 1600.98 173.062 1516.87 128.252 1419.71C75.5435 1305.46 15.7429 1175.91 -140.931 1076.97C-246.509 1010.26 -332.905 998.016 -408.986 987.381C-485.227 976.585 -551.153 967.239 -624.009 908.908C-749.574 808.359 -812.437 622.732 -811.792 356.053C-819.529 359.598 -827.266 363.304 -835.164 367.01C-834.036 635.139 -768.272 823.023 -638.677 926.794Z" fill="#071630"/>
<path d="M-439.611 855.572C-374.008 920.348 -278.424 916.159 -177.037 911.808C-60.9825 906.813 70.3851 901.012 192.243 991.731C280.734 1057.64 314.422 1138.04 344.242 1208.94C374.384 1280.97 402.914 1348.97 481.251 1386.83C591.342 1440.17 745.921 1404.56 941.602 1281.94C940.151 1273.72 939.023 1265.5 937.411 1257.28C745.437 1379.58 595.533 1416.32 491.245 1365.89C420.806 1331.89 395.177 1270.66 365.519 1199.92C334.571 1126.28 299.593 1042.65 205.943 973.04C77.6382 877.486 -58.2424 883.448 -178.166 888.605C-278.424 892.955 -365.143 896.661 -423.331 838.975C-512.951 750.351 -498.606 551.349 -381.907 247.125C-390.611 247.77 -399.153 248.253 -407.857 249.059C-526.169 560.533 -536.485 759.858 -439.611 855.572Z" fill="#071630"/>
<path d="M-68.7188 640.94C-27.4549 689.602 41.8554 687.83 115.357 686.058C196.917 683.963 289.439 681.707 363.263 746.322C423.708 799.336 437.248 865.723 450.304 930.177C463.038 992.859 475.127 1052.16 530.737 1087.93C604.238 1135.3 716.585 1117.9 872.292 1034.92C869.391 1027.66 866.489 1020.41 863.427 1013.32C716.263 1092.12 608.751 1110.65 543.47 1068.59C496.081 1038.14 485.604 986.091 473.354 925.666C460.137 860.728 445.146 787.25 378.898 729.081C298.304 658.503 201.109 660.92 115.196 663.015C44.5959 664.788 -16.494 666.238 -50.5046 626.115C-98.0548 570.201 -78.0678 454.184 8.16734 280.48C0.430351 278.547 -7.30683 276.935 -15.205 275.324C-105.147 456.923 -122.555 577.614 -68.7188 640.94Z" fill="#071630"/>
</g>
</g>
<defs>
<filter id="filter0_f_56_2182" x="-1791.56" y="0.02005" width="2996.05" height="2994.72" filterUnits="userSpaceOnUse" color-interpolation-filters="sRGB">
<feFlood flood-opacity="0" result="BackgroundImageFix"/>
<feBlend mode="normal" in="SourceGraphic" in2="BackgroundImageFix" result="shape"/>
<feGaussianBlur stdDeviation="122.012" result="effect1_foregroundBlur_56_2182"/>
</filter>
<radialGradient id="paint0_radial_56_2182" cx="0" cy="0" r="1" gradientUnits="userSpaceOnUse" gradientTransform="translate(-1133.74 448.479) rotate(135.009) scale(2887.32 2887.32)">
<stop stop-color="#ED1E79"/>
<stop offset="0.5112" stop-color="#3850C6"/>
<stop offset="1" stop-color="#348AA7"/>
</radialGradient>
<radialGradient id="paint1_radial_56_2182" cx="0" cy="0" r="1" gradientUnits="userSpaceOnUse" gradientTransform="translate(-1133.74 448.477) rotate(135.009) scale(2887.32 2887.32)">
<stop stop-color="#ED1E79"/>
<stop offset="0.5112" stop-color="#3850C6"/>
<stop offset="1" stop-color="#348AA7"/>
</radialGradient>
<radialGradient id="paint2_radial_56_2182" cx="0" cy="0" r="1" gradientUnits="userSpaceOnUse" gradientTransform="translate(-1133.74 448.476) rotate(135.009) scale(2887.32 2887.32)">
<stop stop-color="#ED1E79"/>
<stop offset="0.5112" stop-color="#3850C6"/>
<stop offset="1" stop-color="#348AA7"/>
</radialGradient>
<radialGradient id="paint3_radial_56_2182" cx="0" cy="0" r="1" gradientUnits="userSpaceOnUse" gradientTransform="translate(-1133.74 448.467) rotate(135.009) scale(2887.33 2887.33)">
<stop stop-color="#ED1E79"/>
<stop offset="0.5112" stop-color="#3850C6"/>
<stop offset="1" stop-color="#348AA7"/>
</radialGradient>
<radialGradient id="paint4_radial_56_2182" cx="0" cy="0" r="1" gradientUnits="userSpaceOnUse" gradientTransform="translate(-1133.73 448.483) rotate(135.009) scale(2887.3 2887.3)">
<stop stop-color="#ED1E79"/>
<stop offset="0.5112" stop-color="#3850C6"/>
<stop offset="1" stop-color="#348AA7"/>
</radialGradient>
<radialGradient id="paint5_radial_56_2182" cx="0" cy="0" r="1" gradientUnits="userSpaceOnUse" gradientTransform="translate(-1133.74 448.479) rotate(135.009) scale(2887.31 2887.31)">
<stop stop-color="#ED1E79"/>
<stop offset="0.5112" stop-color="#3850C6"/>
<stop offset="1" stop-color="#348AA7"/>
</radialGradient>
<radialGradient id="paint6_radial_56_2182" cx="0" cy="0" r="1" gradientUnits="userSpaceOnUse" gradientTransform="translate(-1133.74 448.477) rotate(135.009) scale(2887.32 2887.32)">
<stop stop-color="#ED1E79"/>
<stop offset="0.5112" stop-color="#3850C6"/>
<stop offset="1" stop-color="#348AA7"/>
</radialGradient>
</defs>
</svg>
