<svg width="8" height="14" viewBox="0 0 8 14" fill="#DFDFDF" xmlns="http://www.w3.org/2000/svg">
<path d="M2.11779 13.5925L8.25002 7.47851C8.32281 7.40572 8.37449 7.32687 8.40506 7.24195C8.43563 7.15703 8.45067 7.06605 8.45018 6.969C8.45018 6.87195 8.4349 6.78097 8.40433 6.69605C8.37376 6.61114 8.32232 6.53228 8.25002 6.4595L2.11779 0.327261C1.94795 0.157427 1.73566 0.0725098 1.48091 0.0725098C1.22615 0.0725098 1.0078 0.163493 0.825831 0.345458C0.643865 0.527423 0.552883 0.739717 0.552883 0.982337C0.552883 1.22496 0.643865 1.43725 0.825831 1.61922L6.17562 6.969L0.825831 12.3188C0.655996 12.4886 0.571079 12.698 0.571079 12.9469C0.571079 13.1959 0.662062 13.4111 0.844027 13.5925C1.02599 13.7745 1.23829 13.8655 1.48091 13.8655C1.72353 13.8655 1.93582 13.7745 2.11779 13.5925Z"/>
</svg>
