<svg width="1920" height="6500" viewBox="0 0 1920 6500" fill="none" xmlns="http://www.w3.org/2000/svg">
<g clip-path="url(#clip0_1_2)">
<g opacity="0.7">
<g style="mix-blend-mode:color-dodge" opacity="0.29">
<mask id="mask0_1_2" style="mask-type:alpha" maskUnits="userSpaceOnUse" x="417" y="-539" width="2172" height="1709">
<path d="M1964.56 691.458C1886.59 682.237 1827.3 721.539 1764.4 763.037C1697.86 807.061 1629.09 852.511 1529.64 850.645C1380.67 847.791 1286.24 737.348 1195.01 630.419C1108.81 529.527 1019.68 425.123 885.354 409.534C764.698 395.481 627.304 456.302 475.543 590.128C495.769 637.115 521.434 682.895 552.261 727.028C572.765 705.511 593.13 686.628 613.077 670.819C671.521 624.82 727.874 603.631 782.692 606.596C857.457 610.658 896.652 656.767 946.17 715.062C997.64 775.663 1061.8 851.194 1190.97 902.682C1201.29 906.745 1446.79 1002.81 1687.26 934.849C1758.4 914.759 1807.64 886.325 1847.11 863.38C1896.21 834.946 1934.99 812.55 1987.57 821.443C2056.2 832.97 2111.02 893.131 2151.33 1000.28C2177.55 984.801 2203.22 968.443 2227.91 950.878C2154.54 790.703 2066.24 703.425 1964.56 691.458Z" fill="url(#paint0_radial_1_2)"/>
<path d="M1390.85 -133.018C1441.35 -93.7155 1516.25 -96.2406 1603.01 -99.2047C1706.79 -102.718 1824.38 -106.78 1935.41 -41.678C2016.31 5.7486 2046.72 62.7264 2073.5 112.898C2099.16 161.093 2121.34 202.701 2182.3 225.975C2272.54 260.337 2402.13 235.307 2568.4 151.981C2555.7 100.382 2536.73 49.6622 2511.9 0.369202C2377.16 57.0177 2279.94 68.7646 2216.33 36.4881C2168.21 12.1161 2157.89 -28.2844 2146.73 -70.9903C2135.43 -114.794 2123.71 -160.135 2071.41 -196.254C2007.66 -240.277 1927.6 -238.74 1856.88 -237.313C1793.27 -236.105 1733.29 -234.898 1697.58 -268.052C1650.99 -311.307 1666.06 -393.425 1743.47 -517.371C1639.42 -535.925 1532.57 -542.182 1426.56 -536.364C1325.71 -328.982 1313.3 -193.399 1390.85 -133.018Z" fill="url(#paint1_radial_1_2)"/>
<path d="M1713.07 -278.262C1742.5 -250.926 1795.36 -251.914 1856.46 -253.122C1930.8 -254.549 2014.91 -256.195 2084.66 -208.11C2142.13 -168.478 2154.96 -118.417 2166.4 -74.1739C2177 -33.1147 2186.2 2.34546 2227.07 23.2044C2283.7 51.9678 2376.6 39.2328 2503.95 -14.4515C2451.09 -114.025 2373.25 -207.452 2270.31 -288.472C2125.25 -402.647 1949.22 -477.739 1763.56 -513.748C1689.07 -395.401 1671.92 -316.357 1713.07 -278.262Z" fill="url(#paint2_radial_1_2)"/>
<path d="M863.873 837.142C796.083 831.543 734.011 852.292 685.889 876.993C701.93 891.375 718.389 905.647 735.825 919.37C859.689 1016.86 1006.29 1085.69 1161.96 1126.2C1128.76 957.904 995.409 848.12 863.873 837.142Z" fill="url(#paint3_radial_1_2)"/>
<path d="M1896.35 1024.98C1861.62 1021.03 1820.89 1032.23 1784.48 1055.61C1746.26 1080.31 1716.97 1114.89 1698.84 1155.41C1798.99 1141.02 1896.91 1115.44 1989.67 1078.78C1967.63 1053.86 1936.38 1029.59 1896.35 1024.98Z" fill="url(#paint4_radial_1_2)"/>
<path d="M1983.39 837.032C1939.73 829.677 1905.84 849.218 1859.11 876.335C1818.52 899.829 1768.02 929.031 1694.1 949.89C1445.53 1020.15 1192.5 921.127 1181.9 916.955C1048.13 863.6 982.437 786.202 929.571 724.065C882.983 669.283 846.298 626.028 781.437 622.515C714.065 618.892 640.974 659.183 563.141 742.399C594.526 785.105 631.071 826.164 672.638 865.027C724.108 838.24 791.48 815.295 865.966 821.443C1007.54 833.19 1151.49 951.207 1183.58 1131.69C1343.43 1170.34 1512.34 1179.23 1676.38 1158.48C1692.28 1118.85 1718.23 1084.16 1752.4 1057.26C1758.68 1052.32 1765.09 1047.71 1771.79 1043.43C1812.52 1017.19 1858.83 1004.78 1899.14 1009.39C1947.26 1014.88 1983.39 1043.43 2008.08 1071.75C2051.46 1053.75 2093.44 1033.22 2134.03 1010.27C2096.23 905.757 2045.74 847.572 1983.39 837.032Z" fill="url(#paint5_radial_1_2)"/>
<path d="M1217.05 -85.7014C1280.1 -45.9596 1337.15 -39.5921 1403.13 -32.2366C1469.1 -24.8811 1543.73 -16.5375 1635.09 28.8032C1770.67 96.2105 1822.42 184.477 1868.04 262.313C1906.81 328.513 1940.29 385.82 2016.87 417.658C2142.4 469.915 2333.92 430.063 2587.78 299.201C2586.81 255.507 2581.51 211.813 2571.88 168.558C2402.55 252.104 2268.78 276.366 2173.51 240.027C2105.72 214.228 2081.03 167.899 2054.95 118.826C2029.14 70.5211 1999.99 15.6291 1923.41 -29.1627C1818.1 -90.8612 1704.28 -87.0188 1603.85 -83.6155C1516.11 -80.6513 1433.26 -77.7969 1376.63 -121.93C1292.79 -187.142 1301.72 -322.944 1404.24 -535.156C1284.42 -526.593 1166.14 -502.331 1054.55 -462.479C1053.99 -280.677 1108.39 -154.206 1217.05 -85.7014Z" fill="url(#paint6_radial_1_2)"/>
<path d="M996.804 71.1801C1016.61 27.3763 804.592 -81.3097 607.498 -166.612C546.682 -96.7892 500.651 -21.5872 469.128 56.5789C694.956 90.9412 975.881 117.18 996.804 71.1801Z" fill="url(#paint7_radial_1_2)"/>
<path d="M1406.34 254.629C1453.76 173.608 1173.53 -39.0431 716.576 -272.553C680.867 -243.021 648.227 -211.953 618.935 -179.566C786.598 -107.219 1043.39 15.3 1015.63 76.5593C985.645 142.979 637.905 98.7356 462.85 71.9483C449.181 108.177 438.859 145.064 431.466 182.171C968.488 307.105 1358.35 336.528 1406.34 254.629Z" fill="url(#paint8_radial_1_2)"/>
<path d="M888.284 393.944C1031.4 410.522 1123.04 517.89 1211.75 621.636C1304.23 729.883 1391.55 832.202 1530.2 834.836C1621.98 836.593 1687.82 793.009 1751.56 750.961C1817.96 707.048 1880.73 665.55 1967.49 675.869C2075.31 688.604 2167.93 777.2 2243.81 939.46C2252.74 932.873 2261.8 926.396 2270.45 919.479C2481.64 753.267 2587.51 535.675 2588.2 317.864C2332.66 447.738 2137.8 486.053 2007.52 431.82C1924.95 397.457 1888.54 335.1 1849.76 269.12C1805.27 193.26 1754.91 107.189 1624.35 42.3067C1536.62 -1.27747 1467.29 -9.07211 1400.2 -16.5374C1334.08 -23.8929 1271.73 -30.8093 1204.36 -73.2957C1092.21 -143.887 1035.3 -272.004 1034.33 -454.904C926.363 -414.174 825.097 -358.843 735.686 -288.472C733.873 -287.045 732.338 -285.618 730.525 -284.19C1109.09 -90.0926 1488.07 152.859 1424.47 261.325C1360.44 370.56 875.172 301.726 428.258 197.98C406.219 323.134 419.749 451.361 468.291 572.782C483.216 559.828 498.141 547.422 512.926 535.785C649.483 428.416 775.16 380.77 888.284 393.944Z" fill="url(#paint9_radial_1_2)"/>
<path d="M885.354 409.534C1019.68 425.123 1108.81 529.528 1195.01 630.419C1286.24 737.239 1380.67 847.791 1529.64 850.645C1628.96 852.512 1697.86 807.061 1764.4 763.038C1827.17 721.539 1886.59 682.237 1964.56 691.459C2066.24 703.425 2154.68 790.703 2228.05 951.098C2233.35 947.255 2238.65 943.303 2243.95 939.351C2168.07 776.98 2075.45 688.495 1967.63 675.76C1880.73 665.55 1817.96 706.938 1751.7 750.852C1687.96 793.009 1622.12 836.483 1530.34 834.727C1391.69 832.092 1304.37 729.773 1211.89 621.526C1123.32 517.781 1031.68 410.412 888.423 393.835C775.3 380.661 649.623 428.307 513.205 535.785C498.419 547.422 483.634 559.718 468.569 572.782C470.941 578.601 473.172 584.419 475.683 590.128C627.305 456.412 764.699 395.591 885.354 409.534Z" fill="#071630"/>
<path d="M1987.57 821.552C1934.99 812.66 1896.21 835.165 1847.11 863.49C1807.64 886.325 1758.4 914.868 1687.26 934.959C1446.79 1002.92 1201.29 906.854 1190.97 902.792C1061.94 851.304 997.78 775.772 946.17 715.172C896.513 656.767 857.317 610.767 782.692 606.705C727.735 603.741 671.522 624.929 613.077 670.929C593.13 686.628 572.765 705.511 552.261 727.138C555.888 732.298 559.375 737.348 563.141 742.398C640.974 659.182 714.065 618.781 781.437 622.514C846.298 626.027 883.122 669.282 929.571 724.064C982.436 786.202 1048.13 863.599 1181.9 916.954C1192.5 921.236 1445.53 1020.15 1694.1 949.89C1768.02 929.031 1818.52 899.828 1859.11 876.334C1905.84 849.218 1939.73 829.676 1983.39 837.032C2045.74 847.571 2096.23 905.756 2134.17 1010.27C2139.89 1007.09 2145.61 1003.79 2151.33 1000.5C2111.02 893.241 2056.2 833.189 1987.57 821.552Z" fill="#071630"/>
<path d="M865.966 821.443C791.48 815.295 724.109 838.24 672.638 865.027C676.962 869.089 681.426 873.041 685.75 877.103C733.873 852.402 795.944 831.543 863.734 837.252C995.27 848.12 1128.62 957.904 1161.82 1126.31C1169.07 1128.18 1176.18 1130.05 1183.44 1131.8C1151.63 951.207 1007.54 833.19 865.966 821.443Z" fill="#071630"/>
<path d="M1899.28 1009.39C1858.97 1004.78 1812.52 1017.19 1771.93 1043.43C1765.23 1047.82 1758.68 1052.43 1752.54 1057.26C1718.51 1084.05 1692.56 1118.85 1676.52 1158.48C1684.05 1157.49 1691.58 1156.61 1698.98 1155.51C1717.11 1115 1746.4 1080.31 1784.62 1055.72C1820.89 1032.34 1861.62 1021.14 1896.49 1025.09C1936.52 1029.59 1967.77 1053.96 1989.95 1078.89C1996.08 1076.47 2002.22 1074.27 2008.36 1071.75C1983.53 1043.32 1947.4 1014.77 1899.28 1009.39Z" fill="#071630"/>
<path d="M1204.5 -73.2957C1271.87 -30.9192 1334.22 -23.893 1400.34 -16.5375C1467.43 -9.0722 1536.76 -1.38733 1624.49 42.3066C1755.05 107.189 1805.41 193.259 1849.9 269.12C1888.54 335.1 1925.09 397.457 2007.66 431.82C2137.94 486.163 2332.8 447.738 2588.34 317.864C2588.34 311.716 2588.06 305.568 2587.92 299.42C2334.06 430.283 2142.54 470.134 2017.01 417.877C1940.43 386.04 1906.95 328.733 1868.18 262.533C1822.56 184.696 1770.81 96.4301 1635.23 29.0228C1543.87 -16.4277 1469.11 -24.7713 1403.27 -32.017C1337.29 -39.3725 1280.24 -45.74 1217.19 -85.4818C1108.53 -153.987 1054.13 -280.458 1054.69 -462.15C1048 -459.735 1041.3 -457.21 1034.47 -454.685C1035.44 -272.004 1092.35 -143.997 1204.5 -73.2957Z" fill="#071630"/>
<path d="M1376.77 -121.82C1433.54 -77.6871 1516.25 -80.5415 1603.99 -83.5056C1704.42 -86.9089 1818.1 -90.8612 1923.55 -29.0529C2000.13 15.8488 2029.28 70.6309 2055.09 118.936C2081.17 168.009 2105.86 214.338 2173.65 240.137C2268.92 276.476 2402.69 252.213 2572.02 168.668C2570.77 163.069 2569.79 157.47 2568.4 151.871C2402.27 235.197 2272.55 260.228 2182.3 225.865C2121.34 202.701 2099.16 160.983 2073.5 112.788C2046.72 62.6166 2016.45 5.63892 1935.41 -41.7878C1824.38 -106.89 1706.79 -102.828 1603.01 -99.3145C1516.25 -96.3503 1441.21 -93.8253 1390.85 -133.128C1313.3 -193.509 1325.71 -329.092 1426.7 -536.364C1419.17 -535.925 1411.78 -535.596 1404.24 -535.047C1301.86 -322.834 1292.93 -187.032 1376.77 -121.82Z" fill="#071630"/>
<path d="M1697.72 -268.053C1733.43 -234.898 1793.41 -236.105 1857.02 -237.313C1927.6 -238.74 2007.66 -240.277 2071.55 -196.254C2123.85 -160.135 2135.57 -114.904 2146.87 -70.9906C2157.89 -28.2847 2168.35 12.1158 2216.47 36.4878C2280.08 68.7643 2377.3 56.9076 2512.04 0.368896C2509.53 -4.57135 2507.02 -9.5116 2504.37 -14.3421C2377.02 39.3422 2283.98 51.9673 2227.49 23.3138C2186.48 2.56464 2177.42 -32.8956 2166.82 -74.0645C2155.38 -118.307 2142.4 -168.369 2085.08 -208.001C2015.33 -256.086 1931.22 -254.439 1856.88 -253.012C1795.78 -251.805 1742.92 -250.816 1713.48 -278.153C1672.34 -316.248 1689.63 -395.292 1764.26 -513.639C1757.56 -514.956 1750.87 -516.054 1744.03 -517.152C1666.2 -393.426 1651.13 -311.198 1697.72 -268.053Z" fill="#071630"/>
<path d="M1424.61 261.216C1488.21 152.859 1109.23 -90.0927 730.664 -284.3C725.922 -280.458 721.319 -276.615 716.716 -272.663C1173.67 -39.1529 1453.9 173.608 1406.48 254.519C1358.49 336.418 968.628 306.996 431.606 182.062C430.49 187.331 429.514 192.601 428.537 197.87C875.311 301.616 1360.44 370.451 1424.61 261.216Z" fill="#071630"/>
<path d="M1015.63 76.5594C1043.39 15.3 786.598 -107.329 618.936 -179.566C615.03 -175.175 611.124 -170.893 607.358 -166.502C804.452 -81.2 1016.61 27.486 996.664 71.2897C975.881 117.289 694.956 91.0508 468.988 56.7983C466.896 61.8483 464.664 66.8984 462.711 71.9484C637.906 98.7357 985.645 142.869 1015.63 76.5594Z" fill="#071630"/>
</mask>
<g mask="url(#mask0_1_2)">
<g filter="url(#filter0_f_1_2)">
<path d="M2022.63 843.853C1944.66 834.631 1885.37 873.934 1822.47 915.432C1755.93 959.455 1687.16 1004.91 1587.71 1003.04C1438.74 1000.19 1344.31 889.742 1253.08 782.813C1166.88 681.922 1077.75 577.517 943.423 561.928C822.767 547.876 685.373 608.696 533.612 742.522C553.838 789.51 579.503 835.29 610.33 879.423C630.834 857.905 651.199 839.022 671.146 823.213C729.59 777.214 785.943 756.026 840.761 758.99C915.526 763.052 954.721 809.161 1004.24 867.456C1055.71 928.057 1119.87 1003.59 1249.04 1055.08C1259.36 1059.14 1504.86 1155.2 1745.33 1087.24C1816.47 1067.15 1865.71 1038.72 1905.18 1015.77C1954.28 987.34 1993.06 964.944 2045.64 973.837C2114.27 985.364 2169.09 1045.53 2209.4 1152.67C2235.62 1137.2 2261.29 1120.84 2285.98 1103.27C2212.61 943.097 2124.31 855.819 2022.63 843.853Z" fill="url(#paint10_radial_1_2)"/>
<path d="M1448.92 19.3764C1499.42 58.679 1574.32 56.154 1661.08 53.1898C1764.86 49.6767 1882.44 45.6147 1993.47 110.717C2074.38 158.143 2104.79 215.121 2131.57 265.292C2157.23 313.487 2179.41 355.095 2240.37 378.37C2330.61 412.732 2460.2 387.701 2626.46 304.375C2613.77 252.777 2594.8 202.057 2569.97 152.764C2435.23 209.412 2338.01 221.159 2274.4 188.883C2226.28 164.511 2215.96 124.11 2204.8 81.4043C2193.5 37.6005 2181.78 -7.7402 2129.47 -43.8591C2065.73 -87.8824 1985.66 -86.3455 1914.94 -84.9183C1851.34 -83.7106 1791.36 -82.503 1755.65 -115.658C1709.06 -158.913 1724.13 -241.031 1801.54 -364.977C1697.49 -383.53 1590.64 -389.788 1484.63 -383.969C1383.78 -176.588 1371.37 -41.0048 1448.92 19.3764Z" fill="url(#paint11_radial_1_2)"/>
<path d="M1771.13 -125.868C1800.57 -98.5316 1853.43 -99.5196 1914.53 -100.727C1988.87 -102.154 2072.98 -103.801 2142.73 -55.7158C2200.19 -16.0839 2213.03 33.9775 2224.47 78.2204C2235.07 119.28 2244.27 154.74 2285.14 175.599C2341.77 204.362 2434.67 191.627 2562.02 137.943C2509.16 38.3689 2431.32 -55.0572 2328.38 -136.078C2183.32 -250.253 2007.28 -325.345 1821.63 -361.354C1747.14 -243.007 1729.99 -163.963 1771.13 -125.868Z" fill="url(#paint12_radial_1_2)"/>
<path d="M921.942 989.536C854.152 983.937 792.08 1004.69 743.958 1029.39C759.999 1043.77 776.458 1058.04 793.894 1071.76C917.757 1169.25 1064.36 1238.09 1220.02 1278.6C1186.83 1110.3 1053.48 1000.51 921.942 989.536Z" fill="url(#paint13_radial_1_2)"/>
<path d="M2041.46 989.427C1997.8 982.071 1963.9 1001.61 1917.18 1028.73C1876.59 1052.22 1826.09 1081.43 1752.16 1102.28C1503.6 1172.55 1250.57 1073.52 1239.97 1069.35C1106.2 1015.99 1040.51 938.597 987.64 876.459C941.052 821.677 904.367 778.422 839.506 774.909C772.134 771.286 699.043 811.577 621.21 894.793C652.594 937.499 689.14 978.558 730.707 1017.42C782.177 990.634 849.549 967.689 924.035 973.837C1065.61 985.584 1209.56 1103.6 1241.64 1284.09C1401.5 1322.73 1570.41 1331.62 1734.45 1310.87C1750.35 1271.24 1776.3 1236.55 1810.47 1209.65C1816.75 1204.71 1823.16 1200.1 1829.86 1195.82C1870.59 1169.58 1916.9 1157.18 1957.21 1161.79C2005.33 1167.28 2041.46 1195.82 2066.15 1224.14C2109.53 1206.14 2151.51 1185.61 2192.1 1162.67C2154.3 1058.15 2103.81 999.966 2041.46 989.427Z" fill="url(#paint14_radial_1_2)"/>
<path d="M1275.12 66.6931C1338.17 106.435 1395.22 112.802 1461.2 120.158C1527.17 127.513 1601.8 135.857 1693.16 181.198C1828.74 248.605 1880.49 336.871 1926.1 414.708C1964.88 480.908 1998.36 538.215 2074.94 570.052C2200.47 622.309 2391.99 582.458 2645.85 451.595C2644.88 407.901 2639.58 364.207 2629.95 320.953C2460.61 404.498 2326.85 428.76 2231.58 392.422C2163.79 366.623 2139.1 320.294 2113.02 271.22C2087.21 222.916 2058.06 168.024 1981.48 123.232C1876.17 61.5333 1762.35 65.3757 1661.92 68.779C1574.18 71.7432 1491.32 74.5976 1434.69 30.4645C1350.86 -34.7471 1359.79 -170.55 1462.31 -382.762C1342.49 -374.199 1224.21 -349.937 1112.62 -310.085C1112.06 -128.283 1166.46 -1.81198 1275.12 66.6931Z" fill="url(#paint15_radial_1_2)"/>
<path d="M1054.87 223.574C1074.68 179.771 862.661 71.0847 665.567 -14.2174C604.751 55.6051 558.72 130.807 527.196 208.973C753.024 243.336 1033.95 269.574 1054.87 223.574Z" fill="url(#paint16_radial_1_2)"/>
<path d="M1464.4 407.023C1511.83 326.003 1231.6 113.351 774.645 -120.159C738.936 -90.627 706.296 -59.5582 677.004 -27.1719C844.667 45.1756 1101.46 167.694 1073.7 228.954C1043.71 295.373 695.974 251.13 520.919 224.343C507.249 260.571 496.927 297.459 489.535 334.566C1026.56 459.5 1416.42 488.922 1464.4 407.023Z" fill="url(#paint17_radial_1_2)"/>
<path d="M946.352 546.339C1089.47 562.916 1181.11 670.285 1269.82 774.031C1362.3 882.277 1449.62 984.596 1588.27 987.231C1680.05 988.987 1745.89 945.403 1809.63 903.356C1876.03 859.442 1938.8 817.944 2025.56 828.264C2133.38 840.999 2226 929.594 2301.88 1091.85C2310.81 1085.27 2319.87 1078.79 2328.52 1071.87C2539.7 905.661 2645.57 688.07 2646.27 470.259C2390.73 600.133 2195.87 638.448 2065.59 584.214C1983.01 549.852 1946.61 487.495 1907.83 421.515C1863.33 345.654 1812.98 259.583 1682.42 194.701C1594.68 151.117 1525.36 143.322 1458.27 135.857C1392.15 128.502 1329.8 121.585 1262.43 79.0989C1150.28 8.50787 1093.37 -119.61 1092.39 -302.51C984.432 -261.78 883.165 -206.449 793.754 -136.077C791.941 -134.65 790.407 -133.223 788.593 -131.796C1167.16 62.3019 1546.14 305.254 1482.54 413.72C1418.51 522.955 933.241 454.12 486.327 350.375C464.288 475.528 477.818 603.756 526.359 725.177C541.284 712.222 556.209 699.817 570.995 688.18C707.552 580.811 833.229 533.165 946.352 546.339Z" fill="url(#paint18_radial_1_2)"/>
<path d="M943.423 561.928C1077.75 577.518 1166.88 681.922 1253.08 782.813C1344.31 889.633 1438.74 1000.19 1587.71 1003.04C1687.02 1004.91 1755.93 959.456 1822.47 915.432C1885.23 873.934 1944.66 834.631 2022.63 843.853C2124.31 855.82 2212.75 943.098 2286.12 1103.49C2291.42 1099.65 2296.72 1095.7 2302.02 1091.75C2226.14 929.375 2133.52 840.889 2025.7 828.154C1938.8 817.944 1876.03 859.333 1809.77 903.246C1746.03 945.403 1680.19 988.878 1588.41 987.121C1449.76 984.486 1362.44 882.168 1269.96 773.921C1181.39 670.175 1089.74 562.807 946.492 546.229C833.369 533.055 707.692 580.701 571.274 688.18C556.489 699.817 541.703 712.113 526.639 725.177C529.01 730.995 531.242 736.814 533.752 742.523C685.374 608.806 822.768 547.986 943.423 561.928Z" fill="#071630"/>
<path d="M2045.64 973.947C1993.06 965.054 1954.28 987.56 1905.18 1015.88C1865.71 1038.72 1816.47 1067.26 1745.33 1087.35C1504.86 1155.31 1259.36 1059.25 1249.04 1055.19C1120.01 1003.7 1055.85 928.167 1004.24 867.566C954.582 809.161 915.386 763.162 840.761 759.1C785.804 756.136 729.591 777.324 671.146 823.323C651.199 839.022 630.834 857.905 610.33 879.533C613.957 884.693 617.444 889.743 621.21 894.793C699.043 811.577 772.134 771.176 839.506 774.909C904.367 778.422 941.191 821.677 987.64 876.459C1040.51 938.596 1106.2 1015.99 1239.97 1069.35C1250.57 1073.63 1503.6 1172.55 1752.16 1102.28C1826.09 1081.43 1876.59 1052.22 1917.18 1028.73C1963.9 1001.61 1997.8 982.071 2041.46 989.426C2103.81 999.966 2154.3 1058.15 2192.24 1162.67C2197.96 1159.48 2203.68 1156.19 2209.4 1152.89C2169.09 1045.64 2114.27 985.584 2045.64 973.947Z" fill="#071630"/>
<path d="M924.035 973.837C849.549 967.689 782.177 990.634 730.707 1017.42C735.031 1021.48 739.495 1025.44 743.819 1029.5C791.942 1004.8 854.013 983.937 921.803 989.646C1053.34 1000.51 1186.69 1110.3 1219.89 1278.71C1227.14 1280.57 1234.25 1282.44 1241.51 1284.2C1209.7 1103.6 1065.61 985.584 924.035 973.837Z" fill="#071630"/>
<path d="M1957.35 1161.79C1917.04 1157.18 1870.59 1169.58 1830 1195.82C1823.3 1200.21 1816.75 1204.82 1810.61 1209.65C1776.57 1236.44 1750.63 1271.24 1734.59 1310.87C1742.12 1309.89 1749.65 1309.01 1757.05 1307.91C1775.18 1267.4 1804.47 1232.71 1842.69 1208.12C1878.96 1184.73 1919.69 1173.53 1954.56 1177.49C1994.59 1181.99 2025.84 1206.36 2048.01 1231.28C2054.15 1228.86 2060.29 1226.67 2066.43 1224.14C2041.6 1195.71 2005.47 1167.17 1957.35 1161.79Z" fill="#071630"/>
<path d="M1262.57 79.0986C1329.94 121.475 1392.29 128.501 1458.41 135.857C1525.5 143.322 1594.82 151.007 1682.56 194.701C1813.12 259.583 1863.47 345.654 1907.97 421.514C1946.61 487.495 1983.15 549.852 2065.73 584.214C2196.01 638.557 2390.87 600.133 2646.41 470.258C2646.41 464.11 2646.13 457.963 2645.99 451.815C2392.13 582.677 2200.61 622.529 2075.08 570.271C1998.5 538.434 1965.02 481.127 1926.24 414.927C1880.63 337.091 1828.88 248.824 1693.3 181.417C1601.94 135.967 1527.17 127.623 1461.34 120.377C1395.36 113.022 1338.31 106.654 1275.26 66.9126C1166.6 -1.59253 1112.2 -128.063 1112.76 -309.756C1106.06 -307.34 1099.37 -304.815 1092.53 -302.29C1093.51 -119.61 1150.42 8.3978 1262.57 79.0986Z" fill="#071630"/>
<path d="M1434.83 30.5742C1491.6 74.7073 1574.32 71.8529 1662.06 68.8888C1762.49 65.4855 1876.17 61.5332 1981.62 123.342C2058.2 168.243 2087.35 223.025 2113.15 271.33C2139.24 320.404 2163.93 366.732 2231.72 392.532C2326.99 428.87 2460.75 404.608 2630.09 321.062C2628.84 315.463 2627.86 309.864 2626.46 304.265C2460.34 387.591 2330.61 412.622 2240.37 378.26C2179.41 355.095 2157.23 313.377 2131.57 265.182C2104.79 215.011 2074.52 158.033 1993.48 110.607C1882.44 45.5049 1764.86 49.5668 1661.08 53.0799C1574.32 56.0441 1499.28 58.5691 1448.92 19.2665C1371.37 -41.1147 1383.78 -176.698 1484.77 -383.97C1477.24 -383.53 1469.84 -383.201 1462.31 -382.652C1359.93 -170.44 1351 -34.6374 1434.83 30.5742Z" fill="#071630"/>
<path d="M1755.79 -115.658C1791.5 -82.5032 1851.48 -83.7108 1915.08 -84.9185C1985.66 -86.3456 2065.73 -87.8826 2129.61 -43.8593C2181.92 -7.74042 2193.64 37.4905 2204.94 81.4041C2215.96 124.11 2226.42 164.51 2274.54 188.882C2338.15 221.159 2435.37 209.302 2570.11 152.764C2567.6 147.823 2565.09 142.883 2562.44 138.053C2435.09 191.737 2342.05 204.362 2285.56 175.708C2244.55 154.959 2235.48 119.499 2224.88 78.3301C2213.45 34.0872 2200.47 -15.9742 2143.14 -55.6061C2073.4 -103.691 1989.29 -102.045 1914.95 -100.618C1853.85 -99.4099 1800.99 -98.4218 1771.55 -125.758C1730.41 -163.853 1747.7 -242.897 1822.33 -361.244C1815.63 -362.562 1808.94 -363.66 1802.1 -364.757C1724.27 -241.031 1709.2 -158.803 1755.79 -115.658Z" fill="#071630"/>
<path d="M1482.68 413.61C1546.28 305.253 1167.3 62.3016 788.733 -131.906C783.991 -128.064 779.388 -124.221 774.785 -120.269C1231.74 113.241 1511.97 326.002 1464.54 406.913C1416.56 488.812 1026.7 459.39 489.675 334.456C488.559 339.725 487.582 344.995 486.606 350.265C933.38 454.01 1418.51 522.845 1482.68 413.61Z" fill="#071630"/>
<path d="M1073.7 228.954C1101.46 167.694 844.667 45.0659 677.005 -27.1719C673.099 -22.7806 669.194 -18.499 665.427 -14.1076C862.521 71.1944 1074.68 179.88 1054.73 223.684C1033.95 269.684 753.025 243.445 527.057 209.193C524.965 214.243 522.733 219.293 520.78 224.343C695.975 251.13 1043.71 295.263 1073.7 228.954Z" fill="#071630"/>
</g>
</g>
</g>
<g opacity="0.04">
<g filter="url(#filter1_f_1_2)">
<path d="M239.632 2360.26C149.528 2346.73 81.0233 2404.41 8.32782 2465.32C-68.5585 2529.94 -148.024 2596.65 -262.951 2593.91C-435.098 2589.72 -544.222 2427.62 -649.638 2270.67C-749.252 2122.59 -852.251 1969.35 -1007.47 1946.47C-1146.9 1925.84 -1305.67 2015.11 -1481.04 2211.53C-1457.67 2280.5 -1428.01 2347.69 -1392.39 2412.47C-1368.69 2380.89 -1345.16 2353.17 -1322.11 2329.97C-1254.57 2262.45 -1189.45 2231.35 -1126.11 2235.7C-1039.71 2241.67 -994.418 2309.34 -937.196 2394.91C-877.718 2483.85 -803.572 2594.71 -654.313 2670.29C-642.385 2676.25 -358.695 2817.24 -80.8087 2717.5C1.39679 2688.01 58.2957 2646.28 103.912 2612.6C160.65 2570.87 205.46 2537.99 266.227 2551.05C345.531 2567.97 408.878 2656.27 455.461 2813.54C485.764 2790.81 515.422 2766.81 543.953 2741.02C459.168 2505.93 357.137 2377.83 239.632 2360.26Z" fill="url(#paint19_radial_1_2)"/>
<path d="M-423.332 1150.14C-364.982 1207.82 -278.425 1204.12 -178.166 1199.77C-58.2431 1194.61 77.6375 1188.65 205.942 1284.2C299.431 1353.81 334.57 1437.44 365.518 1511.08C395.177 1581.82 420.805 1642.89 491.244 1677.05C595.532 1727.48 745.275 1690.74 937.41 1568.44C922.742 1492.71 900.821 1418.27 872.129 1345.92C716.423 1429.06 604.075 1446.3 530.574 1398.93C474.964 1363.16 463.036 1303.86 450.141 1241.18C437.085 1176.88 423.545 1110.34 363.1 1057.32C289.437 992.707 196.916 994.963 115.195 997.058C41.6931 998.83 -27.6176 1000.6 -68.8815 951.94C-122.718 888.453 -105.31 767.924 -15.8508 586.002C-136.096 558.77 -259.566 549.585 -382.068 558.126C-498.606 862.51 -512.952 1061.51 -423.332 1150.14Z" fill="url(#paint20_radial_1_2)"/>
<path d="M-50.9885 936.954C-16.978 977.077 44.112 975.627 114.712 973.854C200.625 971.76 297.82 969.343 378.414 1039.92C444.823 1098.09 459.653 1171.57 472.87 1236.5C485.12 1296.77 495.758 1348.82 542.986 1379.43C608.428 1421.65 715.779 1402.96 862.943 1324.16C801.853 1178.01 711.91 1040.89 592.954 921.969C425.319 754.388 221.901 644.172 7.36124 591.319C-78.7127 765.023 -98.5387 881.041 -50.9885 936.954Z" fill="url(#paint21_radial_1_2)"/>
<path d="M160.811 2849.79C120.676 2843.99 73.6091 2860.43 31.5392 2894.75C-12.626 2931 -46.4756 2981.76 -67.4299 3041.22C48.3025 3020.11 161.456 2982.57 268.645 2928.75C243.178 2892.17 207.072 2856.56 160.811 2849.79Z" fill="url(#paint22_radial_1_2)"/>
<path d="M261.391 2573.93C210.94 2563.13 171.771 2591.81 117.774 2631.61C70.8681 2666.1 12.5186 2708.96 -72.9106 2739.57C-360.146 2842.7 -652.54 2697.36 -664.79 2691.23C-819.368 2612.92 -895.288 2499.32 -956.377 2408.12C-1010.21 2327.71 -1052.61 2264.23 -1127.56 2259.07C-1205.41 2253.75 -1289.87 2312.89 -1379.82 2435.03C-1343.55 2497.71 -1301.32 2557.97 -1253.28 2615.02C-1193.81 2575.7 -1115.95 2542.02 -1029.88 2551.05C-866.274 2568.29 -699.929 2741.51 -662.856 3006.41C-478.135 3063.13 -282.937 3076.19 -93.3812 3045.73C-75.0059 2987.56 -45.0253 2936.64 -5.53448 2897.16C1.71893 2889.91 9.13373 2883.15 16.8708 2876.86C63.9374 2838.35 117.452 2820.14 164.035 2826.91C219.644 2834.97 261.392 2876.86 289.922 2918.43C340.051 2892.01 388.568 2861.88 435.474 2828.2C391.792 2674.8 333.442 2589.4 261.391 2573.93Z" fill="url(#paint23_radial_1_2)"/>
<path d="M-624.171 1219.59C-551.315 1277.92 -485.389 1287.26 -409.147 1298.06C-332.906 1308.85 -246.671 1321.1 -141.093 1387.65C15.5807 1486.59 75.3814 1616.14 128.09 1730.38C172.9 1827.55 211.585 1911.66 300.077 1958.39C445.145 2035.09 666.455 1976.6 959.816 1784.53C958.687 1720.39 952.562 1656.26 941.44 1592.77C745.759 1715.4 591.18 1751.01 481.089 1697.67C402.752 1659.81 374.222 1591.81 344.08 1519.78C314.261 1448.88 280.573 1368.31 192.081 1302.57C70.3846 1212.01 -61.1442 1217.65 -177.199 1222.65C-278.586 1227 -374.331 1231.19 -439.773 1166.41C-536.647 1070.7 -526.33 871.372 -407.858 559.898C-546.318 572.467 -683.004 608.077 -811.954 666.569C-812.599 933.409 -749.736 1119.04 -624.171 1219.59Z" fill="url(#paint24_radial_1_2)"/>
<path d="M-1004.09 1923.59C-838.711 1947.92 -732.81 2105.51 -630.295 2257.78C-523.428 2416.66 -422.525 2566.84 -262.305 2570.7C-156.244 2573.28 -80.1637 2509.31 -6.5011 2447.6C70.224 2383.14 142.758 2322.23 243.017 2337.38C367.615 2356.07 474.643 2486.11 562.329 2724.27C572.645 2714.6 583.122 2705.09 593.116 2694.94C837.153 2450.98 959.494 2131.61 960.3 1811.92C665.005 2002.54 439.826 2058.78 289.278 1979.18C193.855 1928.74 151.785 1837.22 106.975 1740.37C55.556 1629.03 -2.63257 1502.7 -153.504 1407.47C-254.891 1343.5 -335.001 1332.06 -412.532 1321.1C-488.935 1310.3 -560.985 1300.15 -638.838 1237.79C-768.433 1134.18 -834.197 946.139 -835.326 677.688C-960.085 737.469 -1077.11 818.681 -1180.43 921.969C-1182.52 924.064 -1184.3 926.159 -1186.39 928.253C-748.929 1213.14 -310.984 1569.73 -384.485 1728.93C-458.47 1889.26 -1019.24 1788.23 -1535.68 1635.96C-1561.15 1819.65 -1545.52 2007.86 -1489.42 2186.07C-1472.18 2167.06 -1454.93 2148.85 -1437.84 2131.77C-1280.04 1974.18 -1134.81 1904.25 -1004.09 1923.59Z" fill="url(#paint25_radial_1_2)"/>
<path d="M-1007.47 1946.47C-852.25 1969.35 -749.252 2122.59 -649.638 2270.67C-544.222 2427.46 -435.098 2589.72 -262.95 2593.91C-148.185 2596.65 -68.558 2529.94 8.32825 2465.32C80.8625 2404.41 149.528 2346.73 239.632 2360.26C357.137 2377.83 459.33 2505.93 544.114 2741.35C550.24 2735.71 556.365 2729.91 562.49 2724.11C474.804 2485.79 367.776 2355.91 243.178 2337.22C142.759 2322.23 70.2241 2382.98 -6.33984 2447.44C-80.0024 2509.31 -156.083 2573.12 -262.144 2570.54C-422.364 2566.68 -523.267 2416.5 -630.135 2257.62C-732.488 2105.35 -838.388 1947.76 -1003.93 1923.42C-1134.65 1904.09 -1279.88 1974.02 -1437.52 2131.77C-1454.61 2148.85 -1471.69 2166.9 -1489.1 2186.07C-1486.36 2194.62 -1483.78 2203.16 -1480.88 2211.53C-1305.67 2015.27 -1146.9 1926 -1007.47 1946.47Z" fill="#071630"/>
<path d="M266.227 2551.21C205.46 2538.15 160.649 2571.19 103.912 2612.76C58.2955 2646.28 1.39661 2688.17 -80.8088 2717.66C-358.696 2817.4 -642.385 2676.41 -654.313 2670.45C-803.411 2594.87 -877.557 2484.01 -937.196 2395.07C-994.579 2309.34 -1039.87 2241.83 -1126.11 2235.87C-1189.62 2231.51 -1254.57 2262.61 -1322.11 2330.13C-1345.16 2353.17 -1368.69 2380.89 -1392.39 2412.63C-1388.2 2420.2 -1384.17 2427.62 -1379.82 2435.03C-1289.87 2312.89 -1205.41 2253.59 -1127.56 2259.07C-1052.61 2264.22 -1010.05 2327.71 -956.378 2408.12C-895.288 2499.32 -819.369 2612.92 -664.79 2691.23C-652.54 2697.52 -360.146 2842.7 -72.9108 2739.57C12.5184 2708.96 70.8679 2666.1 117.773 2631.61C171.771 2591.81 210.94 2563.13 261.391 2573.93C333.442 2589.4 391.792 2674.8 435.635 2828.2C442.243 2823.53 448.852 2818.69 455.461 2813.86C408.878 2656.43 345.531 2568.29 266.227 2551.21Z" fill="#071630"/>
<path d="M164.196 2826.91C117.613 2820.14 63.9371 2838.35 17.0316 2876.86C9.29465 2883.31 1.7191 2890.07 -5.37313 2897.16C-44.7028 2936.48 -74.6838 2987.56 -93.2203 3045.73C-84.5162 3044.28 -75.8119 3042.99 -67.2689 3041.38C-46.3146 2981.92 -12.4656 2931 31.6997 2894.91C73.6084 2860.59 120.675 2844.15 160.972 2849.95C207.233 2856.56 243.339 2892.33 268.967 2928.91C276.059 2925.36 283.152 2922.14 290.244 2918.43C261.553 2876.7 219.805 2834.8 164.196 2826.91Z" fill="#071630"/>
<path d="M-638.677 1237.79C-560.824 1299.99 -488.773 1310.3 -412.37 1321.1C-334.839 1332.06 -254.729 1343.34 -153.342 1407.47C-2.47107 1502.7 55.7175 1629.03 107.136 1740.37C151.785 1837.22 194.016 1928.74 289.439 1979.18C439.988 2058.94 665.167 2002.54 960.461 1811.92C960.461 1802.89 960.139 1793.87 959.977 1784.85C666.617 1976.92 445.307 2035.41 300.238 1958.71C211.747 1911.98 173.062 1827.87 128.252 1730.71C75.5435 1616.46 15.7429 1486.91 -140.931 1387.97C-246.509 1321.26 -332.905 1309.02 -408.986 1298.38C-485.227 1287.58 -551.153 1278.24 -624.009 1219.91C-749.574 1119.36 -812.437 933.732 -811.792 667.053C-819.529 670.598 -827.266 674.304 -835.164 678.01C-834.036 946.139 -768.272 1134.02 -638.677 1237.79Z" fill="#071630"/>
<path d="M-439.611 1166.57C-374.008 1231.35 -278.424 1227.16 -177.037 1222.81C-60.9825 1217.81 70.3851 1212.01 192.243 1302.73C280.734 1368.64 314.422 1449.04 344.242 1519.94C374.384 1591.97 402.914 1659.97 481.251 1697.83C591.342 1751.17 745.921 1715.56 941.602 1592.94C940.151 1584.72 939.023 1576.5 937.411 1568.28C745.437 1690.58 595.533 1727.32 491.245 1676.89C420.806 1642.89 395.177 1581.66 365.519 1510.92C334.571 1437.28 299.593 1353.65 205.943 1284.04C77.6382 1188.49 -58.2424 1194.45 -178.166 1199.6C-278.424 1203.96 -365.143 1207.66 -423.331 1149.98C-512.951 1061.35 -498.606 862.349 -381.907 558.125C-390.611 558.77 -399.153 559.253 -407.857 560.059C-526.169 871.533 -536.485 1070.86 -439.611 1166.57Z" fill="#071630"/>
<path d="M-68.7188 951.94C-27.4549 1000.6 41.8554 998.83 115.357 997.058C196.917 994.963 289.439 992.707 363.263 1057.32C423.708 1110.34 437.248 1176.72 450.304 1241.18C463.038 1303.86 475.127 1363.16 530.737 1398.93C604.238 1446.3 716.585 1428.9 872.292 1345.92C869.391 1338.66 866.489 1331.41 863.427 1324.32C716.263 1403.12 608.751 1421.65 543.47 1379.59C496.081 1349.14 485.604 1297.09 473.354 1236.67C460.137 1171.73 445.146 1098.25 378.898 1040.08C298.304 969.503 201.109 971.92 115.196 974.015C44.5959 975.788 -16.494 977.238 -50.5046 937.115C-98.0548 881.201 -78.0678 765.184 8.16734 591.48C0.430351 589.547 -7.30683 587.935 -15.205 586.324C-105.147 767.923 -122.555 888.614 -68.7188 951.94Z" fill="#071630"/>
</g>
</g>
<g style="mix-blend-mode:color-dodge" opacity="0.24">
<mask id="mask1_1_2" style="mask-type:alpha" maskUnits="userSpaceOnUse" x="-708" y="-742" width="1541" height="1540">
<path d="M176.63 485.282C132.901 450.389 78.7588 459.99 21.398 470.016C-39.3296 480.723 -102.072 491.75 -162.312 454.965C-252.519 399.819 -260.686 280.118 -268.468 164.297C-275.89 54.9702 -283.526 -58.1377 -358.992 -118.016C-426.755 -171.839 -538.582 -173.2 -692.172 -122.713C-700.951 -78.8734 -705.843 -34.0436 -706.823 11.3351C-684.521 1.8331 -663.493 -5.66294 -644.11 -10.9097C-587.459 -26.0322 -543.289 -22.5428 -510.958 -0.757271C-466.872 28.9703 -463.603 78.8635 -459.493 141.93C-455.224 207.488 -449.895 289.202 -393.797 375.252C-389.29 382.087 -281.854 544.232 -103.498 576.644C-50.742 586.242 -7.67136 581.552 26.9258 577.676C69.9107 572.936 103.832 569.24 132.117 594.857C169.065 628.228 175.589 694.633 152.002 792.54C175.092 789.78 198.236 786.136 221.325 781.204C248.533 630.189 233.684 530.739 176.63 485.282Z" fill="url(#paint26_radial_1_2)"/>
<path d="M196.272 -361.688C209.551 -313.091 256.695 -288.453 311.319 -259.945C376.642 -225.82 450.694 -187.218 489.513 -96.9909C517.803 -31.2545 510.771 23.9956 504.582 72.6475C498.6 119.362 493.448 159.698 520.384 199.508C560.308 258.373 651.189 284.878 790.903 278.94C806.388 234.179 817.622 187.874 824.614 140.6C716.297 136.926 651.286 111.554 626.783 63.78C608.224 27.6728 620.113 -7.51008 632.528 -44.7888C645.353 -82.9734 658.614 -122.506 642.785 -169.263C623.497 -226.25 573.629 -253.493 529.551 -277.501C489.941 -299.154 452.558 -319.519 445.586 -358.067C436.489 -408.36 482.793 -467.068 586.263 -536.258C530.725 -587.696 467.926 -630.533 400.192 -663.652C244.683 -537.699 175.883 -436.341 196.272 -361.688Z" fill="url(#paint27_radial_1_2)"/>
<path d="M459.703 -360.531C465.445 -328.752 498.359 -310.743 536.428 -289.982C582.733 -264.685 635.135 -236.091 656.274 -173.805C673.688 -122.474 658.982 -78.8622 646.045 -40.2854C634.03 -4.48957 623.684 26.443 639.374 57.2331C661.178 99.7886 723.98 122.855 826.418 126.215C838.877 29.7582 833.227 -70.772 806.559 -170.544C768.978 -311.143 694.745 -432.254 596.966 -526.296C497.82 -460.434 451.619 -404.866 459.703 -360.531Z" fill="url(#paint28_radial_1_2)"/>
<path d="M-15.747 721.232C-35.2954 705.81 -65.3633 700.077 -98.2738 705.387C-132.892 711.079 -166.486 727.651 -195.902 752.811C-127.902 777.169 -56.2204 791.999 17.2942 796.345C15.0027 769.075 6.75976 739.049 -15.747 721.232Z" fill="url(#paint29_radial_1_2)"/>
<path d="M122.513 605.532C99.0169 584.285 69.3821 587.488 28.4479 592.043C-7.08221 595.951 -51.2705 600.795 -106.087 590.805C-290.452 557.318 -401.176 390.185 -405.805 383.165C-463.888 294.024 -469.317 210.309 -473.75 143.056C-477.646 83.771 -480.66 36.9964 -518.911 11.2151C-558.655 -15.5438 -621.725 -10.0774 -707.075 27.1901C-707.069 71.6536 -703.149 116.666 -695.154 161.749C-651.456 159.136 -599.725 165.17 -556.752 196.425C-475.097 255.882 -439.935 399.083 -501.666 551.275C-420.924 638.205 -321.191 705.147 -211.081 747.232C-183.433 721.964 -151.846 704.117 -118.721 695.275C-112.637 693.651 -106.616 692.333 -100.572 691.371C-63.7178 685.372 -29.6781 692.145 -7.00002 710.062C20.0793 731.439 29.3887 766.539 31.7724 797.405C66.5392 798.77 101.589 797.669 136.871 794.189C160.811 699.23 156.052 635.903 122.513 605.532Z" fill="url(#paint30_radial_1_2)"/>
<path d="M68.1786 -386.516C88.9699 -333.117 121.136 -307.884 158.339 -278.709C195.542 -249.534 237.61 -216.516 273.266 -148.69C326.123 -47.9434 318.081 39.2957 310.975 116.219C304.922 181.636 299.626 238.233 332.294 290.272C385.818 375.632 521.423 412.577 736.386 400.673C755.501 366.24 771.96 330.272 785.565 293.11C643.867 298.13 550.763 269.538 508.647 207.348C478.652 163.141 484.392 118.23 490.513 70.6819C496.459 23.8327 503.322 -29.3442 476.499 -91.489C439.657 -177.03 368.017 -214.465 304.799 -247.487C249.576 -276.341 197.4 -303.547 182.531 -358.093C160.467 -438.744 227.223 -541.511 385.94 -670.638C308.486 -706.521 224.891 -729.613 138.375 -738.165C56.0036 -596.54 32.3514 -478.556 68.1786 -386.516Z" fill="url(#paint31_radial_1_2)"/>
<path d="M30.8764 -53.7867C96.5602 -100.143 20.3977 -365.578 -154.897 -710.064C-190.153 -699.711 -224.217 -687.069 -256.821 -672.21C-186.489 -556.213 -84.0513 -369.415 -128.74 -331.488C-177.127 -290.327 -370.738 -448.37 -466.167 -531.451C-490.909 -508.046 -513.892 -482.937 -535.175 -456.616C-261.717 -168.388 -35.5464 -6.94313 30.8764 -53.7867Z" fill="url(#paint32_radial_1_2)"/>
<path d="M-350.159 -129.136C-269.741 -65.3657 -261.901 50.9466 -254.225 163.392C-246.266 280.687 -238.803 391.523 -154.836 442.831C-99.2584 476.805 -39.1574 466.193 18.9651 456.037C79.5574 445.366 136.833 435.291 185.463 474.161C245.939 522.398 262.85 624.412 236.243 777.946C244.698 775.979 253.189 774.147 261.621 771.823C466.319 717.18 629.519 585.047 728.223 415.381C512.678 425.92 375.71 386.587 320.164 298C284.952 241.861 290.728 180.284 296.682 115.038C303.581 40.053 311.489 -44.9779 260.577 -141.971C226.356 -207.138 187.295 -237.845 149.456 -267.502C112.168 -296.727 76.9945 -324.271 54.7858 -381.347C17.7579 -476.253 40.6109 -596.414 122.535 -739.44C37.8496 -746.019 -49.3115 -738.828 -135.977 -715.694C-137.735 -715.224 -139.321 -714.656 -141.079 -714.187C3.85207 -428.293 126.997 -104.14 38.9923 -42.1208C-49.6163 20.3493 -316.603 -205.733 -544.278 -445.423C-614.283 -355.62 -663.829 -250.784 -688.8 -138.821C-673.789 -143.625 -659.025 -148 -644.693 -151.826C-512.378 -187.074 -413.692 -179.598 -350.159 -129.136Z" fill="url(#paint33_radial_1_2)"/>
<path d="M-358.991 -118.015C-283.526 -58.1375 -275.89 54.9704 -268.468 164.297C-260.637 280.033 -252.519 399.819 -162.312 454.966C-102.158 491.701 -39.3295 480.723 21.398 470.016C78.6732 459.941 132.902 450.39 176.63 485.282C233.684 530.739 248.619 630.239 221.311 781.425C226.301 780.31 231.339 779.11 236.378 777.91C263.035 624.291 246.075 522.362 185.598 474.125C136.833 435.291 79.607 445.28 19.1004 456.001C-39.0717 466.243 -99.1233 476.77 -154.701 442.795C-238.668 391.487 -246.131 280.65 -254.09 163.356C-261.68 50.9599 -269.52 -65.3521 -350.023 -129.172C-413.557 -179.634 -512.243 -187.11 -644.522 -151.727C-658.854 -147.901 -673.482 -143.562 -688.629 -138.722C-689.798 -133.34 -691.053 -128.008 -692.086 -122.663C-538.631 -173.114 -426.805 -171.753 -358.991 -118.015Z" fill="#071630"/>
<path d="M132.067 594.943C103.782 569.326 69.8115 573.107 26.8761 577.761C-7.67147 581.552 -50.7916 586.328 -103.548 576.73C-281.904 544.318 -389.34 382.173 -393.846 375.337C-449.859 289.338 -455.188 207.623 -459.543 142.015C-463.689 78.8138 -467.007 29.0063 -511.008 -0.671685C-543.424 -22.5067 -587.509 -25.9466 -644.159 -10.8242C-663.493 -5.66307 -684.521 1.83311 -706.872 11.4207C-706.973 16.7342 -707.11 21.9124 -707.075 27.1898C-621.725 -10.0778 -558.606 -15.6297 -518.911 11.2148C-480.66 36.9961 -477.56 83.8202 -473.75 143.056C-469.317 210.308 -463.888 294.024 -405.805 383.164C-401.226 390.27 -290.452 557.317 -106.087 590.805C-51.2703 600.794 -7.08204 595.951 28.4481 592.043C69.3822 587.488 99.0171 584.285 122.513 605.532C156.052 635.902 160.811 699.23 136.957 794.238C141.906 793.786 146.904 793.249 151.903 792.711C175.539 694.719 168.966 628.4 132.067 594.943Z" fill="#071630"/>
<path d="M-6.91416 710.111C-29.5922 692.194 -63.7176 685.371 -100.486 691.42C-106.58 692.468 -112.686 693.736 -118.635 695.324C-151.625 704.13 -183.262 722.062 -210.996 747.281C-205.924 749.186 -200.901 751.176 -195.865 752.946C-166.45 727.786 -132.807 711.128 -98.2379 705.521C-65.413 700.163 -35.3449 705.896 -15.7108 721.366C6.84544 739.099 15.0387 769.21 17.4159 796.529C22.2751 796.825 27.0353 797.293 31.944 797.503C29.5242 766.502 20.2146 731.402 -6.91416 710.111Z" fill="#071630"/>
<path d="M54.8714 -381.298C77.1296 -324.307 112.254 -296.677 149.542 -267.453C187.381 -237.795 226.491 -207.174 260.663 -141.922C311.575 -44.9284 303.667 40.1025 296.767 115.087C290.728 180.284 285.038 241.91 320.25 298.05C375.746 386.722 512.763 425.969 728.309 415.431C731.083 410.635 733.685 405.739 736.373 400.894C521.41 412.798 385.805 375.854 332.281 290.493C299.613 238.454 304.909 181.857 310.962 116.44C318.068 39.517 326.11 -47.7222 273.253 -148.469C237.647 -216.38 195.492 -249.448 158.326 -278.488C121.123 -307.663 88.9569 -332.896 68.1656 -386.295C32.3383 -478.335 55.9905 -596.319 138.312 -737.858C133.11 -738.352 127.859 -738.761 122.522 -739.219C40.6967 -596.364 17.893 -476.289 54.8714 -381.298Z" fill="#071630"/>
<path d="M182.567 -357.957C197.522 -303.362 249.612 -276.206 304.835 -247.351C368.053 -214.33 439.657 -177.03 476.535 -91.3536C503.308 -29.123 496.496 23.9682 490.55 70.8174C484.428 118.365 478.688 163.276 508.683 207.484C550.8 269.674 643.904 298.265 785.602 293.246C787.357 288.432 789.283 283.717 790.953 278.854C651.324 284.842 560.358 258.287 520.434 199.422C493.448 159.698 498.65 119.276 504.632 72.5621C510.821 23.9101 517.938 -31.2905 489.563 -97.0764C450.744 -187.304 376.692 -225.906 311.369 -260.03C256.745 -288.538 209.515 -313.226 196.322 -361.774C175.933 -436.427 244.732 -537.784 400.277 -663.602C395.453 -665.935 390.764 -668.304 385.89 -670.552C227.26 -541.376 160.503 -438.608 182.567 -357.957Z" fill="#071630"/>
<path d="M445.672 -358.017C452.645 -319.469 490.027 -299.104 529.637 -277.452C573.63 -253.493 623.498 -226.25 642.871 -169.213C658.701 -122.456 645.489 -83.0093 632.614 -44.7391C620.114 -7.50992 608.31 27.7227 626.87 63.8299C651.372 111.603 716.433 136.891 824.7 140.65C825.387 135.905 826.074 131.159 826.626 126.449C724.187 123.089 661.349 99.8876 639.582 57.4673C623.757 26.7133 634.188 -4.16972 646.252 -40.0512C659.19 -78.628 673.81 -122.289 656.481 -173.571C635.343 -235.857 582.941 -264.451 536.635 -289.748C498.567 -310.509 465.653 -328.517 459.91 -360.297C451.826 -404.632 498.114 -460.15 597.344 -525.963C593.827 -529.369 590.21 -532.604 586.507 -535.888C482.879 -467.019 436.526 -408.224 445.672 -358.017Z" fill="#071630"/>
<path d="M39.1274 -42.1571C127.083 -104.091 3.93791 -428.244 -140.943 -714.223C-145.59 -712.91 -150.151 -711.548 -154.761 -710.1C20.5334 -365.614 96.6463 -100.094 31.0121 -53.8228C-35.4107 -6.97917 -261.582 -168.424 -535.04 -456.652C-538.103 -452.937 -541.08 -449.174 -544.057 -445.41C-316.468 -205.769 -49.567 20.2634 39.1274 -42.1571Z" fill="#071630"/>
</mask>
<g mask="url(#mask1_1_2)">
<g filter="url(#filter2_f_1_2)">
<path d="M143.534 624.792C99.8061 589.899 45.6634 599.5 -11.6974 609.526C-72.4249 620.233 -135.167 631.26 -195.408 594.475C-285.615 539.329 -293.782 419.628 -301.563 303.807C-308.985 194.48 -316.621 81.3721 -392.087 21.4942C-459.851 -32.3287 -571.677 -33.6899 -725.268 16.797C-734.046 60.6365 -738.939 105.466 -739.918 150.845C-717.616 141.343 -696.589 133.847 -677.205 128.6C-620.555 113.478 -576.384 116.967 -544.053 138.753C-499.967 168.48 -496.698 218.373 -492.588 281.439C-488.319 346.998 -482.991 428.712 -426.892 514.762C-422.385 521.597 -314.949 683.742 -136.594 716.154C-83.8374 725.752 -40.7667 721.062 -6.16963 717.185C36.8153 712.446 70.7364 708.75 99.0215 734.367C135.97 767.738 142.493 834.143 118.907 932.05C141.997 929.289 165.14 925.646 188.229 920.714C215.437 769.699 200.588 670.249 143.534 624.792Z" fill="url(#paint34_radial_1_2)"/>
<path d="M163.177 -222.178C176.456 -173.581 223.6 -148.943 278.223 -120.435C343.547 -86.3102 417.599 -47.7083 456.418 42.5192C484.707 108.256 477.675 163.506 471.487 212.158C465.505 258.872 460.352 299.208 487.289 339.018C527.213 397.883 618.093 424.388 757.808 418.45C773.293 373.689 784.527 327.384 791.518 280.111C683.202 276.436 618.19 251.064 593.688 203.29C575.129 167.183 587.018 132 599.433 94.7213C612.258 56.5366 625.519 17.0043 609.69 -29.7532C590.402 -86.74 540.534 -113.983 496.456 -137.991C456.846 -159.644 419.463 -180.008 412.491 -218.557C403.394 -268.85 449.697 -327.558 553.168 -396.748C497.63 -448.186 434.83 -491.023 367.096 -524.142C211.587 -398.189 142.788 -296.831 163.177 -222.178Z" fill="url(#paint35_radial_1_2)"/>
<path d="M426.607 -221.021C432.35 -189.242 465.264 -171.233 503.332 -150.472C549.638 -125.175 602.04 -96.5812 623.178 -34.295C640.592 17.0363 625.887 60.6477 612.949 99.2245C600.934 135.02 590.589 165.953 606.279 196.743C628.082 239.298 690.884 262.364 793.323 265.725C805.782 169.268 800.131 68.7379 773.464 -31.0337C735.883 -171.633 661.649 -292.744 563.87 -386.786C464.725 -320.924 418.523 -265.356 426.607 -221.021Z" fill="url(#paint36_radial_1_2)"/>
<path d="M-48.8423 860.742C-68.3908 845.321 -98.4587 839.588 -131.369 844.897C-165.988 850.589 -199.582 867.161 -228.997 892.321C-160.997 916.679 -89.3157 931.509 -15.8011 935.855C-18.0927 908.586 -26.3356 878.559 -48.8423 860.742Z" fill="url(#paint37_radial_1_2)"/>
<path d="M89.4174 745.042C65.9217 723.795 36.2868 726.999 -4.64735 731.553C-40.1774 735.461 -84.3657 740.305 -139.182 730.315C-323.547 696.828 -434.272 529.695 -438.9 522.675C-496.984 433.534 -502.412 349.819 -506.845 282.566C-510.741 223.281 -513.755 176.506 -552.007 150.725C-591.75 123.966 -654.82 129.433 -740.171 166.7C-740.164 211.164 -736.244 256.176 -728.25 301.259C-684.551 298.646 -632.82 304.68 -589.847 335.936C-508.192 395.393 -473.031 538.593 -534.761 690.785C-454.02 777.715 -354.286 844.657 -244.177 886.742C-216.529 861.474 -184.941 843.627 -151.817 834.785C-145.732 833.161 -139.711 831.843 -133.667 830.881C-96.813 824.882 -62.7733 831.655 -40.0953 849.572C-13.016 870.949 -3.7065 906.049 -1.32287 936.915C33.444 938.28 68.4934 937.179 103.776 933.699C127.716 838.74 122.956 775.413 89.4174 745.042Z" fill="url(#paint38_radial_1_2)"/>
<path d="M35.0833 -247.006C55.8746 -193.607 88.0407 -168.374 125.244 -139.199C162.446 -110.024 204.515 -77.0055 240.171 -9.18017C293.028 91.5666 284.986 178.806 277.88 255.729C271.827 321.146 266.531 377.743 299.199 429.782C352.723 515.142 488.328 552.087 703.291 540.183C722.406 505.75 738.865 469.782 752.47 432.62C610.772 437.64 517.668 409.048 475.551 346.858C445.557 302.651 451.296 257.74 457.418 210.192C463.364 163.343 470.226 110.166 443.404 48.021C406.561 -37.5201 334.921 -74.9555 271.704 -107.977C216.48 -136.831 164.305 -164.037 149.435 -218.583C127.371 -299.234 194.128 -402.001 352.844 -531.128C275.391 -567.011 191.796 -590.103 105.279 -598.655C22.9083 -457.03 -0.743925 -339.046 35.0833 -247.006Z" fill="url(#paint39_radial_1_2)"/>
<path d="M-2.21883 85.7233C63.465 39.3666 -12.6975 -226.068 -187.992 -570.554C-223.248 -560.201 -257.313 -547.559 -289.916 -532.7C-219.584 -416.703 -117.146 -229.905 -161.835 -191.978C-210.222 -150.817 -403.834 -308.86 -499.263 -391.941C-524.004 -368.536 -546.987 -343.427 -568.27 -317.106C-294.813 -28.8776 -68.6416 132.567 -2.21883 85.7233Z" fill="url(#paint40_radial_1_2)"/>
<path d="M-383.254 10.3741C-302.837 74.1444 -294.996 190.457 -287.32 302.902C-279.362 420.197 -271.898 531.033 -187.932 582.341C-132.354 616.316 -72.2527 605.703 -14.1302 595.547C46.4621 584.876 103.737 574.801 152.368 613.671C212.844 661.908 229.755 763.922 203.148 917.456C211.602 915.489 220.094 913.657 228.526 911.333C433.224 856.69 596.424 724.557 695.128 554.891C479.582 565.43 342.615 526.097 287.069 437.51C251.857 381.371 257.632 319.794 263.586 254.548C270.486 179.563 278.394 94.5323 227.482 -2.46095C193.261 -67.6277 154.2 -98.3348 116.361 -127.992C79.0725 -157.217 43.8992 -184.761 21.6905 -241.837C-15.3374 -336.743 7.5156 -456.904 89.4397 -599.93C4.75434 -606.508 -82.4068 -599.318 -169.072 -576.183C-170.83 -575.714 -172.416 -575.146 -174.174 -574.677C-29.2432 -288.783 93.902 35.37 5.89702 97.3893C-82.7117 159.859 -349.698 -66.2227 -577.374 -305.913C-647.378 -216.11 -696.924 -111.274 -721.896 0.689361C-706.884 -4.1145 -692.12 -8.49013 -677.788 -12.3159C-545.474 -47.564 -446.788 -40.088 -383.254 10.3741Z" fill="url(#paint41_radial_1_2)"/>
<path d="M-392.087 21.4947C-316.621 81.3726 -308.985 194.481 -301.563 303.807C-293.732 419.543 -285.615 539.329 -195.408 594.476C-135.253 631.211 -72.4249 620.233 -11.6974 609.526C45.5778 599.451 99.8062 589.9 143.535 624.792C200.588 670.249 215.523 769.749 188.216 920.935C193.205 919.821 198.244 918.62 203.283 917.42C229.939 763.801 212.979 661.872 152.503 613.635C103.737 574.801 46.5116 584.79 -13.995 595.511C-72.1671 605.753 -132.219 616.28 -187.797 582.305C-271.763 530.997 -279.227 420.16 -287.185 302.866C-294.775 190.47 -302.616 74.1579 -383.119 10.3381C-446.653 -40.1241 -545.339 -47.6002 -677.617 -12.2168C-691.949 -8.39105 -706.578 -4.05144 -721.725 0.788543C-722.893 6.16991 -724.148 11.5017 -725.182 16.847C-571.727 -33.6039 -459.9 -32.2426 -392.087 21.4947Z" fill="#071630"/>
<path d="M98.9721 734.453C70.6869 708.835 36.7163 712.617 -6.21917 717.271C-40.7667 721.062 -83.8869 725.837 -136.643 716.239C-314.999 683.827 -422.435 521.683 -426.942 514.847C-482.955 428.847 -488.283 347.133 -492.638 281.525C-496.784 218.324 -500.102 168.516 -544.103 138.838C-576.519 117.003 -620.604 113.563 -677.254 128.686C-696.588 133.847 -717.616 141.343 -739.968 150.93C-740.068 156.244 -740.205 161.422 -740.171 166.7C-654.82 129.432 -591.701 123.88 -552.007 150.725C-513.755 176.506 -510.655 223.33 -506.845 282.565C-502.412 349.818 -496.984 433.534 -438.9 522.674C-434.321 529.78 -323.547 696.827 -139.182 730.315C-84.3656 740.304 -40.1773 735.461 -4.64722 731.552C36.287 726.998 65.9218 723.794 89.4175 745.042C122.957 775.412 127.716 838.739 103.862 933.748C108.81 933.296 113.809 932.758 118.807 932.221C142.444 834.229 135.871 767.909 98.9721 734.453Z" fill="#071630"/>
<path d="M-40.0095 849.621C-62.6875 831.704 -96.8129 824.881 -133.581 830.93C-139.675 831.978 -145.782 833.246 -151.731 834.834C-184.72 843.64 -216.357 861.572 -244.091 886.791C-239.019 888.696 -233.996 890.686 -228.961 892.456C-199.545 867.296 -165.902 850.638 -131.333 845.031C-98.5084 839.673 -68.4403 845.406 -48.8061 860.877C-26.2499 878.609 -18.0566 908.72 -15.6794 936.04C-10.8202 936.336 -6.06005 936.803 -1.1513 937.013C-3.57115 906.012 -12.8807 870.912 -40.0095 849.621Z" fill="#071630"/>
<path d="M21.7762 -241.788C44.0344 -184.797 79.1585 -157.167 116.447 -127.943C154.286 -98.2854 193.396 -67.664 227.568 -2.4116C278.48 94.5816 270.572 179.613 263.672 254.597C257.633 319.794 251.943 381.42 287.155 437.56C342.651 526.232 479.668 565.479 695.214 554.941C697.988 550.145 700.59 545.249 703.278 540.404C488.315 552.308 352.71 515.364 299.186 430.003C266.518 377.964 271.814 321.367 277.867 255.95C284.973 179.027 293.015 91.7878 240.158 -8.95894C204.551 -76.8699 162.397 -109.938 125.23 -138.978C88.0275 -168.153 55.8617 -193.386 35.0704 -246.785C-0.756884 -338.825 22.8953 -456.809 105.217 -598.348C100.015 -598.842 94.7636 -599.251 89.4265 -599.709C7.60151 -456.854 -15.2022 -336.779 21.7762 -241.788Z" fill="#071630"/>
<path d="M149.472 -218.447C164.427 -163.852 216.517 -136.696 271.74 -107.841C334.958 -74.8201 406.562 -37.5199 443.44 48.1563C470.213 110.387 463.4 163.478 457.454 210.327C451.333 257.875 445.593 302.786 475.588 346.993C517.704 409.184 610.808 437.775 752.506 432.756C754.262 427.942 756.188 423.227 757.858 418.364C618.229 424.352 527.263 397.797 487.339 338.932C460.353 299.208 465.554 258.786 471.537 212.072C477.725 163.42 484.843 108.219 456.468 42.4335C417.648 -47.7939 343.596 -86.3958 278.273 -120.521C223.649 -149.028 176.42 -173.717 163.227 -222.264C142.838 -296.917 211.637 -398.275 367.182 -524.092C362.358 -526.425 357.669 -528.794 352.795 -531.042C194.164 -401.866 127.408 -299.098 149.472 -218.447Z" fill="#071630"/>
<path d="M412.577 -218.507C419.549 -179.959 456.932 -159.594 496.542 -137.942C540.535 -113.983 590.402 -86.7399 609.776 -29.7035C625.605 17.0539 612.393 56.5005 599.519 94.7708C587.018 132 575.215 167.233 593.774 203.34C618.277 251.113 683.338 276.4 791.605 280.16C792.292 275.414 792.978 270.669 793.53 265.959C691.092 262.599 628.254 239.397 606.486 196.977C590.661 166.223 601.092 135.34 613.157 99.4586C626.094 60.8819 640.714 17.2209 623.386 -34.0609C602.247 -96.347 549.846 -124.941 503.54 -150.238C465.472 -170.999 432.557 -189.007 426.815 -220.787C418.731 -265.122 465.018 -320.64 564.249 -386.453C560.731 -389.859 557.114 -393.094 553.412 -396.378C449.783 -327.509 403.43 -268.714 412.577 -218.507Z" fill="#071630"/>
<path d="M6.03216 97.353C93.9876 35.4193 -29.1574 -288.734 -174.039 -574.713C-178.685 -573.4 -183.246 -572.038 -187.856 -570.59C-12.5619 -226.104 63.5511 39.4163 -2.08319 85.6874C-68.506 132.531 -294.677 -28.9135 -568.135 -317.142C-571.198 -313.427 -574.175 -309.663 -577.152 -305.899C-349.563 -66.259 -82.6622 159.774 6.03216 97.353Z" fill="#071630"/>
</g>
</g>
</g>
<g opacity="0.12" filter="url(#filter3_f_1_2)">
<path d="M1084.76 4525.86L1086.24 5025.95L1495.27 5263.55L1493.79 4763.45L1084.76 4525.86Z" fill="url(#paint42_linear_1_2)"/>
<path d="M1493.79 4763.45L1495.27 5263.55L1907 5025.95L1905.52 4525.86L1493.79 4763.45Z" fill="url(#paint43_linear_1_2)"/>
<path d="M1084.76 4525.86L1493.79 4763.45L1905.52 4525.86L1496.48 4288.13L1084.76 4525.86Z" fill="url(#paint44_linear_1_2)"/>
<path d="M616.03 5237.09L617.511 5737.18L1026.55 5974.91L1025.07 5474.68L616.03 5237.09Z" fill="url(#paint45_linear_1_2)"/>
<path d="M1025.06 5474.68L1026.55 5974.91L1438.27 5737.18L1436.79 5237.09L1025.06 5474.68Z" fill="url(#paint46_linear_1_2)"/>
<path d="M616.03 5237.09L1025.07 5474.68L1436.79 5237.09L1027.76 4999.36L616.03 5237.09Z" fill="url(#paint47_linear_1_2)"/>
<path d="M215 4478.6L216.481 4978.82L625.382 5216.42L624.035 4716.32L215 4478.6Z" fill="url(#paint48_linear_1_2)"/>
<path d="M624.036 4716.32L625.382 5216.42L1037.11 4978.82L1035.76 4478.6L624.036 4716.32Z" fill="url(#paint49_linear_1_2)"/>
<path d="M215 4478.59L624.035 4716.32L1035.76 4478.59L626.728 4241L215 4478.59Z" fill="url(#paint50_linear_1_2)"/>
</g>
</g>
</g>
<defs>
<filter id="filter0_f_1_2" x="232.045" y="-630.093" width="2658.39" height="2195.88" filterUnits="userSpaceOnUse" color-interpolation-filters="sRGB">
<feFlood flood-opacity="0" result="BackgroundImageFix"/>
<feBlend mode="normal" in="SourceGraphic" in2="BackgroundImageFix" result="shape"/>
<feGaussianBlur stdDeviation="122.012" result="effect1_foregroundBlur_1_2"/>
</filter>
<filter id="filter1_f_1_2" x="-1791.56" y="311.02" width="2996.05" height="2994.72" filterUnits="userSpaceOnUse" color-interpolation-filters="sRGB">
<feFlood flood-opacity="0" result="BackgroundImageFix"/>
<feBlend mode="normal" in="SourceGraphic" in2="BackgroundImageFix" result="shape"/>
<feGaussianBlur stdDeviation="122.012" result="effect1_foregroundBlur_1_2"/>
</filter>
<filter id="filter2_f_1_2" x="-984.2" y="-846.282" width="2027.86" height="2027.79" filterUnits="userSpaceOnUse" color-interpolation-filters="sRGB">
<feFlood flood-opacity="0" result="BackgroundImageFix"/>
<feBlend mode="normal" in="SourceGraphic" in2="BackgroundImageFix" result="shape"/>
<feGaussianBlur stdDeviation="122.012" result="effect1_foregroundBlur_1_2"/>
</filter>
<filter id="filter3_f_1_2" x="-84.0001" y="3942" width="2290" height="2331.91" filterUnits="userSpaceOnUse" color-interpolation-filters="sRGB">
<feFlood flood-opacity="0" result="BackgroundImageFix"/>
<feBlend mode="normal" in="SourceGraphic" in2="BackgroundImageFix" result="shape"/>
<feGaussianBlur stdDeviation="149.5" result="effect1_foregroundBlur_1_2"/>
</filter>
<radialGradient id="paint0_radial_1_2" cx="0" cy="0" r="1" gradientUnits="userSpaceOnUse" gradientTransform="translate(776.091 -399.179) rotate(141.795) scale(2248.72 2185.76)">
<stop stop-color="#ED1E79"/>
<stop offset="0.5112" stop-color="#3850C6"/>
<stop offset="1" stop-color="#348AA7"/>
</radialGradient>
<radialGradient id="paint1_radial_1_2" cx="0" cy="0" r="1" gradientUnits="userSpaceOnUse" gradientTransform="translate(776.091 -399.18) rotate(141.795) scale(2248.72 2185.76)">
<stop stop-color="#ED1E79"/>
<stop offset="0.5112" stop-color="#3850C6"/>
<stop offset="1" stop-color="#348AA7"/>
</radialGradient>
<radialGradient id="paint2_radial_1_2" cx="0" cy="0" r="1" gradientUnits="userSpaceOnUse" gradientTransform="translate(776.091 -399.181) rotate(141.795) scale(2248.72 2185.76)">
<stop stop-color="#ED1E79"/>
<stop offset="0.5112" stop-color="#3850C6"/>
<stop offset="1" stop-color="#348AA7"/>
</radialGradient>
<radialGradient id="paint3_radial_1_2" cx="0" cy="0" r="1" gradientUnits="userSpaceOnUse" gradientTransform="translate(776.089 -399.182) rotate(141.795) scale(2248.73 2185.76)">
<stop stop-color="#ED1E79"/>
<stop offset="0.5112" stop-color="#3850C6"/>
<stop offset="1" stop-color="#348AA7"/>
</radialGradient>
<radialGradient id="paint4_radial_1_2" cx="0" cy="0" r="1" gradientUnits="userSpaceOnUse" gradientTransform="translate(776.084 -399.187) rotate(141.795) scale(2248.73 2185.77)">
<stop stop-color="#ED1E79"/>
<stop offset="0.5112" stop-color="#3850C6"/>
<stop offset="1" stop-color="#348AA7"/>
</radialGradient>
<radialGradient id="paint5_radial_1_2" cx="0" cy="0" r="1" gradientUnits="userSpaceOnUse" gradientTransform="translate(776.095 -399.176) rotate(141.795) scale(2248.71 2185.75)">
<stop stop-color="#ED1E79"/>
<stop offset="0.5112" stop-color="#3850C6"/>
<stop offset="1" stop-color="#348AA7"/>
</radialGradient>
<radialGradient id="paint6_radial_1_2" cx="0" cy="0" r="1" gradientUnits="userSpaceOnUse" gradientTransform="translate(776.093 -399.179) rotate(141.795) scale(2248.72 2185.75)">
<stop stop-color="#ED1E79"/>
<stop offset="0.5112" stop-color="#3850C6"/>
<stop offset="1" stop-color="#348AA7"/>
</radialGradient>
<radialGradient id="paint7_radial_1_2" cx="0" cy="0" r="1" gradientUnits="userSpaceOnUse" gradientTransform="translate(776.092 -399.178) rotate(141.795) scale(2248.72 2185.76)">
<stop stop-color="#ED1E79"/>
<stop offset="0.5112" stop-color="#3850C6"/>
<stop offset="1" stop-color="#348AA7"/>
</radialGradient>
<radialGradient id="paint8_radial_1_2" cx="0" cy="0" r="1" gradientUnits="userSpaceOnUse" gradientTransform="translate(776.092 -399.179) rotate(141.795) scale(2248.72 2185.76)">
<stop stop-color="#ED1E79"/>
<stop offset="0.5112" stop-color="#3850C6"/>
<stop offset="1" stop-color="#348AA7"/>
</radialGradient>
<radialGradient id="paint9_radial_1_2" cx="0" cy="0" r="1" gradientUnits="userSpaceOnUse" gradientTransform="translate(776.09 -399.18) rotate(141.795) scale(2248.72 2185.76)">
<stop stop-color="#ED1E79"/>
<stop offset="0.5112" stop-color="#3850C6"/>
<stop offset="1" stop-color="#348AA7"/>
</radialGradient>
<radialGradient id="paint10_radial_1_2" cx="0" cy="0" r="1" gradientUnits="userSpaceOnUse" gradientTransform="translate(834.161 -246.784) rotate(141.795) scale(2248.72 2185.76)">
<stop stop-color="#ED1E79"/>
<stop offset="0.5112" stop-color="#3850C6"/>
<stop offset="1" stop-color="#348AA7"/>
</radialGradient>
<radialGradient id="paint11_radial_1_2" cx="0" cy="0" r="1" gradientUnits="userSpaceOnUse" gradientTransform="translate(834.159 -246.786) rotate(141.795) scale(2248.72 2185.76)">
<stop stop-color="#ED1E79"/>
<stop offset="0.5112" stop-color="#3850C6"/>
<stop offset="1" stop-color="#348AA7"/>
</radialGradient>
<radialGradient id="paint12_radial_1_2" cx="0" cy="0" r="1" gradientUnits="userSpaceOnUse" gradientTransform="translate(834.16 -246.787) rotate(141.795) scale(2248.72 2185.76)">
<stop stop-color="#ED1E79"/>
<stop offset="0.5112" stop-color="#3850C6"/>
<stop offset="1" stop-color="#348AA7"/>
</radialGradient>
<radialGradient id="paint13_radial_1_2" cx="0" cy="0" r="1" gradientUnits="userSpaceOnUse" gradientTransform="translate(834.158 -246.788) rotate(141.795) scale(2248.73 2185.76)">
<stop stop-color="#ED1E79"/>
<stop offset="0.5112" stop-color="#3850C6"/>
<stop offset="1" stop-color="#348AA7"/>
</radialGradient>
<radialGradient id="paint14_radial_1_2" cx="0" cy="0" r="1" gradientUnits="userSpaceOnUse" gradientTransform="translate(834.164 -246.782) rotate(141.795) scale(2248.71 2185.75)">
<stop stop-color="#ED1E79"/>
<stop offset="0.5112" stop-color="#3850C6"/>
<stop offset="1" stop-color="#348AA7"/>
</radialGradient>
<radialGradient id="paint15_radial_1_2" cx="0" cy="0" r="1" gradientUnits="userSpaceOnUse" gradientTransform="translate(834.161 -246.784) rotate(141.795) scale(2248.72 2185.75)">
<stop stop-color="#ED1E79"/>
<stop offset="0.5112" stop-color="#3850C6"/>
<stop offset="1" stop-color="#348AA7"/>
</radialGradient>
<radialGradient id="paint16_radial_1_2" cx="0" cy="0" r="1" gradientUnits="userSpaceOnUse" gradientTransform="translate(834.161 -246.784) rotate(141.795) scale(2248.72 2185.76)">
<stop stop-color="#ED1E79"/>
<stop offset="0.5112" stop-color="#3850C6"/>
<stop offset="1" stop-color="#348AA7"/>
</radialGradient>
<radialGradient id="paint17_radial_1_2" cx="0" cy="0" r="1" gradientUnits="userSpaceOnUse" gradientTransform="translate(834.161 -246.784) rotate(141.795) scale(2248.72 2185.76)">
<stop stop-color="#ED1E79"/>
<stop offset="0.5112" stop-color="#3850C6"/>
<stop offset="1" stop-color="#348AA7"/>
</radialGradient>
<radialGradient id="paint18_radial_1_2" cx="0" cy="0" r="1" gradientUnits="userSpaceOnUse" gradientTransform="translate(834.159 -246.786) rotate(141.795) scale(2248.72 2185.76)">
<stop stop-color="#ED1E79"/>
<stop offset="0.5112" stop-color="#3850C6"/>
<stop offset="1" stop-color="#348AA7"/>
</radialGradient>
<radialGradient id="paint19_radial_1_2" cx="0" cy="0" r="1" gradientUnits="userSpaceOnUse" gradientTransform="translate(-1133.74 759.479) rotate(135.009) scale(2887.32 2887.32)">
<stop stop-color="#ED1E79"/>
<stop offset="0.5112" stop-color="#3850C6"/>
<stop offset="1" stop-color="#348AA7"/>
</radialGradient>
<radialGradient id="paint20_radial_1_2" cx="0" cy="0" r="1" gradientUnits="userSpaceOnUse" gradientTransform="translate(-1133.74 759.477) rotate(135.009) scale(2887.32 2887.32)">
<stop stop-color="#ED1E79"/>
<stop offset="0.5112" stop-color="#3850C6"/>
<stop offset="1" stop-color="#348AA7"/>
</radialGradient>
<radialGradient id="paint21_radial_1_2" cx="0" cy="0" r="1" gradientUnits="userSpaceOnUse" gradientTransform="translate(-1133.74 759.476) rotate(135.009) scale(2887.32 2887.32)">
<stop stop-color="#ED1E79"/>
<stop offset="0.5112" stop-color="#3850C6"/>
<stop offset="1" stop-color="#348AA7"/>
</radialGradient>
<radialGradient id="paint22_radial_1_2" cx="0" cy="0" r="1" gradientUnits="userSpaceOnUse" gradientTransform="translate(-1133.74 759.467) rotate(135.009) scale(2887.33 2887.33)">
<stop stop-color="#ED1E79"/>
<stop offset="0.5112" stop-color="#3850C6"/>
<stop offset="1" stop-color="#348AA7"/>
</radialGradient>
<radialGradient id="paint23_radial_1_2" cx="0" cy="0" r="1" gradientUnits="userSpaceOnUse" gradientTransform="translate(-1133.73 759.483) rotate(135.009) scale(2887.3 2887.3)">
<stop stop-color="#ED1E79"/>
<stop offset="0.5112" stop-color="#3850C6"/>
<stop offset="1" stop-color="#348AA7"/>
</radialGradient>
<radialGradient id="paint24_radial_1_2" cx="0" cy="0" r="1" gradientUnits="userSpaceOnUse" gradientTransform="translate(-1133.74 759.479) rotate(135.009) scale(2887.31 2887.31)">
<stop stop-color="#ED1E79"/>
<stop offset="0.5112" stop-color="#3850C6"/>
<stop offset="1" stop-color="#348AA7"/>
</radialGradient>
<radialGradient id="paint25_radial_1_2" cx="0" cy="0" r="1" gradientUnits="userSpaceOnUse" gradientTransform="translate(-1133.74 759.477) rotate(135.009) scale(2887.32 2887.32)">
<stop stop-color="#ED1E79"/>
<stop offset="0.5112" stop-color="#3850C6"/>
<stop offset="1" stop-color="#348AA7"/>
</radialGradient>
<radialGradient id="paint26_radial_1_2" cx="0" cy="0" r="1" gradientUnits="userSpaceOnUse" gradientTransform="translate(-61.21 -787.702) rotate(165.054) scale(1772.78 1772.78)">
<stop stop-color="#ED1E79"/>
<stop offset="0.5112" stop-color="#3850C6"/>
<stop offset="1" stop-color="#348AA7"/>
</radialGradient>
<radialGradient id="paint27_radial_1_2" cx="0" cy="0" r="1" gradientUnits="userSpaceOnUse" gradientTransform="translate(-61.2106 -787.704) rotate(165.054) scale(1772.78 1772.78)">
<stop stop-color="#ED1E79"/>
<stop offset="0.5112" stop-color="#3850C6"/>
<stop offset="1" stop-color="#348AA7"/>
</radialGradient>
<radialGradient id="paint28_radial_1_2" cx="0" cy="0" r="1" gradientUnits="userSpaceOnUse" gradientTransform="translate(-61.209 -787.703) rotate(165.054) scale(1772.78 1772.78)">
<stop stop-color="#ED1E79"/>
<stop offset="0.5112" stop-color="#3850C6"/>
<stop offset="1" stop-color="#348AA7"/>
</radialGradient>
<radialGradient id="paint29_radial_1_2" cx="0" cy="0" r="1" gradientUnits="userSpaceOnUse" gradientTransform="translate(-61.211 -787.711) rotate(165.054) scale(1772.78 1772.78)">
<stop stop-color="#ED1E79"/>
<stop offset="0.5112" stop-color="#3850C6"/>
<stop offset="1" stop-color="#348AA7"/>
</radialGradient>
<radialGradient id="paint30_radial_1_2" cx="0" cy="0" r="1" gradientUnits="userSpaceOnUse" gradientTransform="translate(-61.2092 -787.699) rotate(165.054) scale(1772.77 1772.77)">
<stop stop-color="#ED1E79"/>
<stop offset="0.5112" stop-color="#3850C6"/>
<stop offset="1" stop-color="#348AA7"/>
</radialGradient>
<radialGradient id="paint31_radial_1_2" cx="0" cy="0" r="1" gradientUnits="userSpaceOnUse" gradientTransform="translate(-61.21 -787.702) rotate(165.054) scale(1772.78 1772.78)">
<stop stop-color="#ED1E79"/>
<stop offset="0.5112" stop-color="#3850C6"/>
<stop offset="1" stop-color="#348AA7"/>
</radialGradient>
<radialGradient id="paint32_radial_1_2" cx="0" cy="0" r="1" gradientUnits="userSpaceOnUse" gradientTransform="translate(-61.2102 -787.702) rotate(165.054) scale(1772.78 1772.78)">
<stop stop-color="#ED1E79"/>
<stop offset="0.5112" stop-color="#3850C6"/>
<stop offset="1" stop-color="#348AA7"/>
</radialGradient>
<radialGradient id="paint33_radial_1_2" cx="0" cy="0" r="1" gradientUnits="userSpaceOnUse" gradientTransform="translate(-61.2103 -787.703) rotate(165.054) scale(1772.78 1772.78)">
<stop stop-color="#ED1E79"/>
<stop offset="0.5112" stop-color="#3850C6"/>
<stop offset="1" stop-color="#348AA7"/>
</radialGradient>
<radialGradient id="paint34_radial_1_2" cx="0" cy="0" r="1" gradientUnits="userSpaceOnUse" gradientTransform="translate(-94.3054 -648.192) rotate(165.054) scale(1772.78 1772.78)">
<stop stop-color="#ED1E79"/>
<stop offset="0.5112" stop-color="#3850C6"/>
<stop offset="1" stop-color="#348AA7"/>
</radialGradient>
<radialGradient id="paint35_radial_1_2" cx="0" cy="0" r="1" gradientUnits="userSpaceOnUse" gradientTransform="translate(-94.3058 -648.194) rotate(165.054) scale(1772.78 1772.78)">
<stop stop-color="#ED1E79"/>
<stop offset="0.5112" stop-color="#3850C6"/>
<stop offset="1" stop-color="#348AA7"/>
</radialGradient>
<radialGradient id="paint36_radial_1_2" cx="0" cy="0" r="1" gradientUnits="userSpaceOnUse" gradientTransform="translate(-94.3043 -648.194) rotate(165.054) scale(1772.78 1772.78)">
<stop stop-color="#ED1E79"/>
<stop offset="0.5112" stop-color="#3850C6"/>
<stop offset="1" stop-color="#348AA7"/>
</radialGradient>
<radialGradient id="paint37_radial_1_2" cx="0" cy="0" r="1" gradientUnits="userSpaceOnUse" gradientTransform="translate(-94.3064 -648.201) rotate(165.054) scale(1772.78 1772.78)">
<stop stop-color="#ED1E79"/>
<stop offset="0.5112" stop-color="#3850C6"/>
<stop offset="1" stop-color="#348AA7"/>
</radialGradient>
<radialGradient id="paint38_radial_1_2" cx="0" cy="0" r="1" gradientUnits="userSpaceOnUse" gradientTransform="translate(-94.3044 -648.189) rotate(165.054) scale(1772.77 1772.77)">
<stop stop-color="#ED1E79"/>
<stop offset="0.5112" stop-color="#3850C6"/>
<stop offset="1" stop-color="#348AA7"/>
</radialGradient>
<radialGradient id="paint39_radial_1_2" cx="0" cy="0" r="1" gradientUnits="userSpaceOnUse" gradientTransform="translate(-94.3053 -648.192) rotate(165.054) scale(1772.78 1772.78)">
<stop stop-color="#ED1E79"/>
<stop offset="0.5112" stop-color="#3850C6"/>
<stop offset="1" stop-color="#348AA7"/>
</radialGradient>
<radialGradient id="paint40_radial_1_2" cx="0" cy="0" r="1" gradientUnits="userSpaceOnUse" gradientTransform="translate(-94.3054 -648.192) rotate(165.054) scale(1772.78 1772.78)">
<stop stop-color="#ED1E79"/>
<stop offset="0.5112" stop-color="#3850C6"/>
<stop offset="1" stop-color="#348AA7"/>
</radialGradient>
<radialGradient id="paint41_radial_1_2" cx="0" cy="0" r="1" gradientUnits="userSpaceOnUse" gradientTransform="translate(-94.3056 -648.193) rotate(165.054) scale(1772.78 1772.78)">
<stop stop-color="#ED1E79"/>
<stop offset="0.5112" stop-color="#3850C6"/>
<stop offset="1" stop-color="#348AA7"/>
</radialGradient>
<linearGradient id="paint42_linear_1_2" x1="1399.61" y1="4807.06" x2="1116.16" y2="5033.87" gradientUnits="userSpaceOnUse">
<stop stop-color="#916EFF"/>
<stop offset="1" stop-color="#644EE5"/>
</linearGradient>
<linearGradient id="paint43_linear_1_2" x1="1656.5" y1="5017.6" x2="1791.09" y2="4640.66" gradientUnits="userSpaceOnUse">
<stop stop-color="#3850C6"/>
<stop offset="1" stop-color="#644EE5"/>
</linearGradient>
<linearGradient id="paint44_linear_1_2" x1="1485.57" y1="4690.98" x2="1508" y2="4305.08" gradientUnits="userSpaceOnUse">
<stop stop-color="#CFA4FC"/>
<stop offset="1" stop-color="#A994FF"/>
</linearGradient>
<linearGradient id="paint45_linear_1_2" x1="930.863" y1="5518.31" x2="647.413" y2="5745.11" gradientUnits="userSpaceOnUse">
<stop stop-color="#348AA7"/>
<stop offset="1" stop-color="#115F79"/>
</linearGradient>
<linearGradient id="paint46_linear_1_2" x1="1143.14" y1="5846.49" x2="1318.11" y2="5370.83" gradientUnits="userSpaceOnUse">
<stop stop-color="#14637D"/>
<stop offset="1" stop-color="#3389A6"/>
</linearGradient>
<linearGradient id="paint47_linear_1_2" x1="1024.83" y1="5373.28" x2="1029.31" y2="4991.87" gradientUnits="userSpaceOnUse">
<stop stop-color="#73BDD6"/>
<stop offset="1" stop-color="#5BB2CF"/>
</linearGradient>
<linearGradient id="paint48_linear_1_2" x1="529.8" y1="4759.88" x2="246.349" y2="4986.68" gradientUnits="userSpaceOnUse">
<stop stop-color="#FF5AA9"/>
<stop offset="1" stop-color="#CE3686"/>
</linearGradient>
<linearGradient id="paint49_linear_1_2" x1="754.367" y1="5045.66" x2="888.963" y2="4695.65" gradientUnits="userSpaceOnUse">
<stop stop-color="#BC2093"/>
<stop offset="1" stop-color="#CE3686"/>
</linearGradient>
<linearGradient id="paint50_linear_1_2" x1="621.834" y1="4607.55" x2="628.565" y2="4361.88" gradientUnits="userSpaceOnUse">
<stop stop-color="#FFBDD1"/>
<stop offset="1" stop-color="#FF8FCA"/>
</linearGradient>
<clipPath id="clip0_1_2">
<rect width="1920" height="6500" fill="white"/>
</clipPath>
</defs>
</svg>
