<svg width="190" height="39" viewBox="0 0 190 39" fill="none" xmlns="http://www.w3.org/2000/svg">
<path d="M2.38431 29.5V1.93137H14.0078C14.902 1.93137 15.8085 2.04314 16.7275 2.26667C17.6712 2.46536 18.5281 2.88758 19.298 3.53333C20.0928 4.15425 20.7261 5.09804 21.198 6.3647C21.6948 7.63137 21.9431 9.30784 21.9431 11.3941C21.9431 13.4804 21.6948 15.1693 21.198 16.4608C20.7261 17.7523 20.1052 18.7333 19.3353 19.4039C18.5654 20.0745 17.7333 20.5216 16.8392 20.7451C15.9451 20.9686 15.0758 21.0804 14.2314 21.0804C13.7843 21.0804 13.2627 21.068 12.6667 21.0431C12.0706 20.9935 11.4621 20.9314 10.8412 20.8569C10.2451 20.7824 9.68628 20.7203 9.16471 20.6706C8.64314 20.5961 8.22092 20.534 7.89804 20.4843V29.5H2.38431ZM7.89804 16.1255H13.3745C14.0203 16.1255 14.5667 15.9765 15.0137 15.6784C15.4856 15.3556 15.8333 14.8588 16.0569 14.1882C16.2804 13.4928 16.3922 12.5739 16.3922 11.4314C16.3922 10.3137 16.268 9.43202 16.0196 8.78627C15.7961 8.11569 15.4608 7.63137 15.0137 7.33333C14.5915 7.03529 14.0824 6.88627 13.4863 6.88627H7.89804V16.1255ZM25.2623 29.5V9.49412H29.5094L30.776 12.549C31.4963 11.6301 32.3035 10.8477 33.1976 10.202C34.1166 9.55621 35.197 9.23333 36.4388 9.23333C36.712 9.23333 36.9852 9.24575 37.2584 9.27059C37.5564 9.29542 37.8296 9.3451 38.078 9.41961V15.0824C37.7055 15.0327 37.3081 14.9954 36.8858 14.9706C36.4885 14.9209 36.1035 14.8961 35.7309 14.8961C35.0107 14.8961 34.3525 14.983 33.7564 15.1569C33.1852 15.3059 32.6512 15.5418 32.1545 15.8647C31.6826 16.1627 31.2231 16.5601 30.776 17.0569V29.5H25.2623ZM49.5842 29.6863C47.945 29.6863 46.5418 29.5248 45.3744 29.202C44.2071 28.8542 43.2509 28.283 42.5058 27.4882C41.7855 26.6935 41.2516 25.6379 40.9038 24.3216C40.581 23.0052 40.4195 21.3784 40.4195 19.4412C40.4195 17.4046 40.581 15.7281 40.9038 14.4118C41.2516 13.0706 41.7855 12.0275 42.5058 11.2824C43.2509 10.5124 44.2071 9.97843 45.3744 9.68039C46.5666 9.35752 47.9699 9.19608 49.5842 9.19608C51.2483 9.19608 52.664 9.35752 53.8313 9.68039C54.9986 10.0033 55.9424 10.5497 56.6627 11.3196C57.4078 12.0647 57.9418 13.1078 58.2646 14.449C58.6123 15.7654 58.7862 17.4294 58.7862 19.4412C58.7862 21.4281 58.6248 23.0922 58.3019 24.4333C57.979 25.7497 57.4574 26.7928 56.7372 27.5627C56.0169 28.3327 55.0607 28.8791 53.8685 29.202C52.7012 29.5248 51.2731 29.6863 49.5842 29.6863ZM49.5842 25.2902C50.2548 25.2902 50.8136 25.2281 51.2607 25.1039C51.7326 24.9797 52.1052 24.7314 52.3784 24.3588C52.6764 23.9614 52.8999 23.3654 53.0489 22.5706C53.198 21.7758 53.2725 20.7327 53.2725 19.4412C53.2725 18.1248 53.198 17.0817 53.0489 16.3118C52.8999 15.517 52.6764 14.9333 52.3784 14.5608C52.1052 14.1634 51.7326 13.9026 51.2607 13.7784C50.8136 13.6542 50.2548 13.5922 49.5842 13.5922C48.9385 13.5922 48.3797 13.6542 47.9078 13.7784C47.4607 13.9026 47.0882 14.1634 46.7901 14.5608C46.4921 14.9333 46.2685 15.517 46.1195 16.3118C45.9953 17.0817 45.9333 18.1248 45.9333 19.4412C45.9333 20.7327 45.9953 21.7758 46.1195 22.5706C46.2685 23.3654 46.4921 23.9614 46.7901 24.3588C47.0882 24.7314 47.4607 24.9797 47.9078 25.1039C48.3797 25.2281 48.9385 25.2902 49.5842 25.2902ZM74.5896 29.5L60.6562 9.49412H66.2072L80.1778 29.5H74.5896ZM60.6562 29.5L68.368 17.7647L70.3797 22.9431L66.2445 29.5H60.6562ZM72.4288 21.3039L70.0817 16.6843L74.5896 9.49412H80.1778L72.4288 21.3039ZM88.8588 38.3294L91.0195 29.5C89.9019 29.5 88.9209 29.2889 88.0764 28.8667C87.232 28.4444 86.5241 27.8484 85.9529 27.0784C85.4065 26.2837 84.9843 25.3026 84.6862 24.1353L80.9235 9.49412H86.6607L89.8274 23.0176C89.9516 23.4895 90.113 23.8621 90.3117 24.1353C90.5104 24.4085 90.7215 24.6072 90.945 24.7314C91.1686 24.8307 91.3673 24.9052 91.5411 24.9549C91.7398 24.9797 91.8888 24.9922 91.9882 24.9922L95.6019 9.49412H101.19L95.2294 34.6412L93.4411 38.3294H88.8588Z" fill="url(#paint0_linear_845_463)"/>
<path d="M120.255 29.7235C118.641 29.7235 117.212 29.5373 115.971 29.1647C114.754 28.7922 113.723 28.1092 112.878 27.1157C112.059 26.1222 111.438 24.7065 111.016 22.8686C110.594 21.0307 110.382 18.6216 110.382 15.6412C110.382 12.8346 110.594 10.5248 111.016 8.71176C111.463 6.89869 112.109 5.483 112.953 4.4647C113.822 3.4464 114.878 2.73856 116.12 2.34118C117.361 1.94379 118.777 1.7451 120.367 1.7451C121.46 1.7451 122.515 1.80719 123.533 1.93137C124.577 2.05556 125.533 2.20457 126.402 2.37843C127.296 2.55229 128.066 2.73856 128.712 2.93725V6.47647C128.29 6.37712 127.694 6.2902 126.924 6.21569C126.154 6.11634 125.284 6.04183 124.316 5.99216C123.347 5.91765 122.341 5.88039 121.298 5.88039C120.156 5.88039 119.175 6.01699 118.355 6.2902C117.56 6.53856 116.914 7.01046 116.418 7.70588C115.921 8.40131 115.561 9.39477 115.337 10.6863C115.114 11.9778 115.002 13.6542 115.002 15.7157C115.002 17.7523 115.101 19.4163 115.3 20.7078C115.524 21.9993 115.859 23.0052 116.306 23.7255C116.778 24.4209 117.411 24.9052 118.206 25.1784C119.026 25.4516 120.044 25.5882 121.261 25.5882C123.124 25.5882 124.651 25.551 125.843 25.4765C127.035 25.3771 127.992 25.2778 128.712 25.1784V28.7176C128.016 28.9163 127.222 29.0902 126.327 29.2392C125.458 29.3882 124.514 29.5 123.496 29.5745C122.503 29.6739 121.422 29.7235 120.255 29.7235ZM136.758 29.7235C135.268 29.7235 134.051 29.2765 133.107 28.3824C132.164 27.4882 131.692 26.2588 131.692 24.6941V23.0176C131.692 21.4778 132.213 20.2235 133.256 19.2549C134.324 18.2863 135.951 17.802 138.137 17.802H143.837V16.051C143.837 15.3556 143.713 14.7719 143.464 14.3C143.216 13.8281 142.769 13.4804 142.123 13.2569C141.477 13.0085 140.496 12.8843 139.18 12.8843H133.145V10.202C134.064 9.95359 135.144 9.74248 136.386 9.56863C137.628 9.36993 139.105 9.27059 140.819 9.27059C142.458 9.24575 143.849 9.44444 144.992 9.86667C146.134 10.2641 146.991 10.9346 147.562 11.8784C148.158 12.8222 148.456 14.1137 148.456 15.7529V29.5H144.843L144.06 27.3392C143.886 27.4882 143.576 27.6869 143.129 27.9353C142.682 28.1837 142.123 28.4569 141.452 28.7549C140.782 29.0281 140.037 29.2641 139.217 29.4627C138.422 29.6366 137.603 29.7235 136.758 29.7235ZM138.994 26.4824C139.316 26.4824 139.677 26.4451 140.074 26.3706C140.496 26.2712 140.918 26.1719 141.341 26.0725C141.763 25.9484 142.148 25.8366 142.496 25.7373C142.868 25.6131 143.166 25.5013 143.39 25.402C143.638 25.3026 143.787 25.2405 143.837 25.2157V20L139.515 20.2235C138.373 20.3229 137.541 20.6209 137.019 21.1176C136.522 21.6144 136.274 22.2725 136.274 23.0922V23.9118C136.274 24.5327 136.398 25.0418 136.647 25.4392C136.92 25.8118 137.255 26.0725 137.652 26.2216C138.075 26.3706 138.522 26.4575 138.994 26.4824ZM160.186 29.7235C159.615 29.7235 158.957 29.6987 158.212 29.649C157.491 29.6242 156.759 29.5745 156.014 29.5C155.293 29.4503 154.623 29.3758 154.002 29.2765C153.381 29.1771 152.872 29.0654 152.474 28.9412V26.2216H161.08C161.701 26.2216 162.223 26.1719 162.645 26.0725C163.092 25.9732 163.427 25.7745 163.651 25.4765C163.874 25.1784 163.986 24.7314 163.986 24.1353V23.4275C163.986 22.8065 163.775 22.3222 163.353 21.9745C162.955 21.602 162.248 21.4157 161.229 21.4157H158.212C157.044 21.4157 156.001 21.2542 155.082 20.9314C154.188 20.6085 153.48 20.0621 152.959 19.2922C152.437 18.5222 152.176 17.4791 152.176 16.1627V15.0451C152.176 13.7784 152.412 12.7353 152.884 11.9157C153.381 11.0712 154.188 10.4379 155.306 10.0157C156.448 9.56863 157.963 9.3451 159.851 9.3451C160.646 9.3451 161.502 9.38235 162.421 9.45686C163.34 9.53137 164.222 9.63072 165.066 9.7549C165.911 9.85425 166.582 9.97843 167.078 10.1274V12.8471H158.957C158.038 12.8471 157.33 13.0085 156.833 13.3314C156.361 13.6294 156.125 14.2007 156.125 15.0451V15.7529C156.125 16.2993 156.237 16.7091 156.461 16.9824C156.684 17.2556 157.019 17.4418 157.466 17.5412C157.914 17.6405 158.448 17.6902 159.068 17.6902H162.161C164.123 17.6902 165.576 18.1373 166.519 19.0314C167.463 19.9255 167.935 21.1922 167.935 22.8314V24.4706C167.935 25.8118 167.625 26.8673 167.004 27.6373C166.383 28.4072 165.489 28.9536 164.321 29.2765C163.179 29.5745 161.8 29.7235 160.186 29.7235ZM179.929 29.6863C177.768 29.6863 176.042 29.3882 174.75 28.7922C173.483 28.1961 172.565 27.1654 171.993 25.7C171.422 24.2098 171.136 22.1484 171.136 19.5157C171.136 16.8333 171.41 14.7595 171.956 13.2941C172.502 11.8039 173.409 10.7608 174.676 10.1647C175.942 9.56863 177.656 9.27059 179.817 9.27059C181.729 9.27059 183.257 9.46928 184.399 9.86667C185.566 10.2392 186.411 10.9222 186.932 11.9157C187.479 12.8843 187.752 14.2627 187.752 16.051C187.752 17.3176 187.504 18.3359 187.007 19.1059C186.51 19.851 185.79 20.385 184.846 20.7078C183.927 21.0307 182.834 21.1922 181.568 21.1922H175.719C175.768 22.434 175.93 23.4275 176.203 24.1725C176.501 24.8928 177.023 25.4144 177.768 25.7373C178.538 26.0601 179.655 26.2216 181.121 26.2216H187.156V28.9412C186.138 29.1399 185.057 29.3137 183.915 29.4627C182.797 29.6118 181.468 29.6863 179.929 29.6863ZM175.682 18.398H181.121C181.99 18.398 182.623 18.2366 183.021 17.9137C183.443 17.566 183.654 16.9451 183.654 16.051C183.654 15.1817 183.53 14.4987 183.282 14.002C183.033 13.5052 182.623 13.1575 182.052 12.9588C181.481 12.7353 180.736 12.6235 179.817 12.6235C178.774 12.6235 177.954 12.785 177.358 13.1078C176.762 13.4307 176.327 14.0144 176.054 14.8588C175.806 15.6784 175.682 16.8582 175.682 18.398Z" fill="white"/>
<defs>
<linearGradient id="paint0_linear_845_463" x1="108.738" y1="5.51409" x2="82.9891" y2="56.0701" gradientUnits="userSpaceOnUse">
<stop stop-color="#2F1FED"/>
<stop offset="0.496225" stop-color="#4558A7"/>
<stop offset="1" stop-color="#0080AA"/>
</linearGradient>
</defs>
</svg>
