<svg width="400" height="400" viewBox="0 0 400 400" fill="none" xmlns="http://www.w3.org/2000/svg">
<g clip-path="url(#clip0_937_1016)">
<rect x="0.188904" y="-0.000427246" width="399.22" height="399.22" rx="110.978" fill="url(#paint0_linear_937_1016)"/>
<mask id="mask0_937_1016" style="mask-type:alpha" maskUnits="userSpaceOnUse" x="50" y="51" width="305" height="305">
<mask id="path-2-inside-1_937_1016" fill="white">
<path fill-rule="evenodd" clip-rule="evenodd" d="M155.187 149.7C148.491 159.19 142.699 167.379 133.28 168.641C118.822 170.569 101.604 155.156 81.976 122.931C89.8755 111.11 99.4679 100.437 110.471 91.3554C120.795 112.424 130.602 122.568 140.228 122.126C147.586 121.804 152.328 115.355 157.363 108.507L157.394 108.465L157.396 108.462C162.998 100.829 169.331 92.1992 180.472 90.0292C189.6 88.2529 196.651 91.7174 203.459 95.0621L203.485 95.075L203.579 95.1211C210.203 98.3713 216.443 101.433 223.631 98.8852C233.164 95.5102 239.545 83.9956 242.96 63.8437C251.621 66.3582 259.993 69.6094 267.967 73.6338C265.559 99.8862 258.325 116.204 246.316 122.187C238.201 126.223 230.802 124.248 222.242 121.964L222.204 121.954L222.199 121.953L222.199 121.953C213.274 119.574 203.122 116.868 190.127 120.505C172.29 125.484 163.204 138.349 155.187 149.7ZM284.309 222.097C283.89 211.18 283.493 200.879 291.08 193.617L291.093 193.627C301.036 184.105 319.994 183.836 347.526 192.716C347.866 197.141 347.969 201.563 347.899 205.951C330.194 199.086 317.621 198.629 310.452 204.692C304.95 209.323 304.792 215.765 304.594 223.915C304.44 230.48 304.232 238.644 301.118 248.262C290.575 280.791 257.571 296.795 256.177 297.459C238.678 305.78 223.285 304.725 210.92 303.869L210.87 303.865C199.009 303.063 189.622 302.427 182.961 309.906C178.067 315.407 176.301 323.566 177.704 334.536C178.194 338.277 179.061 342.409 180.279 346.812C171.825 345.479 163.562 343.433 155.594 340.694C150.021 310.712 153.085 289.848 164.853 278.536C177.914 265.958 199.199 267.359 219.792 268.714L219.887 268.72C241.73 270.18 264.297 271.66 276.876 256.193C285.273 245.876 284.797 233.862 284.315 222.244L284.309 222.097ZM140.123 119.443C146.203 119.162 150.406 113.467 155.24 106.879L155.274 106.833C161.158 98.834 167.815 89.7853 179.967 87.3973C189.949 85.4351 197.707 89.2473 204.572 92.6204L204.667 92.6674L204.703 92.6847C211.082 95.8204 216.578 98.5217 222.722 96.3614C231.23 93.3546 237.115 82.1968 240.32 63.1438C222.604 58.3908 203.672 56.9195 184.352 59.3911C157.126 62.8739 132.624 73.7049 112.597 89.6171C122.402 109.804 131.631 119.841 140.123 119.443ZM211.384 348.25C211.997 340.6 214.288 331.865 220.587 325.27L220.597 325.258C232.833 312.486 258.498 309.778 283.85 323.756C265.672 336.035 244.419 344.397 221.169 347.371C217.905 347.788 214.63 348.038 211.384 348.25ZM330.338 235.496C326.965 238.771 325.137 244.242 325.308 250.517C325.499 257.128 327.744 263.826 331.71 269.954C337.973 257.868 342.547 244.836 345.204 231.202C340.059 230.946 334.234 231.725 330.338 235.496ZM307.291 223.999C307.471 216.234 307.62 210.607 312.183 206.75L312.193 206.738C318.711 201.232 330.673 201.936 347.813 208.805C347.573 215.483 346.903 222.069 345.767 228.534C339.936 228.208 333.15 229.065 328.47 233.59C324.552 237.364 322.422 243.562 322.622 250.6C322.659 251.769 322.75 252.92 322.9 254.097C323.722 260.515 326.263 266.882 330.288 272.675C319.647 292.183 304.63 309.147 286.351 322.048C259.446 306.689 231.804 309.65 218.636 323.42C211.709 330.671 209.28 340.179 208.675 348.416C200.044 348.787 191.529 348.386 183.227 347.27C178.415 330.383 178.967 318.463 184.974 311.702C190.746 305.218 199.538 305.815 210.69 306.573L210.748 306.577L210.845 306.583C223.51 307.442 239.257 308.511 257.339 299.917L257.352 299.91C258.947 299.133 292.808 282.636 303.677 249.119C306.92 239.135 307.125 230.755 307.291 224.023L307.291 223.999ZM125.417 191.957C135.919 189.418 141.437 184.046 147.824 177.828L147.837 177.815C154.23 171.592 161.457 164.573 175.029 159.598C195.186 152.259 211.274 155.951 225.478 159.211L225.491 159.214L225.544 159.226C237.602 161.998 248.03 164.395 258.562 159.61C275.862 151.755 286.178 127.334 289.362 86.8536C283.411 82.4125 277.101 78.4348 270.506 74.9563C267.884 101.563 260.188 118.245 247.509 124.551C238.492 129.045 230.244 126.85 221.514 124.502L221.433 124.481C212.842 122.19 203.106 119.595 190.846 123.042C173.942 127.777 165.141 140.216 157.373 151.195L157.366 151.205C150.582 160.807 144.179 169.864 133.618 171.283C117.986 173.384 100.462 158.315 80.3181 125.411C71.6615 138.989 65.2444 154.018 61.4639 169.984C85.8619 188.948 107.311 196.327 125.417 191.957ZM64.648 248.066C92.2419 236.083 124.209 224.94 128.478 231.583C132.951 238.583 106.432 265.584 83.3259 285.919C75.4038 274.451 69.0638 261.765 64.648 248.066ZM186.66 207.291C179.647 193.845 128.116 201.408 59.3359 225.509C60.3816 232.361 61.8921 239.051 63.8462 245.505C87.2979 235.282 124.788 220.826 130.741 230.131C137.211 240.216 102.804 272.424 84.8886 288.168C88.6468 293.375 92.7541 298.311 97.1383 302.941C157.884 259.081 193.746 220.875 186.669 207.279L186.66 207.291ZM219.983 266.038C198.798 264.646 176.919 263.208 162.993 276.619L163.003 276.606C151.971 287.226 148.087 305.474 151.353 331.091C151.708 333.867 152.154 336.733 152.674 339.657C132.373 332.165 114.024 320.259 99.0058 304.926C149.53 268.41 198.504 224.193 189.052 206.06C179.684 188.051 116.008 202.912 58.9226 222.808C58.9037 222.61 58.8712 222.421 58.8388 222.234C58.8147 222.094 58.7907 221.954 58.7725 221.812C56.6248 205.024 57.4646 188.564 60.8322 172.899C85.5064 191.816 107.384 199.106 126.057 194.573C137.263 191.866 143.291 185.994 149.684 179.767L149.709 179.743C156.201 173.417 162.927 166.891 175.973 162.13C195.362 155.073 211.047 158.67 224.872 161.84L224.915 161.85L224.952 161.859C236.984 164.626 248.333 167.235 259.701 162.072C277.663 153.928 288.451 129.312 291.908 88.763C321.131 111.477 341.72 145.305 346.779 184.934C346.968 186.271 347.088 187.593 347.209 188.924C347.237 189.227 347.264 189.53 347.292 189.834C319.26 181.007 299.768 181.604 289.231 191.687C280.745 199.79 281.187 210.755 281.653 222.338L281.654 222.347L281.659 222.485C282.087 233.559 282.528 244.999 274.808 254.494C263.106 268.879 242.233 267.504 220.128 266.047L220.075 266.044L219.983 266.038Z"/>
</mask>
<path d="M133.28 168.641L133.72 171.941L133.722 171.941L133.28 168.641ZM155.187 149.7L152.468 147.78L152.467 147.781L155.187 149.7ZM81.976 122.931L79.2078 121.082L78.0272 122.848L79.1326 124.663L81.976 122.931ZM110.471 91.3554L113.461 89.8904L111.605 86.1029L108.352 88.7877L110.471 91.3554ZM140.228 122.126L140.083 118.8L140.076 118.8L140.228 122.126ZM157.363 108.507L160.046 110.479L160.046 110.479L157.363 108.507ZM157.394 108.465L160.077 110.437L160.081 110.431L157.394 108.465ZM157.396 108.462L154.712 106.493L154.709 106.496L157.396 108.462ZM180.472 90.0292L179.836 86.7611L179.836 86.7612L180.472 90.0292ZM203.459 95.0621L201.99 98.0502L201.992 98.0509L203.459 95.0621ZM203.485 95.075L202.018 98.0639L202.019 98.0641L203.485 95.075ZM203.579 95.1211L205.046 92.1322L205.045 92.132L203.579 95.1211ZM223.631 98.8852L222.52 95.7467L222.519 95.7472L223.631 98.8852ZM242.96 63.8437L243.888 60.6464L240.301 59.6051L239.677 63.2876L242.96 63.8437ZM267.967 73.6338L271.283 73.9379L271.49 71.6821L269.467 70.6615L267.967 73.6338ZM246.316 122.187L247.798 125.168L247.8 125.167L246.316 122.187ZM222.242 121.964L221.383 125.181L221.384 125.181L222.242 121.964ZM222.204 121.954L223.062 118.737L223.055 118.735L222.204 121.954ZM222.199 121.953L221.286 125.155L221.316 125.163L221.347 125.171L222.199 121.953ZM222.199 121.953L223.111 118.751L223.084 118.743L223.056 118.736L222.199 121.953ZM190.127 120.505L191.022 123.712L191.024 123.711L190.127 120.505ZM291.08 193.617L293.117 190.983L290.849 189.23L288.778 191.212L291.08 193.617ZM284.309 222.097L287.636 221.969L287.636 221.969L284.309 222.097ZM291.093 193.627L289.056 196.261L291.325 198.014L293.395 196.031L291.093 193.627ZM347.526 192.716L350.845 192.46L350.674 190.233L348.548 189.547L347.526 192.716ZM347.899 205.951L346.695 209.055L351.15 210.782L351.227 206.004L347.899 205.951ZM310.452 204.692L312.596 207.239L312.602 207.234L310.452 204.692ZM304.594 223.915L301.265 223.834L301.265 223.838L304.594 223.915ZM301.118 248.262L304.285 249.288L304.285 249.287L301.118 248.262ZM256.177 297.459L257.607 300.465L257.608 300.465L256.177 297.459ZM210.92 303.869L211.15 300.547L211.145 300.547L210.92 303.869ZM210.87 303.865L210.645 307.187L210.646 307.187L210.87 303.865ZM182.961 309.906L180.475 307.691L180.473 307.693L182.961 309.906ZM177.704 334.536L174.402 334.959L174.403 334.969L177.704 334.536ZM180.279 346.812L179.76 350.101L184.866 350.906L183.488 345.925L180.279 346.812ZM155.594 340.694L152.321 341.302L152.676 343.211L154.512 343.842L155.594 340.694ZM164.853 278.536L167.16 280.936L167.162 280.934L164.853 278.536ZM219.792 268.714L219.573 272.036L219.573 272.036L219.792 268.714ZM219.887 268.72L220.109 265.398L220.105 265.398L219.887 268.72ZM276.876 256.193L274.294 254.091L274.293 254.092L276.876 256.193ZM284.315 222.244L280.988 222.372L280.989 222.382L284.315 222.244ZM155.24 106.879L152.558 104.906L152.555 104.909L155.24 106.879ZM140.123 119.443L139.969 116.117L139.967 116.118L140.123 119.443ZM155.274 106.833L157.955 108.806L157.955 108.806L155.274 106.833ZM179.967 87.3973L180.609 90.6641L180.609 90.6641L179.967 87.3973ZM204.572 92.6204L203.103 95.6085L203.103 95.6086L204.572 92.6204ZM204.667 92.6674L203.199 95.6556L203.2 95.6559L204.667 92.6674ZM204.703 92.6847L206.171 89.6968L206.17 89.6963L204.703 92.6847ZM222.722 96.3614L223.826 99.5023L223.831 99.5005L222.722 96.3614ZM240.32 63.1438L243.604 63.6961L244.106 60.7122L241.183 59.9282L240.32 63.1438ZM184.352 59.3911L184.774 62.6935L184.352 59.3911ZM112.597 89.6171L110.526 87.0104L108.436 88.6708L109.602 91.0717L112.597 89.6171ZM220.587 325.27L222.995 327.57L223.115 327.444L223.221 327.307L220.587 325.27ZM211.384 348.25L208.066 347.984L207.758 351.824L211.601 351.572L211.384 348.25ZM220.597 325.258L218.193 322.954L218.071 323.082L217.963 323.221L220.597 325.258ZM283.85 323.756L285.713 326.515L290.224 323.469L285.457 320.841L283.85 323.756ZM221.169 347.371L221.591 350.673L221.169 347.371ZM325.308 250.517L321.979 250.607L321.98 250.613L325.308 250.517ZM330.338 235.496L328.022 233.104L328.018 233.108L330.338 235.496ZM331.71 269.954L328.915 271.763L332.029 276.575L334.666 271.486L331.71 269.954ZM345.204 231.202L348.472 231.839L349.206 228.067L345.369 227.877L345.204 231.202ZM312.183 206.75L314.332 209.293L314.601 209.066L314.817 208.787L312.183 206.75ZM307.291 223.999L310.619 224.082L310.62 224.076L307.291 223.999ZM312.193 206.738L310.044 204.194L309.774 204.422L309.559 204.701L312.193 206.738ZM347.813 208.805L351.14 208.925L351.225 206.586L349.052 205.715L347.813 208.805ZM345.767 228.534L345.581 231.858L348.534 232.023L349.046 229.11L345.767 228.534ZM328.47 233.59L330.78 235.988L330.785 235.984L328.47 233.59ZM322.622 250.6L319.294 250.695L319.295 250.705L322.622 250.6ZM330.288 272.675L333.211 274.269L334.195 272.464L333.022 270.775L330.288 272.675ZM286.351 322.048L284.701 324.939L286.54 325.99L288.271 324.768L286.351 322.048ZM218.636 323.42L216.23 321.12L216.229 321.121L218.636 323.42ZM208.675 348.416L208.818 351.742L211.778 351.615L211.995 348.66L208.675 348.416ZM183.227 347.27L180.026 348.183L180.623 350.279L182.784 350.57L183.227 347.27ZM184.974 311.702L182.488 309.488L182.486 309.49L184.974 311.702ZM210.69 306.573L210.464 309.894L210.465 309.894L210.69 306.573ZM210.748 306.577L210.523 309.898L210.523 309.898L210.748 306.577ZM210.845 306.583L211.07 303.261L211.07 303.261L210.845 306.583ZM257.339 299.917L258.768 302.924L258.782 302.917L258.797 302.91L257.339 299.917ZM257.352 299.91L258.81 302.904L258.81 302.903L257.352 299.91ZM303.677 249.119L300.511 248.091L300.51 248.092L303.677 249.119ZM307.291 224.023L303.962 223.941L303.962 223.942L307.291 224.023ZM147.824 177.828L150.147 180.213L150.147 180.213L147.824 177.828ZM125.417 191.957L126.198 195.193L126.2 195.193L125.417 191.957ZM147.837 177.815L145.515 175.429L145.514 175.43L147.837 177.815ZM175.029 159.598L173.889 156.47L173.883 156.472L175.029 159.598ZM225.478 159.211L224.734 162.456L224.736 162.457L225.478 159.211ZM225.491 159.214L226.237 155.969L226.234 155.968L225.491 159.214ZM225.544 159.226L226.29 155.981L226.289 155.981L225.544 159.226ZM258.562 159.61L257.186 156.579L257.185 156.579L258.562 159.61ZM289.362 86.8536L292.681 87.1147L292.825 85.2838L291.353 84.1854L289.362 86.8536ZM270.506 74.9563L272.059 72.0115L267.679 69.7011L267.193 74.6298L270.506 74.9563ZM247.509 124.551L246.027 121.57L246.024 121.571L247.509 124.551ZM221.514 124.502L222.378 121.287L222.371 121.285L221.514 124.502ZM221.433 124.481L220.575 127.698L220.575 127.698L221.433 124.481ZM190.846 123.042L191.744 126.248L191.747 126.247L190.846 123.042ZM157.373 151.195L160.089 153.119L160.091 153.118L157.373 151.195ZM157.366 151.205L154.649 149.28L154.647 149.284L157.366 151.205ZM133.618 171.283L133.174 167.983L133.174 167.983L133.618 171.283ZM80.3181 125.411L83.1576 123.673L80.3754 119.129L77.5108 123.622L80.3181 125.411ZM61.4639 169.984L58.2241 169.217L57.731 171.3L59.4207 172.613L61.4639 169.984ZM128.478 231.583L131.284 229.79L131.279 229.783L128.478 231.583ZM64.648 248.066L63.3219 245.012L60.5531 246.214L61.4792 249.087L64.648 248.066ZM83.3259 285.919L80.5866 287.811L82.7147 290.892L85.5255 288.418L83.3259 285.919ZM59.3359 225.509L58.2348 222.367L55.6278 223.281L56.0446 226.011L59.3359 225.509ZM186.66 207.291L183.708 208.831L186.112 213.442L189.293 209.328L186.66 207.291ZM63.8462 245.505L60.6597 246.47L61.7446 250.053L65.1765 248.557L63.8462 245.505ZM130.741 230.131L127.936 231.925L127.939 231.929L130.741 230.131ZM84.8886 288.168L82.6909 285.667L80.4187 287.663L82.189 290.116L84.8886 288.168ZM97.1383 302.941L94.7207 305.23L96.7244 307.347L99.0872 305.641L97.1383 302.941ZM186.669 207.279L189.622 205.741L187.219 201.124L184.035 205.242L186.669 207.279ZM162.993 276.619L160.36 274.582L165.303 279.017L162.993 276.619ZM219.983 266.038L219.764 269.36L219.983 266.038ZM163.003 276.606L165.637 278.643L160.694 274.208L163.003 276.606ZM151.353 331.091L148.05 331.512L148.05 331.514L151.353 331.091ZM152.674 339.657L151.522 342.78L156.97 344.791L155.952 339.073L152.674 339.657ZM99.0058 304.926L97.0555 302.227L93.9213 304.493L96.6272 307.255L99.0058 304.926ZM189.052 206.06L186.099 207.596L186.1 207.599L189.052 206.06ZM58.9226 222.808L55.6082 223.124L56.0107 227.349L60.0183 225.952L58.9226 222.808ZM58.8388 222.234L55.5577 222.798L55.5577 222.799L58.8388 222.234ZM58.7725 221.812L62.0749 221.39L58.7725 221.812ZM60.8322 172.899L62.8579 170.256L58.6829 167.055L57.5773 172.199L60.8322 172.899ZM126.057 194.573L125.275 191.337L125.271 191.338L126.057 194.573ZM149.684 179.767L152.008 182.152L152.008 182.151L149.684 179.767ZM149.709 179.743L152.032 182.127L152.032 182.127L149.709 179.743ZM175.973 162.13L174.834 159.001L174.832 159.002L175.973 162.13ZM224.872 161.84L225.616 158.595L225.616 158.595L224.872 161.84ZM224.915 161.85L225.66 158.605L225.659 158.605L224.915 161.85ZM224.952 161.859L225.698 158.614L225.697 158.614L224.952 161.859ZM259.701 162.072L258.326 159.04L258.324 159.041L259.701 162.072ZM291.908 88.763L293.951 86.1344L289.112 82.3725L288.591 88.4802L291.908 88.763ZM346.779 184.934L343.476 185.356L343.479 185.379L343.482 185.401L346.779 184.934ZM347.209 188.924L343.893 189.225L343.893 189.225L347.209 188.924ZM347.292 189.834L346.293 193.01L351.074 194.515L350.607 189.524L347.292 189.834ZM289.231 191.687L291.53 194.095L291.533 194.092L289.231 191.687ZM281.653 222.338L278.327 222.472L278.327 222.473L281.653 222.338ZM281.654 222.347L284.98 222.219L284.98 222.213L281.654 222.347ZM281.659 222.485L284.986 222.356L284.986 222.356L281.659 222.485ZM274.808 254.494L277.391 256.595L277.391 256.594L274.808 254.494ZM220.128 266.047L219.909 269.369L219.909 269.369L220.128 266.047ZM220.075 266.044L220.294 262.722L220.293 262.722L220.075 266.044ZM133.722 171.941C139.366 171.185 143.796 168.345 147.584 164.635C151.305 160.99 154.605 156.3 157.908 151.62L152.467 147.781C149.073 152.591 146.129 156.74 142.925 159.878C139.788 162.95 136.613 164.835 132.838 165.341L133.722 171.941ZM79.1326 124.663C89.0224 140.9 98.4336 153.124 107.351 161.078C116.222 168.991 125.086 173.093 133.72 171.941L132.84 165.341C127.016 166.117 120.042 163.476 111.783 156.109C103.57 148.782 94.5577 137.187 84.8194 121.199L79.1326 124.663ZM108.352 88.7877C97.0941 98.0793 87.2842 108.995 79.2078 121.082L84.7442 124.781C92.4667 113.224 101.842 102.795 112.591 93.9232L108.352 88.7877ZM140.076 118.8C136.594 118.96 132.604 117.249 128.005 112.493C123.408 107.739 118.557 100.289 113.461 89.8904L107.482 92.8204C112.71 103.491 117.924 111.647 123.218 117.122C128.51 122.594 134.236 125.734 140.381 125.452L140.076 118.8ZM154.681 106.535C152.114 110.026 149.865 113.064 147.416 115.31C145.036 117.494 142.722 118.685 140.083 118.8L140.374 125.452C145.092 125.246 148.828 123.051 151.917 120.217C154.938 117.447 157.577 113.836 160.046 110.479L154.681 106.535ZM154.712 106.493L154.681 106.535L160.046 110.479L160.077 110.437L154.712 106.493ZM154.709 106.496L154.708 106.498L160.081 110.431L160.082 110.429L154.709 106.496ZM179.836 86.7612C167.231 89.2162 160.192 99.0243 154.712 106.493L160.08 110.432C165.804 102.633 171.43 95.1823 181.109 93.2971L179.836 86.7612ZM204.927 92.0739C198.196 88.7672 190.194 84.7455 179.836 86.7611L181.108 93.2972C189.006 91.7603 195.106 94.6676 201.99 98.0502L204.927 92.0739ZM204.952 92.0862L204.925 92.0732L201.992 98.0509L202.018 98.0639L204.952 92.0862ZM205.045 92.132L204.951 92.086L202.019 98.0641L202.113 98.1102L205.045 92.132ZM222.519 95.7472C216.853 97.7555 211.905 95.4982 205.046 92.1322L202.112 98.11C208.5 101.245 216.032 105.111 224.743 102.023L222.519 95.7472ZM239.677 63.2876C238.003 73.1713 235.638 80.6818 232.675 86.0463C229.733 91.3753 226.308 94.4054 222.52 95.7467L224.742 102.024C230.487 99.99 235.02 95.5753 238.504 89.2653C241.969 82.9908 244.503 74.668 246.242 64.3999L239.677 63.2876ZM269.467 70.6615C261.3 66.5397 252.736 63.215 243.888 60.6464L242.032 67.0411C250.507 69.5015 258.686 72.6792 266.467 76.6061L269.467 70.6615ZM247.8 125.167C254.696 121.732 259.963 115.446 263.783 106.866C267.596 98.3044 270.06 87.2678 271.283 73.9379L264.652 73.3296C263.466 86.2523 261.11 96.501 257.7 104.157C254.3 111.795 249.944 116.66 244.831 119.207L247.8 125.167ZM221.384 125.181C229.775 127.42 238.401 129.841 247.798 125.168L244.833 119.206C238.001 122.604 231.828 121.076 223.1 118.747L221.384 125.181ZM221.345 125.171L221.383 125.181L223.101 118.748L223.062 118.737L221.345 125.171ZM221.347 125.171L221.352 125.172L223.055 118.735L223.051 118.734L221.347 125.171ZM221.286 125.154L221.286 125.155L223.111 118.751L223.111 118.751L221.286 125.154ZM191.024 123.711C203.073 120.339 212.441 122.797 221.341 125.17L223.056 118.736C214.107 116.35 203.171 113.397 189.229 117.299L191.024 123.711ZM157.907 151.621C165.967 140.207 174.454 128.337 191.022 123.712L189.231 117.298C170.126 122.632 160.44 136.491 152.468 147.78L157.907 151.621ZM288.778 191.212C279.921 199.689 280.577 211.688 280.982 222.225L287.636 221.969C287.202 210.671 287.065 202.069 293.382 196.022L288.778 191.212ZM293.129 190.993L293.117 190.983L289.044 196.251L289.056 196.261L293.129 190.993ZM348.548 189.547C334.6 185.048 322.59 182.786 312.661 182.942C302.717 183.097 294.565 185.692 288.79 191.222L293.395 196.031C297.563 192.04 303.862 189.739 312.766 189.6C321.685 189.46 332.919 191.503 346.504 195.884L348.548 189.547ZM351.227 206.004C351.3 201.529 351.195 197.003 350.845 192.46L344.206 192.971C344.538 197.279 344.639 201.597 344.57 205.897L351.227 206.004ZM312.602 207.234C315.366 204.896 319.398 203.605 325.11 203.801C330.849 203.998 338.029 205.695 346.695 209.055L349.102 202.846C340.064 199.342 332.105 197.378 325.338 197.146C318.546 196.913 312.706 198.425 308.302 202.15L312.602 207.234ZM307.922 223.997C308.129 215.495 308.433 210.743 312.596 207.239L308.308 202.145C301.467 207.903 301.455 216.035 301.265 223.834L307.922 223.997ZM304.285 249.287C307.561 239.171 307.768 230.585 307.922 223.993L301.265 223.838C301.113 230.376 300.903 238.116 297.95 247.236L304.285 249.287ZM257.608 300.465C258.452 300.063 267.32 295.756 277.352 287.364C287.37 278.984 298.751 266.362 304.285 249.288L297.951 247.235C292.941 262.692 282.549 274.335 273.08 282.256C263.626 290.164 255.295 294.191 254.746 294.453L257.608 300.465ZM210.69 307.19C223.086 308.048 239.257 309.191 257.607 300.465L254.747 294.452C238.098 302.369 223.484 301.401 211.15 300.547L210.69 307.19ZM210.646 307.187L210.696 307.191L211.145 300.547L211.095 300.544L210.646 307.187ZM185.447 312.12C188.141 309.095 191.367 307.666 195.443 307.075C199.684 306.46 204.613 306.779 210.645 307.187L211.095 300.544C205.267 300.149 199.571 299.749 194.488 300.485C189.24 301.246 184.441 303.238 180.475 307.691L185.447 312.12ZM181.007 334.114C179.665 323.627 181.454 316.609 185.448 312.119L180.473 307.693C174.68 314.205 172.937 323.505 174.402 334.959L181.007 334.114ZM183.488 345.925C182.303 341.641 181.471 337.662 181.005 334.104L174.403 334.969C174.917 338.891 175.819 343.178 177.07 347.7L183.488 345.925ZM154.512 343.842C162.667 346.645 171.119 348.738 179.76 350.101L180.798 343.524C172.532 342.22 164.458 340.22 156.677 337.545L154.512 343.842ZM162.545 276.136C149.468 288.707 146.716 311.147 152.321 341.302L158.868 340.085C153.326 310.276 156.701 290.99 167.16 280.936L162.545 276.136ZM220.01 265.391C209.782 264.718 199.006 264 189.132 265.091C179.218 266.186 169.808 269.142 162.543 276.138L167.162 280.934C172.959 275.352 180.722 272.719 189.864 271.709C199.045 270.695 209.208 271.354 219.573 272.036L220.01 265.391ZM220.105 265.398L220.01 265.391L219.573 272.036L219.668 272.042L220.105 265.398ZM274.293 254.092C268.723 260.942 260.859 264.193 251.398 265.506C241.855 266.831 231.111 266.133 220.109 265.398L219.665 272.042C230.505 272.766 241.966 273.539 252.313 272.102C262.742 270.654 272.451 266.912 279.459 258.294L274.293 254.092ZM280.989 222.382C281.478 234.174 281.784 244.889 274.294 254.091L279.459 258.295C288.762 246.863 288.116 233.55 287.641 222.106L280.989 222.382ZM280.982 222.225L280.988 222.372L287.642 222.116L287.636 221.969L280.982 222.225ZM152.555 104.909C150.09 108.27 148.014 111.072 145.862 113.106C143.761 115.092 141.911 116.028 139.969 116.117L140.276 122.769C144.414 122.578 147.706 120.525 150.436 117.946C153.113 115.415 155.556 112.076 157.924 108.848L152.555 104.909ZM152.592 104.86L152.558 104.906L157.922 108.852L157.955 108.806L152.592 104.86ZM179.325 84.1304C165.732 86.8017 158.379 96.9931 152.592 104.86L157.955 108.806C163.937 100.675 169.899 92.769 180.609 90.6641L179.325 84.1304ZM206.04 89.6323C199.236 86.2888 190.533 81.9273 179.325 84.1305L180.609 90.6641C189.366 88.9429 196.179 92.2058 203.103 95.6085L206.04 89.6323ZM206.135 89.6793L206.04 89.6322L203.103 95.6086L203.199 95.6556L206.135 89.6793ZM206.17 89.6963L206.135 89.6789L203.2 95.6559L203.235 95.6732L206.17 89.6963ZM221.618 93.2206C217.016 94.8385 212.846 92.9779 206.171 89.6968L203.234 95.6726C209.318 98.663 216.139 102.205 223.826 99.5023L221.618 93.2206ZM237.037 62.5915C235.465 71.9354 233.272 79.1023 230.567 84.2126C227.867 89.3154 224.812 92.0915 221.613 93.2224L223.831 99.5005C229.139 97.6245 233.282 93.3183 236.452 87.3272C239.619 81.3437 241.97 73.4052 243.604 63.6961L237.037 62.5915ZM184.774 62.6935C203.654 60.2782 222.151 61.7162 239.458 66.3594L241.183 59.9282C223.058 55.0655 203.689 53.5608 183.929 56.0886L184.774 62.6935ZM114.668 92.2238C134.233 76.6785 158.169 66.097 184.774 62.6935L183.929 56.0886C156.083 59.6509 131.014 70.7313 110.526 87.0104L114.668 92.2238ZM139.967 116.118C137.169 116.249 133.624 114.683 129.3 109.993C125.023 105.355 120.432 98.1287 115.592 88.1626L109.602 91.0717C114.567 101.293 119.493 109.179 124.404 114.507C129.268 119.782 134.585 123.036 140.278 122.769L139.967 116.118ZM218.18 322.97C211.138 330.343 208.709 339.952 208.066 347.984L214.703 348.516C215.285 341.247 217.438 333.388 222.995 327.57L218.18 322.97ZM217.963 323.221L217.953 323.234L223.221 327.307L223.231 327.294L217.963 323.221ZM285.457 320.841C259.329 306.434 231.848 308.702 218.193 322.954L223.001 327.561C233.817 316.271 257.668 313.122 282.242 326.672L285.457 320.841ZM221.591 350.673C245.373 347.631 267.117 339.077 285.713 326.515L281.986 320.997C264.227 332.994 243.466 341.162 220.747 344.068L221.591 350.673ZM211.601 351.572C214.864 351.359 218.222 351.104 221.591 350.673L220.747 344.068C217.587 344.473 214.396 344.717 211.167 344.928L211.601 351.572ZM328.636 250.426C328.481 244.752 330.157 240.312 332.657 237.884L328.018 233.108C323.773 237.23 321.792 243.731 321.979 250.607L328.636 250.426ZM334.505 268.145C330.824 262.457 328.807 256.343 328.636 250.42L321.98 250.613C322.191 257.913 324.664 265.195 328.915 271.763L334.505 268.145ZM341.936 230.565C339.34 243.885 334.872 256.617 328.754 268.423L334.666 271.486C341.075 259.12 345.753 245.786 348.472 231.839L341.936 230.565ZM332.653 237.888C335.53 235.103 340.16 234.284 345.038 234.527L345.369 227.877C339.958 227.607 332.937 228.346 328.022 233.104L332.653 237.888ZM310.034 204.208C304.115 209.211 304.133 216.593 303.963 223.922L310.62 224.076C310.81 215.875 311.126 212.003 314.332 209.293L310.034 204.208ZM309.559 204.701L309.549 204.714L314.817 208.787L314.826 208.774L309.559 204.701ZM349.052 205.715C340.31 202.212 332.66 200.183 326.213 199.807C319.758 199.431 314.178 200.703 310.044 204.194L314.341 209.281C316.725 207.267 320.385 206.138 325.826 206.455C331.275 206.772 338.176 208.53 346.575 211.896L349.052 205.715ZM349.046 229.11C350.21 222.485 350.895 215.746 351.14 208.925L344.486 208.686C344.251 215.22 343.596 221.653 342.487 227.957L349.046 229.11ZM330.785 235.984C334.449 232.44 340.045 231.548 345.581 231.858L345.952 225.21C339.827 224.867 331.851 225.689 326.156 231.197L330.785 235.984ZM325.95 250.505C325.768 244.111 327.722 238.933 330.78 235.988L326.16 231.192C321.381 235.795 319.075 243.012 319.294 250.695L325.95 250.505ZM326.203 253.675C326.066 252.604 325.984 251.559 325.95 250.496L319.295 250.705C319.335 251.98 319.434 253.236 319.598 254.519L326.203 253.675ZM333.022 270.775C329.271 265.377 326.949 259.51 326.203 253.675L319.598 254.519C320.494 261.519 323.254 268.386 327.553 274.575L333.022 270.775ZM288.271 324.768C306.971 311.57 322.329 294.219 333.211 274.269L327.365 271.081C316.966 290.146 302.29 306.724 284.432 319.328L288.271 324.768ZM221.042 325.721C232.793 313.433 258.609 310.044 284.701 324.939L288.002 319.157C260.284 303.334 230.815 305.867 216.23 321.12L221.042 325.721ZM211.995 348.66C212.572 340.815 214.864 332.189 221.043 325.72L216.229 321.121C208.554 329.154 205.989 339.544 205.355 348.172L211.995 348.66ZM182.784 350.57C191.279 351.712 199.991 352.121 208.818 351.742L208.532 345.09C200.098 345.452 191.779 345.061 183.671 343.971L182.784 350.57ZM182.486 309.49C175.227 317.659 175.183 331.191 180.026 348.183L186.429 346.358C181.647 329.575 182.706 319.267 187.463 313.913L182.486 309.49ZM210.915 303.251C205.439 302.879 200.091 302.502 195.381 303.121C190.529 303.758 186.054 305.482 182.488 309.488L187.461 313.916C189.667 311.438 192.473 310.219 196.248 309.723C200.165 309.208 204.789 309.509 210.464 309.894L210.915 303.251ZM210.973 303.255L210.915 303.251L210.465 309.894L210.523 309.898L210.973 303.255ZM211.07 303.261L210.973 303.255L210.523 309.898L210.62 309.905L211.07 303.261ZM255.91 296.91C238.674 305.102 223.7 304.118 211.07 303.261L210.619 309.905C223.32 310.767 239.841 311.92 258.768 302.924L255.91 296.91ZM255.894 296.917L255.881 296.923L258.797 302.91L258.81 302.904L255.894 296.917ZM300.51 248.092C295.336 264.046 284.645 276.061 274.897 284.242C265.165 292.408 256.569 296.588 255.894 296.917L258.81 302.903C259.73 302.455 268.862 297.998 279.177 289.342C289.474 280.701 301.148 267.709 306.844 250.146L300.51 248.092ZM303.962 223.942C303.798 230.649 303.591 238.605 300.511 248.091L306.844 250.148C310.248 239.665 310.453 230.861 310.619 224.105L303.962 223.942ZM303.963 223.916L303.962 223.941L310.619 224.106L310.619 224.082L303.963 223.916ZM145.502 175.442C139.131 181.645 134.177 186.414 124.635 188.721L126.2 195.193C137.66 192.422 143.744 186.447 150.147 180.213L145.502 175.442ZM145.514 175.43L145.501 175.443L150.147 180.213L150.16 180.2L145.514 175.43ZM173.883 156.472C159.619 161.701 151.974 169.141 145.515 175.429L150.16 180.2C156.485 174.042 163.295 167.445 176.174 162.724L173.883 156.472ZM226.223 155.966C211.989 152.699 195.043 148.768 173.889 156.47L176.168 162.727C195.329 155.75 210.559 159.203 224.734 162.456L226.223 155.966ZM226.234 155.968L226.22 155.965L224.736 162.457L224.749 162.46L226.234 155.968ZM226.289 155.981L226.237 155.969L224.746 162.459L224.798 162.471L226.289 155.981ZM257.185 156.579C247.845 160.822 238.564 158.803 226.29 155.981L224.798 162.471C236.64 165.193 248.214 167.968 259.939 162.641L257.185 156.579ZM286.043 86.5926C284.466 106.647 281.136 122.479 276.189 134.169C271.247 145.85 264.82 153.112 257.186 156.579L259.939 162.642C269.604 158.253 276.985 149.376 282.322 136.764C287.655 124.16 291.074 107.541 292.681 87.1147L286.043 86.5926ZM268.953 77.9012C275.397 81.2999 281.56 85.1854 287.371 89.5219L291.353 84.1854C285.262 79.6397 278.806 75.5697 272.059 72.0115L268.953 77.9012ZM248.992 127.532C263.348 120.392 271.182 102.045 273.819 75.2829L267.193 74.6298C264.586 101.082 257.029 116.098 246.027 121.57L248.992 127.532ZM220.649 127.717C229.246 130.029 238.702 132.66 248.994 127.531L246.024 121.571C238.281 125.43 231.242 123.67 222.378 121.287L220.649 127.717ZM220.575 127.698L220.656 127.719L222.371 121.285L222.29 121.263L220.575 127.698ZM191.747 126.247C203.053 123.068 211.996 125.411 220.575 127.698L222.29 121.264C213.687 118.97 203.159 116.122 189.945 119.837L191.747 126.247ZM160.091 153.118C167.914 142.061 176.113 130.626 191.744 126.248L189.948 119.836C171.771 124.928 162.368 138.371 154.655 149.272L160.091 153.118ZM160.082 153.129L160.089 153.119L154.656 149.27L154.649 149.28L160.082 153.129ZM134.061 174.583C140.258 173.75 145.121 170.669 149.222 166.707C153.258 162.806 156.736 157.865 160.085 153.126L154.647 149.284C151.211 154.146 148.096 158.535 144.595 161.919C141.158 165.24 137.539 167.397 133.174 167.983L134.061 174.583ZM77.4786 127.15C87.6287 143.729 97.2574 156.055 106.488 163.998C115.716 171.938 124.93 175.81 134.061 174.583L133.174 167.983C126.674 168.857 119.309 166.245 110.831 158.95C102.356 151.658 93.1513 139.997 83.1576 123.673L77.4786 127.15ZM64.7037 170.752C68.3973 155.152 74.6668 140.468 83.1254 127.201L77.5108 123.622C68.6562 137.51 62.0915 152.884 58.2241 169.217L64.7037 170.752ZM124.636 188.72C108.013 192.733 87.6245 186.102 63.5071 167.356L59.4207 172.613C84.0993 191.795 106.609 199.922 126.198 195.193L124.636 188.72ZM131.279 229.783C130.088 227.931 128.161 227.056 126.388 226.648C124.594 226.235 122.515 226.19 120.339 226.351C115.967 226.674 110.449 227.893 104.387 229.641C92.2142 233.151 77.1751 238.996 63.3219 245.012L65.9741 251.119C79.7147 245.153 94.4561 239.435 106.232 236.039C112.145 234.334 117.144 233.264 120.829 232.991C122.681 232.854 124.016 232.935 124.895 233.137C125.795 233.344 125.8 233.574 125.677 233.383L131.279 229.783ZM85.5255 288.418C97.1302 278.205 109.652 266.267 118.742 255.951C123.27 250.812 127.058 245.952 129.441 241.834C130.627 239.785 131.562 237.756 132.01 235.859C132.449 234.003 132.537 231.751 131.284 229.79L125.673 233.375C125.538 233.164 125.776 233.287 125.53 234.328C125.294 235.326 124.71 236.714 123.678 238.499C121.624 242.048 118.177 246.521 113.746 251.549C104.918 261.568 92.6276 273.297 81.1264 283.419L85.5255 288.418ZM61.4792 249.087C65.9969 263.102 72.4833 276.081 80.5866 287.811L86.0652 284.026C78.3242 272.821 72.1307 260.428 67.8168 247.044L61.4792 249.087ZM60.4369 228.651C94.7163 216.639 124.571 208.796 146.635 205.615C157.691 204.022 166.614 203.626 173.093 204.383C179.848 205.172 182.789 207.069 183.708 208.831L189.612 205.752C187.024 200.79 180.894 198.59 173.865 197.769C166.56 196.915 156.987 197.395 145.685 199.025C123.036 202.289 92.7356 210.278 58.2348 222.367L60.4369 228.651ZM67.0326 244.54C65.1255 238.242 63.6496 231.706 62.6271 225.007L56.0446 226.011C57.1137 233.016 58.6587 239.861 60.6597 246.47L67.0326 244.54ZM133.546 228.337C132.233 226.286 130.187 225.123 128.046 224.503C125.925 223.889 123.482 223.732 120.93 223.844C115.822 224.068 109.549 225.405 102.941 227.294C89.6744 231.085 74.2755 237.327 62.5158 242.453L65.1765 248.557C76.8685 243.46 91.9408 237.363 104.771 233.696C111.21 231.856 116.892 230.686 121.221 230.496C123.387 230.401 125.032 230.562 126.193 230.899C127.333 231.229 127.76 231.65 127.936 231.925L133.546 228.337ZM87.0863 290.669C96.0691 282.775 109.275 270.678 119.447 259.24C124.516 253.54 128.963 247.86 131.737 242.854C133.122 240.356 134.185 237.859 134.634 235.496C135.085 233.124 134.97 230.558 133.543 228.333L127.939 231.929C128.129 232.225 128.355 232.871 128.092 234.253C127.828 235.643 127.125 237.44 125.913 239.626C123.497 243.987 119.435 249.234 114.471 254.815C104.579 265.938 91.6235 277.817 82.6909 285.667L87.0863 290.669ZM99.5558 300.652C95.2699 296.126 91.2574 291.303 87.5882 286.219L82.189 290.116C86.0363 295.446 90.2383 300.496 94.7207 305.23L99.5558 300.652ZM183.716 208.816C184.655 210.62 184.522 214.167 181.274 220.22C178.156 226.031 172.659 233.209 164.907 241.485C149.435 258.003 125.47 278.378 95.1893 300.242L99.0872 305.641C129.552 283.644 153.891 262.986 169.767 246.037C177.689 237.579 183.628 229.915 187.142 223.368C190.526 217.062 192.222 210.736 189.622 205.741L183.716 208.816ZM189.293 209.328L189.303 209.315L184.035 205.242L184.026 205.255L189.293 209.328ZM165.303 279.017C171.551 273 179.701 270.18 189.149 269.084C198.652 267.983 209.103 268.659 219.764 269.36L220.201 262.716C209.677 262.024 198.597 261.286 188.382 262.47C178.114 263.66 168.361 266.827 160.684 274.221L165.303 279.017ZM160.369 274.57L160.36 274.582L165.627 278.655L165.637 278.643L160.369 274.57ZM154.655 330.67C151.432 305.386 155.438 288.51 165.312 279.005L160.694 274.208C148.504 285.942 144.742 305.563 148.05 331.512L154.655 330.67ZM155.952 339.073C155.44 336.195 155.003 333.384 154.655 330.669L148.05 331.514C148.413 334.35 148.868 337.27 149.397 340.241L155.952 339.073ZM96.6272 307.255C111.99 322.941 130.758 335.118 151.522 342.78L153.827 336.533C133.988 329.212 116.058 317.578 101.384 302.596L96.6272 307.255ZM186.1 207.599C187.627 210.529 187.125 215.303 183.167 222.401C179.324 229.293 172.742 237.418 164.132 246.279C146.947 263.967 122.247 284.021 97.0555 302.227L100.956 307.624C126.289 289.315 151.338 269.003 168.908 250.92C177.676 241.896 184.723 233.284 188.983 225.644C193.128 218.211 195.203 210.658 192.005 204.521L186.1 207.599ZM60.0183 225.952C88.4786 216.033 118.464 207.412 142.417 203.505C154.419 201.548 164.707 200.808 172.459 201.594C180.446 202.403 184.592 204.699 186.099 207.596L192.006 204.523C188.829 198.416 181.502 195.817 173.13 194.969C164.525 194.097 153.57 194.94 141.345 196.934C116.847 200.929 86.4515 209.688 57.8268 219.665L60.0183 225.952ZM55.5577 222.799C55.593 223.003 55.6031 223.071 55.6082 223.124L62.2369 222.493C62.2042 222.15 62.1493 221.839 62.1198 221.669L55.5577 222.799ZM55.4701 222.234C55.4989 222.46 55.5356 222.67 55.5577 222.798L62.1199 221.669C62.0938 221.517 62.0825 221.449 62.0749 221.39L55.4701 222.234ZM57.5773 172.199C54.1323 188.224 53.2734 205.063 55.4701 222.234L62.0749 221.39C59.9763 204.984 60.7969 188.904 64.0872 173.598L57.5773 172.199ZM125.271 191.338C108.053 195.517 87.2257 188.939 62.8579 170.256L58.8065 175.541C83.7871 194.693 106.715 202.694 126.842 197.808L125.271 191.338ZM147.361 177.382C140.988 183.59 135.523 188.861 125.275 191.337L126.838 197.809C139.002 194.871 145.595 188.398 152.008 182.152L147.361 177.382ZM147.385 177.358L147.361 177.382L152.008 182.151L152.032 182.127L147.385 177.358ZM174.832 159.002C161.093 164.016 153.948 170.963 147.385 177.358L152.032 182.127C158.454 175.87 164.762 169.766 177.114 165.258L174.832 159.002ZM225.616 158.595C211.771 155.42 195.223 151.58 174.834 159.001L177.112 165.259C195.501 158.565 210.322 161.919 224.127 165.085L225.616 158.595ZM225.659 158.605L225.616 158.595L224.127 165.085L224.17 165.095L225.659 158.605ZM225.697 158.614L225.66 158.605L224.17 165.095L224.207 165.104L225.697 158.614ZM258.324 159.041C248.143 163.665 237.927 161.426 225.698 158.614L224.206 165.103C236.041 167.825 248.523 170.805 261.078 165.103L258.324 159.041ZM288.591 88.4802C286.879 108.56 283.368 124.452 278.196 136.231C273.031 147.994 266.326 155.413 258.326 159.04L261.076 165.104C271.038 160.588 278.708 151.627 284.293 138.908C289.87 126.206 293.48 109.515 295.226 89.0459L288.591 88.4802ZM350.081 184.513C344.907 143.975 323.841 109.366 293.951 86.1344L289.865 91.3917C318.421 113.587 338.534 146.635 343.476 185.356L350.081 184.513ZM350.525 188.622C350.405 187.305 350.278 185.9 350.075 184.467L343.482 185.401C343.658 186.642 343.771 187.882 343.893 189.225L350.525 188.622ZM350.607 189.524C350.579 189.225 350.552 188.926 350.525 188.622L343.893 189.225C343.921 189.527 343.949 189.835 343.978 190.144L350.607 189.524ZM291.533 194.092C296.032 189.787 302.653 187.286 311.806 186.997C320.985 186.707 332.469 188.657 346.293 193.01L348.292 186.658C334.083 182.184 321.804 180.019 311.595 180.342C301.36 180.665 292.966 183.505 286.929 189.281L291.533 194.092ZM284.98 222.204C284.5 210.295 284.307 200.992 291.53 194.095L286.931 189.279C277.184 198.588 277.873 211.215 278.327 222.472L284.98 222.204ZM284.98 222.213L284.98 222.204L278.327 222.473L278.327 222.482L284.98 222.213ZM284.986 222.356L284.98 222.219L278.327 222.476L278.332 222.613L284.986 222.356ZM277.391 256.594C286.023 245.978 285.405 233.218 284.986 222.356L278.332 222.613C278.768 233.901 279.034 244.019 272.225 252.394L277.391 256.594ZM219.909 269.369C230.872 270.092 241.974 270.837 251.814 269.511C261.746 268.173 270.818 264.675 277.391 256.595L272.226 252.393C267.097 258.698 259.88 261.705 250.925 262.912C241.876 264.131 231.489 263.459 220.347 262.725L219.909 269.369ZM219.856 269.366L219.909 269.369L220.347 262.725L220.294 262.722L219.856 269.366ZM219.764 269.36L219.856 269.366L220.293 262.722L220.201 262.716L219.764 269.36Z" fill="black" mask="url(#path-2-inside-1_937_1016)"/>
<mask id="path-4-outside-2_937_1016" maskUnits="userSpaceOnUse" x="-11.4479" y="-11.1827" width="427.848" height="427.848" fill="black">
<rect fill="white" x="-11.4479" y="-11.1827" width="427.848" height="427.848"/>
<path fill-rule="evenodd" clip-rule="evenodd" d="M155.187 149.7C148.491 159.19 142.699 167.379 133.28 168.641C118.822 170.569 101.604 155.156 81.976 122.931C89.8755 111.11 99.4679 100.437 110.471 91.3554C120.795 112.424 130.602 122.568 140.228 122.126C147.586 121.804 152.328 115.355 157.363 108.507L157.394 108.465L157.396 108.462C162.998 100.829 169.331 92.1992 180.472 90.0292C189.6 88.2529 196.651 91.7174 203.459 95.0621L203.485 95.075L203.579 95.1211C210.203 98.3713 216.443 101.433 223.631 98.8852C233.164 95.5102 239.545 83.9956 242.96 63.8437C251.621 66.3582 259.993 69.6094 267.967 73.6338C265.559 99.8862 258.325 116.204 246.316 122.187C238.201 126.223 230.802 124.248 222.242 121.964L222.204 121.954L222.199 121.953L222.199 121.953C213.274 119.574 203.122 116.868 190.127 120.505C172.29 125.484 163.204 138.349 155.187 149.7ZM284.309 222.097C283.89 211.18 283.493 200.879 291.08 193.617L291.093 193.627C301.036 184.105 319.994 183.836 347.526 192.716C347.866 197.141 347.969 201.563 347.899 205.951C330.194 199.086 317.621 198.629 310.452 204.692C304.95 209.323 304.792 215.765 304.594 223.915C304.44 230.48 304.232 238.644 301.118 248.262C290.575 280.791 257.571 296.795 256.177 297.459C238.678 305.78 223.285 304.725 210.92 303.869L210.87 303.865C199.009 303.063 189.622 302.427 182.961 309.906C178.067 315.407 176.301 323.566 177.704 334.536C178.194 338.277 179.061 342.409 180.279 346.812C171.825 345.479 163.562 343.433 155.594 340.694C150.021 310.712 153.085 289.848 164.853 278.536C177.914 265.958 199.199 267.359 219.792 268.714L219.887 268.72C241.73 270.18 264.297 271.66 276.876 256.193C285.273 245.876 284.797 233.862 284.315 222.244L284.309 222.097ZM140.123 119.443C146.203 119.162 150.406 113.467 155.24 106.879L155.274 106.833C161.158 98.834 167.815 89.7853 179.967 87.3973C189.949 85.4351 197.707 89.2473 204.572 92.6204L204.667 92.6674L204.703 92.6847C211.082 95.8204 216.578 98.5217 222.722 96.3614C231.23 93.3546 237.115 82.1968 240.32 63.1438C222.604 58.3908 203.672 56.9195 184.352 59.3911C157.126 62.8739 132.624 73.7049 112.597 89.6171C122.402 109.804 131.631 119.841 140.123 119.443ZM211.384 348.25C211.997 340.6 214.288 331.865 220.587 325.27L220.597 325.258C232.833 312.486 258.498 309.778 283.85 323.756C265.672 336.035 244.419 344.397 221.169 347.371C217.905 347.788 214.63 348.038 211.384 348.25ZM330.338 235.496C326.965 238.771 325.137 244.242 325.308 250.517C325.499 257.128 327.744 263.826 331.71 269.954C337.973 257.868 342.547 244.836 345.204 231.202C340.059 230.946 334.234 231.725 330.338 235.496ZM307.291 223.999C307.471 216.234 307.62 210.607 312.183 206.75L312.193 206.738C318.711 201.232 330.673 201.936 347.813 208.805C347.573 215.483 346.903 222.069 345.767 228.534C339.936 228.208 333.15 229.065 328.47 233.59C324.552 237.364 322.422 243.562 322.622 250.6C322.659 251.769 322.75 252.92 322.9 254.097C323.722 260.515 326.263 266.882 330.288 272.675C319.647 292.183 304.63 309.147 286.351 322.048C259.446 306.689 231.804 309.65 218.636 323.42C211.709 330.671 209.28 340.179 208.675 348.416C200.044 348.787 191.529 348.386 183.227 347.27C178.415 330.383 178.967 318.463 184.974 311.702C190.746 305.218 199.538 305.815 210.69 306.573L210.748 306.577L210.845 306.583C223.51 307.442 239.257 308.511 257.339 299.917L257.352 299.91C258.947 299.133 292.808 282.636 303.677 249.119C306.92 239.135 307.125 230.755 307.291 224.023L307.291 223.999ZM125.417 191.957C135.919 189.418 141.437 184.046 147.824 177.828L147.837 177.815C154.23 171.592 161.457 164.573 175.029 159.598C195.186 152.259 211.274 155.951 225.478 159.211L225.491 159.214L225.544 159.226C237.602 161.998 248.03 164.395 258.562 159.61C275.862 151.755 286.178 127.334 289.362 86.8536C283.411 82.4125 277.101 78.4348 270.506 74.9563C267.884 101.563 260.188 118.245 247.509 124.551C238.492 129.045 230.244 126.85 221.514 124.502L221.433 124.481C212.842 122.19 203.106 119.595 190.846 123.042C173.942 127.777 165.141 140.216 157.373 151.195L157.366 151.205C150.582 160.807 144.179 169.864 133.618 171.283C117.986 173.384 100.462 158.315 80.3181 125.411C71.6615 138.989 65.2444 154.018 61.4639 169.984C85.8619 188.948 107.311 196.327 125.417 191.957ZM64.648 248.066C92.2419 236.083 124.209 224.94 128.478 231.583C132.951 238.583 106.432 265.584 83.3259 285.919C75.4038 274.451 69.0638 261.765 64.648 248.066ZM186.66 207.291C179.647 193.845 128.116 201.408 59.3359 225.509C60.3816 232.361 61.8921 239.051 63.8462 245.505C87.2979 235.282 124.788 220.826 130.741 230.131C137.211 240.216 102.804 272.424 84.8886 288.168C88.6468 293.375 92.7541 298.311 97.1383 302.941C157.884 259.081 193.746 220.875 186.669 207.279L186.66 207.291ZM219.983 266.038C198.798 264.646 176.919 263.208 162.993 276.619L163.003 276.606C151.971 287.226 148.087 305.474 151.353 331.091C151.708 333.867 152.154 336.733 152.674 339.657C132.373 332.165 114.024 320.259 99.0058 304.926C149.53 268.41 198.504 224.193 189.052 206.06C179.684 188.051 116.008 202.912 58.9226 222.808C58.9037 222.61 58.8712 222.421 58.8388 222.234C58.8147 222.094 58.7907 221.954 58.7725 221.812C56.6248 205.024 57.4646 188.564 60.8322 172.899C85.5064 191.816 107.384 199.106 126.057 194.573C137.263 191.866 143.291 185.994 149.684 179.767L149.709 179.743C156.201 173.417 162.927 166.891 175.973 162.13C195.362 155.073 211.047 158.67 224.872 161.84L224.915 161.85L224.952 161.859C236.984 164.626 248.333 167.235 259.701 162.072C277.663 153.928 288.451 129.312 291.908 88.763C321.131 111.477 341.72 145.305 346.779 184.934C346.968 186.271 347.088 187.593 347.209 188.924C347.237 189.227 347.264 189.53 347.292 189.834C319.26 181.007 299.768 181.604 289.231 191.687C280.745 199.79 281.187 210.755 281.653 222.338L281.654 222.347L281.659 222.485C282.087 233.559 282.528 244.999 274.808 254.494C263.106 268.879 242.233 267.504 220.128 266.047L220.075 266.044L219.983 266.038Z"/>
</mask>
<path d="M133.28 168.641L134.16 175.241L134.164 175.24L133.28 168.641ZM155.187 149.7L149.748 145.859L149.747 145.861L155.187 149.7ZM81.976 122.931L76.4396 119.232L74.0783 122.766L76.2892 126.395L81.976 122.931ZM110.471 91.3554L116.451 88.4254L112.739 80.8503L106.233 86.2199L110.471 91.3554ZM140.228 122.126L139.937 115.474L139.923 115.475L140.228 122.126ZM157.363 108.507L162.728 112.451L162.728 112.451L157.363 108.507ZM157.394 108.465L162.759 112.409L162.767 112.397L157.394 108.465ZM157.396 108.462L152.028 104.523L152.023 104.53L157.396 108.462ZM180.472 90.0292L179.2 83.4931L179.199 83.4933L180.472 90.0292ZM203.459 95.0621L200.522 101.038L200.525 101.04L203.459 95.0621ZM203.485 95.075L200.552 101.053L200.553 101.053L203.485 95.075ZM203.579 95.1211L206.512 89.1433L206.512 89.143L203.579 95.1211ZM223.631 98.8852L221.409 92.6083L221.406 92.6092L223.631 98.8852ZM242.96 63.8437L244.816 57.4491L237.643 55.3665L236.395 62.7314L242.96 63.8437ZM267.967 73.6338L274.598 74.2421L275.012 69.7304L270.967 67.6892L267.967 73.6338ZM246.316 122.187L249.281 128.149L249.285 128.147L246.316 122.187ZM222.242 121.964L220.525 128.398L220.525 128.398L222.242 121.964ZM222.204 121.954L223.921 115.521L223.914 115.519L223.907 115.517L222.204 121.954ZM222.199 121.953L220.374 128.356L220.434 128.374L220.495 128.39L222.199 121.953ZM222.199 121.953L224.024 115.549L223.969 115.533L223.913 115.519L222.199 121.953ZM190.127 120.505L191.917 126.919L191.921 126.918L190.127 120.505ZM291.08 193.617L295.153 188.349L290.618 184.843L286.476 188.807L291.08 193.617ZM284.309 222.097L290.963 221.841L290.963 221.841L284.309 222.097ZM291.093 193.627L287.02 198.895L291.556 202.402L295.698 198.436L291.093 193.627ZM347.526 192.716L354.165 192.205L353.822 187.75L349.57 186.379L347.526 192.716ZM347.899 205.951L345.491 212.159L354.402 215.614L354.556 206.058L347.899 205.951ZM310.452 204.692L314.74 209.786L314.746 209.782L314.752 209.777L310.452 204.692ZM304.594 223.915L297.937 223.753L297.937 223.76L304.594 223.915ZM301.118 248.262L307.452 250.315L307.453 250.313L301.118 248.262ZM256.177 297.459L259.037 303.472L259.04 303.47L256.177 297.459ZM210.92 303.869L211.38 297.226L211.369 297.225L210.92 303.869ZM210.87 303.865L210.421 310.509L210.421 310.509L210.87 303.865ZM182.961 309.906L177.988 305.477L177.986 305.48L182.961 309.906ZM177.704 334.536L171.099 335.381L171.101 335.391L171.102 335.401L177.704 334.536ZM180.279 346.812L179.241 353.39L189.452 355.001L186.697 345.038L180.279 346.812ZM155.594 340.694L149.048 341.911L149.758 345.729L153.43 346.991L155.594 340.694ZM164.853 278.536L169.467 283.337L169.471 283.333L164.853 278.536ZM219.792 268.714L219.354 275.358L219.355 275.358L219.792 268.714ZM219.887 268.72L220.331 262.076L220.324 262.075L219.887 268.72ZM276.876 256.193L271.712 251.99L271.71 251.992L276.876 256.193ZM284.315 222.244L277.661 222.5L277.662 222.51L277.662 222.52L284.315 222.244ZM155.24 106.879L149.876 102.933L149.871 102.94L155.24 106.879ZM140.123 119.443L139.815 112.792L139.811 112.792L140.123 119.443ZM155.274 106.833L160.637 110.779L160.637 110.779L155.274 106.833ZM179.967 87.3973L181.251 93.931L181.251 93.9309L179.967 87.3973ZM204.572 92.6204L201.635 98.5965L201.635 98.5967L204.572 92.6204ZM204.667 92.6674L201.731 98.6437L201.732 98.6444L204.667 92.6674ZM204.703 92.6847L207.64 86.7089L207.638 86.7078L204.703 92.6847ZM222.722 96.3614L224.931 102.643L224.941 102.64L222.722 96.3614ZM240.32 63.1438L246.887 64.2484L247.891 58.2806L242.046 56.7125L240.32 63.1438ZM184.352 59.3911L185.197 65.9959L184.352 59.3911ZM112.597 89.6171L108.455 84.4037L104.275 87.7245L106.607 92.5263L112.597 89.6171ZM220.587 325.27L225.402 329.869L225.643 329.618L225.855 329.343L220.587 325.27ZM211.384 348.25L204.747 347.719L204.132 355.397L211.819 354.895L211.384 348.25ZM220.597 325.258L215.789 320.651L215.545 320.906L215.329 321.185L220.597 325.258ZM283.85 323.756L287.577 329.274L296.597 323.181L287.065 317.925L283.85 323.756ZM221.169 347.371L222.014 353.976L222.014 353.976L221.169 347.371ZM325.308 250.517L318.651 250.698L318.652 250.709L325.308 250.517ZM330.338 235.496L325.707 230.711L325.699 230.719L330.338 235.496ZM331.71 269.954L326.12 273.572L332.348 283.195L337.622 273.018L331.71 269.954ZM345.204 231.202L351.739 232.476L353.209 224.933L345.534 224.551L345.204 231.202ZM312.183 206.75L316.481 211.836L317.02 211.381L317.451 210.823L312.183 206.75ZM307.291 223.999L313.948 224.164L313.948 224.154L307.291 223.999ZM312.193 206.738L307.896 201.651L307.356 202.107L306.925 202.665L312.193 206.738ZM347.813 208.805L354.468 209.045L354.636 204.366L350.29 202.624L347.813 208.805ZM345.767 228.534L345.395 235.182L351.3 235.513L352.325 229.687L345.767 228.534ZM328.47 233.59L333.089 238.386L333.099 238.377L328.47 233.59ZM322.622 250.6L315.966 250.79L315.967 250.8L315.967 250.809L322.622 250.6ZM330.288 272.675L336.133 275.864L338.103 272.253L335.756 268.876L330.288 272.675ZM286.351 322.048L283.05 327.831L286.73 329.931L290.191 327.488L286.351 322.048ZM218.636 323.42L213.823 318.819L213.821 318.821L218.636 323.42ZM208.675 348.416L208.961 355.069L214.882 354.814L215.316 348.904L208.675 348.416ZM183.227 347.27L176.824 349.095L178.019 353.289L182.34 353.87L183.227 347.27ZM184.974 311.702L180.001 307.274L179.997 307.279L184.974 311.702ZM210.69 306.573L210.239 313.216L210.24 313.216L210.69 306.573ZM210.748 306.577L210.298 313.22L210.299 313.22L210.748 306.577ZM210.845 306.583L211.296 299.94L211.295 299.94L210.845 306.583ZM257.339 299.917L260.197 305.931L260.226 305.917L260.255 305.903L257.339 299.917ZM257.352 299.91L260.267 305.897L260.268 305.896L257.352 299.91ZM303.677 249.119L297.344 247.062L297.343 247.065L303.677 249.119ZM307.291 224.023L300.634 223.858L300.634 223.86L307.291 224.023ZM147.824 177.828L152.469 182.599L152.47 182.598L147.824 177.828ZM125.417 191.957L126.98 198.43L126.982 198.429L125.417 191.957ZM147.837 177.815L143.192 173.044L143.192 173.045L147.837 177.815ZM175.029 159.598L172.75 153.341L172.744 153.344L172.737 153.346L175.029 159.598ZM225.478 159.211L223.989 165.701L223.994 165.702L225.478 159.211ZM225.491 159.214L226.982 152.724L226.976 152.723L225.491 159.214ZM225.544 159.226L227.036 152.737L227.035 152.736L225.544 159.226ZM258.562 159.61L255.809 153.547L255.808 153.548L258.562 159.61ZM289.362 86.8536L296 87.3757L296.288 83.7139L293.344 81.5171L289.362 86.8536ZM270.506 74.9563L273.612 69.0666L264.851 64.4458L263.879 74.3032L270.506 74.9563ZM247.509 124.551L244.544 118.589L244.539 118.591L247.509 124.551ZM221.514 124.502L223.243 118.072L223.236 118.07L223.228 118.068L221.514 124.502ZM221.433 124.481L219.718 130.915L219.718 130.915L221.433 124.481ZM190.846 123.042L192.642 129.454L192.648 129.452L190.846 123.042ZM157.373 151.195L162.806 155.044L162.808 155.041L157.373 151.195ZM157.366 151.205L151.932 147.355L151.927 147.362L157.366 151.205ZM133.618 171.283L132.731 164.684L132.73 164.684L133.618 171.283ZM80.3181 125.411L85.9971 121.935L80.4327 112.846L74.7035 121.832L80.3181 125.411ZM61.4639 169.984L54.9843 168.45L53.9982 172.615L57.3775 175.242L61.4639 169.984ZM128.478 231.583L134.089 227.997L134.084 227.99L134.08 227.983L128.478 231.583ZM64.648 248.066L61.9957 241.958L56.4583 244.362L58.3104 250.108L64.648 248.066ZM83.3259 285.919L77.8474 289.703L82.1036 295.865L87.725 290.917L83.3259 285.919ZM59.3359 225.509L57.1338 219.225L51.9198 221.052L52.7534 226.514L59.3359 225.509ZM186.66 207.291L180.756 210.37L185.565 219.593L191.927 211.364L186.66 207.291ZM63.8462 245.505L57.4732 247.435L59.6431 254.601L66.5069 251.609L63.8462 245.505ZM130.741 230.131L125.132 233.719L125.137 233.726L130.741 230.131ZM84.8886 288.168L80.4931 283.166L75.9488 287.159L79.4894 292.065L84.8886 288.168ZM97.1383 302.941L92.3031 307.52L96.3106 311.752L101.036 308.34L97.1383 302.941ZM186.669 207.279L192.576 204.204L187.769 194.97L181.401 203.206L186.669 207.279ZM162.993 276.619L157.726 272.546L167.612 281.415L162.993 276.619ZM219.983 266.038L219.546 272.682L219.546 272.682L219.983 266.038ZM163.003 276.606L168.271 280.679L158.385 271.809L163.003 276.606ZM151.353 331.091L144.748 331.933L144.748 331.936L151.353 331.091ZM152.674 339.657L150.369 345.904L161.267 349.925L159.23 338.489L152.674 339.657ZM99.0058 304.926L95.1053 299.529L88.8368 304.059L94.2487 309.585L99.0058 304.926ZM189.052 206.06L183.145 209.133L183.148 209.138L189.052 206.06ZM58.9226 222.808L52.2939 223.44L53.0989 231.89L61.1141 229.096L58.9226 222.808ZM58.8388 222.234L52.2767 223.363L52.2767 223.363L58.8388 222.234ZM58.7725 221.812L65.3774 220.967L65.3774 220.967L58.7725 221.812ZM60.8322 172.899L64.8836 167.614L56.5336 161.212L54.3223 171.499L60.8322 172.899ZM126.057 194.573L124.493 188.1L124.486 188.102L126.057 194.573ZM149.684 179.767L154.331 184.537L154.332 184.536L149.684 179.767ZM149.709 179.743L154.356 184.512L154.356 184.512L149.709 179.743ZM175.973 162.13L173.696 155.873L173.69 155.875L175.973 162.13ZM224.872 161.84L226.361 155.35L226.36 155.35L224.872 161.84ZM224.915 161.85L226.405 155.36L226.403 155.36L224.915 161.85ZM224.952 161.859L226.445 155.369L226.442 155.369L224.952 161.859ZM259.701 162.072L256.951 156.007L256.947 156.009L259.701 162.072ZM291.908 88.763L295.995 83.5057L286.315 75.982L285.274 88.1974L291.908 88.763ZM346.779 184.934L340.173 185.777L340.179 185.823L340.186 185.868L346.779 184.934ZM347.209 188.924L340.578 189.526L340.578 189.527L347.209 188.924ZM347.292 189.834L345.293 196.185L354.856 199.197L353.922 189.214L347.292 189.834ZM289.231 191.687L293.829 196.503L293.834 196.498L289.231 191.687ZM281.653 222.338L275 222.606L275 222.608L281.653 222.338ZM281.654 222.347L288.307 222.09L288.307 222.078L281.654 222.347ZM281.659 222.485L288.313 222.228L288.313 222.228L281.659 222.485ZM274.808 254.494L279.974 258.696L279.975 258.695L274.808 254.494ZM220.128 266.047L219.69 272.691L219.69 272.692L220.128 266.047ZM220.075 266.044L220.513 259.399L220.511 259.399L220.075 266.044ZM134.164 175.24C140.743 174.359 145.801 171.042 149.914 167.013C153.893 163.116 157.372 158.154 160.628 153.54L149.747 145.861C146.306 150.737 143.541 154.615 140.595 157.499C137.784 160.253 135.236 161.661 132.396 162.041L134.164 175.24ZM76.2892 126.395C86.2547 142.756 95.8656 155.295 105.134 163.562C114.312 171.749 124.121 176.58 134.16 175.241L132.399 162.04C127.981 162.63 121.952 160.719 113.999 153.624C106.138 146.612 97.3254 135.331 87.6628 119.468L76.2892 126.395ZM106.233 86.2199C94.7203 95.7216 84.693 106.88 76.4396 119.232L87.5124 126.631C95.0579 115.339 104.216 105.152 114.71 96.4909L106.233 86.2199ZM139.923 115.475C137.773 115.573 134.65 114.576 130.398 110.179C126.15 105.785 121.48 98.688 116.451 88.4254L104.492 94.2854C109.787 105.092 115.182 113.601 120.825 119.436C126.463 125.267 133.057 129.121 140.533 128.778L139.923 115.475ZM151.999 104.562C149.382 108.121 147.329 110.873 145.166 112.857C143.14 114.716 141.538 115.404 139.937 115.474L140.519 128.779C146.277 128.527 150.725 125.829 154.168 122.671C157.474 119.638 160.309 115.741 162.728 112.451L151.999 104.562ZM152.029 104.52L151.998 104.563L162.728 112.451L162.759 112.409L152.029 104.52ZM152.023 104.53L152.021 104.532L162.767 112.397L162.769 112.395L152.023 104.53ZM179.199 83.4933C165.132 86.2332 157.387 97.2202 152.028 104.523L162.764 112.402C168.609 104.437 173.529 98.1653 181.745 96.565L179.199 83.4933ZM206.395 89.0858C199.742 85.817 190.788 81.2381 179.2 83.4931L181.744 96.5652C188.412 95.2677 193.56 97.6178 200.522 101.038L206.395 89.0858ZM206.418 89.0973L206.392 89.0843L200.525 101.04L200.552 101.053L206.418 89.0973ZM206.512 89.143L206.418 89.0969L200.553 101.053L200.646 101.099L206.512 89.143ZM221.406 92.6092C217.264 94.0776 213.608 92.625 206.512 89.1433L200.646 101.099C206.798 104.118 215.622 108.789 225.856 105.161L221.406 92.6092ZM236.395 62.7314C234.753 72.423 232.472 79.5273 229.761 84.4368C227.089 89.2753 224.219 91.6132 221.409 92.6083L225.853 105.162C232.576 102.782 237.663 97.6753 241.419 90.8748C245.135 84.1452 247.753 75.4163 249.525 64.9561L236.395 62.7314ZM270.967 67.6892C262.607 63.47 253.85 60.0718 244.816 57.4491L241.103 70.2384C249.392 72.6448 257.379 75.7489 264.967 79.5783L270.967 67.6892ZM249.285 128.147C257.073 124.268 262.794 117.272 266.825 108.22C270.839 99.206 273.357 87.7755 274.598 74.2421L261.336 73.0255C260.17 85.7445 257.867 95.5994 254.659 102.803C251.468 109.969 247.568 114.124 243.347 116.227L249.285 128.147ZM220.525 128.398C228.749 130.592 238.601 133.46 249.281 128.149L243.351 116.225C237.8 118.985 232.855 117.904 223.959 115.531L220.525 128.398ZM220.486 128.387L220.525 128.398L223.96 115.531L223.921 115.521L220.486 128.387ZM220.495 128.39L220.5 128.391L223.907 115.517L223.902 115.516L220.495 128.39ZM220.373 128.356L220.374 128.356L224.024 115.549L224.024 115.549L220.373 128.356ZM191.921 126.918C203.024 123.81 211.607 126.021 220.484 128.387L223.913 115.519C214.94 113.127 203.22 109.926 188.332 114.093L191.921 126.918ZM160.627 153.542C168.731 142.065 176.618 131.189 191.917 126.919L188.336 114.092C167.961 119.779 157.676 134.633 149.748 145.859L160.627 153.542ZM286.476 188.807C276.349 198.5 277.265 212.197 277.656 222.353L290.963 221.841C290.514 210.163 290.638 203.258 295.685 198.427L286.476 188.807ZM295.166 188.359L295.153 188.349L287.007 198.885L287.02 198.895L295.166 188.359ZM349.57 186.379C335.441 181.821 323.043 179.449 312.609 179.613C302.144 179.777 293.066 182.518 286.487 188.818L295.698 198.436C299.063 195.214 304.435 193.06 312.818 192.929C321.232 192.797 332.079 194.73 345.482 199.053L349.57 186.379ZM354.556 206.058C354.63 201.495 354.523 196.865 354.165 192.205L340.887 193.227C341.209 197.417 341.309 201.631 341.241 205.843L354.556 206.058ZM314.752 209.777C316.696 208.132 319.824 206.951 324.996 207.128C330.22 207.307 337.011 208.871 345.491 212.159L350.306 199.742C341.082 196.166 332.734 194.068 325.453 193.819C318.12 193.567 311.376 195.19 306.152 199.608L314.752 209.777ZM311.25 224.078C311.466 215.225 311.916 212.163 314.74 209.786L306.164 199.598C297.984 206.483 298.119 216.305 297.937 223.753L311.25 224.078ZM307.453 250.313C310.889 239.699 311.096 230.689 311.251 224.071L297.937 223.76C297.785 230.272 297.575 237.588 294.783 246.211L307.453 250.313ZM259.04 303.47C260.031 302.998 269.167 298.551 279.489 289.917C289.78 281.309 301.656 268.196 307.452 250.315L294.783 246.209C290.036 260.857 280.139 272.011 270.944 279.703C261.78 287.369 253.717 291.255 253.314 291.447L259.04 303.47ZM210.46 310.512C222.888 311.372 239.837 312.602 259.037 303.472L253.318 291.445C237.518 298.958 223.683 298.077 211.38 297.226L210.46 310.512ZM210.421 310.509L210.471 310.512L211.369 297.225L211.319 297.222L210.421 310.509ZM187.933 314.335C189.991 312.024 192.431 310.876 195.921 310.37C199.741 309.816 204.286 310.094 210.421 310.509L211.32 297.222C205.594 296.834 199.514 296.393 194.011 297.19C188.176 298.036 182.591 300.309 177.988 305.477L187.933 314.335ZM184.309 333.691C183.029 323.688 184.841 317.81 187.936 314.331L177.986 305.48C171.293 313.004 169.572 323.444 171.099 335.381L184.309 333.691ZM186.697 345.038C185.545 340.872 184.749 337.048 184.307 333.672L171.102 335.401C171.639 339.505 172.578 343.946 173.861 348.587L186.697 345.038ZM153.43 346.991C161.772 349.858 170.412 351.997 179.241 353.39L181.316 340.235C173.238 338.961 165.353 337.007 157.759 334.397L153.43 346.991ZM160.238 273.736C145.852 287.565 143.41 311.583 149.048 341.911L162.141 339.477C156.632 309.84 160.318 292.132 169.467 283.337L160.238 273.736ZM220.229 262.069C210.069 261.401 198.987 260.652 188.767 261.782C178.465 262.92 168.233 266.037 160.234 273.74L169.471 283.333C174.534 278.457 181.475 275.986 190.229 275.018C199.065 274.042 208.922 274.671 219.354 275.358L220.229 262.069ZM220.324 262.075L220.228 262.069L219.355 275.358L219.45 275.364L220.324 262.075ZM271.71 251.992C266.859 257.957 259.917 260.962 250.94 262.209C241.8 263.478 231.414 262.817 220.331 262.076L219.443 275.364C230.202 276.083 242.022 276.892 252.771 275.4C263.683 273.885 274.314 269.897 282.042 260.394L271.71 251.992ZM277.662 222.52C278.158 234.486 278.294 243.902 271.712 251.99L282.041 260.396C292.252 247.851 291.435 233.238 290.968 221.968L277.662 222.52ZM277.656 222.352L277.661 222.5L290.969 221.988L290.963 221.841L277.656 222.352ZM149.871 102.94C147.357 106.367 145.465 108.901 143.575 110.687C141.789 112.375 140.66 112.753 139.815 112.792L140.43 126.095C145.666 125.853 149.679 123.242 152.722 120.366C155.663 117.586 158.289 113.979 160.608 110.818L149.871 102.94ZM149.91 102.887L149.876 102.933L160.603 110.825L160.637 110.779L149.91 102.887ZM178.683 80.8636C163.648 83.8182 155.6 95.1522 149.91 102.887L160.637 110.779C166.716 102.516 171.982 95.7525 181.251 93.931L178.683 80.8636ZM207.508 86.6442C200.764 83.3302 191.116 78.4196 178.683 80.8636L181.251 93.9309C188.782 92.4506 194.65 95.1643 201.635 98.5965L207.508 86.6442ZM207.604 86.6911L207.508 86.6441L201.635 98.5967L201.731 98.6437L207.604 86.6911ZM207.638 86.7078L207.602 86.6905L201.732 98.6444L201.768 98.6617L207.638 86.7078ZM220.513 90.0797C217.454 91.1553 214.611 90.1353 207.64 86.7089L201.765 98.6605C207.553 101.505 215.701 105.888 224.931 102.643L220.513 90.0797ZM233.754 62.0392C232.213 71.2005 230.098 77.9815 227.624 82.6553C225.159 87.314 222.649 89.3249 220.503 90.0833L224.941 102.64C231.303 100.391 235.99 95.3197 239.395 88.8845C242.793 82.4644 245.223 74.1401 246.887 64.2484L233.754 62.0392ZM185.197 65.9959C203.637 63.6369 221.697 65.0416 238.595 69.5751L242.046 56.7125C223.512 51.7401 203.706 50.2022 183.507 52.7862L185.197 65.9959ZM116.739 94.8305C135.842 79.6521 159.212 69.3201 185.197 65.9959L183.507 52.7862C155.041 56.4278 129.405 67.7577 108.455 84.4037L116.739 94.8305ZM139.811 112.792C138.46 112.855 135.803 112.134 131.748 107.736C127.789 103.442 123.365 96.5466 118.587 86.708L106.607 92.5263C111.634 102.875 116.727 111.091 121.957 116.763C127.09 122.331 133.293 126.429 140.434 126.095L139.811 112.792ZM215.772 320.671C207.987 328.821 205.421 339.304 204.747 347.719L218.022 348.782C218.573 341.895 220.588 334.91 225.402 329.869L215.772 320.671ZM215.329 321.185L215.32 321.197L225.855 329.343L225.865 329.33L215.329 321.185ZM287.065 317.925C260.159 303.09 230.863 304.917 215.789 320.651L225.405 329.864C234.802 320.056 256.837 316.466 280.635 329.587L287.065 317.925ZM222.014 353.976C246.327 350.865 268.562 342.119 287.577 329.274L280.123 318.239C262.782 329.952 242.512 337.928 220.324 340.766L222.014 353.976ZM211.819 354.895C215.098 354.68 218.539 354.42 222.014 353.976L220.324 340.766C217.27 341.157 214.162 341.396 210.95 341.606L211.819 354.895ZM331.964 250.336C331.826 245.263 333.349 241.853 334.976 240.273L325.699 230.719C320.58 235.69 318.448 243.22 318.651 250.698L331.964 250.336ZM337.3 266.336C333.903 261.088 332.115 255.558 331.963 250.324L318.652 250.709C318.883 258.698 321.584 266.564 326.12 273.572L337.3 266.336ZM338.668 229.928C336.133 242.935 331.771 255.365 325.798 266.891L337.622 273.018C344.176 260.371 348.96 246.736 351.739 232.476L338.668 229.928ZM334.969 240.281C336.827 238.482 340.261 237.623 344.873 237.852L345.534 224.551C339.857 224.269 331.641 224.968 325.707 230.711L334.969 240.281ZM307.884 201.665C300.609 207.815 300.794 216.952 300.634 223.844L313.948 224.154C314.043 220.082 314.134 217.441 314.596 215.342C314.993 213.541 315.573 212.604 316.481 211.836L307.884 201.665ZM306.925 202.665L306.915 202.677L317.451 210.823L317.46 210.811L306.925 202.665ZM350.29 202.624C341.377 199.052 333.352 196.888 326.407 196.484C319.444 196.078 312.904 197.42 307.896 201.651L316.489 211.825C317.999 210.55 320.699 209.491 325.632 209.778C330.582 210.067 337.109 211.689 345.336 214.986L350.29 202.624ZM352.325 229.687C353.518 222.901 354.217 216.01 354.468 209.045L341.159 208.566C340.929 214.956 340.289 221.236 339.208 227.381L352.325 229.687ZM333.099 238.377C335.747 235.816 340.154 234.889 345.395 235.182L346.138 221.886C339.718 221.526 330.553 222.313 323.841 228.804L333.099 238.377ZM329.278 250.41C329.114 244.661 330.893 240.502 333.089 238.386L323.851 228.794C318.211 234.227 315.729 242.462 315.966 250.79L329.278 250.41ZM329.505 253.252C329.382 252.287 329.308 251.349 329.278 250.391L315.967 250.809C316.01 252.19 316.118 253.553 316.296 254.942L329.505 253.252ZM335.756 268.876C332.28 263.873 330.177 258.506 329.505 253.252L316.296 254.942C317.266 262.524 320.245 269.891 324.819 276.474L335.756 268.876ZM290.191 327.488C309.311 313.993 325.011 296.255 336.133 275.864L324.442 269.487C314.284 288.11 299.95 304.3 282.512 316.608L290.191 327.488ZM223.448 328.022C233.783 317.216 257.771 313.4 283.05 327.831L289.653 316.265C261.122 299.978 229.826 302.084 213.823 318.819L223.448 328.022ZM215.316 348.904C215.864 341.45 218.019 333.706 223.451 328.02L213.821 318.821C205.399 327.637 202.697 338.909 202.034 347.928L215.316 348.904ZM182.34 353.87C191.03 355.038 199.937 355.456 208.961 355.069L208.389 341.763C200.152 342.117 192.029 341.735 184.115 340.671L182.34 353.87ZM179.997 307.279C171.488 316.855 171.952 331.999 176.824 349.095L189.631 345.445C184.878 328.767 186.445 320.071 189.952 316.125L179.997 307.279ZM211.141 299.929C205.764 299.564 200.054 299.149 194.948 299.82C189.558 300.528 184.248 302.504 180.001 307.274L189.948 316.129C191.473 314.416 193.445 313.449 196.682 313.024C200.203 312.561 204.464 312.824 210.239 313.216L211.141 299.929ZM211.199 299.933L211.14 299.929L210.24 313.216L210.298 313.22L211.199 299.933ZM211.295 299.94L211.198 299.933L210.299 313.22L210.395 313.227L211.295 299.94ZM254.48 293.903C238.09 301.693 223.889 300.794 211.296 299.94L210.394 313.227C223.131 314.091 240.425 315.329 260.197 305.931L254.48 293.903ZM254.436 293.924L254.423 293.93L260.255 305.903L260.267 305.897L254.436 293.924ZM297.343 247.065C292.43 262.214 282.231 273.741 272.756 281.691C263.317 289.612 254.989 293.654 254.435 293.924L260.268 305.896C261.31 305.389 270.71 300.794 281.317 291.893C291.889 283.021 304.054 269.541 310.011 251.173L297.343 247.065ZM300.634 223.86C300.47 230.543 300.263 238.075 297.344 247.062L310.01 251.176C313.576 240.195 313.781 230.967 313.947 224.187L300.634 223.86ZM300.634 223.834L300.634 223.858L313.947 224.189L313.948 224.164L300.634 223.834ZM143.179 173.057C136.824 179.244 132.435 183.41 123.853 185.485L126.982 198.429C139.402 195.426 146.051 188.847 152.469 182.599L143.179 173.057ZM143.192 173.045L143.178 173.057L152.47 182.598L152.483 182.585L143.192 173.045ZM172.737 153.346C157.782 158.828 149.718 166.691 143.192 173.044L152.482 182.586C158.741 176.493 165.133 170.318 177.32 165.85L172.737 153.346ZM226.968 152.721C212.704 149.447 194.9 145.276 172.75 153.341L177.307 165.855C195.472 159.241 209.844 162.454 223.989 165.701L226.968 152.721ZM226.976 152.723L226.963 152.72L223.994 165.702L224.007 165.705L226.976 152.723ZM227.035 152.736L226.982 152.724L224.001 165.704L224.053 165.716L227.035 152.736ZM255.808 153.548C247.661 157.248 239.526 155.607 227.036 152.737L224.052 165.715C235.679 168.388 248.398 171.541 261.316 165.673L255.808 153.548ZM282.724 86.3316C281.161 106.199 277.876 121.638 273.123 132.872C268.378 144.087 262.427 150.542 255.809 153.547L261.315 165.673C271.997 160.823 279.854 151.14 285.388 138.061C290.914 125 294.379 107.989 296 87.3757L282.724 86.3316ZM267.4 80.8461C273.693 84.165 279.709 87.9583 285.379 92.1902L293.344 81.5171C287.113 76.8668 280.51 72.7046 273.612 69.0666L267.4 80.8461ZM250.474 130.513C266.508 122.539 274.48 102.526 277.133 75.6095L263.879 74.3032C261.288 100.601 253.869 113.951 244.544 118.589L250.474 130.513ZM219.784 130.932C228.248 133.208 238.913 136.275 250.479 130.51L244.539 118.591C238.071 121.815 232.239 120.491 223.243 118.072L219.784 130.932ZM219.718 130.915L219.799 130.936L223.228 118.068L223.148 118.046L219.718 130.915ZM192.648 129.452C203 126.542 211.151 128.631 219.718 130.915L223.148 118.047C214.533 115.75 203.211 112.649 189.043 116.632L192.648 129.452ZM162.808 155.041C170.687 143.906 178.284 133.476 192.642 129.454L189.05 116.63C169.601 122.078 159.595 136.526 151.937 147.349L162.808 155.041ZM162.799 155.054L162.806 155.044L151.939 147.346L151.932 147.355L162.799 155.054ZM134.504 177.883C141.618 176.927 147.103 173.384 151.535 169.101C155.839 164.942 159.499 159.725 162.804 155.047L151.927 147.362C148.449 152.287 145.515 156.4 142.281 159.524C139.176 162.525 136.179 164.22 132.731 164.684L134.504 177.883ZM74.6391 128.888C84.8674 145.595 94.708 158.253 104.317 166.521C113.92 174.785 124.058 179.287 134.505 177.882L132.73 164.684C127.546 165.381 121.105 163.398 113.003 156.427C104.906 149.459 95.9126 138.131 85.9971 121.935L74.6391 128.888ZM67.9434 171.519C71.5501 156.286 77.6721 141.947 85.9327 128.991L74.7035 121.832C65.6509 136.03 58.9387 151.749 54.9843 168.45L67.9434 171.519ZM123.855 185.484C108.715 189.138 89.3872 183.255 65.5502 164.727L57.3775 175.242C82.3366 194.642 105.906 203.516 126.98 198.43L123.855 185.484ZM134.08 227.983C132.232 225.109 129.345 223.912 127.135 223.403C124.883 222.885 122.432 222.857 120.093 223.03C115.379 223.379 109.602 224.672 103.465 226.442C91.0933 230.009 75.9053 235.918 61.9957 241.958L67.3002 254.173C80.9846 248.231 95.577 242.576 107.155 239.238C112.993 237.554 117.732 236.559 121.075 236.311C122.765 236.187 123.727 236.285 124.148 236.381C124.611 236.488 123.656 236.396 122.877 235.183L134.08 227.983ZM87.725 290.917C99.3816 280.659 112.019 268.616 121.24 258.152C125.817 252.958 129.775 247.904 132.323 243.501C133.585 241.32 134.696 238.971 135.25 236.625C135.785 234.361 136.037 231.045 134.089 227.997L122.867 235.168C122.038 233.87 122.439 232.93 122.29 233.562C122.16 234.111 121.752 235.179 120.796 236.831C118.907 240.096 115.63 244.375 111.248 249.348C102.551 259.218 90.3763 270.844 78.9268 280.92L87.725 290.917ZM58.3104 250.108C62.9299 264.44 69.5629 277.711 77.8474 289.703L88.8045 282.134C81.2447 271.191 75.1976 259.09 70.9856 246.023L58.3104 250.108ZM61.5379 231.793C95.7067 219.82 125.338 212.049 147.11 208.91C158.042 207.335 166.64 206.981 172.706 207.69C179.325 208.463 180.671 210.209 180.756 210.37L192.564 204.212C189.141 197.651 181.416 195.299 174.252 194.462C166.534 193.56 156.635 194.082 145.21 195.729C122.269 199.036 91.7452 207.097 57.1338 219.225L61.5379 231.793ZM70.2191 243.575C68.3589 237.432 66.9175 231.051 65.9183 224.504L52.7534 226.514C53.8458 233.671 55.4252 240.671 57.4732 247.435L70.2191 243.575ZM136.35 226.543C134.47 223.604 131.614 222.07 128.972 221.305C126.372 220.552 123.529 220.398 120.784 220.518C115.286 220.758 108.719 222.18 102.026 224.093C88.5411 227.946 72.979 234.26 61.1854 239.401L66.5069 251.609C78.1651 246.527 93.074 240.501 105.685 236.898C112.041 235.081 117.428 233.995 121.366 233.822C123.34 233.736 124.586 233.899 125.267 234.097C125.907 234.282 125.524 234.332 125.132 233.719L136.35 226.543ZM89.2841 293.169C98.2919 285.254 111.622 273.048 121.935 261.452C127.056 255.694 131.696 249.797 134.65 244.468C136.12 241.814 137.363 238.967 137.905 236.118C138.45 233.251 138.391 229.724 136.345 226.535L125.137 233.726C124.708 233.059 124.99 232.745 124.822 233.631C124.65 234.536 124.126 235.982 123.001 238.012C120.763 242.05 116.895 247.08 111.984 252.602C102.231 263.568 89.4006 275.338 80.4931 283.166L89.2841 293.169ZM101.973 298.363C97.7857 293.94 93.8679 289.231 90.2878 284.271L79.4894 292.065C83.4257 297.518 87.7225 302.682 92.3031 307.52L101.973 298.363ZM180.763 210.353C180.871 210.562 181.521 212.72 178.341 218.645C175.419 224.089 170.144 231.024 162.477 239.209C147.207 255.512 123.428 275.746 93.2403 297.543L101.036 308.34C131.594 286.276 156.119 265.477 172.197 248.313C180.204 239.764 186.365 231.857 190.075 224.943C193.527 218.51 196.006 210.794 192.576 204.204L180.763 210.353ZM191.927 211.364L191.937 211.352L181.401 203.206L181.392 203.218L191.927 211.364ZM167.612 281.415C173.146 276.086 180.495 273.439 189.533 272.391C198.679 271.331 208.816 271.977 219.546 272.682L220.419 259.393C209.965 258.706 198.569 257.937 187.999 259.163C177.32 260.401 166.766 263.741 158.374 271.822L167.612 281.415ZM157.735 272.533L157.726 272.546L168.261 280.692L168.271 280.679L157.735 272.533ZM157.958 330.249C154.777 305.297 158.905 289.794 167.621 281.403L158.385 271.809C145.037 284.658 141.397 305.652 144.748 331.933L157.958 330.249ZM159.23 338.489C158.726 335.658 158.297 332.9 157.958 330.246L144.748 331.936C145.119 334.834 145.582 337.808 146.119 340.824L159.23 338.489ZM94.2487 309.585C109.957 325.623 129.143 338.071 150.369 345.904L154.98 333.41C135.603 326.259 118.092 314.896 103.763 300.266L94.2487 309.585ZM183.148 209.138C183.839 210.464 184.124 213.849 180.259 220.78C176.625 227.298 170.275 235.179 161.744 243.959C144.751 261.449 120.225 281.374 95.1053 299.529L102.906 310.322C128.31 291.962 153.533 271.521 171.296 253.24C180.142 244.135 187.422 235.279 191.891 227.266C196.129 219.665 198.991 210.722 194.957 202.982L183.148 209.138ZM61.1141 229.096C89.4921 219.205 119.272 210.654 142.953 206.791C154.843 204.852 164.798 204.164 172.124 204.906C179.918 205.696 182.473 207.84 183.145 209.133L194.96 202.987C190.948 195.275 182.03 192.524 173.466 191.657C164.434 190.742 153.145 191.636 140.809 193.648C116.039 197.688 85.438 206.515 56.731 216.521L61.1141 229.096ZM52.2767 223.363C52.2852 223.413 52.2905 223.444 52.2953 223.473C52.2998 223.499 52.3019 223.513 52.3029 223.519C52.3049 223.532 52.2996 223.5 52.2939 223.44L65.5512 222.177C65.5048 221.689 65.4274 221.257 65.4009 221.104L52.2767 223.363ZM52.1676 222.657C52.2071 222.965 52.2564 223.246 52.2767 223.363L65.4009 221.104C65.3946 221.067 65.3902 221.041 65.386 221.017C65.382 220.993 65.3794 220.977 65.3775 220.965C65.3736 220.941 65.3746 220.946 65.3774 220.967L52.1676 222.657ZM54.3223 171.499C50.8001 187.884 49.9219 205.102 52.1676 222.657L65.3774 220.967C63.3277 204.945 64.1291 189.245 67.3422 174.298L54.3223 171.499ZM124.486 188.102C108.722 191.929 88.945 186.061 64.8836 167.614L56.7808 178.183C82.0678 197.57 106.047 206.283 127.627 201.044L124.486 188.102ZM145.038 174.997C138.685 181.185 133.784 185.856 124.493 188.1L127.62 201.045C140.742 197.875 147.898 190.802 154.331 184.537L145.038 174.997ZM145.062 174.974L145.037 174.998L154.332 184.536L154.356 184.512L145.062 174.974ZM173.69 155.875C159.258 161.142 151.695 168.51 145.062 174.974L154.356 184.512C160.707 178.323 166.596 172.64 178.256 168.385L173.69 155.875ZM226.36 155.35C212.496 152.17 195.085 148.088 173.696 155.873L178.251 168.387C195.64 162.057 209.598 165.169 223.383 168.33L226.36 155.35ZM226.403 155.36L226.361 155.35L223.383 168.33L223.426 168.34L226.403 155.36ZM226.442 155.369L226.405 155.36L223.425 168.34L223.462 168.349L226.442 155.369ZM256.947 156.009C247.953 160.095 238.87 158.227 226.445 155.369L223.46 168.348C235.098 171.024 248.713 174.376 262.455 168.135L256.947 156.009ZM285.274 88.1974C283.578 108.082 280.117 123.575 275.147 134.893C270.193 146.177 263.97 152.825 256.951 156.007L262.45 168.137C273.394 163.175 281.547 153.443 287.341 140.247C293.12 127.084 296.781 109.993 298.543 89.3287L285.274 88.1974ZM353.384 184.091C348.093 142.645 326.551 107.256 295.995 83.5057L287.822 94.0204C315.711 115.698 335.347 147.965 340.173 185.777L353.384 184.091ZM353.84 188.321C353.722 187.017 353.588 185.529 353.371 184L340.186 185.868C340.348 187.012 340.454 188.17 340.578 189.526L353.84 188.321ZM353.922 189.214C353.895 188.92 353.868 188.625 353.84 188.321L340.578 189.527C340.605 189.828 340.633 190.14 340.663 190.454L353.922 189.214ZM293.834 196.498C297.566 192.928 303.299 190.597 311.911 190.325C320.576 190.051 331.661 191.893 345.293 196.185L349.292 183.483C334.891 178.948 322.214 176.675 311.49 177.014C300.714 177.354 291.433 180.364 284.627 186.876L293.834 196.498ZM288.307 222.07C287.814 209.835 287.869 202.195 293.829 196.503L284.632 186.871C273.622 197.385 274.56 211.675 275 222.606L288.307 222.07ZM288.307 222.078L288.306 222.069L275 222.608L275 222.617L288.307 222.078ZM288.313 222.228L288.307 222.09L275 222.604L275.005 222.742L288.313 222.228ZM279.975 258.695C289.517 246.958 288.724 232.877 288.313 222.228L275.005 222.742C275.449 234.242 275.539 243.04 269.642 250.293L279.975 258.695ZM219.69 272.692C230.564 273.408 242.023 274.189 252.258 272.811C262.68 271.407 272.678 267.664 279.974 258.696L269.643 250.292C265.236 255.709 258.947 258.472 250.48 259.612C241.828 260.778 231.797 260.143 220.566 259.403L219.69 272.692ZM219.636 272.688L219.69 272.691L220.567 259.403L220.513 259.399L219.636 272.688ZM219.546 272.682L219.638 272.688L220.511 259.399L220.419 259.393L219.546 272.682Z" fill="black" mask="url(#path-4-outside-2_937_1016)"/>
</mask>
<g mask="url(#mask0_937_1016)">
<rect x="58.2164" y="2.22095" width="345.386" height="345.386" rx="166.467" transform="rotate(9.292 58.2164 2.22095)" fill="#0E0E14"/>
</g>
</g>
<defs>
<linearGradient id="paint0_linear_937_1016" x1="425.783" y1="60.6579" x2="77.1665" y2="282.104" gradientUnits="userSpaceOnUse">
<stop stop-color="#2F1FED"/>
<stop offset="0.496225" stop-color="#4558A7"/>
<stop offset="1" stop-color="#0080AA"/>
</linearGradient>
<clipPath id="clip0_937_1016">
<rect width="400" height="400" fill="white"/>
</clipPath>
</defs>
</svg>
