<svg width="400" height="400" viewBox="0 0 400 400" fill="none" xmlns="http://www.w3.org/2000/svg">
<g clip-path="url(#clip0_1220_1915)">
<rect x="0.188965" y="-0.000396729" width="399.22" height="399.22" rx="110.978" fill="#16181C"/>
<mask id="mask0_1220_1915" style="mask-type:alpha" maskUnits="userSpaceOnUse" x="50" y="51" width="305" height="305">
<mask id="path-2-inside-1_1220_1915" fill="white">
<path fill-rule="evenodd" clip-rule="evenodd" d="M155.187 149.7C148.49 159.19 142.699 167.379 133.279 168.641C118.822 170.569 101.604 155.156 81.9757 122.931C89.8752 111.11 99.4676 100.437 110.471 91.3554C120.795 112.424 130.602 122.568 140.228 122.126C147.586 121.804 152.328 115.355 157.363 108.507L157.394 108.465L157.396 108.462C162.998 100.829 169.33 92.1992 180.472 90.0291C189.599 88.2529 196.651 91.7174 203.458 95.0621L203.485 95.075L203.579 95.1211C210.202 98.3713 216.443 101.433 223.631 98.8852C233.164 95.5102 239.545 83.9956 242.96 63.8438C251.621 66.3583 259.993 69.6094 267.967 73.6338C265.559 99.8862 258.325 116.204 246.315 122.187C238.2 126.223 230.801 124.248 222.242 121.964L222.203 121.954L222.198 121.953L222.198 121.953C213.273 119.574 203.122 116.868 190.126 120.505C172.29 125.484 163.203 138.349 155.187 149.7ZM284.309 222.097C283.889 211.18 283.493 200.879 291.08 193.617L291.092 193.627C301.035 184.105 319.994 183.836 347.525 192.716C347.866 197.141 347.969 201.563 347.898 205.951C330.194 199.086 317.62 198.629 310.451 204.692C304.95 209.323 304.792 215.765 304.593 223.915C304.44 230.48 304.232 238.644 301.117 248.262C290.574 280.791 257.57 296.795 256.177 297.459C238.677 305.78 223.285 304.725 210.92 303.869L210.87 303.865C199.009 303.063 189.622 302.427 182.96 309.906C178.067 315.407 176.3 323.566 177.704 334.536C178.194 338.277 179.061 342.409 180.279 346.812C171.825 345.479 163.562 343.433 155.594 340.694C150.021 310.712 153.085 289.848 164.852 278.536C177.914 265.958 199.199 267.359 219.791 268.714L219.886 268.72C241.729 270.18 264.297 271.66 276.876 256.193C285.273 245.876 284.797 233.862 284.315 222.244L284.309 222.097ZM140.122 119.443C146.203 119.162 150.406 113.467 155.239 106.879L155.273 106.833C161.158 98.834 167.815 89.7853 179.967 87.3973C189.949 85.4351 197.707 89.2473 204.571 92.6204L204.667 92.6674L204.702 92.6847C211.082 95.8204 216.577 98.5217 222.722 96.3614C231.23 93.3546 237.115 82.1968 240.32 63.1438C222.604 58.3909 203.671 56.9195 184.351 59.3911C157.126 62.8739 132.623 73.7049 112.597 89.6171C122.402 109.804 131.63 119.841 140.122 119.443ZM211.384 348.25C211.997 340.6 214.287 331.865 220.587 325.27L220.597 325.258C232.832 312.486 258.498 309.778 283.849 323.756C265.671 336.035 244.419 344.397 221.169 347.371C217.904 347.789 214.63 348.038 211.384 348.25ZM330.337 235.496C326.965 238.771 325.136 244.241 325.307 250.517C325.498 257.128 327.743 263.826 331.71 269.954C337.973 257.868 342.546 244.836 345.203 231.202C340.058 230.946 334.233 231.725 330.337 235.496ZM307.291 223.999C307.471 216.234 307.62 210.607 312.183 206.75L312.192 206.738C318.71 201.232 330.672 201.936 347.813 208.805C347.572 215.483 346.903 222.069 345.766 228.534C339.935 228.208 333.15 229.065 328.47 233.59C324.551 237.364 322.421 243.562 322.622 250.6C322.659 251.769 322.75 252.92 322.9 254.097C323.721 260.515 326.262 266.882 330.287 272.675C319.647 292.183 304.63 309.147 286.351 322.048C259.446 306.689 231.804 309.65 218.636 323.421C211.709 330.671 209.28 340.179 208.675 348.416C200.044 348.787 191.529 348.386 183.227 347.27C178.415 330.383 178.966 318.463 184.974 311.702C190.746 305.218 199.538 305.815 210.689 306.573L210.748 306.577L210.845 306.583C223.51 307.442 239.257 308.511 257.339 299.917L257.352 299.91C258.947 299.133 292.807 282.636 303.677 249.119C306.919 239.135 307.125 230.755 307.29 224.023L307.291 223.999ZM125.417 191.957C135.918 189.418 141.437 184.046 147.824 177.828L147.837 177.815C154.229 171.592 161.457 164.573 175.028 159.598C195.186 152.259 211.274 155.951 225.478 159.211L225.491 159.214L225.544 159.226C237.602 161.998 248.029 164.395 258.562 159.61C275.861 151.755 286.178 127.334 289.362 86.8536C283.41 82.4125 277.101 78.4348 270.506 74.9563C267.883 101.563 260.188 118.245 247.509 124.551C238.492 129.045 230.244 126.85 221.513 124.502L221.432 124.481C212.841 122.19 203.106 119.595 190.845 123.042C173.942 127.777 165.141 140.216 157.372 151.195L157.365 151.205C150.581 160.807 144.179 169.864 133.617 171.283C117.985 173.384 100.462 158.315 80.3178 125.411C71.6612 138.989 65.2441 154.018 61.4636 169.984C85.8616 188.948 107.311 196.327 125.417 191.957ZM64.6477 248.066C92.2416 236.083 124.209 224.94 128.478 231.583C132.951 238.583 106.432 265.584 83.3256 285.919C75.4035 274.451 69.0635 261.765 64.6477 248.066ZM186.659 207.291C179.646 193.845 128.116 201.408 59.3355 225.509C60.3813 232.361 61.8918 239.051 63.8459 245.505C87.2976 235.282 124.788 220.826 130.741 230.131C137.211 240.216 102.804 272.424 84.8883 288.168C88.6465 293.375 92.7538 298.311 97.138 302.941C157.883 259.081 193.746 220.875 186.669 207.279L186.659 207.291ZM219.982 266.038C198.797 264.646 176.919 263.208 162.993 276.619L163.003 276.606C151.97 287.226 148.087 305.474 151.353 331.091C151.708 333.867 152.153 336.733 152.674 339.657C132.373 332.165 114.024 320.259 99.0055 304.926C149.529 268.41 198.504 224.193 189.052 206.06C179.684 188.051 116.007 202.912 58.9222 222.808C58.9034 222.61 58.8708 222.421 58.8385 222.234C58.8144 222.094 58.7904 221.954 58.7722 221.812C56.6245 205.024 57.4643 188.564 60.8319 172.899C85.5061 191.816 107.384 199.106 126.056 194.573C137.262 191.866 143.291 185.994 149.684 179.767L149.709 179.743C156.201 173.417 162.927 166.891 175.973 162.13C195.362 155.073 211.047 158.67 224.871 161.84L224.914 161.85L224.952 161.859C236.984 164.626 248.333 167.235 259.701 162.072C277.663 153.928 288.451 129.312 291.908 88.7631C321.131 111.477 341.72 145.305 346.778 184.934C346.968 186.271 347.088 187.593 347.209 188.924C347.236 189.227 347.264 189.53 347.292 189.834C319.259 181.007 299.767 181.604 289.23 191.687C280.745 199.79 281.186 210.755 281.653 222.338L281.653 222.347L281.659 222.485C282.086 233.559 282.528 244.999 274.808 254.494C263.106 268.879 242.233 267.504 220.128 266.047L220.074 266.044L219.982 266.038Z"/>
</mask>
<path d="M133.279 168.641L133.72 171.941L133.721 171.941L133.279 168.641ZM155.187 149.7L152.468 147.78L152.467 147.781L155.187 149.7ZM81.9757 122.931L79.2075 121.082L78.0269 122.848L79.1323 124.663L81.9757 122.931ZM110.471 91.3554L113.461 89.8904L111.605 86.1029L108.352 88.7877L110.471 91.3554ZM140.228 122.126L140.082 118.8L140.075 118.8L140.228 122.126ZM157.363 108.507L160.045 110.479L160.045 110.479L157.363 108.507ZM157.394 108.465L160.076 110.437L160.081 110.431L157.394 108.465ZM157.396 108.462L154.711 106.493L154.709 106.496L157.396 108.462ZM180.472 90.0291L179.836 86.7611L179.836 86.7612L180.472 90.0291ZM203.458 95.0621L201.99 98.0502L201.992 98.0509L203.458 95.0621ZM203.485 95.075L202.018 98.0639L202.018 98.0641L203.485 95.075ZM203.579 95.1211L205.045 92.1322L205.045 92.132L203.579 95.1211ZM223.631 98.8852L222.52 95.7467L222.518 95.7472L223.631 98.8852ZM242.96 63.8438L243.888 60.6464L240.301 59.6051L239.677 63.2876L242.96 63.8438ZM267.967 73.6338L271.282 73.9379L271.489 71.6821L269.467 70.6615L267.967 73.6338ZM246.315 122.187L247.798 125.168L247.8 125.167L246.315 122.187ZM222.242 121.964L221.383 125.181L221.383 125.181L222.242 121.964ZM222.203 121.954L223.062 118.737L223.055 118.735L222.203 121.954ZM222.198 121.953L221.286 125.155L221.316 125.163L221.347 125.171L222.198 121.953ZM222.198 121.953L223.111 118.751L223.083 118.743L223.056 118.736L222.198 121.953ZM190.126 120.505L191.021 123.712L191.024 123.711L190.126 120.505ZM291.08 193.617L293.116 190.983L290.849 189.23L288.778 191.212L291.08 193.617ZM284.309 222.097L287.636 221.969L287.636 221.969L284.309 222.097ZM291.092 193.627L289.056 196.261L291.324 198.014L293.395 196.031L291.092 193.627ZM347.525 192.716L350.845 192.46L350.674 190.233L348.547 189.547L347.525 192.716ZM347.898 205.951L346.695 209.055L351.15 210.782L351.227 206.004L347.898 205.951ZM310.451 204.692L312.595 207.239L312.601 207.234L310.451 204.692ZM304.593 223.915L301.265 223.834L301.265 223.838L304.593 223.915ZM301.117 248.262L304.285 249.288L304.285 249.287L301.117 248.262ZM256.177 297.459L257.607 300.465L257.608 300.464L256.177 297.459ZM210.92 303.869L211.15 300.547L211.144 300.547L210.92 303.869ZM210.87 303.865L210.645 307.187L210.645 307.187L210.87 303.865ZM182.96 309.906L180.474 307.691L180.473 307.693L182.96 309.906ZM177.704 334.536L174.401 334.959L174.403 334.969L177.704 334.536ZM180.279 346.812L179.76 350.101L184.865 350.906L183.488 345.925L180.279 346.812ZM155.594 340.694L152.321 341.302L152.676 343.211L154.512 343.842L155.594 340.694ZM164.852 278.536L167.16 280.936L167.162 280.934L164.852 278.536ZM219.791 268.714L219.573 272.036L219.573 272.036L219.791 268.714ZM219.886 268.72L220.109 265.398L220.105 265.398L219.886 268.72ZM276.876 256.193L274.294 254.091L274.293 254.092L276.876 256.193ZM284.315 222.244L280.988 222.372L280.988 222.382L284.315 222.244ZM155.239 106.879L152.558 104.906L152.555 104.909L155.239 106.879ZM140.122 119.443L139.968 116.117L139.966 116.118L140.122 119.443ZM155.273 106.833L157.955 108.806L157.955 108.806L155.273 106.833ZM179.967 87.3973L180.609 90.6641L180.609 90.6641L179.967 87.3973ZM204.571 92.6204L203.103 95.6085L203.103 95.6086L204.571 92.6204ZM204.667 92.6674L203.199 95.6556L203.199 95.6559L204.667 92.6674ZM204.702 92.6847L206.171 89.6968L206.17 89.6963L204.702 92.6847ZM222.722 96.3614L223.826 99.5023L223.831 99.5005L222.722 96.3614ZM240.32 63.1438L243.603 63.6961L244.105 60.7122L241.183 59.9282L240.32 63.1438ZM184.351 59.3911L184.774 62.6935L184.774 62.6935L184.351 59.3911ZM112.597 89.6171L110.526 87.0104L108.436 88.6708L109.602 91.0717L112.597 89.6171ZM220.587 325.27L222.995 327.57L223.115 327.444L223.221 327.307L220.587 325.27ZM211.384 348.25L208.065 347.984L207.758 351.824L211.601 351.572L211.384 348.25ZM220.597 325.258L218.193 322.954L218.071 323.082L217.963 323.221L220.597 325.258ZM283.849 323.756L285.713 326.515L290.223 323.469L285.457 320.841L283.849 323.756ZM221.169 347.371L221.591 350.673L221.591 350.673L221.169 347.371ZM325.307 250.517L321.979 250.607L321.979 250.613L325.307 250.517ZM330.337 235.496L328.022 233.104L328.018 233.108L330.337 235.496ZM331.71 269.954L328.915 271.763L332.029 276.575L334.666 271.486L331.71 269.954ZM345.203 231.202L348.471 231.839L349.206 228.067L345.369 227.877L345.203 231.202ZM312.183 206.75L314.332 209.293L314.601 209.066L314.816 208.787L312.183 206.75ZM307.291 223.999L310.619 224.082L310.619 224.076L307.291 223.999ZM312.192 206.738L310.044 204.194L309.774 204.422L309.558 204.701L312.192 206.738ZM347.813 208.805L351.14 208.925L351.224 206.586L349.051 205.715L347.813 208.805ZM345.766 228.534L345.58 231.858L348.533 232.023L349.045 229.11L345.766 228.534ZM328.47 233.59L330.779 235.988L330.784 235.984L328.47 233.59ZM322.622 250.6L319.294 250.695L319.294 250.705L322.622 250.6ZM330.287 272.675L333.21 274.269L334.195 272.464L333.022 270.775L330.287 272.675ZM286.351 322.048L284.7 324.939L286.54 325.99L288.271 324.768L286.351 322.048ZM218.636 323.421L216.229 321.12L216.228 321.121L218.636 323.421ZM208.675 348.416L208.818 351.742L211.778 351.615L211.995 348.66L208.675 348.416ZM183.227 347.27L180.025 348.183L180.623 350.279L182.784 350.57L183.227 347.27ZM184.974 311.702L182.487 309.488L182.485 309.49L184.974 311.702ZM210.689 306.573L210.464 309.894L210.464 309.894L210.689 306.573ZM210.748 306.577L210.523 309.898L210.523 309.898L210.748 306.577ZM210.845 306.583L211.07 303.261L211.069 303.261L210.845 306.583ZM257.339 299.917L258.768 302.924L258.782 302.917L258.796 302.91L257.339 299.917ZM257.352 299.91L258.809 302.904L258.81 302.903L257.352 299.91ZM303.677 249.119L300.51 248.091L300.51 248.092L303.677 249.119ZM307.29 224.023L303.962 223.941L303.962 223.942L307.29 224.023ZM147.824 177.828L150.146 180.213L150.147 180.213L147.824 177.828ZM125.417 191.957L126.198 195.193L126.199 195.193L125.417 191.957ZM147.837 177.815L145.514 175.429L145.514 175.43L147.837 177.815ZM175.028 159.598L173.889 156.47L173.882 156.472L175.028 159.598ZM225.478 159.211L224.733 162.456L224.736 162.456L225.478 159.211ZM225.491 159.214L226.237 155.969L226.233 155.968L225.491 159.214ZM225.544 159.226L226.289 155.981L226.289 155.981L225.544 159.226ZM258.562 159.61L257.185 156.579L257.185 156.579L258.562 159.61ZM289.362 86.8536L292.681 87.1147L292.825 85.2838L291.353 84.1854L289.362 86.8536ZM270.506 74.9563L272.059 72.0115L267.678 69.7011L267.192 74.6298L270.506 74.9563ZM247.509 124.551L246.027 121.57L246.024 121.571L247.509 124.551ZM221.513 124.502L222.378 121.287L222.371 121.285L221.513 124.502ZM221.432 124.481L220.575 127.698L220.575 127.698L221.432 124.481ZM190.845 123.042L191.743 126.248L191.747 126.247L190.845 123.042ZM157.372 151.195L160.089 153.119L160.09 153.118L157.372 151.195ZM157.365 151.205L154.649 149.28L154.646 149.284L157.365 151.205ZM133.617 171.283L133.174 167.983L133.174 167.983L133.617 171.283ZM80.3178 125.411L83.1573 123.673L80.3751 119.129L77.5105 123.622L80.3178 125.411ZM61.4636 169.984L58.2238 169.217L57.7307 171.3L59.4204 172.613L61.4636 169.984ZM128.478 231.583L131.283 229.79L131.279 229.783L128.478 231.583ZM64.6477 248.066L63.3216 245.012L60.5528 246.214L61.4789 249.087L64.6477 248.066ZM83.3256 285.919L80.5863 287.811L82.7144 290.892L85.5252 288.418L83.3256 285.919ZM59.3355 225.509L58.2345 222.367L55.6275 223.281L56.0443 226.011L59.3355 225.509ZM186.659 207.291L183.707 208.831L186.112 213.442L189.293 209.328L186.659 207.291ZM63.8459 245.505L60.6594 246.47L61.7443 250.053L65.1762 248.557L63.8459 245.505ZM130.741 230.131L127.936 231.925L127.938 231.929L130.741 230.131ZM84.8883 288.168L82.6905 285.667L80.4184 287.663L82.1887 290.116L84.8883 288.168ZM97.138 302.941L94.7204 305.23L96.7241 307.347L99.0869 305.641L97.138 302.941ZM186.669 207.279L189.622 205.741L187.219 201.124L184.035 205.242L186.669 207.279ZM162.993 276.619L160.359 274.582L165.303 279.017L162.993 276.619ZM219.982 266.038L219.764 269.36L219.764 269.36L219.982 266.038ZM163.003 276.606L165.637 278.643L160.694 274.208L163.003 276.606ZM151.353 331.091L148.05 331.512L148.05 331.514L151.353 331.091ZM152.674 339.657L151.521 342.78L156.97 344.791L155.952 339.073L152.674 339.657ZM99.0055 304.926L97.0552 302.227L93.921 304.493L96.6269 307.255L99.0055 304.926ZM189.052 206.06L186.098 207.596L186.1 207.599L189.052 206.06ZM58.9222 222.808L55.6079 223.124L56.0104 227.349L60.018 225.952L58.9222 222.808ZM58.8385 222.234L55.5574 222.798L55.5574 222.799L58.8385 222.234ZM58.7722 221.812L62.0746 221.39L62.0746 221.39L58.7722 221.812ZM60.8319 172.899L62.8576 170.256L58.6826 167.055L57.5769 172.199L60.8319 172.899ZM126.056 194.573L125.275 191.337L125.271 191.338L126.056 194.573ZM149.684 179.767L152.007 182.152L152.008 182.151L149.684 179.767ZM149.709 179.743L152.032 182.127L152.032 182.127L149.709 179.743ZM175.973 162.13L174.834 159.001L174.831 159.002L175.973 162.13ZM224.871 161.84L225.616 158.595L225.616 158.595L224.871 161.84ZM224.914 161.85L225.659 158.605L225.659 158.605L224.914 161.85ZM224.952 161.859L225.698 158.614L225.697 158.614L224.952 161.859ZM259.701 162.072L258.326 159.04L258.324 159.041L259.701 162.072ZM291.908 88.7631L293.951 86.1344L289.111 82.3725L288.591 88.4802L291.908 88.7631ZM346.778 184.934L343.476 185.356L343.479 185.379L343.482 185.401L346.778 184.934ZM347.209 188.924L343.893 189.225L343.893 189.225L347.209 188.924ZM347.292 189.834L346.292 193.01L351.074 194.515L350.607 189.524L347.292 189.834ZM289.23 191.687L291.53 194.095L291.532 194.092L289.23 191.687ZM281.653 222.338L278.326 222.472L278.326 222.473L281.653 222.338ZM281.653 222.347L284.98 222.219L284.98 222.213L281.653 222.347ZM281.659 222.485L284.985 222.356L284.985 222.356L281.659 222.485ZM274.808 254.494L277.391 256.595L277.391 256.594L274.808 254.494ZM220.128 266.047L219.909 269.369L219.909 269.369L220.128 266.047ZM220.074 266.044L220.294 262.722L220.293 262.722L220.074 266.044ZM133.721 171.941C139.366 171.185 143.796 168.345 147.584 164.635C151.305 160.99 154.605 156.3 157.907 151.62L152.467 147.781C149.072 152.591 146.129 156.74 142.925 159.878C139.788 162.95 136.613 164.835 132.838 165.341L133.721 171.941ZM79.1323 124.663C89.0221 140.9 98.4333 153.124 107.35 161.078C116.221 168.991 125.086 173.093 133.72 171.941L132.839 165.341C127.016 166.117 120.042 163.476 111.783 156.109C103.569 148.782 94.5574 137.187 84.8191 121.199L79.1323 124.663ZM108.352 88.7877C97.0938 98.0793 87.2839 108.995 79.2075 121.082L84.7439 124.781C92.4664 113.224 101.841 102.795 112.59 93.9232L108.352 88.7877ZM140.075 118.8C136.594 118.96 132.603 117.249 128.005 112.493C123.408 107.739 118.556 100.289 113.461 89.8904L107.481 92.8204C112.71 103.491 117.924 111.647 123.218 117.122C128.51 122.594 134.236 125.734 140.38 125.452L140.075 118.8ZM154.681 106.535C152.114 110.026 149.865 113.064 147.416 115.31C145.036 117.494 142.722 118.685 140.082 118.8L140.373 125.452C145.092 125.246 148.828 123.051 151.917 120.217C154.937 117.446 157.577 113.836 160.045 110.479L154.681 106.535ZM154.712 106.493L154.68 106.535L160.045 110.479L160.076 110.437L154.712 106.493ZM154.709 106.496L154.707 106.498L160.081 110.431L160.082 110.429L154.709 106.496ZM179.836 86.7612C167.231 89.2162 160.192 99.0243 154.711 106.493L160.08 110.432C165.803 102.633 171.43 95.1823 181.109 93.2971L179.836 86.7612ZM204.926 92.0739C198.196 88.7672 190.193 84.7455 179.836 86.7611L181.108 93.2972C189.005 91.7603 195.105 94.6676 201.99 98.0502L204.926 92.0739ZM204.951 92.0862L204.925 92.0732L201.992 98.0509L202.018 98.0639L204.951 92.0862ZM205.045 92.132L204.951 92.086L202.018 98.0641L202.112 98.1102L205.045 92.132ZM222.518 95.7472C216.853 97.7555 211.905 95.4982 205.045 92.1322L202.112 98.11C208.5 101.245 216.032 105.111 224.743 102.023L222.518 95.7472ZM239.677 63.2876C238.002 73.1714 235.638 80.6818 232.675 86.0463C229.732 91.3753 226.308 94.4055 222.52 95.7467L224.742 102.024C230.486 99.99 235.019 95.5753 238.504 89.2653C241.969 82.9908 244.502 74.668 246.242 64.3999L239.677 63.2876ZM269.467 70.6615C261.3 66.5397 252.735 63.215 243.888 60.6464L242.031 67.0411C250.506 69.5015 258.686 72.6792 266.467 76.6061L269.467 70.6615ZM247.8 125.167C254.696 121.732 259.962 115.446 263.783 106.866C267.595 98.3044 270.06 87.2677 271.282 73.9379L264.652 73.3296C263.466 86.2523 261.109 96.501 257.7 104.157C254.299 111.795 249.944 116.66 244.831 119.207L247.8 125.167ZM221.383 125.181C229.775 127.42 238.4 129.841 247.798 125.168L244.833 119.206C238 122.604 231.828 121.076 223.1 118.747L221.383 125.181ZM221.344 125.171L221.383 125.181L223.101 118.748L223.062 118.737L221.344 125.171ZM221.347 125.171L221.351 125.172L223.055 118.735L223.05 118.734L221.347 125.171ZM221.286 125.154L221.286 125.155L223.111 118.751L223.111 118.751L221.286 125.154ZM191.024 123.711C203.072 120.339 212.44 122.797 221.341 125.17L223.056 118.736C214.107 116.35 203.171 113.397 189.229 117.299L191.024 123.711ZM157.907 151.621C165.967 140.207 174.454 128.337 191.021 123.712L189.231 117.298C170.125 122.632 160.439 136.491 152.468 147.78L157.907 151.621ZM288.778 191.212C279.921 199.689 280.577 211.688 280.982 222.225L287.636 221.969C287.201 210.671 287.065 202.069 293.382 196.022L288.778 191.212ZM293.129 190.993L293.116 190.983L289.044 196.251L289.056 196.261L293.129 190.993ZM348.547 189.547C334.6 185.048 322.59 182.786 312.661 182.942C302.716 183.097 294.565 185.692 288.79 191.222L293.395 196.031C297.563 192.04 303.862 189.739 312.765 189.6C321.684 189.46 332.919 191.503 346.503 195.884L348.547 189.547ZM351.227 206.004C351.299 201.529 351.194 197.003 350.845 192.46L344.206 192.971C344.537 197.279 344.639 201.597 344.569 205.897L351.227 206.004ZM312.601 207.234C315.366 204.896 319.398 203.605 325.11 203.801C330.848 203.998 338.029 205.695 346.695 209.055L349.102 202.846C340.064 199.342 332.105 197.378 325.338 197.146C318.545 196.913 312.706 198.425 308.301 202.15L312.601 207.234ZM307.922 223.997C308.129 215.495 308.433 210.743 312.595 207.239L308.307 202.145C301.467 207.903 301.455 216.035 301.265 223.834L307.922 223.997ZM304.285 249.287C307.56 239.171 307.768 230.585 307.922 223.993L301.265 223.838C301.112 230.376 300.903 238.116 297.95 247.236L304.285 249.287ZM257.608 300.464C258.452 300.063 267.32 295.756 277.352 287.364C287.369 278.984 298.751 266.362 304.285 249.288L297.95 247.235C292.941 262.692 282.549 274.335 273.08 282.256C263.626 290.164 255.295 294.191 254.745 294.453L257.608 300.464ZM210.69 307.19C223.086 308.048 239.257 309.191 257.607 300.465L254.747 294.452C238.098 302.369 223.484 301.401 211.15 300.547L210.69 307.19ZM210.645 307.187L210.695 307.191L211.144 300.547L211.094 300.544L210.645 307.187ZM185.446 312.12C188.141 309.095 191.367 307.666 195.443 307.075C199.684 306.46 204.612 306.779 210.645 307.187L211.095 300.544C205.266 300.149 199.571 299.749 194.488 300.485C189.239 301.246 184.441 303.238 180.474 307.691L185.446 312.12ZM181.006 334.114C179.665 323.627 181.454 316.609 185.448 312.119L180.473 307.693C174.68 314.205 172.936 323.505 174.401 334.959L181.006 334.114ZM183.488 345.925C182.303 341.641 181.471 337.662 181.005 334.104L174.403 334.969C174.916 338.891 175.819 343.178 177.07 347.7L183.488 345.925ZM154.512 343.842C162.667 346.645 171.118 348.738 179.76 350.101L180.797 343.524C172.531 342.22 164.457 340.22 156.676 337.545L154.512 343.842ZM162.545 276.136C149.468 288.707 146.715 311.147 152.321 341.302L158.867 340.085C153.326 310.276 156.701 290.99 167.16 280.936L162.545 276.136ZM220.01 265.391C209.782 264.718 199.006 264 189.132 265.091C179.217 266.186 169.808 269.142 162.543 276.138L167.162 280.934C172.958 275.352 180.722 272.719 189.863 271.709C199.045 270.695 209.208 271.354 219.573 272.036L220.01 265.391ZM220.105 265.398L220.01 265.391L219.573 272.036L219.668 272.042L220.105 265.398ZM274.293 254.092C268.723 260.942 260.858 264.193 251.397 265.506C241.855 266.831 231.111 266.133 220.109 265.398L219.664 272.042C230.505 272.766 241.966 273.539 252.313 272.102C262.741 270.654 272.45 266.912 279.459 258.294L274.293 254.092ZM280.988 222.382C281.477 234.174 281.783 244.889 274.294 254.091L279.458 258.295C288.762 246.863 288.116 233.55 287.641 222.106L280.988 222.382ZM280.982 222.225L280.988 222.372L287.642 222.116L287.636 221.969L280.982 222.225ZM152.555 104.909C150.089 108.27 148.014 111.072 145.862 113.106C143.761 115.092 141.911 116.028 139.968 116.117L140.276 122.769C144.414 122.578 147.706 120.525 150.435 117.946C153.113 115.415 155.556 112.076 157.924 108.848L152.555 104.909ZM152.591 104.86L152.558 104.906L157.921 108.852L157.955 108.806L152.591 104.86ZM179.325 84.1304C165.731 86.8017 158.379 96.9931 152.591 104.86L157.955 108.806C163.937 100.675 169.898 92.7689 180.609 90.6641L179.325 84.1304ZM206.04 89.6323C199.235 86.2888 190.532 81.9273 179.325 84.1305L180.609 90.6641C189.365 88.9429 196.178 92.2058 203.103 95.6085L206.04 89.6323ZM206.135 89.6792L206.039 89.6322L203.103 95.6086L203.199 95.6556L206.135 89.6792ZM206.17 89.6963L206.134 89.6789L203.199 95.6559L203.235 95.6732L206.17 89.6963ZM221.617 93.2206C217.016 94.8385 212.846 92.9779 206.171 89.6968L203.234 95.6726C209.317 98.663 216.139 102.205 223.826 99.5023L221.617 93.2206ZM237.037 62.5915C235.465 71.9354 233.271 79.1023 230.567 84.2126C227.866 89.3154 224.812 92.0915 221.612 93.2224L223.831 99.5005C229.139 97.6245 233.282 93.3183 236.452 87.3272C239.619 81.3437 241.97 73.4052 243.603 63.6961L237.037 62.5915ZM184.774 62.6935C203.654 60.2782 222.15 61.7162 239.457 66.3594L241.183 59.9282C223.058 55.0655 203.688 53.5608 183.929 56.0886L184.774 62.6935ZM114.668 92.2238C134.233 76.6785 158.169 66.097 184.774 62.6935L183.929 56.0886C156.083 59.6509 131.014 70.7313 110.526 87.0104L114.668 92.2238ZM139.966 116.118C137.168 116.249 133.624 114.683 129.3 109.993C125.023 105.355 120.432 98.1287 115.592 88.1626L109.602 91.0717C114.566 101.293 119.492 109.179 124.404 114.507C129.268 119.782 134.584 123.036 140.278 122.769L139.966 116.118ZM218.18 322.97C211.137 330.343 208.708 339.952 208.065 347.984L214.703 348.516C215.285 341.247 217.437 333.388 222.995 327.57L218.18 322.97ZM217.963 323.221L217.953 323.234L223.221 327.307L223.231 327.294L217.963 323.221ZM285.457 320.841C259.329 306.434 231.848 308.701 218.193 322.954L223.001 327.561C233.817 316.271 257.668 313.122 282.242 326.672L285.457 320.841ZM221.591 350.673C245.373 347.631 267.116 339.077 285.713 326.515L281.986 320.997C264.226 332.994 243.465 341.162 220.746 344.068L221.591 350.673ZM211.601 351.572C214.864 351.359 218.222 351.104 221.591 350.673L220.746 344.068C217.587 344.473 214.395 344.717 211.167 344.928L211.601 351.572ZM328.635 250.426C328.481 244.752 330.157 240.312 332.657 237.884L328.018 233.108C323.772 237.23 321.792 243.731 321.979 250.607L328.635 250.426ZM334.505 268.145C330.823 262.457 328.806 256.343 328.635 250.42L321.979 250.613C322.19 257.913 324.664 265.195 328.915 271.763L334.505 268.145ZM341.935 230.565C339.34 243.885 334.872 256.617 328.754 268.423L334.666 271.486C341.074 259.12 345.753 245.786 348.471 231.839L341.935 230.565ZM332.653 237.888C335.53 235.103 340.159 234.284 345.038 234.527L345.369 227.877C339.957 227.607 332.937 228.346 328.022 233.104L332.653 237.888ZM310.033 204.208C304.114 209.211 304.133 216.593 303.962 223.922L310.619 224.076C310.81 215.875 311.126 212.003 314.332 209.293L310.033 204.208ZM309.558 204.701L309.549 204.714L314.816 208.787L314.826 208.774L309.558 204.701ZM349.051 205.715C340.31 202.212 332.659 200.183 326.213 199.807C319.758 199.431 314.178 200.703 310.044 204.194L314.341 209.281C316.725 207.267 320.385 206.138 325.826 206.455C331.274 206.772 338.176 208.53 346.574 211.896L349.051 205.715ZM349.045 229.11C350.21 222.485 350.894 215.746 351.14 208.925L344.486 208.686C344.25 215.22 343.596 221.653 342.487 227.957L349.045 229.11ZM330.784 235.984C334.448 232.44 340.044 231.548 345.58 231.858L345.952 225.21C339.826 224.867 331.851 225.689 326.155 231.197L330.784 235.984ZM325.95 250.505C325.768 244.111 327.722 238.933 330.779 235.988L326.16 231.192C321.381 235.795 319.075 243.012 319.294 250.695L325.95 250.505ZM326.203 253.675C326.066 252.604 325.983 251.559 325.95 250.496L319.294 250.705C319.334 251.98 319.434 253.236 319.598 254.519L326.203 253.675ZM333.022 270.775C329.271 265.377 326.949 259.51 326.203 253.675L319.598 254.519C320.493 261.519 323.254 268.386 327.553 274.575L333.022 270.775ZM288.271 324.768C306.971 311.57 322.329 294.219 333.21 274.269L327.365 271.081C316.965 290.146 302.29 306.724 284.431 319.328L288.271 324.768ZM221.042 325.721C232.793 313.433 258.608 310.044 284.7 324.939L288.002 319.157C260.284 303.334 230.815 305.867 216.229 321.12L221.042 325.721ZM211.995 348.66C212.572 340.815 214.864 332.189 221.043 325.72L216.228 321.121C208.554 329.154 205.988 339.544 205.354 348.172L211.995 348.66ZM182.784 350.57C191.279 351.712 199.99 352.121 208.818 351.742L208.532 345.09C200.098 345.452 191.779 345.061 183.671 343.971L182.784 350.57ZM182.485 309.49C175.227 317.659 175.183 331.191 180.025 348.183L186.429 346.358C181.646 329.575 182.706 319.267 187.463 313.913L182.485 309.49ZM210.915 303.251C205.439 302.879 200.091 302.502 195.381 303.121C190.529 303.758 186.054 305.482 182.487 309.488L187.461 313.916C189.666 311.438 192.473 310.219 196.248 309.723C200.165 309.208 204.789 309.509 210.464 309.894L210.915 303.251ZM210.973 303.255L210.915 303.251L210.464 309.894L210.523 309.898L210.973 303.255ZM211.069 303.261L210.973 303.255L210.523 309.898L210.62 309.905L211.069 303.261ZM255.909 296.91C238.673 305.102 223.699 304.118 211.07 303.261L210.619 309.905C223.32 310.767 239.841 311.92 258.768 302.924L255.909 296.91ZM255.894 296.917L255.881 296.923L258.796 302.91L258.809 302.904L255.894 296.917ZM300.51 248.092C295.336 264.046 284.645 276.061 274.896 284.242C265.165 292.408 256.569 296.588 255.893 296.917L258.81 302.903C259.729 302.455 268.861 297.998 279.176 289.342C289.474 280.701 301.148 267.709 306.844 250.146L300.51 248.092ZM303.962 223.942C303.797 230.649 303.591 238.605 300.51 248.091L306.843 250.148C310.248 239.665 310.453 230.861 310.619 224.105L303.962 223.942ZM303.962 223.916L303.962 223.941L310.619 224.106L310.619 224.082L303.962 223.916ZM145.501 175.442C139.13 181.645 134.177 186.414 124.635 188.721L126.199 195.193C137.66 192.422 143.744 186.447 150.146 180.213L145.501 175.442ZM145.514 175.43L145.501 175.443L150.147 180.213L150.16 180.2L145.514 175.43ZM173.882 156.472C159.619 161.701 151.974 169.141 145.514 175.429L150.159 180.2C156.485 174.042 163.295 167.445 176.174 162.724L173.882 156.472ZM226.223 155.966C211.989 152.699 195.043 148.768 173.889 156.47L176.167 162.727C195.329 155.75 210.559 159.203 224.733 162.456L226.223 155.966ZM226.233 155.968L226.22 155.965L224.736 162.456L224.749 162.46L226.233 155.968ZM226.289 155.981L226.237 155.969L224.746 162.459L224.798 162.471L226.289 155.981ZM257.185 156.579C247.845 160.822 238.564 158.803 226.289 155.981L224.798 162.471C236.64 165.193 248.214 167.968 259.939 162.641L257.185 156.579ZM286.042 86.5926C284.465 106.647 281.135 122.479 276.189 134.169C271.247 145.85 264.819 153.112 257.185 156.579L259.939 162.642C269.604 158.253 276.985 149.376 282.321 136.764C287.654 124.16 291.074 107.541 292.681 87.1147L286.042 86.5926ZM268.953 77.9012C275.397 81.2999 281.559 85.1854 287.37 89.5219L291.353 84.1854C285.262 79.6397 278.806 75.5697 272.059 72.0115L268.953 77.9012ZM248.992 127.532C263.348 120.392 271.181 102.045 273.819 75.2829L267.192 74.6298C264.585 101.082 257.028 116.098 246.027 121.57L248.992 127.532ZM220.649 127.717C229.246 130.029 238.702 132.66 248.994 127.531L246.024 121.571C238.281 125.43 231.241 123.67 222.378 121.287L220.649 127.717ZM220.575 127.698L220.656 127.719L222.371 121.285L222.29 121.264L220.575 127.698ZM191.747 126.247C203.053 123.068 211.996 125.411 220.575 127.698L222.29 121.264C213.687 118.97 203.158 116.122 189.944 119.837L191.747 126.247ZM160.09 153.118C167.914 142.061 176.113 130.626 191.743 126.248L189.947 119.836C171.771 124.928 162.368 138.371 154.655 149.272L160.09 153.118ZM160.082 153.129L160.089 153.119L154.656 149.27L154.649 149.28L160.082 153.129ZM134.06 174.583C140.258 173.75 145.121 170.669 149.222 166.707C153.258 162.806 156.736 157.865 160.085 153.126L154.646 149.284C151.211 154.146 148.096 158.535 144.594 161.919C141.157 165.24 137.539 167.397 133.174 167.983L134.06 174.583ZM77.4783 127.15C87.6284 143.729 97.2571 156.055 106.488 163.998C115.716 171.938 124.929 175.81 134.061 174.583L133.174 167.983C126.673 168.857 119.309 166.245 110.831 158.95C102.356 151.658 93.151 139.997 83.1573 123.673L77.4783 127.15ZM64.7033 170.752C68.397 155.152 74.6665 140.468 83.1251 127.201L77.5105 123.622C68.6559 137.51 62.0912 152.884 58.2238 169.217L64.7033 170.752ZM124.636 188.72C108.013 192.733 87.6242 186.101 63.5068 167.356L59.4204 172.613C84.099 191.795 106.608 199.922 126.198 195.193L124.636 188.72ZM131.279 229.783C130.088 227.931 128.161 227.056 126.388 226.648C124.594 226.235 122.515 226.19 120.338 226.351C115.967 226.674 110.449 227.893 104.387 229.641C92.2139 233.151 77.1748 238.996 63.3216 245.012L65.9738 251.119C79.7144 245.153 94.4558 239.435 106.232 236.039C112.145 234.334 117.144 233.264 120.829 232.991C122.681 232.854 124.016 232.935 124.894 233.137C125.794 233.344 125.8 233.574 125.677 233.383L131.279 229.783ZM85.5252 288.418C97.1299 278.205 109.652 266.267 118.742 255.951C123.27 250.812 127.058 245.952 129.441 241.834C130.626 239.785 131.561 237.756 132.01 235.859C132.448 234.003 132.537 231.751 131.283 229.79L125.672 233.375C125.537 233.164 125.775 233.287 125.529 234.328C125.293 235.326 124.71 236.714 123.677 238.499C121.624 242.048 118.177 246.521 113.746 251.549C104.918 261.568 92.6273 273.297 81.126 283.419L85.5252 288.418ZM61.4789 249.087C65.9966 263.102 72.483 276.081 80.5863 287.811L86.0649 284.026C78.3239 272.821 72.1304 260.428 67.8165 247.044L61.4789 249.087ZM60.4366 228.651C94.716 216.639 124.571 208.796 146.635 205.615C157.69 204.022 166.613 203.626 173.092 204.383C179.848 205.172 182.789 207.069 183.707 208.831L189.611 205.752C187.024 200.79 180.893 198.59 173.865 197.769C166.56 196.915 156.987 197.395 145.685 199.025C123.036 202.289 92.7352 210.278 58.2345 222.367L60.4366 228.651ZM67.0323 244.54C65.1252 238.242 63.6493 231.706 62.6268 225.007L56.0443 226.011C57.1134 233.016 58.6584 239.861 60.6594 246.47L67.0323 244.54ZM133.545 228.337C132.233 226.286 130.187 225.123 128.045 224.503C125.925 223.889 123.481 223.732 120.929 223.844C115.821 224.068 109.549 225.405 102.941 227.294C89.6741 231.085 74.2752 237.327 62.5155 242.453L65.1762 248.557C76.8682 243.46 91.9405 237.363 104.77 233.696C111.21 231.856 116.892 230.686 121.221 230.496C123.387 230.401 125.032 230.562 126.193 230.899C127.333 231.229 127.76 231.65 127.936 231.925L133.545 228.337ZM87.086 290.669C96.0688 282.775 109.274 270.678 119.447 259.24C124.516 253.54 128.962 247.86 131.737 242.854C133.121 240.356 134.185 237.859 134.634 235.496C135.084 233.124 134.97 230.558 133.543 228.333L127.938 231.929C128.129 232.225 128.355 232.871 128.092 234.253C127.828 235.643 127.125 237.44 125.913 239.626C123.496 243.987 119.435 249.234 114.471 254.815C104.579 265.938 91.6232 277.817 82.6905 285.667L87.086 290.669ZM99.5555 300.652C95.2696 296.126 91.257 291.303 87.5879 286.219L82.1887 290.116C86.036 295.446 90.238 300.496 94.7204 305.23L99.5555 300.652ZM183.716 208.816C184.655 210.62 184.522 214.167 181.274 220.22C178.155 226.031 172.659 233.209 164.907 241.485C149.435 258.003 125.469 278.378 95.189 300.242L99.0869 305.641C129.552 283.644 153.891 262.986 169.767 246.037C177.689 237.579 183.628 229.915 187.141 223.368C190.525 217.062 192.222 210.736 189.622 205.741L183.716 208.816ZM189.293 209.328L189.303 209.315L184.035 205.242L184.025 205.255L189.293 209.328ZM165.303 279.017C171.551 273 179.701 270.18 189.149 269.084C198.651 267.983 209.103 268.659 219.764 269.36L220.201 262.716C209.677 262.024 198.596 261.286 188.382 262.47C178.113 263.66 168.361 266.827 160.684 274.221L165.303 279.017ZM160.369 274.57L160.359 274.582L165.627 278.655L165.637 278.643L160.369 274.57ZM154.655 330.67C151.432 305.386 155.437 288.51 165.312 279.005L160.694 274.208C148.503 285.942 144.742 305.563 148.05 331.512L154.655 330.67ZM155.952 339.073C155.439 336.195 155.002 333.384 154.655 330.669L148.05 331.514C148.413 334.35 148.867 337.27 149.396 340.241L155.952 339.073ZM96.6269 307.255C111.99 322.941 130.758 335.118 151.521 342.78L153.827 336.533C133.988 329.212 116.058 317.578 101.384 302.596L96.6269 307.255ZM186.1 207.599C187.627 210.529 187.125 215.303 183.167 222.401C179.324 229.293 172.742 237.418 164.132 246.279C146.947 263.967 122.246 284.021 97.0552 302.227L100.956 307.624C126.289 289.315 151.338 269.003 168.908 250.92C177.675 241.896 184.723 233.284 188.983 225.644C193.128 218.211 195.203 210.658 192.004 204.521L186.1 207.599ZM60.018 225.952C88.4783 216.033 118.463 207.412 142.417 203.505C154.418 201.548 164.707 200.808 172.459 201.594C180.446 202.403 184.591 204.699 186.098 207.596L192.006 204.523C188.829 198.416 181.502 195.817 173.13 194.969C164.525 194.097 153.569 194.94 141.345 196.934C116.847 200.929 86.4512 209.688 57.8265 219.665L60.018 225.952ZM55.5574 222.799C55.5927 223.003 55.6028 223.071 55.6079 223.124L62.2366 222.493C62.2039 222.15 62.149 221.839 62.1195 221.669L55.5574 222.799ZM55.4698 222.234C55.4986 222.46 55.5352 222.67 55.5574 222.798L62.1195 221.669C62.0935 221.517 62.0822 221.449 62.0746 221.39L55.4698 222.234ZM57.5769 172.199C54.132 188.224 53.2731 205.063 55.4698 222.234L62.0746 221.39C59.976 204.984 60.7966 188.904 64.0869 173.598L57.5769 172.199ZM125.271 191.338C108.053 195.517 87.2254 188.939 62.8576 170.256L58.8062 175.541C83.7868 194.693 106.715 202.694 126.842 197.808L125.271 191.338ZM147.361 177.382C140.988 183.59 135.523 188.861 125.275 191.337L126.838 197.809C139.002 194.871 145.594 188.398 152.007 182.152L147.361 177.382ZM147.385 177.358L147.361 177.382L152.008 182.151L152.032 182.127L147.385 177.358ZM174.831 159.002C161.092 164.016 153.948 170.963 147.385 177.358L152.032 182.127C158.454 175.87 164.761 169.766 177.114 165.258L174.831 159.002ZM225.616 158.595C211.771 155.42 195.223 151.58 174.834 159.001L177.112 165.259C195.501 158.565 210.322 161.919 224.127 165.085L225.616 158.595ZM225.659 158.605L225.616 158.595L224.127 165.085L224.17 165.095L225.659 158.605ZM225.697 158.614L225.659 158.605L224.169 165.095L224.207 165.104L225.697 158.614ZM258.324 159.041C248.142 163.665 237.927 161.426 225.698 158.614L224.206 165.103C236.041 167.825 248.523 170.805 261.077 165.103L258.324 159.041ZM288.591 88.4802C286.879 108.56 283.367 124.452 278.195 136.231C273.031 147.994 266.326 155.413 258.326 159.04L261.075 165.104C271.038 160.588 278.708 151.627 284.292 138.908C289.869 126.206 293.48 109.515 295.225 89.0459L288.591 88.4802ZM350.081 184.513C344.906 143.975 323.84 109.366 293.951 86.1344L289.865 91.3917C318.421 113.587 338.533 146.635 343.476 185.356L350.081 184.513ZM350.524 188.622C350.405 187.305 350.278 185.9 350.075 184.467L343.482 185.401C343.658 186.642 343.771 187.882 343.893 189.225L350.524 188.622ZM350.607 189.524C350.579 189.225 350.552 188.926 350.524 188.622L343.893 189.225C343.92 189.527 343.948 189.835 343.977 190.144L350.607 189.524ZM291.532 194.092C296.032 189.787 302.652 187.286 311.805 186.997C320.985 186.707 332.468 188.657 346.292 193.01L348.292 186.658C334.083 182.184 321.804 180.019 311.595 180.342C301.36 180.665 292.966 183.505 286.929 189.281L291.532 194.092ZM284.98 222.204C284.5 210.295 284.307 200.992 291.53 194.095L286.931 189.279C277.183 198.588 277.873 211.215 278.326 222.472L284.98 222.204ZM284.98 222.213L284.98 222.204L278.326 222.473L278.327 222.482L284.98 222.213ZM284.985 222.356L284.98 222.219L278.326 222.476L278.332 222.613L284.985 222.356ZM277.391 256.594C286.022 245.978 285.405 233.218 284.985 222.356L278.332 222.613C278.768 233.901 279.033 244.019 272.225 252.394L277.391 256.594ZM219.909 269.369C230.872 270.092 241.974 270.837 251.813 269.511C261.746 268.173 270.817 264.675 277.391 256.595L272.225 252.393C267.096 258.698 259.88 261.705 250.924 262.912C241.876 264.131 231.489 263.459 220.347 262.725L219.909 269.369ZM219.855 269.366L219.909 269.369L220.347 262.725L220.294 262.722L219.855 269.366ZM219.764 269.36L219.856 269.366L220.293 262.722L220.201 262.716L219.764 269.36Z" fill="black" mask="url(#path-2-inside-1_1220_1915)"/>
<mask id="path-4-outside-2_1220_1915" maskUnits="userSpaceOnUse" x="-11.4482" y="-11.1827" width="427.848" height="427.848" fill="black">
<rect fill="white" x="-11.4482" y="-11.1827" width="427.848" height="427.848"/>
<path fill-rule="evenodd" clip-rule="evenodd" d="M155.187 149.7C148.49 159.19 142.699 167.379 133.279 168.641C118.822 170.569 101.604 155.156 81.9757 122.931C89.8752 111.11 99.4676 100.437 110.471 91.3554C120.795 112.424 130.602 122.568 140.228 122.126C147.586 121.804 152.328 115.355 157.363 108.507L157.394 108.465L157.396 108.462C162.998 100.829 169.33 92.1992 180.472 90.0291C189.599 88.2529 196.651 91.7174 203.458 95.0621L203.485 95.075L203.579 95.1211C210.202 98.3713 216.443 101.433 223.631 98.8852C233.164 95.5102 239.545 83.9956 242.96 63.8438C251.621 66.3583 259.993 69.6094 267.967 73.6338C265.559 99.8862 258.325 116.204 246.315 122.187C238.2 126.223 230.801 124.248 222.242 121.964L222.203 121.954L222.198 121.953L222.198 121.953C213.273 119.574 203.122 116.868 190.126 120.505C172.29 125.484 163.203 138.349 155.187 149.7ZM284.309 222.097C283.889 211.18 283.493 200.879 291.08 193.617L291.092 193.627C301.035 184.105 319.994 183.836 347.525 192.716C347.866 197.141 347.969 201.563 347.898 205.951C330.194 199.086 317.62 198.629 310.451 204.692C304.95 209.323 304.792 215.765 304.593 223.915C304.44 230.48 304.232 238.644 301.117 248.262C290.574 280.791 257.57 296.795 256.177 297.459C238.677 305.78 223.285 304.725 210.92 303.869L210.87 303.865C199.009 303.063 189.622 302.427 182.96 309.906C178.067 315.407 176.3 323.566 177.704 334.536C178.194 338.277 179.061 342.409 180.279 346.812C171.825 345.479 163.562 343.433 155.594 340.694C150.021 310.712 153.085 289.848 164.852 278.536C177.914 265.958 199.199 267.359 219.791 268.714L219.886 268.72C241.729 270.18 264.297 271.66 276.876 256.193C285.273 245.876 284.797 233.862 284.315 222.244L284.309 222.097ZM140.122 119.443C146.203 119.162 150.406 113.467 155.239 106.879L155.273 106.833C161.158 98.834 167.815 89.7853 179.967 87.3973C189.949 85.4351 197.707 89.2473 204.571 92.6204L204.667 92.6674L204.702 92.6847C211.082 95.8204 216.577 98.5217 222.722 96.3614C231.23 93.3546 237.115 82.1968 240.32 63.1438C222.604 58.3909 203.671 56.9195 184.351 59.3911C157.126 62.8739 132.623 73.7049 112.597 89.6171C122.402 109.804 131.63 119.841 140.122 119.443ZM211.384 348.25C211.997 340.6 214.287 331.865 220.587 325.27L220.597 325.258C232.832 312.486 258.498 309.778 283.849 323.756C265.671 336.035 244.419 344.397 221.169 347.371C217.904 347.789 214.63 348.038 211.384 348.25ZM330.337 235.496C326.965 238.771 325.136 244.241 325.307 250.517C325.498 257.128 327.743 263.826 331.71 269.954C337.973 257.868 342.546 244.836 345.203 231.202C340.058 230.946 334.233 231.725 330.337 235.496ZM307.291 223.999C307.471 216.234 307.62 210.607 312.183 206.75L312.192 206.738C318.71 201.232 330.672 201.936 347.813 208.805C347.572 215.483 346.903 222.069 345.766 228.534C339.935 228.208 333.15 229.065 328.47 233.59C324.551 237.364 322.421 243.562 322.622 250.6C322.659 251.769 322.75 252.92 322.9 254.097C323.721 260.515 326.262 266.882 330.287 272.675C319.647 292.183 304.63 309.147 286.351 322.048C259.446 306.689 231.804 309.65 218.636 323.421C211.709 330.671 209.28 340.179 208.675 348.416C200.044 348.787 191.529 348.386 183.227 347.27C178.415 330.383 178.966 318.463 184.974 311.702C190.746 305.218 199.538 305.815 210.689 306.573L210.748 306.577L210.845 306.583C223.51 307.442 239.257 308.511 257.339 299.917L257.352 299.91C258.947 299.133 292.807 282.636 303.677 249.119C306.919 239.135 307.125 230.755 307.29 224.023L307.291 223.999ZM125.417 191.957C135.918 189.418 141.437 184.046 147.824 177.828L147.837 177.815C154.229 171.592 161.457 164.573 175.028 159.598C195.186 152.259 211.274 155.951 225.478 159.211L225.491 159.214L225.544 159.226C237.602 161.998 248.029 164.395 258.562 159.61C275.861 151.755 286.178 127.334 289.362 86.8536C283.41 82.4125 277.101 78.4348 270.506 74.9563C267.883 101.563 260.188 118.245 247.509 124.551C238.492 129.045 230.244 126.85 221.513 124.502L221.432 124.481C212.841 122.19 203.106 119.595 190.845 123.042C173.942 127.777 165.141 140.216 157.372 151.195L157.365 151.205C150.581 160.807 144.179 169.864 133.617 171.283C117.985 173.384 100.462 158.315 80.3178 125.411C71.6612 138.989 65.2441 154.018 61.4636 169.984C85.8616 188.948 107.311 196.327 125.417 191.957ZM64.6477 248.066C92.2416 236.083 124.209 224.94 128.478 231.583C132.951 238.583 106.432 265.584 83.3256 285.919C75.4035 274.451 69.0635 261.765 64.6477 248.066ZM186.659 207.291C179.646 193.845 128.116 201.408 59.3355 225.509C60.3813 232.361 61.8918 239.051 63.8459 245.505C87.2976 235.282 124.788 220.826 130.741 230.131C137.211 240.216 102.804 272.424 84.8883 288.168C88.6465 293.375 92.7538 298.311 97.138 302.941C157.883 259.081 193.746 220.875 186.669 207.279L186.659 207.291ZM219.982 266.038C198.797 264.646 176.919 263.208 162.993 276.619L163.003 276.606C151.97 287.226 148.087 305.474 151.353 331.091C151.708 333.867 152.153 336.733 152.674 339.657C132.373 332.165 114.024 320.259 99.0055 304.926C149.529 268.41 198.504 224.193 189.052 206.06C179.684 188.051 116.007 202.912 58.9222 222.808C58.9034 222.61 58.8708 222.421 58.8385 222.234C58.8144 222.094 58.7904 221.954 58.7722 221.812C56.6245 205.024 57.4643 188.564 60.8319 172.899C85.5061 191.816 107.384 199.106 126.056 194.573C137.262 191.866 143.291 185.994 149.684 179.767L149.709 179.743C156.201 173.417 162.927 166.891 175.973 162.13C195.362 155.073 211.047 158.67 224.871 161.84L224.914 161.85L224.952 161.859C236.984 164.626 248.333 167.235 259.701 162.072C277.663 153.928 288.451 129.312 291.908 88.7631C321.131 111.477 341.72 145.305 346.778 184.934C346.968 186.271 347.088 187.593 347.209 188.924C347.236 189.227 347.264 189.53 347.292 189.834C319.259 181.007 299.767 181.604 289.23 191.687C280.745 199.79 281.186 210.755 281.653 222.338L281.653 222.347L281.659 222.485C282.086 233.559 282.528 244.999 274.808 254.494C263.106 268.879 242.233 267.504 220.128 266.047L220.074 266.044L219.982 266.038Z"/>
</mask>
<path d="M133.279 168.641L134.16 175.241L134.163 175.24L133.279 168.641ZM155.187 149.7L149.748 145.859L149.747 145.861L155.187 149.7ZM81.9757 122.931L76.4393 119.232L74.078 122.766L76.2889 126.395L81.9757 122.931ZM110.471 91.3554L116.451 88.4255L112.739 80.8503L106.233 86.2199L110.471 91.3554ZM140.228 122.126L139.937 115.474L139.923 115.475L140.228 122.126ZM157.363 108.507L162.728 112.451L162.728 112.451L157.363 108.507ZM157.394 108.465L162.759 112.409L162.767 112.397L157.394 108.465ZM157.396 108.462L152.027 104.523L152.022 104.53L157.396 108.462ZM180.472 90.0291L179.2 83.4931L179.199 83.4933L180.472 90.0291ZM203.458 95.0621L200.522 101.038L200.525 101.04L203.458 95.0621ZM203.485 95.075L200.551 101.053L200.552 101.053L203.485 95.075ZM203.579 95.1211L206.512 89.1433L206.511 89.143L203.579 95.1211ZM223.631 98.8852L221.408 92.6083L221.406 92.6092L223.631 98.8852ZM242.96 63.8438L244.816 57.4491L237.642 55.3665L236.394 62.7314L242.96 63.8438ZM267.967 73.6338L274.598 74.2421L275.012 69.7304L270.967 67.6892L267.967 73.6338ZM246.315 122.187L249.28 128.149L249.285 128.147L246.315 122.187ZM222.242 121.964L220.524 128.398L220.525 128.398L222.242 121.964ZM222.203 121.954L223.921 115.521L223.914 115.519L223.907 115.517L222.203 121.954ZM222.198 121.953L220.373 128.356L220.434 128.374L220.495 128.39L222.198 121.953ZM222.198 121.953L224.024 115.549L223.968 115.533L223.913 115.519L222.198 121.953ZM190.126 120.505L191.917 126.919L191.921 126.918L190.126 120.505ZM291.08 193.617L295.153 188.349L290.617 184.843L286.476 188.807L291.08 193.617ZM284.309 222.097L290.963 221.841L290.963 221.841L284.309 222.097ZM291.092 193.627L287.02 198.895L291.556 202.402L295.698 198.436L291.092 193.627ZM347.525 192.716L354.165 192.205L353.822 187.75L349.57 186.379L347.525 192.716ZM347.898 205.951L345.491 212.159L354.402 215.614L354.556 206.058L347.898 205.951ZM310.451 204.692L314.739 209.786L314.745 209.782L314.751 209.777L310.451 204.692ZM304.593 223.915L297.937 223.753L297.937 223.76L304.593 223.915ZM301.117 248.262L307.452 250.315L307.452 250.313L301.117 248.262ZM256.177 297.459L259.036 303.472L259.04 303.47L256.177 297.459ZM210.92 303.869L211.38 297.226L211.369 297.225L210.92 303.869ZM210.87 303.865L210.42 310.509L210.421 310.509L210.87 303.865ZM182.96 309.906L177.988 305.477L177.985 305.48L182.96 309.906ZM177.704 334.536L171.099 335.381L171.1 335.391L171.102 335.401L177.704 334.536ZM180.279 346.812L179.241 353.39L189.452 355.001L186.696 345.037L180.279 346.812ZM155.594 340.694L149.048 341.911L149.757 345.729L153.43 346.991L155.594 340.694ZM164.852 278.536L169.467 283.337L169.471 283.333L164.852 278.536ZM219.791 268.714L219.354 275.358L219.355 275.358L219.791 268.714ZM219.886 268.72L220.331 262.076L220.323 262.075L219.886 268.72ZM276.876 256.193L271.712 251.99L271.71 251.992L276.876 256.193ZM284.315 222.244L277.661 222.5L277.661 222.51L277.662 222.52L284.315 222.244ZM155.239 106.879L149.876 102.933L149.871 102.94L155.239 106.879ZM140.122 119.443L139.815 112.792L139.811 112.792L140.122 119.443ZM155.273 106.833L160.637 110.779L160.637 110.779L155.273 106.833ZM179.967 87.3973L181.251 93.931L181.251 93.9309L179.967 87.3973ZM204.571 92.6204L201.635 98.5965L201.635 98.5967L204.571 92.6204ZM204.667 92.6674L201.731 98.6437L201.732 98.6444L204.667 92.6674ZM204.702 92.6847L207.64 86.7089L207.637 86.7078L204.702 92.6847ZM222.722 96.3614L224.93 102.643L224.94 102.64L222.722 96.3614ZM240.32 63.1438L246.887 64.2484L247.891 58.2806L242.046 56.7125L240.32 63.1438ZM184.351 59.3911L185.196 65.9959L185.196 65.9959L184.351 59.3911ZM112.597 89.6171L108.454 84.4037L104.275 87.7245L106.607 92.5263L112.597 89.6171ZM220.587 325.27L225.402 329.869L225.642 329.618L225.855 329.343L220.587 325.27ZM211.384 348.25L204.747 347.719L204.132 355.397L211.818 354.895L211.384 348.25ZM220.597 325.258L215.789 320.651L215.545 320.906L215.329 321.185L220.597 325.258ZM283.849 323.756L287.577 329.274L296.597 323.181L287.065 317.925L283.849 323.756ZM221.169 347.371L222.014 353.976L222.014 353.976L221.169 347.371ZM325.307 250.517L318.651 250.698L318.651 250.709L325.307 250.517ZM330.337 235.496L325.706 230.711L325.698 230.719L330.337 235.496ZM331.71 269.954L326.12 273.572L332.348 283.195L337.622 273.018L331.71 269.954ZM345.203 231.202L351.739 232.476L353.209 224.933L345.534 224.551L345.203 231.202ZM312.183 206.75L316.481 211.836L317.019 211.381L317.45 210.823L312.183 206.75ZM307.291 223.999L313.947 224.164L313.948 224.154L307.291 223.999ZM312.192 206.738L307.895 201.651L307.356 202.107L306.924 202.665L312.192 206.738ZM347.813 208.805L354.467 209.045L354.636 204.366L350.29 202.624L347.813 208.805ZM345.766 228.534L345.394 235.182L351.3 235.513L352.324 229.687L345.766 228.534ZM328.47 233.59L333.089 238.386L333.099 238.377L328.47 233.59ZM322.622 250.6L315.966 250.79L315.966 250.8L315.967 250.809L322.622 250.6ZM330.287 272.675L336.133 275.864L338.102 272.253L335.756 268.876L330.287 272.675ZM286.351 322.048L283.05 327.831L286.729 329.931L290.191 327.488L286.351 322.048ZM218.636 323.421L213.823 318.819L213.821 318.821L218.636 323.421ZM208.675 348.416L208.96 355.069L214.881 354.814L215.316 348.904L208.675 348.416ZM183.227 347.27L176.823 349.095L178.018 353.289L182.34 353.87L183.227 347.27ZM184.974 311.702L180.001 307.274L179.996 307.279L184.974 311.702ZM210.689 306.573L210.238 313.216L210.239 313.216L210.689 306.573ZM210.748 306.577L210.298 313.22L210.298 313.22L210.748 306.577ZM210.845 306.583L211.295 299.94L211.294 299.94L210.845 306.583ZM257.339 299.917L260.197 305.931L260.226 305.917L260.254 305.903L257.339 299.917ZM257.352 299.91L260.267 305.897L260.268 305.896L257.352 299.91ZM303.677 249.119L297.344 247.062L297.343 247.065L303.677 249.119ZM307.29 224.023L300.634 223.858L300.634 223.86L307.29 224.023ZM147.824 177.828L152.469 182.599L152.469 182.598L147.824 177.828ZM125.417 191.957L126.979 198.43L126.982 198.429L125.417 191.957ZM147.837 177.815L143.192 173.044L143.191 173.045L147.837 177.815ZM175.028 159.598L172.75 153.341L172.743 153.344L172.736 153.346L175.028 159.598ZM225.478 159.211L223.988 165.701L223.994 165.702L225.478 159.211ZM225.491 159.214L226.982 152.724L226.975 152.723L225.491 159.214ZM225.544 159.226L227.035 152.737L227.035 152.736L225.544 159.226ZM258.562 159.61L255.809 153.547L255.808 153.548L258.562 159.61ZM289.362 86.8536L296 87.3757L296.288 83.7139L293.344 81.5171L289.362 86.8536ZM270.506 74.9563L273.612 69.0666L264.851 64.4458L263.879 74.3032L270.506 74.9563ZM247.509 124.551L244.544 118.589L244.539 118.591L247.509 124.551ZM221.513 124.502L223.242 118.072L223.235 118.07L223.228 118.068L221.513 124.502ZM221.432 124.481L219.717 130.915L219.717 130.915L221.432 124.481ZM190.845 123.042L192.641 129.454L192.648 129.452L190.845 123.042ZM157.372 151.195L162.806 155.044L162.808 155.041L157.372 151.195ZM157.365 151.205L151.932 147.355L151.927 147.362L157.365 151.205ZM133.617 171.283L132.731 164.684L132.73 164.684L133.617 171.283ZM80.3178 125.411L85.9968 121.935L80.4324 112.846L74.7032 121.832L80.3178 125.411ZM61.4636 169.984L54.984 168.45L53.9979 172.615L57.3772 175.242L61.4636 169.984ZM128.478 231.583L134.089 227.997L134.084 227.99L134.079 227.983L128.478 231.583ZM64.6477 248.066L61.9954 241.958L56.458 244.362L58.3101 250.108L64.6477 248.066ZM83.3256 285.919L77.847 289.703L82.1033 295.865L87.7247 290.917L83.3256 285.919ZM59.3355 225.509L57.1335 219.225L51.9195 221.052L52.7531 226.514L59.3355 225.509ZM186.659 207.291L180.755 210.37L185.565 219.593L191.927 211.364L186.659 207.291ZM63.8459 245.505L57.4729 247.435L59.6428 254.601L66.5066 251.609L63.8459 245.505ZM130.741 230.131L125.132 233.719L125.136 233.727L130.741 230.131ZM84.8883 288.168L80.4928 283.166L75.9485 287.159L79.4891 292.065L84.8883 288.168ZM97.138 302.941L92.3028 307.52L96.3103 311.752L101.036 308.34L97.138 302.941ZM186.669 207.279L192.575 204.204L187.769 194.97L181.401 203.206L186.669 207.279ZM162.993 276.619L157.725 272.546L167.612 281.415L162.993 276.619ZM219.982 266.038L219.546 272.682L219.546 272.682L219.982 266.038ZM163.003 276.606L168.271 280.679L158.385 271.809L163.003 276.606ZM151.353 331.091L144.747 331.933L144.748 331.936L151.353 331.091ZM152.674 339.657L150.369 345.904L161.266 349.925L159.23 338.489L152.674 339.657ZM99.0055 304.926L95.105 299.529L88.8365 304.059L94.2484 309.585L99.0055 304.926ZM189.052 206.06L183.145 209.133L183.147 209.138L189.052 206.06ZM58.9222 222.808L52.2936 223.44L53.0986 231.89L61.1138 229.096L58.9222 222.808ZM58.8385 222.234L52.2764 223.363L52.2764 223.363L58.8385 222.234ZM58.7722 221.812L65.3771 220.967L65.3771 220.967L58.7722 221.812ZM60.8319 172.899L64.8833 167.614L56.5333 161.212L54.322 171.499L60.8319 172.899ZM126.056 194.573L124.493 188.1L124.485 188.102L126.056 194.573ZM149.684 179.767L154.33 184.537L154.331 184.536L149.684 179.767ZM149.709 179.743L154.356 184.512L154.356 184.512L149.709 179.743ZM175.973 162.13L173.695 155.873L173.69 155.875L175.973 162.13ZM224.871 161.84L226.36 155.35L226.36 155.35L224.871 161.84ZM224.914 161.85L226.404 155.36L226.403 155.36L224.914 161.85ZM224.952 161.859L226.444 155.369L226.442 155.369L224.952 161.859ZM259.701 162.072L256.951 156.007L256.947 156.009L259.701 162.072ZM291.908 88.7631L295.994 83.5057L286.315 75.982L285.273 88.1974L291.908 88.7631ZM346.778 184.934L340.173 185.777L340.179 185.823L340.185 185.869L346.778 184.934ZM347.209 188.924L340.577 189.526L340.577 189.527L347.209 188.924ZM347.292 189.834L345.292 196.185L354.855 199.197L353.922 189.214L347.292 189.834ZM289.23 191.687L293.829 196.503L293.834 196.498L289.23 191.687ZM281.653 222.338L275 222.606L275 222.608L281.653 222.338ZM281.653 222.347L288.307 222.09L288.307 222.078L281.653 222.347ZM281.659 222.485L288.312 222.228L288.312 222.228L281.659 222.485ZM274.808 254.494L279.973 258.696L279.974 258.695L274.808 254.494ZM220.128 266.047L219.69 272.691L219.69 272.692L220.128 266.047ZM220.074 266.044L220.513 259.399L220.511 259.399L220.074 266.044ZM134.163 175.24C140.743 174.359 145.8 171.042 149.914 167.013C153.893 163.116 157.371 158.154 160.628 153.54L149.747 145.861C146.306 150.737 143.54 154.615 140.595 157.499C137.784 160.253 135.236 161.661 132.396 162.041L134.163 175.24ZM76.2889 126.395C86.2544 142.756 95.8653 155.295 105.134 163.562C114.311 171.749 124.121 176.58 134.16 175.241L132.399 162.04C127.981 162.63 121.952 160.719 113.999 153.624C106.137 146.612 97.3251 135.331 87.6625 119.468L76.2889 126.395ZM106.233 86.2199C94.72 95.7216 84.6927 106.88 76.4393 119.232L87.5121 126.631C95.0576 115.339 104.215 105.152 114.71 96.4909L106.233 86.2199ZM139.923 115.475C137.773 115.573 134.65 114.576 130.398 110.179C126.15 105.785 121.479 98.688 116.451 88.4255L104.492 94.2854C109.787 105.092 115.182 113.601 120.824 119.436C126.463 125.267 133.057 129.121 140.533 128.778L139.923 115.475ZM151.998 104.562C149.382 108.121 147.328 110.873 145.165 112.857C143.139 114.716 141.537 115.404 139.937 115.474L140.519 128.779C146.276 128.527 150.724 125.829 154.168 122.671C157.474 119.638 160.309 115.741 162.728 112.451L151.998 104.562ZM152.029 104.52L151.998 104.563L162.728 112.451L162.759 112.409L152.029 104.52ZM152.022 104.53L152.021 104.532L162.767 112.397L162.769 112.395L152.022 104.53ZM179.199 83.4933C165.132 86.2332 157.386 97.2202 152.027 104.523L162.764 112.402C168.609 104.437 173.529 98.1653 181.745 96.565L179.199 83.4933ZM206.395 89.0858C199.742 85.8169 190.787 81.2381 179.2 83.4931L181.744 96.5652C188.412 95.2677 193.56 97.6178 200.522 101.038L206.395 89.0858ZM206.418 89.0973L206.392 89.0843L200.525 101.04L200.551 101.053L206.418 89.0973ZM206.511 89.143L206.417 89.0969L200.552 101.053L200.646 101.099L206.511 89.143ZM221.406 92.6092C217.264 94.0776 213.607 92.625 206.512 89.1433L200.645 101.099C206.797 104.118 215.621 108.789 225.856 105.161L221.406 92.6092ZM236.394 62.7314C234.752 72.423 232.472 79.5273 229.761 84.4368C227.089 89.2753 224.219 91.6132 221.408 92.6083L225.853 105.162C232.575 102.782 237.663 97.6753 241.418 90.8748C245.135 84.1453 247.752 75.4163 249.525 64.9561L236.394 62.7314ZM270.967 67.6892C262.607 63.47 253.85 60.0717 244.816 57.4491L241.103 70.2384C249.392 72.6448 257.379 75.7489 264.967 79.5784L270.967 67.6892ZM249.285 128.147C257.072 124.268 262.794 117.272 266.825 108.22C270.838 99.206 273.356 87.7755 274.598 74.2421L261.336 73.0255C260.169 85.7445 257.866 95.5994 254.659 102.803C251.468 109.969 247.568 114.124 243.346 116.227L249.285 128.147ZM220.525 128.398C228.749 130.592 238.6 133.46 249.28 128.149L243.351 116.225C237.8 118.985 232.854 117.904 223.959 115.531L220.525 128.398ZM220.486 128.387L220.524 128.398L223.959 115.531L223.921 115.521L220.486 128.387ZM220.495 128.39L220.5 128.391L223.907 115.517L223.902 115.516L220.495 128.39ZM220.373 128.356L220.373 128.356L224.024 115.549L224.024 115.549L220.373 128.356ZM191.921 126.918C203.023 123.81 211.607 126.021 220.483 128.387L223.913 115.519C214.94 113.127 203.22 109.926 188.332 114.093L191.921 126.918ZM160.626 153.542C168.731 142.065 176.618 131.189 191.917 126.919L188.336 114.092C167.961 119.779 157.676 134.633 149.748 145.859L160.626 153.542ZM286.476 188.807C276.349 198.5 277.265 212.197 277.655 222.353L290.963 221.841C290.514 210.163 290.637 203.258 295.684 198.427L286.476 188.807ZM295.165 188.359L295.153 188.349L287.007 198.885L287.02 198.895L295.165 188.359ZM349.57 186.379C335.44 181.821 323.042 179.449 312.609 179.613C302.144 179.777 293.066 182.518 286.487 188.818L295.698 198.436C299.062 195.214 304.435 193.06 312.817 192.929C321.232 192.797 332.079 194.73 345.481 199.053L349.57 186.379ZM354.556 206.058C354.63 201.495 354.523 196.865 354.165 192.205L340.886 193.227C341.209 197.417 341.308 201.631 341.24 205.843L354.556 206.058ZM314.751 209.777C316.696 208.132 319.824 206.951 324.996 207.128C330.22 207.307 337.011 208.871 345.491 212.159L350.305 199.742C341.081 196.166 332.733 194.068 325.452 193.819C318.119 193.567 311.376 195.19 306.151 199.608L314.751 209.777ZM311.25 224.078C311.466 215.225 311.916 212.163 314.739 209.786L306.163 199.598C297.984 206.483 298.118 216.305 297.937 223.753L311.25 224.078ZM307.452 250.313C310.889 239.699 311.096 230.689 311.25 224.071L297.937 223.76C297.785 230.272 297.574 237.588 294.783 246.211L307.452 250.313ZM259.04 303.47C260.031 302.998 269.167 298.551 279.488 289.917C289.78 281.309 301.656 268.196 307.452 250.315L294.783 246.209C290.036 260.857 280.139 272.011 270.944 279.703C261.779 287.369 253.716 291.255 253.314 291.447L259.04 303.47ZM210.46 310.512C222.887 311.372 239.837 312.602 259.036 303.472L253.317 291.445C237.518 298.958 223.683 298.077 211.38 297.226L210.46 310.512ZM210.421 310.509L210.471 310.512L211.369 297.225L211.319 297.222L210.421 310.509ZM187.933 314.335C189.991 312.024 192.431 310.876 195.92 310.37C199.741 309.816 204.285 310.094 210.42 310.509L211.32 297.222C205.593 296.834 199.514 296.393 194.01 297.19C188.175 298.036 182.591 300.309 177.988 305.477L187.933 314.335ZM184.309 333.691C183.029 323.688 184.841 317.81 187.935 314.331L177.985 305.48C171.292 313.004 169.572 323.444 171.099 335.381L184.309 333.691ZM186.696 345.037C185.544 340.872 184.748 337.048 184.306 333.672L171.102 335.401C171.639 339.505 172.577 343.946 173.861 348.587L186.696 345.037ZM153.43 346.991C161.771 349.858 170.412 351.997 179.241 353.39L181.316 340.235C173.238 338.961 165.353 337.007 157.759 334.397L153.43 346.991ZM160.238 273.736C145.852 287.565 143.41 311.583 149.048 341.911L162.141 339.477C156.632 309.84 160.317 292.132 169.467 283.337L160.238 273.736ZM220.228 262.069C210.069 261.401 198.986 260.652 188.766 261.782C178.465 262.92 168.232 266.037 160.233 273.74L169.471 283.333C174.534 278.457 181.474 275.986 190.229 275.018C199.065 274.042 208.921 274.671 219.354 275.358L220.228 262.069ZM220.323 262.075L220.228 262.069L219.355 275.358L219.45 275.364L220.323 262.075ZM271.71 251.992C266.859 257.957 259.917 260.962 250.939 262.209C241.8 263.478 231.414 262.817 220.331 262.076L219.442 275.364C230.202 276.083 242.022 276.892 252.771 275.4C263.683 273.885 274.314 269.897 282.042 260.394L271.71 251.992ZM277.662 222.52C278.158 234.486 278.294 243.902 271.712 251.99L282.04 260.396C292.251 247.851 291.435 233.238 290.968 221.968L277.662 222.52ZM277.655 222.352L277.661 222.5L290.968 221.988L290.963 221.841L277.655 222.352ZM149.871 102.94C147.356 106.367 145.464 108.901 143.575 110.687C141.789 112.375 140.659 112.753 139.815 112.792L140.43 126.095C145.666 125.853 149.678 123.242 152.722 120.366C155.663 117.586 158.289 113.979 160.608 110.818L149.871 102.94ZM149.91 102.887L149.876 102.933L160.603 110.825L160.637 110.779L149.91 102.887ZM178.683 80.8636C163.648 83.8181 155.6 95.1522 149.91 102.887L160.637 110.779C166.716 102.516 171.982 95.7526 181.251 93.931L178.683 80.8636ZM207.508 86.6443C200.764 83.3303 191.116 78.4196 178.683 80.8636L181.251 93.9309C188.782 92.4506 194.65 95.1643 201.635 98.5965L207.508 86.6443ZM207.603 86.6911L207.508 86.6441L201.635 98.5967L201.731 98.6437L207.603 86.6911ZM207.637 86.7078L207.602 86.6905L201.732 98.6444L201.767 98.6617L207.637 86.7078ZM220.513 90.0797C217.454 91.1553 214.61 90.1353 207.64 86.7089L201.765 98.6606C207.553 101.505 215.701 105.888 224.93 102.643L220.513 90.0797ZM233.754 62.0392C232.213 71.2005 230.098 77.9816 227.624 82.6553C225.159 87.314 222.649 89.3249 220.503 90.0833L224.94 102.64C231.303 100.391 235.989 95.3197 239.395 88.8845C242.792 82.4644 245.223 74.1401 246.887 64.2484L233.754 62.0392ZM185.196 65.9959C203.637 63.6369 221.697 65.0416 238.595 69.5751L242.046 56.7125C223.511 51.7401 203.706 50.2021 183.506 52.7862L185.196 65.9959ZM116.739 94.8305C135.842 79.6521 159.211 69.3201 185.196 65.9959L183.506 52.7862C155.04 56.4278 129.405 67.7577 108.454 84.4037L116.739 94.8305ZM139.811 112.792C138.46 112.855 135.802 112.134 131.747 107.736C127.788 103.442 123.365 96.5466 118.586 86.708L106.607 92.5263C111.634 102.875 116.727 111.091 121.956 116.763C127.09 122.331 133.293 126.429 140.434 126.095L139.811 112.792ZM215.772 320.671C207.987 328.821 205.42 339.304 204.747 347.719L218.022 348.782C218.573 341.895 220.588 334.91 225.402 329.869L215.772 320.671ZM215.329 321.185L215.319 321.197L225.855 329.343L225.865 329.33L215.329 321.185ZM287.065 317.925C260.159 303.09 230.863 304.917 215.789 320.651L225.405 329.864C234.802 320.056 256.837 316.466 280.634 329.587L287.065 317.925ZM222.014 353.976C246.327 350.865 268.561 342.119 287.577 329.274L280.122 318.239C262.781 329.952 242.512 337.928 220.324 340.766L222.014 353.976ZM211.818 354.895C215.098 354.68 218.539 354.42 222.014 353.976L220.324 340.766C217.27 341.157 214.161 341.396 210.95 341.606L211.818 354.895ZM331.963 250.336C331.825 245.263 333.349 241.853 334.976 240.273L325.698 230.719C320.58 235.69 318.447 243.22 318.651 250.698L331.963 250.336ZM337.3 266.336C333.903 261.088 332.115 255.558 331.963 250.324L318.651 250.709C318.882 258.698 321.584 266.564 326.12 273.572L337.3 266.336ZM338.668 229.928C336.133 242.935 331.77 255.365 325.798 266.891L337.622 273.018C344.176 260.371 348.96 246.736 351.739 232.476L338.668 229.928ZM334.968 240.281C336.827 238.482 340.26 237.623 344.873 237.852L345.534 224.551C339.857 224.269 331.64 224.968 325.706 230.711L334.968 240.281ZM307.884 201.665C300.609 207.815 300.794 216.952 300.634 223.844L313.948 224.154C314.042 220.082 314.134 217.441 314.596 215.342C314.993 213.541 315.572 212.604 316.481 211.836L307.884 201.665ZM306.924 202.665L306.915 202.677L317.45 210.823L317.46 210.811L306.924 202.665ZM350.29 202.624C341.376 199.052 333.352 196.888 326.406 196.484C319.444 196.078 312.904 197.42 307.895 201.651L316.489 211.825C317.998 210.55 320.699 209.491 325.632 209.778C330.582 210.067 337.109 211.689 345.336 214.986L350.29 202.624ZM352.324 229.687C353.517 222.901 354.217 216.01 354.467 209.045L341.159 208.566C340.928 214.956 340.288 221.236 339.208 227.381L352.324 229.687ZM333.099 238.377C335.747 235.816 340.153 234.889 345.394 235.182L346.138 221.886C339.717 221.526 330.552 222.313 323.841 228.804L333.099 238.377ZM329.278 250.41C329.114 244.661 330.892 240.502 333.089 238.386L323.851 228.794C318.21 234.227 315.729 242.462 315.966 250.79L329.278 250.41ZM329.505 253.252C329.382 252.287 329.308 251.349 329.278 250.391L315.967 250.809C316.01 252.19 316.118 253.553 316.295 254.942L329.505 253.252ZM335.756 268.876C332.28 263.873 330.177 258.506 329.505 253.252L316.295 254.942C317.265 262.524 320.245 269.891 324.819 276.474L335.756 268.876ZM290.191 327.488C309.311 313.993 325.01 296.255 336.133 275.864L324.442 269.487C314.284 288.11 299.949 304.3 282.511 316.608L290.191 327.488ZM223.448 328.022C233.782 317.216 257.77 313.4 283.05 327.831L289.652 316.265C261.122 299.978 229.826 302.084 213.823 318.819L223.448 328.022ZM215.316 348.904C215.863 341.45 218.019 333.706 223.45 328.02L213.821 318.821C205.399 327.637 202.697 338.909 202.034 347.928L215.316 348.904ZM182.34 353.87C191.029 355.038 199.937 355.456 208.96 355.069L208.389 341.763C200.151 342.117 192.029 341.735 184.114 340.671L182.34 353.87ZM179.996 307.279C171.488 316.855 171.951 331.999 176.823 349.095L189.631 345.445C184.878 328.767 186.445 320.071 189.951 316.125L179.996 307.279ZM211.141 299.929C205.764 299.564 200.054 299.149 194.947 299.82C189.557 300.528 184.248 302.504 180.001 307.274L189.947 316.129C191.473 314.416 193.445 313.449 196.682 313.024C200.202 312.561 204.464 312.824 210.238 313.216L211.141 299.929ZM211.198 299.933L211.14 299.929L210.239 313.216L210.298 313.22L211.198 299.933ZM211.294 299.94L211.198 299.933L210.298 313.22L210.395 313.227L211.294 299.94ZM254.48 293.903C238.09 301.693 223.889 300.794 211.295 299.94L210.394 313.227C223.13 314.091 240.424 315.329 260.197 305.931L254.48 293.903ZM254.436 293.924L254.423 293.93L260.254 305.903L260.267 305.897L254.436 293.924ZM297.343 247.065C292.43 262.214 282.23 273.741 272.756 281.691C263.317 289.612 254.989 293.654 254.435 293.924L260.268 305.896C261.309 305.389 270.71 300.794 281.317 291.893C291.889 283.021 304.054 269.541 310.011 251.173L297.343 247.065ZM300.634 223.86C300.47 230.543 300.263 238.075 297.344 247.062L310.01 251.176C313.576 240.195 313.781 230.967 313.947 224.187L300.634 223.86ZM300.634 223.834L300.634 223.858L313.947 224.189L313.947 224.164L300.634 223.834ZM143.179 173.057C136.824 179.244 132.435 183.41 123.852 185.485L126.982 198.429C139.402 195.426 146.05 188.847 152.469 182.599L143.179 173.057ZM143.191 173.045L143.178 173.057L152.469 182.598L152.483 182.585L143.191 173.045ZM172.736 153.346C157.781 158.828 149.718 166.691 143.192 173.044L152.482 182.586C158.741 176.493 165.132 170.318 177.32 165.85L172.736 153.346ZM226.967 152.721C212.704 149.447 194.9 145.276 172.75 153.341L177.306 165.855C195.472 159.241 209.844 162.454 223.988 165.701L226.967 152.721ZM226.975 152.723L226.962 152.72L223.994 165.702L224.007 165.705L226.975 152.723ZM227.035 152.736L226.982 152.724L224 165.704L224.053 165.716L227.035 152.736ZM255.808 153.548C247.661 157.248 239.525 155.608 227.035 152.737L224.052 165.715C235.678 168.388 248.398 171.541 261.316 165.673L255.808 153.548ZM282.723 86.3316C281.161 106.199 277.876 121.638 273.123 132.872C268.377 144.087 262.427 150.542 255.809 153.547L261.315 165.673C271.996 160.823 279.854 151.14 285.388 138.061C290.914 125 294.379 107.989 296 87.3757L282.723 86.3316ZM267.399 80.8461C273.692 84.165 279.708 87.9583 285.379 92.1902L293.344 81.5171C287.113 76.8668 280.51 72.7046 273.612 69.0666L267.399 80.8461ZM250.474 130.513C266.507 122.539 274.479 102.526 277.132 75.6095L263.879 74.3032C261.287 100.601 253.869 113.951 244.544 118.589L250.474 130.513ZM219.784 130.932C228.248 133.208 238.913 136.275 250.479 130.51L244.539 118.591C238.071 121.815 232.239 120.491 223.242 118.072L219.784 130.932ZM219.717 130.915L219.798 130.936L223.228 118.068L223.147 118.046L219.717 130.915ZM192.648 129.452C203 126.542 211.15 128.631 219.717 130.915L223.147 118.047C214.532 115.75 203.211 112.649 189.043 116.632L192.648 129.452ZM162.808 155.041C170.687 143.906 178.284 133.476 192.641 129.454L189.05 116.63C169.6 122.078 159.595 136.526 151.937 147.349L162.808 155.041ZM162.799 155.054L162.806 155.044L151.939 147.346L151.932 147.355L162.799 155.054ZM134.504 177.883C141.617 176.927 147.103 173.384 151.535 169.101C155.839 164.942 159.499 159.725 162.804 155.047L151.927 147.362C148.448 152.287 145.515 156.4 142.281 159.524C139.175 162.525 136.179 164.22 132.731 164.684L134.504 177.883ZM74.6388 128.888C84.8671 145.595 94.7077 158.253 104.316 166.521C113.92 174.785 124.057 179.287 134.504 177.882L132.73 164.684C127.545 165.381 121.105 163.398 113.003 156.427C104.905 149.459 95.9123 138.131 85.9968 121.935L74.6388 128.888ZM67.9431 171.519C71.5498 156.286 77.6718 141.947 85.9324 128.991L74.7032 121.832C65.6505 136.03 58.9384 151.749 54.984 168.45L67.9431 171.519ZM123.855 185.484C108.715 189.138 89.3869 183.255 65.5499 164.727L57.3772 175.242C82.3363 194.642 105.906 203.516 126.979 198.43L123.855 185.484ZM134.079 227.983C132.232 225.109 129.345 223.912 127.135 223.403C124.883 222.885 122.432 222.857 120.093 223.03C115.379 223.379 109.601 224.672 103.465 226.442C91.093 230.009 75.905 235.918 61.9954 241.958L67.2999 254.173C80.9842 248.231 95.5767 242.576 107.155 239.238C112.992 237.554 117.732 236.559 121.075 236.311C122.764 236.187 123.727 236.285 124.148 236.381C124.611 236.488 123.656 236.396 122.876 235.183L134.079 227.983ZM87.7247 290.917C99.3813 280.659 112.019 268.616 121.24 258.152C125.817 252.958 129.775 247.904 132.322 243.501C133.584 241.32 134.695 238.971 135.25 236.625C135.785 234.361 136.036 231.045 134.089 227.997L122.867 235.168C122.038 233.87 122.439 232.93 122.289 233.562C122.16 234.111 121.752 235.179 120.796 236.831C118.907 240.096 115.63 244.375 111.248 249.348C102.551 259.218 90.376 270.844 78.9265 280.92L87.7247 290.917ZM58.3101 250.108C62.9296 264.44 69.5626 277.711 77.847 289.703L88.8042 282.134C81.2444 271.191 75.1973 259.09 70.9853 246.023L58.3101 250.108ZM61.5376 231.793C95.7064 219.82 125.338 212.049 147.11 208.91C158.042 207.335 166.64 206.981 172.706 207.69C179.325 208.463 180.671 210.209 180.755 210.37L192.563 204.212C189.141 197.651 181.416 195.299 174.251 194.462C166.533 193.56 156.635 194.082 145.21 195.729C122.269 199.036 91.7449 207.097 57.1335 219.225L61.5376 231.793ZM70.2188 243.575C68.3586 237.432 66.9172 231.051 65.918 224.504L52.7531 226.514C53.8455 233.671 55.4249 240.671 57.4729 247.435L70.2188 243.575ZM136.35 226.543C134.47 223.604 131.613 222.07 128.972 221.305C126.371 220.552 123.529 220.398 120.784 220.518C115.286 220.758 108.718 222.18 102.026 224.093C88.5408 227.946 72.9787 234.26 61.1851 239.401L66.5066 251.609C78.1648 246.527 93.0737 240.501 105.685 236.898C112.041 235.081 117.428 233.995 121.366 233.822C123.34 233.736 124.586 233.899 125.266 234.097C125.906 234.282 125.524 234.332 125.132 233.719L136.35 226.543ZM89.2838 293.169C98.2916 285.254 111.622 273.048 121.935 261.452C127.056 255.694 131.696 249.797 134.649 244.468C136.12 241.814 137.363 238.967 137.904 236.118C138.449 233.251 138.391 229.724 136.345 226.535L125.136 233.727C124.708 233.059 124.99 232.745 124.821 233.631C124.649 234.536 124.126 235.982 123.001 238.012C120.763 242.05 116.895 247.08 111.983 252.602C102.231 263.568 89.4003 275.338 80.4928 283.166L89.2838 293.169ZM101.973 298.363C97.7854 293.94 93.8676 289.231 90.2875 284.271L79.4891 292.065C83.4254 297.518 87.7222 302.682 92.3028 307.52L101.973 298.363ZM180.763 210.353C180.871 210.562 181.521 212.72 178.341 218.645C175.419 224.089 170.144 231.024 162.477 239.209C147.206 255.512 123.428 275.746 93.24 297.543L101.036 308.34C131.593 286.276 156.119 265.477 172.197 248.313C180.204 239.764 186.364 231.857 190.075 224.943C193.527 218.51 196.005 210.794 192.575 204.204L180.763 210.353ZM191.927 211.364L191.937 211.352L181.401 203.206L181.391 203.218L191.927 211.364ZM167.612 281.415C173.146 276.086 180.494 273.439 189.532 272.391C198.679 271.331 208.815 271.977 219.546 272.682L220.419 259.393C209.964 258.706 198.569 257.937 187.999 259.163C177.32 260.401 166.766 263.741 158.374 271.822L167.612 281.415ZM157.735 272.533L157.725 272.546L168.261 280.692L168.271 280.679L157.735 272.533ZM157.958 330.249C154.777 305.297 158.904 289.794 167.621 281.403L158.385 271.809C145.036 284.658 141.397 305.652 144.747 331.933L157.958 330.249ZM159.23 338.489C158.725 335.658 158.297 332.9 157.957 330.246L144.748 331.936C145.118 334.834 145.581 337.808 146.118 340.824L159.23 338.489ZM94.2484 309.585C109.956 325.623 129.143 338.071 150.369 345.904L154.979 333.41C135.603 326.259 118.091 314.896 103.762 300.266L94.2484 309.585ZM183.147 209.138C183.839 210.464 184.124 213.849 180.259 220.78C176.624 227.298 170.275 235.179 161.744 243.959C144.751 261.449 120.225 281.374 95.105 299.529L102.906 310.322C128.31 291.962 153.533 271.521 171.295 253.24C180.142 244.135 187.422 235.279 191.89 227.266C196.129 219.665 198.991 210.722 194.957 202.982L183.147 209.138ZM61.1138 229.096C89.4918 219.205 119.271 210.654 142.953 206.791C154.843 204.852 164.797 204.164 172.124 204.906C179.917 205.696 182.473 207.84 183.145 209.133L194.959 202.987C190.947 195.275 182.03 192.524 173.466 191.657C164.434 190.742 153.145 191.636 140.809 193.648C116.039 197.688 85.4377 206.515 56.7307 216.521L61.1138 229.096ZM52.2764 223.363C52.2849 223.413 52.2902 223.444 52.295 223.473C52.2994 223.499 52.3016 223.513 52.3026 223.519C52.3045 223.532 52.2993 223.5 52.2936 223.44L65.5509 222.177C65.5045 221.689 65.4271 221.257 65.4006 221.104L52.2764 223.363ZM52.1673 222.657C52.2068 222.965 52.2561 223.246 52.2764 223.363L65.4006 221.104C65.3943 221.067 65.3899 221.041 65.3857 221.017C65.3817 220.993 65.3791 220.977 65.3772 220.965C65.3733 220.941 65.3743 220.946 65.3771 220.967L52.1673 222.657ZM54.322 171.499C50.7998 187.884 49.9216 205.102 52.1673 222.657L65.3771 220.967C63.3274 204.945 64.1288 189.245 67.3419 174.298L54.322 171.499ZM124.485 188.102C108.721 191.929 88.9447 186.061 64.8833 167.614L56.7805 178.183C82.0675 197.57 106.046 206.283 127.627 201.044L124.485 188.102ZM145.038 174.997C138.684 181.185 133.783 185.856 124.493 188.1L127.62 201.045C140.742 197.875 147.898 190.802 154.33 184.537L145.038 174.997ZM145.062 174.974L145.037 174.998L154.331 184.536L154.356 184.512L145.062 174.974ZM173.69 155.875C159.258 161.142 151.695 168.51 145.061 174.974L154.356 184.512C160.707 178.323 166.596 172.64 178.256 168.385L173.69 155.875ZM226.36 155.35C212.496 152.17 195.084 148.088 173.695 155.873L178.25 168.387C195.64 162.057 209.598 165.169 223.383 168.33L226.36 155.35ZM226.403 155.36L226.36 155.35L223.382 168.33L223.425 168.34L226.403 155.36ZM226.442 155.369L226.404 155.36L223.424 168.34L223.462 168.349L226.442 155.369ZM256.947 156.009C247.952 160.095 238.87 158.227 226.444 155.369L223.46 168.348C235.098 171.024 248.713 174.376 262.454 168.135L256.947 156.009ZM285.273 88.1974C283.578 108.082 280.116 123.575 275.147 134.893C270.192 146.177 263.97 152.825 256.951 156.007L262.45 168.137C273.394 163.175 281.547 153.443 287.341 140.247C293.12 127.084 296.781 109.993 298.543 89.3287L285.273 88.1974ZM353.383 184.091C348.093 142.645 326.55 107.256 295.994 83.5057L287.822 94.0204C315.711 115.698 335.347 147.965 340.173 185.777L353.383 184.091ZM353.84 188.321C353.721 187.017 353.588 185.529 353.371 184L340.185 185.869C340.347 187.012 340.454 188.17 340.577 189.526L353.84 188.321ZM353.922 189.214C353.894 188.92 353.868 188.625 353.84 188.321L340.577 189.527C340.605 189.828 340.633 190.14 340.662 190.454L353.922 189.214ZM293.834 196.498C297.565 192.928 303.298 190.597 311.911 190.325C320.575 190.051 331.661 191.893 345.292 196.185L349.292 183.483C334.89 178.948 322.214 176.675 311.49 177.014C300.714 177.354 291.433 180.364 284.627 186.876L293.834 196.498ZM288.306 222.07C287.814 209.835 287.868 202.195 293.829 196.503L284.632 186.871C273.622 197.385 274.559 211.675 275 222.606L288.306 222.07ZM288.307 222.078L288.306 222.069L275 222.608L275 222.617L288.307 222.078ZM288.312 222.228L288.307 222.09L275 222.604L275.005 222.742L288.312 222.228ZM279.974 258.695C289.517 246.958 288.724 232.877 288.312 222.228L275.005 222.742C275.449 234.242 275.539 243.04 269.641 250.293L279.974 258.695ZM219.69 272.692C230.564 273.408 242.022 274.189 252.258 272.811C262.679 271.407 272.678 267.664 279.973 258.696L269.642 250.292C265.236 255.709 258.947 258.472 250.48 259.612C241.827 260.778 231.797 260.143 220.566 259.403L219.69 272.692ZM219.636 272.688L219.69 272.691L220.566 259.403L220.513 259.399L219.636 272.688ZM219.546 272.682L219.638 272.688L220.511 259.399L220.419 259.393L219.546 272.682Z" fill="black" mask="url(#path-4-outside-2_1220_1915)"/>
</mask>
<g mask="url(#mask0_1220_1915)">
<rect x="58.2164" y="2.22098" width="345.386" height="345.386" rx="166.467" transform="rotate(9.292 58.2164 2.22098)" fill="white"/>
</g>
</g>
<defs>
<clipPath id="clip0_1220_1915">
<rect width="400" height="400" fill="white"/>
</clipPath>
</defs>
</svg>
