<svg width="62" height="62" viewBox="0 0 62 62" fill="none" xmlns="http://www.w3.org/2000/svg">
<g clip-path="url(#clip0_821_2033)">
<rect width="61.5989" height="61.6" rx="10" fill="#07071C"/>
<g opacity="0.08" filter="url(#filter0_f_821_2033)">
<g clip-path="url(#clip1_821_2033)">
<path d="M-35.5494 86.5084C-36.3494 83.198 -35.5804 80.1966 -34.6484 76.9209C-33.2774 72.0847 -29.7511 69.2069 -26.6713 65.881C-18.4612 57.0197 -10.1113 48.2859 -1.82745 39.4903C-1.13227 38.7525 -0.514763 37.9413 0.25032 37.0335C-3.7421 32.7883 -7.65684 28.6319 -11.5638 24.4716C-18.2515 17.3525 -25.0673 10.3453 -31.5764 3.06779C-35.2037 -0.980436 -36.6951 -5.87462 -35.697 -11.4293C-34.4542 -18.3747 -30.5822 -23.1221 -24.0809 -25.7333C-22.4614 -26.3823 -20.6555 -26.5754 -18.9389 -26.981C-18.0457 -26.9888 -17.1524 -26.9965 -16.2592 -27.0042C-13.5134 -26.1196 -10.488 -25.6947 -8.09569 -24.2346C-5.3111 -22.5388 -2.95759 -20.0627 -0.642921 -17.7026C3.53979 -13.4419 7.54774 -9.00736 11.6489 -4.66556C16.9346 0.931656 22.2397 6.51342 27.537 12.1029C27.8477 12.5703 28.0963 13.0957 28.4769 13.4935C32.2867 17.4606 36.2442 21.3003 39.9065 25.4026C42.2406 28.0138 43.763 31.1582 43.8834 34.7931C43.8912 36.2378 43.8989 37.6863 43.9067 39.131C43.8756 39.6255 43.8407 40.1199 43.8096 40.6182C43.7125 40.8925 43.6154 41.1629 43.5144 41.4371C42.3105 43.9402 41.4988 46.7523 39.8133 48.8769C36.7646 52.7088 33.1916 56.1313 29.8361 59.7237C29.0749 60.5387 28.3021 61.3422 27.537 62.1534C24.7951 65.008 22.0494 67.8588 19.3114 70.7172C14.8102 75.4144 10.2896 80.0923 5.82727 84.8242C2.76306 88.069 -0.227371 91.3833 -3.22557 94.686C-5.99463 97.7376 -9.26468 100.063 -13.3853 100.72C-16.1932 101.168 -19.071 101.987 -21.9526 100.847C-22.2905 100.716 -22.7915 100.99 -23.2148 101.079C-23.4517 100.843 -23.6848 100.604 -23.9217 100.368C-26.9859 98.6493 -30.2171 97.0655 -32.1395 93.983C-33.4638 91.8584 -34.427 89.506 -35.5533 87.2578C-35.5533 87.0106 -35.5533 86.7595 -35.5533 86.5123L-35.5494 86.5084Z" fill="#10B68F"/>
<path d="M43.8134 40.6186C43.8444 40.1241 43.8794 39.6297 43.9105 39.1314C43.9027 37.6867 43.8949 36.2381 43.8872 34.7935C43.7668 31.1585 42.2405 28.0142 39.9103 25.403C36.248 21.3045 32.2944 17.4649 28.4806 13.4939C28.1 13.096 27.8515 12.5707 27.5408 12.1033C30.5778 8.98599 33.6537 5.90347 36.648 2.74755C41.4482 -2.3166 46.1902 -7.43483 50.971 -12.5183C53.6934 -15.4115 56.4081 -18.3202 59.1966 -21.1517C64.4473 -26.4862 70.7971 -28.1781 77.9314 -26.0536C84.689 -24.0411 89.2252 -19.4868 90.5573 -12.5376C91.6835 -6.65068 90.5611 -1.00325 86.2852 3.58191C81.2481 8.98599 76.0828 14.2742 71.0185 19.6551C65.6085 25.4029 60.2568 31.201 54.7537 37.1111C57.0761 39.6027 59.3714 42.0903 61.6938 44.5548C69.9 53.2693 78.1878 61.9143 86.3085 70.706C94.5225 79.5982 91.9088 95.343 78.848 100.129C71.6515 102.767 63.725 100.539 58.4859 94.7366C54.3653 90.1746 50.0544 85.7787 45.8484 81.294C41.4676 76.62 37.1296 71.9074 32.7294 67.2527C31.0633 65.4912 29.2729 63.8457 27.5408 62.1499C28.3097 61.3387 29.0787 60.5352 29.8399 59.7202C33.1954 56.1278 36.7684 52.7092 39.8171 48.8734C41.5065 46.7489 42.3143 43.9367 43.5182 41.4336C43.6153 41.1594 43.7124 40.889 43.8134 40.6147V40.6186Z" fill="#006764"/>
</g>
</g>
<g clip-path="url(#clip2_821_2033)">
<path d="M14.1193 44.0505C13.9075 43.1741 14.1111 42.3795 14.3578 41.5123C14.7208 40.2319 15.6544 39.4701 16.4697 38.5896C18.6433 36.2436 20.8538 33.9314 23.0469 31.6028C23.2309 31.4075 23.3944 31.1928 23.597 30.9524C22.54 29.8285 21.5036 28.7282 20.4693 27.6268C18.6988 25.742 16.8943 23.887 15.1711 21.9603C14.2108 20.8885 13.816 19.5929 14.0802 18.1223C14.4092 16.2836 15.4343 15.0267 17.1555 14.3354C17.5842 14.1636 18.0623 14.1125 18.5168 14.0051C18.7533 14.0031 18.9897 14.001 19.2262 13.999C19.9531 14.2331 20.7541 14.3456 21.3874 14.7322C22.1246 15.1811 22.7477 15.8367 23.3605 16.4615C24.4678 17.5895 25.5289 18.7635 26.6147 19.9129C28.014 21.3948 29.4185 22.8725 30.8209 24.3523C30.9032 24.476 30.969 24.6151 31.0697 24.7204C32.0784 25.7707 33.1261 26.7872 34.0956 27.8732C34.7136 28.5645 35.1166 29.397 35.1485 30.3593C35.1505 30.7418 35.1526 31.1253 35.1546 31.5077C35.1464 31.6386 35.1372 31.7695 35.1289 31.9014C35.1032 31.9741 35.0775 32.0456 35.0508 32.1182C34.7321 32.7809 34.5172 33.5254 34.071 34.0879C33.2638 35.1023 32.3179 36.0084 31.4296 36.9595C31.2281 37.1752 31.0235 37.388 30.8209 37.6027C30.095 38.3585 29.3681 39.1132 28.6432 39.8699C27.4516 41.1135 26.2548 42.3519 25.0734 43.6046C24.2622 44.4637 23.4705 45.3411 22.6768 46.2155C21.9437 47.0234 21.078 47.639 19.9871 47.8128C19.2437 47.9315 18.4818 48.1483 17.7189 47.8466C17.6295 47.8118 17.4968 47.8844 17.3848 47.9079C17.3221 47.8456 17.2604 47.7822 17.1976 47.7198C16.3864 47.2647 15.531 46.8454 15.022 46.0293C14.6714 45.4669 14.4164 44.8441 14.1183 44.2489C14.1183 44.1835 14.1183 44.117 14.1183 44.0515L14.1193 44.0505Z" fill="#10B68F"/>
<path d="M35.1299 31.9015C35.1382 31.7706 35.1474 31.6397 35.1556 31.5077C35.1536 31.1253 35.1515 30.7418 35.1495 30.3593C35.1176 29.397 34.7135 28.5646 34.0966 27.8732C33.1271 26.7882 32.0804 25.7717 31.0707 24.7204C30.97 24.6151 30.9042 24.476 30.8219 24.3523C31.6259 23.527 32.4402 22.7109 33.233 21.8754C34.5038 20.5347 35.7592 19.1797 37.0249 17.8339C37.7456 17.0679 38.4643 16.2979 39.2025 15.5483C40.5926 14.136 42.2737 13.6881 44.1624 14.2505C45.9514 14.7833 47.1523 15.989 47.505 17.8288C47.8032 19.3873 47.506 20.8824 46.374 22.0963C45.0405 23.527 43.673 24.927 42.3323 26.3515C40.9 27.8732 39.4832 29.4082 38.0263 30.9729C38.6411 31.6325 39.2488 32.2911 39.8636 32.9435C42.0362 35.2506 44.2303 37.5393 46.3802 39.8669C48.5548 42.221 47.8628 46.3893 44.4051 47.6564C42.4999 48.3549 40.4014 47.7648 39.0144 46.2288C37.9235 45.021 36.7822 43.8572 35.6687 42.6699C34.5089 41.4325 33.3605 40.1849 32.1955 38.9526C31.7545 38.4863 31.2805 38.0506 30.8219 37.6017C31.0255 37.3869 31.2291 37.1742 31.4306 36.9585C32.3189 36.0074 33.2648 35.1023 34.0719 34.0869C34.5192 33.5244 34.7331 32.7799 35.0518 32.1172C35.0775 32.0446 35.1032 31.973 35.1299 31.9004V31.9015Z" fill="#006764"/>
</g>
</g>
<defs>
<filter id="filter0_f_821_2033" x="-46.6" y="-37.6" width="148.2" height="149.627" filterUnits="userSpaceOnUse" color-interpolation-filters="sRGB">
<feFlood flood-opacity="0" result="BackgroundImageFix"/>
<feBlend mode="normal" in="SourceGraphic" in2="BackgroundImageFix" result="shape"/>
<feGaussianBlur stdDeviation="5.3" result="effect1_foregroundBlur_821_2033"/>
</filter>
<clipPath id="clip0_821_2033">
<rect width="61.5989" height="61.6" rx="10" fill="white"/>
</clipPath>
<clipPath id="clip1_821_2033">
<rect width="127" height="128.427" fill="white" transform="translate(-36 -27)"/>
</clipPath>
<clipPath id="clip2_821_2033">
<rect width="33.6222" height="34" fill="white" transform="translate(14 14)"/>
</clipPath>
</defs>
</svg>
