<svg width="87" height="87" viewBox="0 0 87 87" fill="none" xmlns="http://www.w3.org/2000/svg">
<rect width="87" height="87" rx="16" fill="white"/>
<path fill-rule="evenodd" clip-rule="evenodd" d="M21.9375 30.5625H65.0625C66.2059 30.5614 67.3021 30.1066 68.1106 29.2981C68.9191 28.4896 69.3739 27.3934 69.375 26.25V17.625C69.3739 16.4816 68.9191 15.3854 68.1106 14.5769C67.3021 13.7684 66.2059 13.3136 65.0625 13.3125H21.9375C20.7941 13.3136 19.6979 13.7684 18.8894 14.5769C18.0809 15.3854 17.6261 16.4816 17.625 17.625V26.25C17.6261 27.3934 18.0809 28.4896 18.8894 29.2981C19.6979 30.1066 20.7941 30.5614 21.9375 30.5625ZM21.9375 26.25V17.625H65.0625V26.25H21.9375ZM30.5625 21.9375C30.5625 23.1284 29.5971 24.0938 28.4062 24.0938C27.2154 24.0938 26.25 23.1284 26.25 21.9375C26.25 20.7466 27.2154 19.7812 28.4062 19.7812C29.5971 19.7812 30.5625 20.7466 30.5625 21.9375ZM28.4062 45.6562C29.5971 45.6562 30.5625 44.6909 30.5625 43.5C30.5625 42.3091 29.5971 41.3438 28.4062 41.3438C27.2154 41.3438 26.25 42.3091 26.25 43.5C26.25 44.6909 27.2154 45.6562 28.4062 45.6562ZM21.9375 52.125H65.0625C66.2059 52.1239 67.3021 51.6691 68.1106 50.8606C68.9191 50.0521 69.3739 48.9559 69.375 47.8125V39.1875C69.3739 38.0441 68.9191 36.9479 68.1106 36.1394C67.3021 35.3309 66.2059 34.8761 65.0625 34.875H21.9375C20.7941 34.8761 19.6979 35.3309 18.8894 36.1394C18.0809 36.9479 17.6261 38.0441 17.625 39.1875V47.8125C17.6261 48.9559 18.0809 50.0521 18.8894 50.8606C19.6979 51.6691 20.7941 52.1239 21.9375 52.125ZM21.9375 47.8125V39.1875H65.0625V47.8125H21.9375ZM28.4062 67.2188C29.5971 67.2188 30.5625 66.2534 30.5625 65.0625C30.5625 63.8716 29.5971 62.9062 28.4062 62.9062C27.2154 62.9062 26.25 63.8716 26.25 65.0625C26.25 66.2534 27.2154 67.2188 28.4062 67.2188ZM21.9375 73.6875H65.0625C66.2059 73.6864 67.3021 73.2316 68.1106 72.4231C68.9191 71.6146 69.3739 70.5184 69.375 69.375V60.75C69.3739 59.6066 68.9191 58.5104 68.1106 57.7019C67.3021 56.8934 66.2059 56.4386 65.0625 56.4375H21.9375C20.7941 56.4386 19.6979 56.8934 18.8894 57.7019C18.0809 58.5104 17.6261 59.6066 17.625 60.75V69.375C17.6261 70.5184 18.0809 71.6146 18.8894 72.4231C19.6979 73.2316 20.7941 73.6864 21.9375 73.6875ZM21.9375 69.375V60.75H65.0625V69.375H21.9375Z" fill="#465AA8"/>
</svg>
