<svg width="24" height="20" viewBox="0 0 24 20" fill="none" xmlns="http://www.w3.org/2000/svg">
<path d="M9.52911 14.0008L19.2504 17.2849C19.4138 17.3403 19.5881 17.3606 19.7608 17.3442C19.9335 17.3278 20.1001 17.2752 20.2485 17.1902C20.3969 17.1051 20.5233 16.9899 20.6184 16.8528C20.7136 16.7157 20.7751 16.5603 20.7985 16.3978L22.7817 2.23928C22.9024 1.37725 21.9569 0.734221 21.1225 1.10924L2.27596 9.60558C1.34417 10.0256 1.41405 11.2956 2.3882 11.6227L4.9718 12.4907L6.38008 12.9577M13.2626 15.2608L11.1555 18.5869C10.4673 19.395 9.08121 18.938 9.08121 17.9039V15.2408C9.08125 14.7383 9.2816 14.2541 9.6424 13.8847L13.7412 9.68458" stroke="#4559A8" stroke-width="2" stroke-linecap="round" stroke-linejoin="round"/>
</svg>
