<svg width="19" height="20" viewBox="0 0 19 20" fill="none" xmlns="http://www.w3.org/2000/svg">
<path d="M14.7078 6.4C16.199 6.4 17.4078 5.19117 17.4078 3.7C17.4078 2.20883 16.199 1 14.7078 1C13.2166 1 12.0078 2.20883 12.0078 3.7C12.0078 5.19117 13.2166 6.4 14.7078 6.4Z" stroke="#4559A8" stroke-width="2"/>
<path d="M14.7078 19C16.199 19 17.4078 17.7912 17.4078 16.3C17.4078 14.8088 16.199 13.6 14.7078 13.6C13.2166 13.6 12.0078 14.8088 12.0078 16.3C12.0078 17.7912 13.2166 19 14.7078 19Z" stroke="#4559A8" stroke-width="2"/>
<path d="M3.90776 12.7C5.39893 12.7 6.60776 11.4912 6.60776 10C6.60776 8.50885 5.39893 7.30002 3.90776 7.30002C2.41659 7.30002 1.20776 8.50885 1.20776 10C1.20776 11.4912 2.41659 12.7 3.90776 12.7Z" stroke="#4559A8" stroke-width="2"/>
<path d="M12.375 5.06079L6.24243 8.63829M12.375 14.9392L6.24243 11.3617" stroke="#4559A8" stroke-width="2" stroke-linecap="round" stroke-linejoin="round"/>
</svg>
